<mxfile host="app.diagrams.net" modified="2020-08-13T15:57:52.790Z" agent="5.0 (Macintosh; Intel Mac OS X 10_15_4) AppleWebKit/537.36 (KHTML, like Gecko) Chrome/84.0.4147.89 Safari/537.36" etag="_5Wa7CjrX2KvsfMTH0Wb" version="13.6.2" type="github" pages="2">
  <diagram id="KSAwq1J1r7LERa4G_Y0X" name="My Answer">
    <mxGraphModel dx="360" dy="433" grid="1" gridSize="10" guides="1" tooltips="1" connect="1" arrows="1" fold="1" page="1" pageScale="1" pageWidth="1654" pageHeight="1169" math="0" shadow="0">
      <root>
        <mxCell id="0" />
        <mxCell id="1" parent="0" />
        <mxCell id="MJI4wgqsKCt187R520r4-1" value="Supplier" style="swimlane;html=1;horizontal=0;startSize=20;" vertex="1" parent="1">
          <mxGeometry x="10" y="210" width="1390" height="480" as="geometry" />
        </mxCell>
        <mxCell id="MJI4wgqsKCt187R520r4-20" style="edgeStyle=orthogonalEdgeStyle;rounded=0;orthogonalLoop=1;jettySize=auto;html=1;exitX=1;exitY=0.5;exitDx=0;exitDy=0;entryX=0;entryY=0.5;entryDx=0;entryDy=0;" edge="1" parent="MJI4wgqsKCt187R520r4-1" source="MJI4wgqsKCt187R520r4-3" target="MJI4wgqsKCt187R520r4-4">
          <mxGeometry relative="1" as="geometry" />
        </mxCell>
        <mxCell id="MJI4wgqsKCt187R520r4-3" value="Order Received" style="shape=mxgraph.bpmn.shape;html=1;verticalLabelPosition=bottom;labelBackgroundColor=#ffffff;verticalAlign=top;align=center;perimeter=ellipsePerimeter;outlineConnect=0;outline=standard;symbol=general;" vertex="1" parent="MJI4wgqsKCt187R520r4-1">
          <mxGeometry x="40" y="80" width="50" height="50" as="geometry" />
        </mxCell>
        <mxCell id="MJI4wgqsKCt187R520r4-4" value="Approve a purchase order" style="shape=ext;rounded=1;html=1;whiteSpace=wrap;" vertex="1" parent="MJI4wgqsKCt187R520r4-1">
          <mxGeometry x="140" y="65" width="120" height="80" as="geometry" />
        </mxCell>
        <mxCell id="MJI4wgqsKCt187R520r4-5" value="" style="startArrow=oval;startFill=0;startSize=7;endArrow=block;endFill=0;endSize=10;dashed=1;html=1;exitX=0.5;exitY=0;exitDx=0;exitDy=0;" edge="1" parent="MJI4wgqsKCt187R520r4-1" source="MJI4wgqsKCt187R520r4-4">
          <mxGeometry width="100" relative="1" as="geometry">
            <mxPoint x="190" y="60" as="sourcePoint" />
            <mxPoint x="200" y="-30" as="targetPoint" />
          </mxGeometry>
        </mxCell>
        <mxCell id="MJI4wgqsKCt187R520r4-12" style="edgeStyle=orthogonalEdgeStyle;rounded=0;orthogonalLoop=1;jettySize=auto;html=1;exitX=0.5;exitY=0;exitDx=0;exitDy=0;entryX=0;entryY=0.5;entryDx=0;entryDy=0;" edge="1" parent="MJI4wgqsKCt187R520r4-1" source="MJI4wgqsKCt187R520r4-6" target="MJI4wgqsKCt187R520r4-10">
          <mxGeometry relative="1" as="geometry" />
        </mxCell>
        <mxCell id="MJI4wgqsKCt187R520r4-19" style="edgeStyle=orthogonalEdgeStyle;rounded=0;orthogonalLoop=1;jettySize=auto;html=1;exitX=1;exitY=0.5;exitDx=0;exitDy=0;" edge="1" parent="MJI4wgqsKCt187R520r4-1" source="MJI4wgqsKCt187R520r4-6" target="MJI4wgqsKCt187R520r4-17">
          <mxGeometry relative="1" as="geometry" />
        </mxCell>
        <mxCell id="MJI4wgqsKCt187R520r4-60" style="edgeStyle=orthogonalEdgeStyle;rounded=0;orthogonalLoop=1;jettySize=auto;html=1;exitX=0.5;exitY=1;exitDx=0;exitDy=0;" edge="1" parent="MJI4wgqsKCt187R520r4-1" source="MJI4wgqsKCt187R520r4-6" target="MJI4wgqsKCt187R520r4-17">
          <mxGeometry relative="1" as="geometry">
            <Array as="points">
              <mxPoint x="335" y="215" />
            </Array>
          </mxGeometry>
        </mxCell>
        <mxCell id="MJI4wgqsKCt187R520r4-61" style="edgeStyle=orthogonalEdgeStyle;rounded=0;orthogonalLoop=1;jettySize=auto;html=1;exitX=0.75;exitY=0.75;exitDx=0;exitDy=0;exitPerimeter=0;entryX=0;entryY=0.5;entryDx=0;entryDy=0;" edge="1" parent="MJI4wgqsKCt187R520r4-1" source="MJI4wgqsKCt187R520r4-6" target="MJI4wgqsKCt187R520r4-13">
          <mxGeometry relative="1" as="geometry" />
        </mxCell>
        <mxCell id="MJI4wgqsKCt187R520r4-62" style="edgeStyle=orthogonalEdgeStyle;rounded=0;orthogonalLoop=1;jettySize=auto;html=1;exitX=0.25;exitY=0.75;exitDx=0;exitDy=0;exitPerimeter=0;entryX=0;entryY=0.5;entryDx=0;entryDy=0;" edge="1" parent="MJI4wgqsKCt187R520r4-1" source="MJI4wgqsKCt187R520r4-6" target="MJI4wgqsKCt187R520r4-27">
          <mxGeometry relative="1" as="geometry" />
        </mxCell>
        <mxCell id="MJI4wgqsKCt187R520r4-6" value="" style="shape=mxgraph.bpmn.shape;html=1;verticalLabelPosition=bottom;labelBackgroundColor=#ffffff;verticalAlign=top;align=center;perimeter=rhombusPerimeter;background=gateway;outlineConnect=0;outline=standard;symbol=multiple;" vertex="1" parent="MJI4wgqsKCt187R520r4-1">
          <mxGeometry x="310" y="80" width="50" height="50" as="geometry" />
        </mxCell>
        <mxCell id="MJI4wgqsKCt187R520r4-8" style="edgeStyle=orthogonalEdgeStyle;rounded=0;orthogonalLoop=1;jettySize=auto;html=1;exitX=1;exitY=0.5;exitDx=0;exitDy=0;entryX=0;entryY=0.5;entryDx=0;entryDy=0;" edge="1" parent="MJI4wgqsKCt187R520r4-1" source="MJI4wgqsKCt187R520r4-4" target="MJI4wgqsKCt187R520r4-6">
          <mxGeometry relative="1" as="geometry">
            <mxPoint x="300" y="105.57142857142867" as="targetPoint" />
          </mxGeometry>
        </mxCell>
        <mxCell id="MJI4wgqsKCt187R520r4-40" style="edgeStyle=orthogonalEdgeStyle;rounded=0;orthogonalLoop=1;jettySize=auto;html=1;exitX=1;exitY=0.5;exitDx=0;exitDy=0;entryX=-0.011;entryY=0.382;entryDx=0;entryDy=0;entryPerimeter=0;" edge="1" parent="MJI4wgqsKCt187R520r4-1" source="MJI4wgqsKCt187R520r4-10" target="MJI4wgqsKCt187R520r4-39">
          <mxGeometry relative="1" as="geometry" />
        </mxCell>
        <mxCell id="MJI4wgqsKCt187R520r4-10" value="Order confirmation within 48hours" style="shape=mxgraph.bpmn.shape;html=1;verticalLabelPosition=bottom;labelBackgroundColor=#ffffff;verticalAlign=top;align=center;perimeter=ellipsePerimeter;outlineConnect=0;outline=catching;symbol=message;" vertex="1" parent="MJI4wgqsKCt187R520r4-1">
          <mxGeometry x="400" y="15" width="50" height="50" as="geometry" />
        </mxCell>
        <mxCell id="MJI4wgqsKCt187R520r4-11" value="" style="startArrow=oval;startFill=0;startSize=7;endArrow=block;endFill=0;endSize=10;dashed=1;html=1;entryX=0.5;entryY=0;entryDx=0;entryDy=0;" edge="1" parent="MJI4wgqsKCt187R520r4-1" target="MJI4wgqsKCt187R520r4-10">
          <mxGeometry width="100" relative="1" as="geometry">
            <mxPoint x="425" y="-20" as="sourcePoint" />
            <mxPoint x="390" y="-30.000000000000114" as="targetPoint" />
          </mxGeometry>
        </mxCell>
        <mxCell id="MJI4wgqsKCt187R520r4-37" style="edgeStyle=orthogonalEdgeStyle;rounded=0;orthogonalLoop=1;jettySize=auto;html=1;exitX=1;exitY=0.5;exitDx=0;exitDy=0;entryX=0.5;entryY=1;entryDx=0;entryDy=0;" edge="1" parent="MJI4wgqsKCt187R520r4-1" source="MJI4wgqsKCt187R520r4-13" target="MJI4wgqsKCt187R520r4-35">
          <mxGeometry relative="1" as="geometry">
            <Array as="points">
              <mxPoint x="660" y="375" />
              <mxPoint x="660" y="370" />
            </Array>
          </mxGeometry>
        </mxCell>
        <mxCell id="MJI4wgqsKCt187R520r4-13" value="Order Cancellation" style="shape=mxgraph.bpmn.shape;html=1;verticalLabelPosition=bottom;labelBackgroundColor=#ffffff;verticalAlign=top;align=center;perimeter=ellipsePerimeter;outlineConnect=0;outline=catching;symbol=message;" vertex="1" parent="MJI4wgqsKCt187R520r4-1">
          <mxGeometry x="590" y="350" width="50" height="50" as="geometry" />
        </mxCell>
        <mxCell id="MJI4wgqsKCt187R520r4-46" style="edgeStyle=orthogonalEdgeStyle;rounded=0;orthogonalLoop=1;jettySize=auto;html=1;exitX=1;exitY=0.5;exitDx=0;exitDy=0;entryX=0;entryY=0.5;entryDx=0;entryDy=0;" edge="1" parent="MJI4wgqsKCt187R520r4-1" source="MJI4wgqsKCt187R520r4-17" target="MJI4wgqsKCt187R520r4-45">
          <mxGeometry relative="1" as="geometry" />
        </mxCell>
        <mxCell id="MJI4wgqsKCt187R520r4-17" value="Order Change" style="shape=mxgraph.bpmn.shape;html=1;verticalLabelPosition=bottom;labelBackgroundColor=#ffffff;verticalAlign=top;align=center;perimeter=ellipsePerimeter;outlineConnect=0;outline=catching;symbol=message;" vertex="1" parent="MJI4wgqsKCt187R520r4-1">
          <mxGeometry x="490" y="190" width="50" height="50" as="geometry" />
        </mxCell>
        <mxCell id="MJI4wgqsKCt187R520r4-18" value="" style="startArrow=oval;startFill=0;startSize=7;endArrow=block;endFill=0;endSize=10;dashed=1;html=1;" edge="1" parent="MJI4wgqsKCt187R520r4-1">
          <mxGeometry width="100" relative="1" as="geometry">
            <mxPoint x="514.29" y="-20.000000000000114" as="sourcePoint" />
            <mxPoint x="514" y="80" as="targetPoint" />
          </mxGeometry>
        </mxCell>
        <mxCell id="MJI4wgqsKCt187R520r4-58" style="edgeStyle=orthogonalEdgeStyle;rounded=0;orthogonalLoop=1;jettySize=auto;html=1;exitX=1;exitY=0.5;exitDx=0;exitDy=0;entryX=0;entryY=0.5;entryDx=0;entryDy=0;" edge="1" parent="MJI4wgqsKCt187R520r4-1" source="MJI4wgqsKCt187R520r4-29" target="MJI4wgqsKCt187R520r4-55">
          <mxGeometry relative="1" as="geometry" />
        </mxCell>
        <mxCell id="MJI4wgqsKCt187R520r4-29" value="Cancel Order" style="shape=ext;rounded=1;html=1;whiteSpace=wrap;" vertex="1" parent="MJI4wgqsKCt187R520r4-1">
          <mxGeometry x="757" y="335" width="120" height="80" as="geometry" />
        </mxCell>
        <mxCell id="MJI4wgqsKCt187R520r4-31" value="Order Cancelled" style="shape=mxgraph.bpmn.shape;html=1;verticalLabelPosition=bottom;labelBackgroundColor=#ffffff;verticalAlign=top;align=center;perimeter=ellipsePerimeter;outlineConnect=0;outline=end;symbol=general;" vertex="1" parent="MJI4wgqsKCt187R520r4-1">
          <mxGeometry x="1140" y="350" width="50" height="50" as="geometry" />
        </mxCell>
        <mxCell id="MJI4wgqsKCt187R520r4-15" value="" style="startArrow=oval;startFill=0;startSize=7;endArrow=block;endFill=0;endSize=10;dashed=1;html=1;entryX=0.5;entryY=0;entryDx=0;entryDy=0;" edge="1" parent="MJI4wgqsKCt187R520r4-1" target="MJI4wgqsKCt187R520r4-13">
          <mxGeometry width="100" relative="1" as="geometry">
            <mxPoint x="610" y="-20" as="sourcePoint" />
            <mxPoint x="490" y="-20" as="targetPoint" />
          </mxGeometry>
        </mxCell>
        <mxCell id="MJI4wgqsKCt187R520r4-38" style="edgeStyle=orthogonalEdgeStyle;rounded=0;orthogonalLoop=1;jettySize=auto;html=1;exitX=1;exitY=0.5;exitDx=0;exitDy=0;entryX=0.5;entryY=0;entryDx=0;entryDy=0;" edge="1" parent="MJI4wgqsKCt187R520r4-1" source="MJI4wgqsKCt187R520r4-27" target="MJI4wgqsKCt187R520r4-35">
          <mxGeometry relative="1" as="geometry" />
        </mxCell>
        <mxCell id="MJI4wgqsKCt187R520r4-27" value="After 48 hours" style="shape=mxgraph.bpmn.shape;html=1;verticalLabelPosition=bottom;labelBackgroundColor=#ffffff;verticalAlign=top;align=center;perimeter=ellipsePerimeter;outlineConnect=0;outline=boundInt;symbol=timer;" vertex="1" parent="MJI4wgqsKCt187R520r4-1">
          <mxGeometry x="430" y="300" width="50" height="50" as="geometry" />
        </mxCell>
        <mxCell id="MJI4wgqsKCt187R520r4-35" value="" style="shape=mxgraph.bpmn.shape;html=1;verticalLabelPosition=bottom;labelBackgroundColor=#ffffff;verticalAlign=top;align=center;perimeter=rhombusPerimeter;background=gateway;outlineConnect=0;outline=none;symbol=exclusiveGw;" vertex="1" parent="MJI4wgqsKCt187R520r4-1">
          <mxGeometry x="670" y="320" width="50" height="50" as="geometry" />
        </mxCell>
        <mxCell id="L2BX98icW7X2FP6_ezbS-2" style="edgeStyle=orthogonalEdgeStyle;rounded=0;orthogonalLoop=1;jettySize=auto;html=1;exitX=1;exitY=0.5;exitDx=0;exitDy=0;entryX=0;entryY=0.5;entryDx=0;entryDy=0;" edge="1" parent="MJI4wgqsKCt187R520r4-1" source="MJI4wgqsKCt187R520r4-39" target="L2BX98icW7X2FP6_ezbS-1">
          <mxGeometry relative="1" as="geometry" />
        </mxCell>
        <mxCell id="MJI4wgqsKCt187R520r4-39" value="Process Order" style="shape=ext;rounded=1;html=1;whiteSpace=wrap;" vertex="1" parent="MJI4wgqsKCt187R520r4-1">
          <mxGeometry x="710" y="15" width="120" height="80" as="geometry" />
        </mxCell>
        <mxCell id="MJI4wgqsKCt187R520r4-44" style="edgeStyle=orthogonalEdgeStyle;rounded=0;orthogonalLoop=1;jettySize=auto;html=1;exitX=1;exitY=0.5;exitDx=0;exitDy=0;entryX=0;entryY=0.5;entryDx=0;entryDy=0;" edge="1" parent="MJI4wgqsKCt187R520r4-1" source="MJI4wgqsKCt187R520r4-41" target="MJI4wgqsKCt187R520r4-43">
          <mxGeometry relative="1" as="geometry" />
        </mxCell>
        <mxCell id="MJI4wgqsKCt187R520r4-41" value="Update Order" style="shape=ext;rounded=1;html=1;whiteSpace=wrap;" vertex="1" parent="MJI4wgqsKCt187R520r4-1">
          <mxGeometry x="840" y="190" width="120" height="80" as="geometry" />
        </mxCell>
        <mxCell id="MJI4wgqsKCt187R520r4-54" style="edgeStyle=orthogonalEdgeStyle;rounded=0;orthogonalLoop=1;jettySize=auto;html=1;exitX=1;exitY=0.5;exitDx=0;exitDy=0;entryX=0;entryY=0.5;entryDx=0;entryDy=0;" edge="1" parent="MJI4wgqsKCt187R520r4-1" source="MJI4wgqsKCt187R520r4-43" target="MJI4wgqsKCt187R520r4-52">
          <mxGeometry relative="1" as="geometry" />
        </mxCell>
        <mxCell id="MJI4wgqsKCt187R520r4-43" value="Confirmation Letter" style="shape=mxgraph.bpmn.shape;html=1;verticalLabelPosition=bottom;labelBackgroundColor=#ffffff;verticalAlign=top;align=center;perimeter=ellipsePerimeter;outlineConnect=0;outline=throwing;symbol=message;" vertex="1" parent="MJI4wgqsKCt187R520r4-1">
          <mxGeometry x="1030" y="205" width="50" height="50" as="geometry" />
        </mxCell>
        <mxCell id="MJI4wgqsKCt187R520r4-47" style="edgeStyle=orthogonalEdgeStyle;rounded=0;orthogonalLoop=1;jettySize=auto;html=1;exitX=1;exitY=0.5;exitDx=0;exitDy=0;entryX=0.001;entryY=0.391;entryDx=0;entryDy=0;entryPerimeter=0;" edge="1" parent="MJI4wgqsKCt187R520r4-1" source="MJI4wgqsKCt187R520r4-45" target="MJI4wgqsKCt187R520r4-41">
          <mxGeometry relative="1" as="geometry" />
        </mxCell>
        <mxCell id="MJI4wgqsKCt187R520r4-50" style="edgeStyle=orthogonalEdgeStyle;rounded=0;orthogonalLoop=1;jettySize=auto;html=1;exitX=1;exitY=0;exitDx=0;exitDy=0;entryX=0;entryY=0.5;entryDx=0;entryDy=0;entryPerimeter=0;" edge="1" parent="MJI4wgqsKCt187R520r4-1" source="MJI4wgqsKCt187R520r4-45" target="MJI4wgqsKCt187R520r4-49">
          <mxGeometry relative="1" as="geometry" />
        </mxCell>
        <mxCell id="MJI4wgqsKCt187R520r4-45" value="Change Order" style="shape=ext;rounded=1;html=1;whiteSpace=wrap;" vertex="1" parent="MJI4wgqsKCt187R520r4-1">
          <mxGeometry x="660" y="175" width="120" height="80" as="geometry" />
        </mxCell>
        <mxCell id="MJI4wgqsKCt187R520r4-48" value="" style="shape=mxgraph.bpmn.loop;html=1;outlineConnect=0;" vertex="1" parent="MJI4wgqsKCt187R520r4-1">
          <mxGeometry x="713" y="241" width="14" height="14" as="geometry" />
        </mxCell>
        <mxCell id="MJI4wgqsKCt187R520r4-49" value="At most 3 times" style="html=1;shape=mxgraph.flowchart.annotation_2;align=left;labelPosition=right;" vertex="1" parent="MJI4wgqsKCt187R520r4-1">
          <mxGeometry x="940" y="80" width="50" height="100" as="geometry" />
        </mxCell>
        <mxCell id="MJI4wgqsKCt187R520r4-51" value="" style="startArrow=oval;startFill=0;startSize=7;endArrow=block;endFill=0;endSize=10;dashed=1;html=1;entryX=0.75;entryY=1;entryDx=0;entryDy=0;" edge="1" parent="MJI4wgqsKCt187R520r4-1" target="MJI4wgqsKCt187R520r4-2">
          <mxGeometry width="100" relative="1" as="geometry">
            <mxPoint x="1050" y="200" as="sourcePoint" />
            <mxPoint x="1030" y="-20" as="targetPoint" />
          </mxGeometry>
        </mxCell>
        <mxCell id="MJI4wgqsKCt187R520r4-52" value="Order Updated" style="shape=mxgraph.bpmn.shape;html=1;verticalLabelPosition=bottom;labelBackgroundColor=#ffffff;verticalAlign=top;align=center;perimeter=ellipsePerimeter;outlineConnect=0;outline=end;symbol=general;" vertex="1" parent="MJI4wgqsKCt187R520r4-1">
          <mxGeometry x="1150" y="205" width="50" height="50" as="geometry" />
        </mxCell>
        <mxCell id="MJI4wgqsKCt187R520r4-53" value="" style="shape=mxgraph.bpmn.loop;html=1;outlineConnect=0;" vertex="1" parent="MJI4wgqsKCt187R520r4-1">
          <mxGeometry x="893" y="256" width="14" height="14" as="geometry" />
        </mxCell>
        <mxCell id="MJI4wgqsKCt187R520r4-59" style="edgeStyle=orthogonalEdgeStyle;rounded=0;orthogonalLoop=1;jettySize=auto;html=1;exitX=1;exitY=0.5;exitDx=0;exitDy=0;entryX=0;entryY=0.5;entryDx=0;entryDy=0;" edge="1" parent="MJI4wgqsKCt187R520r4-1" source="MJI4wgqsKCt187R520r4-55" target="MJI4wgqsKCt187R520r4-31">
          <mxGeometry relative="1" as="geometry" />
        </mxCell>
        <mxCell id="MJI4wgqsKCt187R520r4-55" value="Customer Feedback Questionaire" style="shape=mxgraph.bpmn.shape;html=1;verticalLabelPosition=bottom;labelBackgroundColor=#ffffff;verticalAlign=top;align=center;perimeter=ellipsePerimeter;outlineConnect=0;outline=throwing;symbol=message;" vertex="1" parent="MJI4wgqsKCt187R520r4-1">
          <mxGeometry x="970" y="350" width="50" height="50" as="geometry" />
        </mxCell>
        <mxCell id="MJI4wgqsKCt187R520r4-57" value="" style="startArrow=oval;startFill=0;startSize=7;endArrow=block;endFill=0;endSize=10;dashed=1;html=1;" edge="1" parent="MJI4wgqsKCt187R520r4-1">
          <mxGeometry width="100" relative="1" as="geometry">
            <mxPoint x="998.75" y="340" as="sourcePoint" />
            <mxPoint x="980" y="-20" as="targetPoint" />
          </mxGeometry>
        </mxCell>
        <mxCell id="L2BX98icW7X2FP6_ezbS-1" value="Order Fufilled" style="shape=mxgraph.bpmn.shape;html=1;verticalLabelPosition=bottom;labelBackgroundColor=#ffffff;verticalAlign=top;align=center;perimeter=ellipsePerimeter;outlineConnect=0;outline=end;symbol=general;" vertex="1" parent="MJI4wgqsKCt187R520r4-1">
          <mxGeometry x="857" y="30" width="50" height="50" as="geometry" />
        </mxCell>
        <mxCell id="MJI4wgqsKCt187R520r4-2" value="Retailer" style="swimlane;html=1;horizontal=0;startSize=20;" vertex="1" parent="1">
          <mxGeometry x="10" width="1390" height="190" as="geometry" />
        </mxCell>
        <mxCell id="MJI4wgqsKCt187R520r4-36" style="edgeStyle=orthogonalEdgeStyle;rounded=0;orthogonalLoop=1;jettySize=auto;html=1;exitX=1;exitY=0.5;exitDx=0;exitDy=0;" edge="1" parent="1" source="MJI4wgqsKCt187R520r4-35">
          <mxGeometry relative="1" as="geometry">
            <mxPoint x="760" y="555.5714285714287" as="targetPoint" />
          </mxGeometry>
        </mxCell>
      </root>
    </mxGraphModel>
  </diagram>
  <diagram id="I648I0b7HPHWetHKW4zv" name="Official Answer">
    <mxGraphModel dx="2160" dy="2600" grid="1" gridSize="10" guides="1" tooltips="1" connect="1" arrows="1" fold="1" page="1" pageScale="1" pageWidth="1654" pageHeight="1169" math="0" shadow="0">
      <root>
        <mxCell id="1K6O2Dw35ABuIPh_bq5r-0" />
        <mxCell id="1K6O2Dw35ABuIPh_bq5r-1" parent="1K6O2Dw35ABuIPh_bq5r-0" />
        <mxCell id="F-kR2VKMnBLau7SI-DoU-0" value="" style="shape=image;verticalLabelPosition=bottom;labelBackgroundColor=#ffffff;verticalAlign=top;aspect=fixed;imageAspect=0;image=data:image/png,iVBORw0KGgoAAAANSUhEUgAABnIAAAQgCAYAAADSYcLRAAAgAElEQVR4AezdebQd1X0nev/x/ojTJsbpF3diE9uNXzvdJCEJr0lwE1Z7OU3zaJq408Q8TMzDhoBBBszQjDGDATGLGWzmGcSMZDEZBBIgATLzPAjEZIjBmNFgJu+3fpX+leoMV7r3qu7Vvfd8aq3SOadO1a5dn3N0T1V9a+/6WDEQIECAAAECBAgQIECAAAECBAgQIECAAAECBAhMSIGPRa3O/u6FRga+A74DvgO+A74DvgO+A74DvgO+A74DvgO+A74DvgO+A74DvgO+A74DvgO+A74DE+g7EBlOHeT87MGXSltjBEMGAgQIECBAgAABAgQIECBAgAABAgQIECBAgACB0Qlk1lIHOS888GJpa8zCR1c1SxEgQIAAAQIECBAgQIAAAQIECBAgQIAAAQIEBlsgsxZBzmB/D2w9AQIECBAgQIAAAQIECBAgQIAAAQIECBAgMAEFeoOc+14sL7Q0ZuETcLtViQABAgQIECBAgAABAgQIECBAgAABAgQIECAw4QUya6lb5Dx//89KW2MWPuEVVJAAAQIECBAgQIAAAQIECBAgQIAAAQIECBAgMAEFMmtZGuTc+7PyfEtjFj4Bt1uVCBAgQIAAAQIECBAgQIAAAQIECBAgQIAAAQITXiCzFkHOhP+oVJAAAQIECBAgQIAAAQIECBAgQIAAAQIECBAYNIGeIOe5e14obY1Z+KCh2l4CBAgQIECAAAECBAgQIECAAAECBAgQIECAQBsCmbXULXLaCnGinCy8jYoqgwABAgQIECBAgAABAgQIECBAgAABAgQIECAwaAKZtdRBzrP3vlDaGrPwQUO1vQQIECBAgAABAgQIECBAgAABAgQIECBAgACBNgQya1ka5Nz9Qnm2pTELb6OiyiBAgAABAgQIECBAgAABAgQIECBAgAABAgQIDJpAZi1Lg5x7ni/PtjRm4YOGansJECBAgAABAgQIECBAgAABAgQIECBAgAABAm0IZNZSBznP3PV8aWvMwtuoqDIIECBAgAABAgQIECBAgAABAgQIECBAgAABAoMmkFmLIGfQPnnbS4AAAQIECBAgQIAAAQIECBAgQIAAAQIECEx4gd4g56fPlWdaGrPwCa+gggQIECBAgAABAgQIECBAgAABAgQIECBAgACBCSiQWUvdImfJT58rbY1Z+ATcblUiQIAAAQIECBAgQIAAAQIECBAgQIAAAQIECEx4gcxaBDkT/qNSQQIECBAgQIAAAQIECBAgQIAAAQIECBAgQGDQBHqDnEXPliUtjVn4oKHaXgIECBAgQIAAAQIECBAgQIAAAQIECBAgQIBAGwKZtdQtcp5e9Gxpa8zC26ioMggQIECAAAECBAgQIECAAAECBAgQIECAAAECgyaQWcvSIOfOZ8vTLY1Z+KCh2l4CBAgQIECAAAECBAgQIECAAAECBAgQIECAQBsCmbU0gpxnytN3tjNm4W1UVBkECBAgQIAAAQIECBAgQIAAAQIECBAgQIAAgUETyKylDnKeuuOZ0taYhQ8aqu0lQIAAAQIECBAgQIAAAQIECBAgQIAAAQIECLQhkFmLIKcNTWUQIECAAAECBAgQIECAAAECBAgQIECAAAECBFoU6AlyFt++pLQ1ZuEt1ldRBAgQIECAAAECBAgQIECAAAECBAgQIECAAIGBEcispW6R01aIE+Vk4QOjaUMJECBAgAABAgQIECBAgAABAgQIECBAgAABAi0KZNYiyGkRVVEECBAgQIAAAQIECBAgQIAAAQIECBAgQIAAgTYEeoOchUvK4pbGLLyNiiqDAAECBAgQIECAAAECBAgQIECAAAECBAgQIDBoApm11C1ynlz4dGlrzMIHDdX2EiBAgAABAgQIECBAgAABAgQIECBAgAABAgTaEMispQ5yFi94urQ1ZuFtVFQZBAgQIECAAAECBAgQIECAAAECBAgQIECAAIFBE8ispQ5ynljwdGlrzMIHDdX2EiBAgAABAgQIECBAgAABAgQIECBAgAABAgTaEMispQ5ynrztqdLWmIW3UVFlECBAgAABAgQIECBAgAABAgQIECBAgAABAgQGTSCzFkHOoH3ytpcAAQIECBAgQIAAAQIECBAgQIAAAQIECBCY8AI9Qc7jtz1V2hqz8AmvoIIECBAgQIAAAQIECBAgQIAAAQIECBAgQIAAgQkokFlL3SLniVsXl7bGLHwCbrcqESBAgAABAgQIECBAgAABAgQIECBAgAABAgQmvEBmLYKcCf9RqSABAgQIECBAgAABAgQIECBAgAABAgQIECAwaAI9Qc7jtywubY1Z+KCh2l4CBAgQIECAAAECBAgQIECAAAECBAgQIECAQBsCmbXULXIev+XJ0taYhbdRUWUQIECAAAECBAgQIECAAAECBAgQIECAAAECBAZNILOWpUHO/CfL4y2NWfigodpeAgQIECBAgAABAgQIECBAgAABAgQIECBAgEAbApm11EHOY/OfLG2NWXgbFVUGAQIECBAgQIAAAQIECBAgQIAAAQIECBAgQGDQBDJrWRrkzHuiPNbSmIUPGqrtJUCAAAECBAgQIECAAAECBAgQIECAAAECBAi0IZBZSx3kPDrvidLWmIW3UVFlECBAgAABAgQIECBAgAABAgQIECBAgAABAgQGTSCzFkHOoH3ytpcAAQIECBAgQIAAAQIECBAgQIAAAQIECBCY8AK9Qc7NT5RHWxqz8AmvoIIECBAgQIAAAQIECBAgQIAAAQIECBAgQIAAgQkokFlL3SLnkZsfL22NWfgE3G5VIkCAAAECBAgQIECAAAECBAgQIECAAAECBAhMeIHMWpYGOTc9Xh5paczCJ7yCChIgQIAAAQIECBAgQIAAAQIECBAgQIAAAQIEJqBAZi2CnAn44agSAQIECBAgQIAAAQIECBAgQIAAAQIECBAgMNgCPUHOw3MfK22NWfhgE9t6AgQIECBAgAABAgQIECBAgAABAgQIECBAgMDoBDJrqVvktBXiRDlZ+OiqZikCBAgQIECAAAECBAgQIECAAAECBAgQIECAwGALZNYiyBns74GtJ0CAAAECBAgQIECAAAECBAgQIECAAAECBCagQE+Q89CNj5a2xix8Am63KhEgQIAAAQIECBAgQIAAAQIECBAgQIAAAQIEJrxAZi11i5y2QpwoJwuf8AoqSIAAAQIECBAgQIAAAQIECBAgQIAAAQIECBCYgAKZtSwNcm54tDzU0piFT8DtViUCBAgQIECAAAECBAgQIECAAAECBAgQIECAwIQXyKylDnIevOGR0taYhU94BRUkQIAAAQIECBAgQIAAAQIECBAgQIAAAQIECExAgcxalgY5P3mkPNjSmIVPwO1WJQIECBAgQIAAAQIECBAgQIAAAQIECBAgQIDAhBfIrEWQM+E/KhUkQIAAAQIECBAgQIAAAQIECBAgQIAAAQIEBk2gJ8h54PqHS1tjFj5oqLaXAAECBAgQIECAAAECBAgQIECAAAECBAgQINCGQGYtdYuctkKcKCcLb6OiyiBAgAABAgQIECBAgAABAgQIECBAgAABAgQIDJpAZi11kHP/9Q+XtsYsfNBQbS8BAgQIECBAgAABAgQIECBAgAABAgQIECBAoA2BzFqWBjnXPlzub2nMwtuoqDIIECBAgAABAgQIECBAgAABAgQIECBAgAABAoMmkFnL0iDnuofK/S2NWfigodpeAgQIECBAgAABAgQIECBAgAABAgQIECBAgEAbApm11EHOfdc8VNoas/A2KqoMAgQIECBAgAABAgQIECBAgAABAgQIECBAgMCgCWTWIsgZtE/e9hIgQIAAAQIECBAgQIAAAQIECBAgQIAAAQITXqA3yLn6wXJfS2MWPuEVVJAAAQIECBAgQIAAAQIECBAgQIAAAQIECBAgMAEFMmupW+Tce/WDpa0xC5+A261KBAgQIECAAAECBAgQIECAAAECBAgQIECAAIEJL5BZiyBnwn9UKkiAAAECBAgQIECAAAECBAgQIECAAAECBAgMmkBvkDPngXJvS2MWPmiotpcAAQIECBAgQIAAAQIECBAgQIAAAQIECBAg0IZAZi11i5x75jxQ2hqz8DYqqgwCBAgQIECAAAECBAgQIECAAAECBAgQIECAwKAJZNZSBzn3/viB0taYhQ8aqu0lQIAAAQIECBAgQIAAAQIECBAgQIAAAQIECLQhkFlLI8i5v9z743bGLLyNiiqDAAECBAgQIECAAAECBAgQIECAAAECBAgQIDBoApm11EHOPbPvL22NWfigodpeAgQIECBAgAABAgQIECBAgAABAgQIECBAgEAbApm1CHLa0FQGAQIECBAgQIAAAQIECBAgQIAAAQIECBAgQKBFgZ4g5+5Z95W2xiy8xfoqigABAgQIECBAgAABAgQIECBAgAABAgQIECAwMAKZtdQtctoKcaKcLHxgNG0oAQIECBAgQIAAAQIECBAgQIAAAQIECBAgQKBFgcxaBDktoiqKAAECBAgQIECAAAECBAgQIECAAAECBAgQINCGQE+Qc9dV95W2xiy8jYoqgwABAgQIECBAgAABAgQIECBAgAABAgQIECAwaAKZtdQtcu666t7S1piFDxqq7SVAgAABAgQIECBAgAABAgQIECBAgAABAgQItCGQWcvSIOfKe8tdLY1ZeBsVVQYBAgQIECBAgAABAgQIECBAgAABAgQIECBAYNAEMmupg5yfXnlvaWvMwgcN1fYSIECAAAECBAgQIECAAAECBAgQIECAAAECBNoQyKxlaZBzxT3lpy2NWXgbFVUGAQIECBAgQIAAAQIECBAgQIAAAQIECBAgQGDQBDJrEeQM2idvewkQIECAAAECBAgQIECAAAECBAgQIECAAIEJL9AT5Cy64p7S1piFT3gFFSRAgAABAgQIECBAgAABAgQIECBAgAABAgQITECBzFrqFjmLLr+7tDVm4RNwu1WJAAECBAgQIECAAAECBAgQIECAAAECBAgQIDDhBTJrEeRM+I9KBQkQIECAAAECBAgQIECAAAECBAgQIECAAIFBE+gJcu687O7S1piFDxqq7SVAgAABAgQIECBAgAABAgQIECBAgAABAgQItCGQWUvdIufOy+4qbY1ZeBsVVQYBAgQIECBAgAABAgQIECBAgAABAgQIECBAYNAEMmtZGuRcele5s6UxCx80VNtLgAABAgQIECBAgAABAgQIECBAgAABAgQIEGhDILOWOsi549K7SltjFt5GRZVBgAABAgQIECBAgAABAgQIECBAgAABAgQIEBg0gcxalgY5l/y03NHSmIUPGqrtJUCAAAECBAgQIECAAAECBAgQIECAAAECBAi0IZBZSx3k3H7JT0tbYxbeRkWVQYAAAQIECBAgQIAAAQIECBAgQIAAAQIECBAYNIHMWgQ5g/bJ214CBAgQIECAAAECBAgQIECAAAECBAgQIEBgwgv0BjkX/7Tc3tKYhU94BRUkQIAAAQIECBAgQIAAAQIECBAgQIAAAQIECExAgcxa6hY5Cy9eVPqN8y9YUGb98OpqXDDzzr7zdC+XhU/A7VYlAgQIECBAgAABAgQIECBAgAABAgQIECBAgMCEF8isZWmQM3NRWdhnvOjoS8rHPvax8ruf/FS5/oy5fefpXi4Ln/AKKkiAAAECBAgQIECAAAECBAgQIECAAAECBAgQmIACmbUsN8iZd95t5T98cY0qzPnhAacKcibgh6lKBAgQIECAAAECBAgQIECAAAECBAgQIECAwNQS6AlyFlx0Z+k33nbhHWW3b+1eBTm//fHfLtM236Ecssth9XjgTgeXM6af3bFsFj61yGwNAQIECBAgQIAAAQIECBAgQIAAAQIECBAgQGB8BDJrqVvk9AtxYtrcs+eVz/ybz1ZBTnSx1m/ccYvvCXLG53OzFgIECBAgQIAAAQIECBAgQIAAAQIECBAgQGAABIYd5Nx87q3li5/7v/oGOBnq7LnN3oKcAfjS2EQCBAgQIECAAAECBAgQIECAAAECBAgQIEBgfAR6gpzoQq2tMQsfn02xFgIECBAgQIAAAQIECBAgQIAAAQIECBAgQIDA1BLIrKXuWm15Ic7cs+eXGXscU7bZdLvy3X/Yscw777Zy+P86qsw799aeACgLn1pktoYAAQIECBAgQIAAAQIECBAgQIAAAQIECBAgMD4CmbUsDXIuuKPcNsQ4c8ZlZdVPfqruXm3dtf663Hz2reULn/23Zc0vrVnmnjW/Y9ksfHw2xVoIECBAgAABAgQIECBAgAABAgQIECBAgAABAlNLILOWOsi59YLbS7/xlvMXVGFN3g8nAp311/2v5aazb6mCnJi+x9Z7dSybhU8tMltDgAABAgQIECBAgAABAgQIECBAgAABAgQIEBgfgcxalgY5599ebu0zXnrMFVVLnM98+rPlmlN+Ug7Z5fDy5/9hrXLLeQvKyfudUr33n/583TL/3AX18ln4+GyKtRAgQIAAAQIECEwVgTfeeKPMnDmzXH755SMe58yZU+64447y0ksvTRWOUW/HnXfeWS666KLKMDxfffXVjrI++OCDMmvWrPr9W265peN9LwgQIECAAAECBAgQIEBg5Qtk1rLcIOf8I2ZWYc36X/6vVVBz4I7T6yAnulSL7tWiqzVBzsr/UNWAAAECBAgQIDDZBR599NG6O99sET6ax09/+tPljDPOKG+//fZkJxlV/bfccssOx4ULF3aUEy6rr756Pc96661XPvzww455vCBAgAABAgQIECBAgACBlSvQE+Tcct7C0m+8/NgrqwO8VVf5VLlkxmXlBzscVNb9i78u8865rez6rf9Vvfdfvvxfy/xzb6uXz8JX7iZaOwECBAgQIECAwGQTePLJJ+twYTQBTvcyEeg8//zz484QrYOOPPLIcsIJJ5QZM2aMe6C04447djj+9Kc/7TB49913y5prrlnPs9lmm5WPPvqoYx4vCBAgQIAAAQIECBAgQGDlCmTWUrfI6RfixLRoafOf1/5KfZCXB8cR7OTzY/c+oQ5xYpksfOVuorUTIECAAAECBAhMNoG2g5zYX42WJ7/85S/HlWKrrbaq95UjTBrv9U+bNq1efxgsL8jZeOONBTnj+g2xMgIECBAgQIAAAQIECCxfILOWOsiZH6HNEOPsk68p/371/9BxMJghznf/Yacy79wFHctm4cuvhjkIECBAgAABAgQILBXoF+Tcdddd5Wc/+1lZsmRJ3/GFF16opi9YsKDst99+ffdZ999//6UrGYdnzRYxKyPIOeaYY6oWNxtssEFZbbXVyhNPPNGx1d0tcgQ5HTxeECBAgAABAgQIECBAYEIIZNayNMg5Z2GZv5zxtB+cWfbYaq+yyxa7VY8zj7qs7zJZ+ITYUpUgQIAAAQIECBCYNALdQU6EEG+88caI6h+hRYQneeFRtsp58803R1TOisy8soOc5dVdkLM8Ie8TIECAAAECBAgQIEBg5Qtk1rI0yIlWNY3xJ6fNLdcPc7zhjJs7ls3CV/5mqgEBAgQIECBAgMBkEugOckbbmmXevHkdQU6EOffdd9+4UQhyxo3aiggQIECAAAECBAgQIDBlBTJrqYOceWcvKDlGgPOZT3+m5+C3eVVj8/kO39ipXjbKyMKnrJ4NI0CAAAECBAgQGBOBtoKcaMUT98Zp7rN23ydmqA348MMPy2OPPVYiDLrtttvKnXfeWaJe77zzzlCLdEz/zW9+U1bkHjnvvfdeeeqpp0p0FXfTTTdV46233lrVIVrStDGsSIucV199tSxatKhEne64445yzz33lJdeeqmNalWtr+JzCvdHHnmklTIVQoAAAQIECBAgQIAAgckqkFlL3yDnulNHFuRs/40dBDmT9Zug3gQIECBAgACBCSTQVpDTHVREoLO8IOeDDz4oF154YU+3bM0waI899iiPP/54X7Grr766IzhqLtd8PlTLoAhDDjvssOWWsffeew9Zh6zYcccdV9Zff/0S98iJQKuNe+REGc2AqrlN8XyttdYql156aYkgalnDrFmz6m2MrvOiy7sIv0499dR6epS33nrrlQjVDAQIECBAgAABAgQIEBhUgZ4gZ/5Zt5Ucbzp9fjnlgNPLaQecudzxR/udVmYeeWm9bJSRhQ8qru0mQIAAAQIECBAYncDKCnKef/75suaaa3YECd1BRfP1IYccUj766KOOjYwQoznPUM/7BUqnn376sJZtlnn00Ud3rL/5Ytq0aR3lda+zO+jaeOONe7anWd5I6hfd4T366KPNxTueN50iyHn55ZfLlltu2VHf2M7NNttsmXXqKNQLAgQIECBAgAABAgQITEGBzFrqFjk3n31baWvMwqegm00iQIAAAQIECBAYQ4G2gpzFixd3BAOrrLJKefrpp/vWPLrwagYkw30erXOiJUkO559//rDKWbhwYS5SPUbXZEOtc3nh0uzZszvKyhfNe/RE2aMNcmL7dt999yHrN1S9w7u7FVDWrRnkxPLRaqhfORtttJEWOYnmkQABAgQIECBAgACBgRTIrKVvkHP9aTeVv1pznfKn/+5PyxXHzS7/6S/WLX/5p3/Vd/zjL/5x2WebfTtCoCx8IGVtNAECBAgQIECAwKgF2ghyInzYfvvtO8KB6KYruk7rHn75y1/23EsnQoVo7fLcc8+Vt99+u2oxcsMNN5Q11lijo8yY7+yzz66LfOWVV6r76dx9991l7bXXrueNUOMnP/lJdS+ZuN9OdCWWQ9R1k002qeeNMmP+a665pr4nT3Qv9otf/KJccsklPd2+DdX9WFtBzsknn9xRt6hfbFvcv+e1116rfOJ+Qv26hIsu3ZrbmtucQU5sZ5QXY7TiyefRfduuu+5aonu4ZlCWy3skQIAAAQIECBAgQIDAoAhk1lIHOfPOvLXkeN0pN5TPf+YL5fd+9/fKpTOuKKuv9sX6wCoPsJqP39til3rZKCMLHxRM20mAAAECBAgQINCOQHeQE11v/epXvxp24REqbLrppj37rtddd13fMg488MCOeSNQeOCBB/rO2y8gynu8dC/QDFJinjfeeKN7lup1dOnW3K+OeWPaUMOSJUs6Qo+ob4RR3UNz/VH+aFrkxD17mnWL5/vvv/+QrWQiwOqevxl0ZR0zyIl5m2FO1LnftuRyHgkQIECAAAECBAgQIDBoApm11EHOTWfdWnK87tS55bvf2LF85/+dVmadcHXZcfPvlR0337ns9A+943abTiszdj+2XjbKyMIHDdX2EiBAgAABAgQIrJhAd5ATJ/vj/inf//73y9577913jDAmWnA0W3U0A4Wjjjqqb6WiBU33MnfddVffeXNihErd3Z11d5UW8zaDlKHClpgv7iXTrOuMGTNyVUM+Dqfs5jxR/miCnGOOOaajbptvvvly71nTDGlivf26R+ueJ+Yb6jMaEsEbBAgQIECAAAECBAgQGACBzFrqIOfmM24tbY1Z+AA42kQCBAgQIECAAIEWBfoFOc2gY6TPTz311CFr98Mf/rAjqIjwYzhDdxBxyCGH9CzWDFKWFeREq5e/+7u/K9tss03ZeOONy3333ddTVveE4ZTdnCfMRhrk9OtyLlo7LW949913O4Ku2PYXX3yxY7Fuv+iC7b333uuYxwsCBAgQIECAAAECBAgQKHWjmUaQc0u5+Yyhx5P2+WE5eKdDyxG7zegYd//WnmXnb+7asawgx1eMAAECBAgQIEBgNAJtBzm77bZbdR+XfnWZNm1aR5AznBAlyonuzZqBUr9WJ80gZVlBTr96LWtadF8W5eX6hyq7uf7RBDndn8Nmm2027PvV7LnnnnX9+q27O8jp1/3asgy8R4AAAQIECBAgQIAAgUERyKylDnJuOv2WMtQYQU0eLPZ7/N4/7NKxbBY+KJi2kwABAgQIECBAoB2B7gCh377nSKetu+665f333++o4AcffFC+8pWvdOzjnnjiidX9cSIsGWq85557yg033NCxXIQcH330UUf5zSBlqLClY4HGi7ifzuLFi8uCBQvKzJkzq27Htttuu7LOOut0rDcchiq7uf6Yb6QtcubNm9exrrh3T2z7UC45/f777y9bbLFFx7Ld6+4OcoYboDWIPCVAgAABAgQIECBAgMBACGTWstwg59of3Vg+/5kvdByMdR88/2DawYKcgfja2EgCBAgQIECAwNgKdAc5EVS8/PLLy11pBDMx36xZszparOR+64033thRRtzrZo011ljmPm4uu7zHNlrkRHjzox/9qEQ3Y8tbX/P9sQpyLr744hHVo1mn7ue33357h313kNMd9HTM7AUBAgQIECBAgAABAgQGWKAnyJl72vzSb7zgsH85iPvq2n9T5px4ffnzP/rz8t/+eqNy46nzyvSdDqsO8M448JyOZbPwAfa16QQIECBAgAABAqMQ6BfkxP1aRjI88sgjPSHEjBkzOorovpdLd/gwktf9wpRmi5h+7zcr0936ZUXXHWU31x/ldYcl3dsf9+dptirqDltGUqfuebvtu8vurlvTxnMCBAgQIECAAAECBAgMskBmLXWLnH4hTkw766DzqgPhb2z4D1VYE4+r/Zs/LNf9aG658dSby+qrfbEOdrKMLHyQgW07AQIECBAgQIDAyAXaCHJirQcccEBHmBNBxYcfflhXqDvIiPAhApdoXbPBBhuMaNx8881LtAhqDs0gZVlBzqJFizrq2R2CbLjhhmXvvfcucR+Zu+66q0RLouGU3ZwnyuwOS7q3fzhBzqabbjoil3Bca621yk033dSkKYKcDg4vCBAgQIAAAQIECBAgMKRAZi3LDXIuP2ZWWXWVT5WP/9Zvlxm7HVuiG7U4GNx/2kHllP3OqN5bZ80vlxtOublulZOFD7l2bxAgQIAAAQIECBDoI9BWkHPJJZd0BCTd97Hp7lptWWFLn2oud1IzSBmq7Ah/4v493eHNaaedVl588cUh1zFt2sy+PCEAACAASURBVLR6maHKbq5/NEHOBRdcUK8jlj/ppJOGrM9I3xDkjFTM/AQIECBAgAABAgQIDKpAZi11kHPjqfNLv/GGU+aV9b/8/1QHcl/+s/9UTtv/rI6Dujiw23SDb3Qsm4UPKq7tJkCAAAECBAgQGJ1AW0HOnXfe2bHP2t3i5De/+U3ZZJNNOubpbrUyui34l6WaQcpQYcvixYs71t8vcOlXh+GU3ZynX7nLa5HT3VKo269fvYY7TZAzXCnzESBAgAABAgQIECAw6AKZtTSCnHnVfW/i3jfd4+wTrimbbbh5+epf/peq5c32m363PuiM1jpn/uCcjmWy8EFHtv0ECBAgQIAAAQIjE2gryOkup18QsdVWW9X7tBF2nHjiicOq7KOPPtqxXL/WKs0gZaggp7uO0UVbBEzLGobbkqi5/tEEOd11G2obuusa9W+2GFpttdVK9z2OBDndal4TIECAAAECBAgQIECgv0BmLUuDnFPmlRuHGC8+8vJy5YzZHe/HtPMPmVnOm35hmXXMnI73svD+qzaVAAECBAgQIECAQH+B0QYI3aV1l9PdtVrMf+WVV3YEMquvvnp58803u4vqeb377rt3LHfRRRf1zNMMUiLMeOONN3rm6a7jnnvu2TNP94TuEGSogKW5/tEEOREYrbnmmh3bec4553RXp+f1008/3bFMmL711lsd83VvQ5stoTpW5AUBAgQIECBAgAABAgQmuUBmLXWQE12o9RvnnPiT8ge/95nyp/9uzfKTH93cMc/s46+r7pHznb/fvmN6Fj7JjVSfAAECBAgQIEBgnAW6w42hgorlVau7nH4tQ95+++2yxhprdAQPe+yxR/noo4+GLP7iiy/umH+VVVYpP/vZz3rmbwYpMc9zzz3XM093y57lBUkLFizoWHcENEP5NNc/miAnKtt9n5zYjkceeaRnO3JCtLxZe+21O+q4//7759v1oyCnpvCEAAECBAgQIECAAAECyxTIrGVpkBMhTWM8b/pF5U+++Cflr/50nfpg7D//318pX/mPX63HNf7tvxz47viNnTuWzcKXWQNvEiBAgAABAgQIEOgS6A5ghgoquhbredkdkgxVTndYEaHHpptu2hPOvPzyy2Wvvfaq94tjvhhPOOGEnnXHhGb3YjFfBCsR5rz44ovlgw8+qJZ56aWXesrbcMMNe9b91FNPlQhEcp3Nx9iuJUuW9NShjSCnX9AV646WTN1h1y233FKFSt11e+WVV3rqJsjpITGBAAECBAgQIECAAAECfQUyaxkyyDnzgHP6Hiw2D87y+Q6bfU+Q05fZRAIECBAgQIAAgZEItBXkRPASLVxyfzUeFy5c2FOVuKfLFlts0TFfLrPBBhuUXXbZpWy00UZ931933XXL+++/31NmTDjzzDP7LhNlL1q0qF7mwAMP7Dvf+uuvX775zW/2hCNZt+7HaC1z//331+W2EeREYVHX7nXF61jfzjvvXLbbbrsh63j99dfX9Wk+EeQ0NTwnQIAAAQIECBAgQIDA0AI9QU50m9YcZx5xednu76eVbTfZvjp4W/V3Vi07bb5L2fmbu3WMu39r7zLruGs7ls3Ch169dwgQIECAAAECBAj0CrQV5Lz77rs93aZF8NJ9v5aoQbSQ2WefffoGFv1CjJgWLWdef/313g3431O67xXTLKd5T5h+96Jpztv9/LTTTiv33ntv37o2y+1uEdR8L6rY7bPxxhuXDz/8sO/23H333X3X11235usrrriib1kxUZAzJI03CBAgQIAAAQIECBAg0CGQWUvdIucnP7yp9BuvP3lu+W9/vVH5//72233f77dMFt6xRi8IECBAgAABAgQILEegOwCJVjX9wpflFFN1/fW1r32tJ4DoDjSa5dx0001Dti5phhTR2mao0KNZXrRIaS6Xz7vrEGFOv27bcv54jO7eHnzwwar4aEU0ffr0nrKbLY4OOOCAjvcfeuihZtWqIGfNNdes59l66617uktrLhD3v9lpp53q+Zt1az7/+te/XhYvXtxctOd5dM3WXKbZkqhnZhMIECBAgAABAgQIECAwwAKZtSw3yMmgZs5x15bp3z2sfPtrW5Vt/+d25ZoTf1IOnDa9XHPCT3oCnix8gH1tOgECBAgQIECAwCQUiNY5EYiceOKJVSudgw46qBxxxBHloosuqrouG6ortaE29Z133inPPPNMiZZGcS+bX/ziF0PNWt1D5/zzz6/WF+uMOlx33XXVfXX6LfTwww+X2267rdxxxx3liSeeqO+902/etqbFPX4uueSScvDBB5ewicdTTjmlzJ07d8h6trVu5RAgQIAAAQIECBAgQGDQBDJrqYOc60++qQw1nvWD88qqn1i1vnJunTW/XOYcf3353B98vvzxF/+k/Pi4azuWzcIHDdX2EiBAgAABAgQIECBAgAABAgQIECBAgAABAgTaEMispRHkzC3RjVr3eN1JN1ZhTXZ/EIHOV9f+mzLn+OuqICemf+8fdu1YLgtvo6LKIECAAAECBAgQIECAAAECBAgQIECAAAECBAgMmkBmLUuDnJPmluv7jOcedEHVEucPfu8PyuVHXlUO2PbA8mdf+rNy3Yk3lmN2Pa567y//eJ1y7Qk31Mtn4YOGansJECBAgAABAgQIECBAgAABAgQIECBAgAABAm0IZNZSBznXnTS39BtP2++sKqz5yn/8m+r9f/rH/cqaX/qzcu2JN5bZx15bPvf7ny9/teaXyzUn3FAvn4W3UVFlECBAgAABAgQIECBAgAABAgQIECBAgAABAgQGTSCzlqVBzok3Vq1soqVNczzvoIuqICe6VDv7gPPLPt/et/zVn3y5XHP8T8p3N93pf4c8X61a5ORyWfigodpeAgQIECBAgAABAgQIECBAgAABAgQIECBAgEAbApm11EFOtLDpN0ZLm3X/Yr0qsMn75MRjBDv5+tAdj+xYNgtvo6LKIECAAAECBAgQIECAAAECBAgQIECAAAECBAgMmkBmLcsNciLcmXnY5eWPPv9HdXCTAU48bvs/t6+6VWuGQFn4oKHaXgIECBAgQIAAAQIECBAgQIAAAQIECBAgQIBAGwKZtSwNck64sVy7nPGEPU4uO39j1zLt6ztWj2cdcF7fZbLwNiqqDAIECBAgQIAAAQIECBAgQIAAAQIECBAgQIDAoAlk1lIHOdGFWvf44+OuKzN2Pa4cPO2wcvr+59Tvzz7m2nLJYVeUy464qpx5wLklulZrLpuFDxqq7SVAgAABAgQIECBAgAABAgQIECBAgAABAgQItCGQWcvSIOf4G8o1jfHCgy8pn/v9z3d0p7b93+9Q9t/moI5p0b1atNBpLpuFt1FRZRAgQIAAAQIECBAgQIAAAQIECBAgQIAAAQIEBk0gs5Yhg5z/vt7f9gQ2zXvjNJ//4//4jiBn0L5BtpcAAQIECBAgQIAAAQIECBAgQIAAAQIECBAYM4GeIOfq435ScrziyB/XrXG2/O9blcsOn1X23HKfOtj5i3+/Vtnn2/tWrXOmTzusnH/gzHrZKCMLH7PaK5gAAQIECBAgQIAAAQIECBAgQIAAAQIECBAgMIUFMmupW+RkiBOPVx01p3zhM6uXVT+xarn08KuqkGb20dfU07qDm+aygpwp/K2xaQQIECBAgAABAgQIECBAgAABAgQIECBAgMC4CAw7yLn40CuqIKcZ7uS07gAnX2fh47IlVkKAAAECBAgQIECAAAECBAgQIECAAAECBAgQmGICmbXULXLmHHt9yfHKI39cvvCZf1u1yLnksCur6bNmXN0zLefvfszCp5iZzSFAgAABAgQIECBAgAABAgQIECBAgAABAgQIjItAZi3LDHI+/lsfLwdtf2g5epfjyyHfPaIKdpZOO64cvctx5ajvHVNO3efMOgSKUCcLH5ctsRICBAgQIECAAAECBAgQIECAAAECBAgQIECAwBQTyKxlaZBzzPVlzv8erzziX1rkfOxjHyvDGbf+223rZaOMLHyKmdkcAgQIECBAgAABAgQIECBAgAABAgQIECBAgMC4CGTWUgc5Pz7mupLjZYdfVX7///yDYYU4EfRs9bfb1MtGGVn4uGyJlRAgQIAAAQIECBAgQIAAAQIECBAgQIAAAQIEpphAZi1Lg5yjrys/bozn/2BmufCgS5Y7nveDi8qlh17ZsWwWPsXMbA4BAgQIECBAgAABAgQIECBAgAABAgQIECBAYFwEMmsZMshphjojfZ6Fj8uWWAkBAgQIECBAgAABAgQIECBAgAABAgQIECBAYIoJZNZSBzmzZ1xb2hqz8ClmZnMIECBAgAABAgQIECBAgAABAgQIECBAgAABAuMikFmLIGdcuK2EAAECBAgQIECAAAECBAgQIECAAAECBAgQIDB8gZ4gZ9aMa0tbYxY+/OqYkwABAgQIECBAgAABAgQIECBAgAABAgQIECBAIAUya6lb5Mw68trS1piF58o8EiBAgAABAgQIECBAgAABAgQIECBAgAABAgQIDF8gs5alQc5R15RZLY1Z+PCrY04CBAgQIECAAAECBAgQIECAAAECBAgQIECAAIEUyKylDnKuOuKa0taYhefKPBIgQIAAAQIECBAgQIAAAQIECBAgQIAAAQIECAxfILMWQc7wzcxJgAABAgQIECBAgAABAgQIECBAgAABAgQIEBgXgZ4gZ9bhV5e2xix8XLbESggQIECAAAECBAgQIECAAAECBAgQIECAAAECU0wgs5a6Rc6Vh19d2hqz8ClmZnMIECBAgAABAgQIECBAgAABAgQIECBAgAABAuMikFmLIGdcuK2EAAECBAgQIECAAAECBAgQIECAAAECBAgQIDB8gZ4g56rD5pS2xix8+NUxJwECBAgQIECAAAECBAgQIECAAAECBAgQIECAQApk1lK3yLnisDmlrTELz5V5JECAAAECBAgQIECAAAECBAgQIECAAAECBAgQGL5AZi11kHPloXNKW2MWPvzqmJMAAQIECBAgQIAAAQIECBAgQIAAAQIECBAgQCAFMmtpBDk/Llce2s6YhefKPBIgQIAAAQIECBAgQIAAAQIECBAgQIAAAQIECAxfILOWOsi54pAfl7bGLHz41TEnAQIECBAgQIAAAQIECBAgQIAAAQIECBAgQIBACmTWIshJEY8ECBAgQIAAAQIECBAgQIAAAQIECBAgQIAAgQki0BPkXD59dmlrzMInyLaqBgECBAgQIECAAAECBAgQIECAAAECBAgQIEBgUglk1lK3yGkrxIlysvBJJaKyBAgQIECAAAECBAgQIECAAAECBAgQIECAAIEJIpBZiyBngnwgqkGAAAECBAgQIECAAAECBAgQIECAAAECBAgQSIGeIOeyg2eXtsYsPFfmkQABAgQIECBAgAABAgQIECBAgAABAgQIECBAYPgCmbXULXIuO3hWaWvMwodfHXMSIECAAAECBAgQIECAAAECBAgQIECAAAECBAikQGYtS4Ocg2aVy1oas/BcmUcCBAgQIECAAAECBAgQIECAAAECBAgQIECAAIHhC2TWUgc5lx40q7Q1ZuHDr445CRAgQIAAAQIECBAgQIAAAQIECBAgQIAAAQIEUiCzlqVBzoFXlUtbGrPwXJlHAgQIECBAgAABAgQIECBAgAABAgQIECBAgACB4Qtk1iLIGb6ZOQkQIECAAAECBAgQIECAAAECBAgQIECAAAEC4yLQE+RccuBVpa0xCx+XLbESAgQIECBAgAABAgQIECBAgAABAgQIECBAgMAUE8ispW6Rc8kPrixtjVn4FDOzOQQIECBAgAABAgQIECBAgAABAgQIECBAgACBcRHIrEWQMy7cVkKAAAECBAgQIECAAAECBAgQIECAAAECBAgQGL5AT5Bz8QFXlrbGLHz41TEnAQIECBAgQIAAAQIECBAgQIAAAQIECBAgQIBACmTWUrfIufiAK0pbYxaeK/NIgAABAgQIECBAgAABAgQIECBAgAABAgQIECAwfIHMWpYGOftfUS5uaczCh18dcxIgQIAAAQIECBAgQIAAAQIECBAgQIAAAQIECKRAZi11kDNz/ytKW2MWnivzSIAAAQIECBAgQIAAAQIECBAgQIAAAQIECBAgMHyBzFqWBjn7XV5mtjRm4cOvjjkJECBAgAABAgQIECBAgAABAgQIECBAgAABAgRSILOWOsi5aL/LS1tjFp4r80iAAAECBAgQIECAAAECBAgQIECAAAECBAgQIDB8gcxaBDnDNzMnAQIECBAgQIAAAQIECBAgQIAAAQIECBAgQGBcBHqDnH0vLxe1NGbh47IlVkKAAAECBAgQIECAAAECBAgQIECAAAECBAgQmGICmbXULXIu3Pey0taYhU8xM5tDgAABAgQIECBAgAABAgQIECBAgAABAgQIEBgXgcxalgY537+sXNjSmIWPy5ZYCQECBAgQIECAAAECBAgQIECAAAECBAgQIEBgiglk1iLImWIfrM0hQIAAAQIECBAgQIAAAQIECBAgQIAAAQIEJr9AT5BzwT9dWtoas/DJz2QLCBAgQIAAAQIECBAgQIAAAQIECBAgQIAAAQLjL5BZS90ip60QJ8rJwsd/s6yRAAECBAgQIECAAAECBAgQIECAAAECBAgQIDD5BTJrEeRM/s/SFhAgQIAAAQIECBAgQIAAAQIECBAgQIAAAQJTTKAnyDl/n0tKW2MWPsXMbA4BAgQIECBAgAABAgQIECBAgAABAgQIECBAYFwEMmupW+S0FeJEOVn4uGyJlRAgQIAAAQIECBAgQIAAAQIECBAgQIAAAQIEpphAZi1Lg5y9LinntzRm4VPMzOYQIECAAAECBAgQIECAAAECBAgQIECAAAECBMZFILOWOsg5b++LS1tjFj4uW2IlBAgQIECAAAECBAgQIECAAAECBAgQIECAAIEpJpBZy9IgZ8+Ly3ktjVn4FDOzOQQIECBAgAABAgQIECBAgAABAgQIECBAgACBcRHIrEWQMy7cVkKAAAECBAgQIECAAAECBAgQIECAAAECBAgQGL5AT5Bz7h4zS1tjFj786piTAAECBAgQIECAAAECBAgQIECAAAECBAgQIEAgBTJrqVvktBXiRDlZeK7MIwECBAgQIECAAAECBAgQIECAAAECBAgQIECAwPAFMmupg5xz9phZ2hqz8OFXx5wECBAgQIAAAQIECBAgQIAAAQIECBAgQIAAAQIpkFnL0iBn95nlnJbGLDxX5pEAAQIECBAgQIAAAQIECBAgQIAAAQIECBAgQGD4Apm1NIKci8o5u7czZuHDr445CRAgQIAAAQIECBAgQIAAAQIECBAgQIAAAQIEUiCzljrIOft/XVRaG797Ya7HIwECBAgQIECAAAECBAgQIECAAAECBAgQIECAwAgFBDkjBDM7AQIECBAgQIAAAQIECBAgQIAAAQIECBAgQGC8BHqDnN0uLGe3NWqRM16fo/UQIECAAAECBAgQIECAAAECBAgQIECAAAECU1CgJ8g5a7cLS1tjFj4F3WwSAQIECBAgQIAAAQIECBAgQIAAAQIECBAgQGDMBTJrqe+R01aIE+Vk4WO+FVZAgAABAgQIECBAgAABAgQIECBAgAABAgQIEJiCApm1LA1ydr2gnNXSmIVPQTebRIAAAQIECBAgQIAAAQIECBAgQIAAAQIECBAYc4HMWuog58xdLyhtjVn4mG+FFRAgQIAAAQIECBAgQIAAAQIECBAgQIAAAQIEpqBAZi11kHPWLheUtsYsfAq62SQCBAgQIECAAAECBAgQIECAAAECBAgQIECAwJgLZNbSCHLOL2ft0s6YhY/5VlgBAQIECBAgQIAAAQIECBAgQIAAAQIECBAgQGAKCmTWUgc5Z+58fmlrzMKnoJtNIkCAAAECBAgQIECAAAECBAgQIECAAAECBAiMuUBmLYKcMae2AgIECBAgQIAAAQIECBAgQIAAAQIECBAgQIDAyAR6gpwzvndeaWvMwkdWJXMTIECAAAECBAgQIECAAAECBAgQIECAAAECBAiEQGYtdYuctkKcKCcLR02AAAECBAgQIECAAAECBAgQIECAAAECBAgQIDBygcxaBDkjt7MEAQIECBAgQIAAAQIECBAgQIAAAQIECBAgQGBMBXqCnNN3Oq+0NWbhY7oFCidAgAABAgQIECBAgAABAgQIECBAgAABAgQITFGBzFrqFjmn73RuaWvMwqeonc0iQIAAAQIECBAgQIAAAQIECBAgQIAAAQIECIypQGYtS4OcHc8tp7c0ZuFjugUKJ0CAAAECBAgQIECAAAECBAgQIECAAAECBAhMUYHMWuog57Qdzy1tjVn4FLWzWQQIECBAgAABAgQIECBAgAABAgQIECBAgACBMRXIrGVpkLPDOeW0lsYsfEy3QOEECBAgQIAAAQIECBAgQIAAAQIECBAgQIAAgSkqkFmLIGeKfsA2iwABAgQIECBAgAABAgQIECBAgAABAgQIEJi8Aj1Bzqk7nFPaGrPwycuj5gQIECBAgAABAgQIECBAgAABAgQIECBAgACBlSeQWUvdIufU755d2hqz8JW3edZMgAABAgQIECBAgAABAgQIECBAgAABAgQIEJi8Apm1CHIm72eo5gQIECBAgAABAgQIECBAgAABAgQIECBAgMAUFegJck7Z/uzS1piFT1E7m0WAAAECBAgQIECAAAECBAgQIECAAAECBAgQGFOBzFrqFjmnTDurtDVm4WO6BQonQIAAAQIECBAgQIAAAQIECBAgQIAAAQIECExRgcxalgY5251VTmlpzMKnqJ3NIkCAAAECBAgQIECAAAECBAgQIECAAAECBAiMqUBmLXWQ86PtzyptjVn4mG6BwgkQIECAAAECBAgQIECAAAECBAgQIECAAAECU1Qgs5alQc53ziw/amnMwqeonc0iQIAAAQIECBAgQIAAAQIECBAgQIAAAQIECIypQGYtdZDzw++cWdoas/Ax3QKFEyBAgAABAgQIECBAgAABAgQIECBAgAABAgSmqEBmLYKcKfoB2ywCBAgQIECAAAECBAgQIECAAAECBAgQIEBg8gr0Bjnbnll+2NKYhU9eHjUnQIAAAQIECBAgQIAAAQIECBAgQIAAAQIECKw8gcxa6hY5J3/njNLWmIWvvM2zZgIECBAgQIAAAQIEJpPAr3/963LWWWeVAw44oHqM1wYCBAgQIECAAAECBAgMskBmLUuDnG3OKCe3NGbhgwxs2wkQIECAAIHJI+AE8ug/K3ajt7PkUoG5c+eWz372s2XTTTetgpx4jNcx3UCAAAECBAgQIECAAIFBFcisRZAzqN8A202AAAECBAhUAk4gj/6LwG70dpZcKhBhYIQ2l1566dKJpVSvY7qWOR0sXhAgQIAAAQIECBAgMEACPUHOSf94emlrzMIHyNOmEpgwAm+++Wb5xCc+UeLRQIAAAQLLFnACedk+y3qX3bJ0vDcSgehOLVrg9BtierxvIECAAAECBAgQIECAwCAKZNZSt8iJCUYGvgOT/zvwd3/59+X3P/WZ8j/W3sT/aX/XfAd8B3wHlvMd2PpvvlP+6v9ap69TTI/3/Tb2/21k19/F92XkLrHPMtR+y7LeYz1ya2bMfAd8B3wHBvM78MNtzii/9X/8VolH34HB/A743H3uvgOT+zsQAVYV5AxikmWbCUxFgbfeeqt88pOfLHPmzCmrrLJKeeONN6biZtomAgQItCYQN1WPsd+wrPf6zT9o05bls6z3Bs3J9i5fQIuc5RuZgwABAgQIrIhA7Jv90R/90ZD7vStStmUJECBAYHwEBDnj42wtBMZF4Ac/+EHZeuutq3Vtu+22Zb/99huX9VoJAQIEJquAE8ij/+TYjd7Okp0Cuunr9PCKAAECBAi0KRDdrv/O7/xOdcFnPOqGvU1dZREgQGD8BAQ542dtTQTGVODtt98uq666ann44Yer9Tz22GPVvXJef/31MV2vwgkQIDCZBZxAHv2nx270dpbsFZg7d2757Gc/W90rJ64ajnvjxOuYbiBAgAABAgRGLxC/q//4j/9YFRCP8dpAgAABApNPQJAz+T4zNSbQV+DAAw8sW221Vcd73/nOd8q+++7bMc0LAgQIEOgUcAK502Mkr9iNRMu8yxOIcDBaen3sYx+rHuO1gQABAgQIEBi9QLbGeeSRR6pC4lGrnNF7WpIAAQIrU0CQszL1rZtASwK/+tWvyqc+9any0EMPdZT4xBNPlH/1r/5Vee211zqme0GAAAECnQJOIHd6jOQVu5FomXc4AhHkGAgQIECAAIEVF2i2xsnStMpJCY8ECBCYXAKOkibX56W2BPoKHHTQQeXb3/523/e222678v3vf7/veyYSIECAQKeAE8idHiN5xW4kWuZdloDv0rJ0vEeAAAECBIYn0N0aJ5fSKiclPBIgQGByCQhyJtfnpbYEegTeeeed8ru/+7vlwQcf7HkvJjz55JPlt3/7t8svf/nLvu+bSIAAAQJLBZxAXmox0mfsRipmfgIECBAgQIDA2An0a42Ta9MqJyU8EiBAYPIICHImz2elpgT6Chx88MHlW9/6Vt/3cuL2229f/umf/ilfeiRAgAABAgQIECBAgAABAgSmqMBQrXFyc7XKSQmPBAgQmDwCgpzJ81mpKYEegXfffbf863/9r8sDDzzQ815zwuLFi8vHP/7x8uqrrzYne06AAAECBAgQIECAAAECBAhMMYFltcbJTdUqJyU8EiBAYHIICHImx+eklgT6CkyfPr184hOfKF/4wheq8fOf/3yJ8ZOf/GT53Oc+V41/+Id/WGKM+Xbfffe+5ZhIgAABAgQIEJgoArrpmyifhHoQIECAwGQUWF5rnNwmrXJSwiMBAgQmh4AgZ3J8TmpJYEiBp59+usS4ZMmSanzmmWdKnAB59tlnq/G5554rMT7//PPlrbfeGrIcbxAgQIBAQoOU9AAAIABJREFUqf5+chidgJPvo3OzVK+A71KviSkECBAgQGC4AtEaJy7kzAs983HVVVftmRbzxfwGAgQIEJj4AoKcif8ZqSEBAgQIECAwTgJOII8emt3o7SzZKeC71OnhFQECBAgQGKlAXODZPcbva/e0eG0gQIAAgckhIMiZHJ+TWhIgQIAAAQLjIOAE8uiR2Y3ezpIECBAgQIAAgbEWsK821sLKJ0CAwNgKCHLG1lfpBAgQIECAAAECBAgQIECAAAECBAgQIECAAIFRCwhyRk1nQQITV8CVNhP3s1EzAgQIECBAgAABAgQIECBAgAABAgQIjERAkDMSLfMSmCQCgpxJ8kGpJgECBAgQINAjYD+mh8QEAgQIECBAgAABAgQGXECQM+BfAJs/NQWcAJman6utIkBg7AX8/Ry9MbvR21myU8B3qdPDKwIECBAg0IaA39c2FJVBgACBlScgyFl59tZMgAABAgQITDABB7ij/0DYjd7Okp0CvkudHl4RIECAAIE2BPy+tqGoDAIECKw8AUHOyrO3ZgIECBAgQGCCCTjAHf0Hwm70dpYkQIAAAQIECIy1gH21sRZWPgECBMZWQJAztr5KJ0CAAAECBAgQIECAAAECBAgQIECAAAECBAiMWkCQM2o6CxKYuAKutJm4n42aESBAgAABAgQIECBAgAABAgQIECBAYCQCgpyRaJmXwCQREORMkg9KNQkQIECAAIEeAfsxPSQmECBAgAABAgQIECAw4AKCnAH/Atj8qSngBMjU/FxtFQECYy/g7+fojdu2e/nll8vixYur8aWXXhp9xSw56QTa/i5NOgAVJkCAAAECYyDg93UMUBVJgACBcRQQ5IwjtlURIECAAAECE1vAAe7oP5+27H75y1+WrbbaqkR5zXGDDTYozzzzzKgq+O6775Y11lij/PSnPx3V8hYaX4G2vkvjW2trI0CAAAECE1tgPH9f44KcJUuWVPtub7311sSGUTsCBAhMEgFBziT5oFSTAAECBAgQGHuB8TzAHfutGd81tGH34osvltVXX70KcHbfffdy++23l3vuuaccdthhdahz9913j3jDBDkjJrMAAQIECBAgMMUE2thXWx5JtKLedNNN6/22WGeMhx56aHnvvfeWt/iI3n/nnXfKz3/+8/Kb3/xmRMuZmQABApNVQJAzWT859SZAgAABAgQITCGBOAj/2te+Vh3sz5kzp2fLFixYUL0XQU8cuI9keP/996uASIuckaiZlwABAgQIECAwfIGnn366fPrTn67214455pjy8MMPl0WLFpUddtihmrb55puXDz/8cPgFLmfO888/v6yyyiolWnMbCBAgMAgCgpxB+JRt48AJjMeVNgOHaoMJECBAYEwFHnnkkeogf//99x9yPSeffHI1z/z586t5zj333HLGGWdUrXai67TTTz+9mh5Xg8ZJg7XWWqtsvfXW1UmE7q7VopXO8ccfX51wiJMOccLhjTfeqNc9VNn1DJ4QIECAAAECBAhUAnFBziabbFLtp91xxx09KkcffXT13sKFC3veG+2Eq666qtqP+9WvfjXaIixHgACBSSUgyJlUH5fKEhiegCBneE7mIkCAAIGJI3DBBRdUB/gPPfTQkJV68sknq3lOPPHEap5p06ZVr7PbjosvvrhEiJNXg0aXbM377WSLnDjgX3vttatlo6uPKC/KiNY+b7755pBlD1kxb7QqsLL2Y5599tmqP//4nr322mutbpPCCBAgQIDAVBbIfbRDDjmk72a+8sor1f0KTzvttOr9efPmld122600758TXezGBThPPPFENc+vf/3rcsopp9T7ddFl2+LFi+vlszveb37zm+XRRx+tlznuuOPq/cPmMjHD888/X2L/MbrqPeqoo6r5Ntxww2r5aFG0xRZbVNM222yz8otf/KIqM/+JZTbeeOPq/Sg3Wovn8MEHH5Tvf//75aabbiqzZ8+u5rnvvvvybY8ECBBoRUCQ0wqjQghMLIGVdQJkYimoDQECBEYu4O/nyM1yiRW1iyAnAphmq5gsOx/zXjcnnXRSNWnHHXesDpSbXbEdcMABVTlxMJ5DtNqJ+mWQc+aZZ1ZdceSJgpjvwQcfrOY555xzhiw7y/M4tgIr+l0aae2iNVi02Ir1Nse99tqrvP322yMtrpo/TmjF91l3L6PisxABAgQIjIHAWP6+XnLJJR37Wsurfszf/TsZYUzUMffX9txzz+p17PfNnDmz+q2OrtRiH++2226r76u4zTbbVOFPhCnZTW8sc/nll9e/7xmq5DpiPeuvv37VOrv527/llluWfffdt1rveuutV6LMGGJfM5eJLt2y9dFFF11UvR8XCTX3JWLboms5AwECBNoUEOS0qaksAgQIECBAYFILxAGaYXQCK2oXYUv3AX13TfIguRnkrLvuuvVBdgY9Bx98cMeiEQ5F2XFiILr+iIP0WO71118vr776ajVGC4yNNtqoRP/tH330UYmQqFl2R4FejKnAin6XRlK5OBEU64sxvldxoieusM2WXHG1b/cVucMpX5AzHCXzECBAgMB4Cozl72sGMy+//PKwNinnb17wkK16Yn8t9+myFXYUGvPG/lx2sdvdtdo111xT/Z7feuutdR1iHzAClmhJE/fnyXXstNNO1f5ezBjlhE1zXXmBUawzyoj9gf3226/aj4xlYn9y1113LauttlrVqijqu+aaa1b1y9ZBdSU8IUCAQEsCzla0BKkYAgQIECBAYPILjOUB7uTXWfYWrKhdHNDHVZbPPffckCvKqyibQU4cmEfwEkMe9J966qkdZeT0ODGQYVDUt98YV1/GgX4EOc2yOwr0YkoI5AmhOCnUbJ2VGxf3XIrvSJzsGekgyBmpmPkJECBAYKwFVnRfbVn16xfMjHT+DFkyyMlg5Lzzzqv2DyM8aQ7d64wu0/pdhBPL58VCzXVkWdFdW9hkq52Y3iz7gQceqN6/9tprq/3IuMAjWuxGN2q5XO5rdl9MlOvwSIAAgTYEBDltKCqDAAECBAgQIEBghQSir/Q4GM6+0/sVln2e33///dXb3WFLhjTNKypjxji4jisp88RA3B8n+jaPq0b/+Z//uRp//vOflxiz9UV32f3qY9rkFsj7Ml133XV9NyROGEUXLXHyJ/rtX1b/99lv/lprrVXivktxNXCeNMrCo4z4XsX3POa79NJL6xByWWXn8h4JECBAgMBEFYjftPh9G+peh/E7F+HI7bffXm1CMyjJbeoOWaLr0whmotwcDz/88Lrb0+4yhtp3u/LKK+vf5O51xLpjWvdvdrPs3F/IOnQ/Lly4cMiLiXLbPBIgQKANAUFOG4rKIDDBBGLHwkCAAAECBCaTwPvvv18iYIlWORnUNOt/zz33VAfx2WIm3us+YM8yoou0aFWTw6JFi6plI8jJ5b70pS/VXbLFtAh7Yv3Zmqe77CzL49QRiO7TIuB78803h9yoPDEVJ54yKMwTOHHSJ/q/zxAyXkfYGFcQxzzNk0J54iimRUuf7Pd/hx12qMKcocoesmLeIECAAAECE0igu9V0d9Wef/756rfxlFNOqd5qBiU5b9z7Jn4/c38tp8eFNjfeeGOJFjfx/lFHHdW3jPhd79eautl9b/4eN9exvCDn6quvrtY7d+7cqjvevAgoLv6J5xFSZYuc7ouJchs8EiBAoA0BZ3vbUFQGgQkmEDs3BgIECBAgMNkEolVD/IbFGN2nxZWYcXB91llnVdPiJPiSJUvqzYoD+u4D9uznfI899qha2MSBeiwXZeZBewY7EdZEV25PPfVU2Xrrrat58sa0/cquV+zJmAqMx35M3iup+/vTvWHNEz5xkia7ecn+7zM8jCuG33nnnWrxKHvbbbetg5x4HTdFjnneeuutehVx4+bY1rh6uV/Z9YyeECBAgACBCS4QYUb8zsUFObH/1hzid3D77bevfvNinyuGiy++uPqdjPvP5BBdoOX+WuzvxfNmd2cxX9znMH+7MwyKiyFiOPDAA+vf3iwz1h2ta2OZ5j1ycp8w5ltekJMBU3cL3gh44h450VWrICfFPRIgMJYCzvaOpa6yCawkgfE4AbKSNs1qCRAgMKYC/n6OnrctuzhYXn/99auD9ygzx7jKMrs9y1ruvvvuZbPNNqu7p8rp0T1bLheP06dPrw7smwft119/fcc8ceLh5ptvziLKUGXXM3gyZgLxmY31kOFKngwaan15hXF8d/IkTbP/+wx64ird5nDvvffWJ5OaN0mOsCe+x6+99loVIEbIGN/XfmU3y/OcAAECBAisqMBY/75m6+lYT7SCiUDnzjvvrC5miGn77bdfid/fGBYsWFDth8WFN3FRzWWXXVbvlzV/czfYYIMS97CJ39L58+dX88QFPjHkxTvRdVq0rs3wJ5aJwOj1118v++67b7VM/k7n73Zzn3B5QU7uM8S+YtwXJ37HZ8+eXZUbFwXF+/k7rkVO9dH4hwCBMRIY+6OkMaq4YgkQIECAAAECbQuM9QFu2/WdSOW1bRf3E4mT6NFa4aWXXhrxpsbVkXFAHyfMhxripPoLL7xQd4sx1Hymj69A29+loWofra66u9jrnjf7xW+eVMru92LePCF01113dSzaPCmUYVBsV78xuojJE0DNsjsK9IIAAQIECKygwHj8vj7xxBM9F+REABKhS3OI8OOQQw6pfxfjwoa4yGaNNdaoW1Dfdttt9fv5+xktqLN1a+wfZqvrCIZiuOOOO3qWidY/OeTvdrOlT/M3O+dr3lcnpkVQlK23sy4R4sTvdwzxGK12/Y6noEcCBMZCQJAzFqrKJECAAAECk1wgbgIfV7/FOJqT6JN188fjAHey2iyv3uyWJ+T9iSZw6KGHVid7midzmnWMk0zRHUt0mxIncDJsaV5tmyFN88reKKN5UiivED766KOrYLG7b/04IdWv7GZdPCdAgAABAisqMJ77anFfm/j9e+aZZzruSdi9DXHMES1comu2fsN7771XlRNl9Tsmie7Ssmu1XD6WiWOY+C1e1n3wcv6RPMaFRnER0LIuFBpJeeYlQIDASAQEOSPRMi+BARA4+eSTq5MacSPeqTjElTXZj+1U3D7bRGBFBaIVQ3RhlVea5WN0URAHYqMZ8gRl94nO0ZRlGQIECLQlEF25xN+46NO/3wmZ7Kt/xowZ1Srzb1kzyMkycp6sW+xPxVXC2W9+XKUbXco0hwx4mq19mmU35/WcAAECBAgQIECAAIHBFhDkDPbnb+unqMBor7SJExRxoiFPagx1VcxkZssbIsaJFQMBAp0CcYXZ6quvXv0NiPuD3H777SX6uj7ssMPqYCduRj/SIU9+CnJGKmd+AgTGWiD68I/9nghd4mKPuHo3Wtnsvffe1fQNN9ywo9uU6PKlO2zZc889q3nPPffc8sorr5RZs2bVZeb+xg9/+MNqWtwPJ+aJv4dRVvzN1SJnrD9l5RMgQIAAAQIECBCY/AKCnMn/GdoCAj0Cow1y8oaDa621VnWyIe5LMNUGQc5U+0RtT1sC2YVQ/P2YM2dOT7H59yFOOsZ9RUYyvP/++9XJSkHOSNTMS2BwBUa7HzNasZtvvrnuYz/WnWN0vda8qCUveOnu/z6mb7vttvVyEQpFAJ4tcqJe8Tf2+OOPr+eJday99tpVdzHx/lBlj3abLEeAAAECBAgQIECAwNQSEORMrc/T1hCoBEZ7AiRu1rfeeutV/cnGyYe4+WBzeP7558u+++5bHnvssbLzzjtXJyO++tWvlkWLFtWzxQ0J46rTBx54oL7JYdwUMPqRzSFOCMeVro8//njVhVN04/TRRx+VX//61+W4446rT3JsuummVV1iuTfeeKPstNNO5dJLL81iqsfoDzeuhI2raGOIK18PP/zw+oRMlN2snyCng88LArXAI488Uv3f23///etp3U+y68X58+dXJze///3vl5tuuqnMnj27WjbvMxH9V++www4lQuH4/x//B5s3Lo1yo/VP/M2Jv1cxX/zfjr8DOcSV7XGlfLQIimXHq7vH0f79zHoP8iO7Qf702932lfFdij72n3rqqao1TrTI6dfV2vK2Mv6uRReUywq7Yz8l9onifgAGAgQIECAwngIr4/d1PLfPuggQIDDVBQQ5U/0Ttn0EhikQ3XxEeBPdhcRVo5tsskl1BX3zZER0NxI7fzHGSdrLL7+87ortlltuqdYUQUnOc8wxx5Q4GRuvo+w4wRFDc554L4KYuCFh3FA4Xp900klV2XHyNl7HyeGoU4RG0Rogru7PYd68edU8caV/nAT+yle+Ur2OMOmiiy6qX0f4lOtuXiGb5XgkMOgCF1xwQfV/Z1kt8fJvQPydiBA1/4/m//GHH364uglp/B+LaXFFevN+O9kiJ8uJ+SKgyW6J4u9KhjnTpk2ryohyYrz44ovH5SOKdRlGJ8BudG6W6hXwXeo1MYUAAQIECKyogN/XFRW0PAECBFaugLMVK9ff2glMGIGrrrqqOlkaV6PGEC1cYkcv7pGRQ558jZYxebI1WsrEfXXiRsHR/UhcVR/LRYiSQ7TOiWl5pX/OM3369BJXwMZwzTXXVPPceuutuVjVCidOFG+88cbVfNnnfPNEc9zH40tf+lIV7kQrgFjP3Llz6zLefvvtKkTK+miRU9N4QqBDIIKcCFbi//RQQ97rJsLW7AYolomr13M44IADqnKefvrpnFS1rIn/mxHkZFAcfzPivhA5zJw5s/r/m/+/s7VOv27ecpmxeIx6GkYn0JZdfs+6u68aXa0sRYAAAQIECBAgEAJt7auNVDOOL2L/zkCAAAECKybgbMWK+VmawJQQiBOr0RomulWL7s1ieO6556odvQhKcsgg5/77789J1WMzHInnq622WnnzzTc75omTshtttFEVyMQ8q6yySt1CJ2aMq+8zDGoueN5551UnhaMrkhjjpPGMGTOqWWKHMFroNE/2xQ5ijK+++mrVLVuGRnHiOYZmXZvr8ZzAoAtEN2bx/yv+nw01ZCucDHIiaD344IPr2fMEfHNavBn/V6PsCHLy/+1+++1XdT8U3QtFF0YRIsc8cSPwGOJvRr+/CfXKPJmyAvk96r6h/JTdYBtGgAABAgQIEJiCArHfH92lR4DUfXzQ9ubm/mP2ABDH/dFbR16A2vb6srxtttmm6tUkX3skQIDAWAoIcsZSV9kEVpLASK+0iSvnY5l+Y4QyeWI3gpw40Ro7ZM2hGY4MtcMUJ2WjZU3sSDXnz3Ka7+e0eIyWQc2TyzFftMCJ1j/Zrdqzzz5bLRKBVJwE7rcdgpymqucEegXi/2UErBHiDjVEy5v4/9UMcrqD1Ah3mtOirOaBVZbR7/9pTDvqqKOq1Q/1N2Goupk+dQTy+yLImTqfqS0hQIAAAQIEBk8g9/tjn67ZWn8sJHL/cbyDnOhG2j7rWHyiyiRAoJ+AIKefimkEJrlAnAwdyRD3k4kTuHE/mx//+MfV/WniMVq+RFnXXXddVVwEOTHfyy+/3FF8M5iJ59GyJ7tMyxnjpGyzRU4znIl5Ygcog55cJh67WwksWLCgqtPixYur+2o0l7nhhhuq94499thqR/H111+vu3/KnatmXZvr8ZzAoAtkMJotYvp5HHfccdX/sWiVlwdL+X8r5s8WO81pMT3mjdZzcWC1ZMmSqoyjjz66aonzz//8zyXGaJkTj9ndmiCn3ycwtabFfdbityB+ZzbccMOycOHCagPzuxW/QdGqMuc59NBDO35b4iKDww8/vH4/fkcWLVpUIz3//PNVy674XkVAGOXEb1j3/ZaiJerxxx9f1lprraoed955Z7nsssvKjTfeWJcVdYp5oowY4x5w3Rc11DN7ssICI92PWeEVKoAAAQIECBBoXSD2+2O/KXv9aH0FjQLjPrp5vBGT47g/WuTExZ5jOQhyxlJX2QQIdAuM7Gxv99JeEyAwIQVGcgIkTk6tvfbaZfPNN+/ZyckukLbeeuvqvexa7Yorrqi3O3aMtthiiyq8ad4jJ++1EzNmOdmcul+YcuCBB1Y7edn6J5bLLt/yHjkxLU/wxTpjpzBDpngvTs7FtLgvTg55FVCenO637pzXI4FBFoiDn/hbECe6u7tPDJd77rmnOuGeQW3+X2yGNllGhrbpGSfX4+9SBDmxXNxXK7pWaw4Z8ORVdCsryBnJ389m/T0fWb/rEcqEdXTfGfcwi5Zc8TrukZTfkXgd38doARbdb8br/N5E6844OI9pcTFClJGvH3vsserjyL//MU/8NkQQmfPMnj27mid+t3Ja1Gmfffapyoxl8rsdAWX834hpMU9Mj+dxsqC7G1Hfg3YEwtdAgAABAgQItCswnr+vt912W3WeINa58847l7joMoe4mGedddap9qfivea5g+HOE/fH3WGHHaoLceJ8RRxvxP5kHkvEcX9cKBT34I3umqMeMd8zzzyTq6geb7nlluqC0ng/jlFif7F5PiFmuvvuu+syYp4oO7ts6w5y4nzGvvvuW/bee+9qn7ZjZV4QIEBgBQUcJa0goMUJTHaB2CmJnZY8qdW9PXEyNU6A/fznPy8Z5MT8sUMUVzlHABOvzz777GrRvCdNnOCKVjMxZr+4eRPzfmFKnsTdYIMNqh25aE0TO0BR9ty5czuqFVdCx/Rmt28xQ3TDFtOj/FdeeaXMnz+/qntMixuwx0nmfuvuKNwLAgMskH8P4v9MnDx/5JFHqv/3Z511VvV/K/4WxP/VGPoFOTH9qquuqubdY489qr8bcTAVy0WZeWAVJ97jdQSs8X81pseBV/zdyBY5ceK+2eJuvD6WqJdhdALDtcu/9/EdySH+5sf3JFrO5Hcrvg8Z7kewv8kmm9QtO+PgPdbX/H2Ig+4oI0KdGPI3Kw6ws5VolBfzZEhz9dVXV+XMmTMnq1LixEOUnV1ynnnmmVWg9MQTT9TzPPjgg9U855xzTj3Nk/YEhvtdam+N7ZcUIeVmm21Wn+gZzhqixXP+DcxAs7uryuGUYx4CBAgQINBPYDx/X2N/6pvf/Ga1vxTnFK655pqqSnFRTtQjpsUxRuzvxeuHH364rvLy5on9wDy+OOyww6rePaKMGPN4I89LxLTY58wLceIioexKOnv7+PrXv16dD8kLjeK+N9mS5+abb67KjfMU0WJ7yy23rF5feOGFVX2bQU7sZ0bQE3XLY6Z6ozwhQIBACwLOVrSAqAgCk1kgAo7Y0ciTZd3bkie04qqZ7FoturLJHaV4POSQQ+oTFRGUxM5Y86rmmKd5kqz7vje5zjvuuKOj3FiuuwucmDevss4rs3P5OOkRLYuadYv1xlU+MS121IZad5bhkcCgC0T/1euvv37H/6P4/xMHKdH9WQ7LOsnYfa+q6dOnV39n8sAqDoyim6rm/9Vo8dA84BnNSdCs24o8Rp0MoxMYrl38TsRBdN7fLNcWB/Dx/csgJ8OWfD8CwGa4F/PF+Oqrr1YXDeQBewYwGeTk9y7Kie9eXFyQZUdg2N2CLOaJg/WYJ57HAXtcyRlhU6wrxtdee61aLn5z8orMrKdHAiEw0jA6Wn7F/lPeJ2xZf2MJEyBAgACB0QgMd19tNGX3Wyb27eNcQ/zGxXDvvfdW+//RjXsO0XtHhB/ZC8hw5slzGM377kSX7LF9ud+X+4XXX399rqq+yCfPI8RFqXn/3ZwpLuCJ3+O4sCJ+i+MYJfYD33nnnWqW3E+MOseFQnGMFBddxAVFGeJE974GAgQIjIWAsxVjoapMAlNUIE6K5Y5Y7NjEjlmczGoOcYIuTrTFDk5caR9Nl3OnpznfUM/fe++96oRcrGu0Xdb87Gc/Ky+88EKJLnNyiKAq6mQgQGB4Ai+++GIVmkZLurjqbaRD/J/r9zeiWU7ME/9XmwFR833Pp6ZAtowc6h4zcdAcLbQykEmFWC66QYvgJP6edweGcfAeYy7XL8iJsppXTg7VhV9ciRlhY973KcvufsyuBrOOHgmkwFDfrXy/+zFaDccJoOwKtvt9rwkQIECAwGQTyPMHedFos5Vz7AfGMUCcK4h7Z2ZvG8ubJ45LYj8xu21PkygvzlVkkBP7jTFf85xA7D/GfmBexBPvxX5n7O/FOYQHHnigej8vdM19yWZ37rG+qEN0Ox1DlBcXb2RXvY8//nhWySMBAgRaFxDktE6qQAIrXyBONI3F0L0j1m8dzRNt/d43jQABAgQGWyDvZ5YH9akRB8VxAUAGOdlqJt9v/r5EP+vxW3fsscdWrXiitUwsFyfCc7k8+M4D+iynGeTE82Yrn5gnDvKjG7coJ8qMKzGjFU90exVdisYY3Y3GKIRM1fF7jO9JfG7x+UfLrmgl3AwFowu86DM/399rr706Wn9FS+Po/z5C5AhbYr611lqr6v++uRXL6g8/5ouwu7l8XPnbbJ3VHeTE9z3qGieHYp2xDdGffwzxPcvWw/Edju91nFQ66KCDOu4pEDeLjrrH8jHG9zK6sM1huNuW83skQIAAAQJjKdA8f5AhSv6GdT/G72O0es7f+O7343XMk0FOd9ejuf+Y+33N/cbmNjZ/n6N+/Xoi6A5y7rvvvmYRHc9zXyDr64KMDh4vCBBoWWBszva2XEnFESAwMoHYiRiLIe6XEWV3n3xrriv6uY0rX/J+BM33PCdAgAABAvPmzat+SxYuXFhjxNWY0Y3FEUccUZ3Ujt+RDGRypuYBeYZBzZvRZrebeQA9nCAnu+aIACmHLCdb9sQBene3GxnwdJ9EyDI8rpjAUPsx0VVJnFyJ8bzzzqvufxfzZncs8TnG63g/vi/xXYjn8d3K1sExPeaJMQK7aHkV88TrvNny8vrDz+9WLHf66aeXPffcs1o+AqQMc5onimJaXqkbXQTGfZzy9WOPPVZ95+OmyFGHr371q+WEE06ounSJeuf/g7hq+Gtf+1o1T3w3o8vb+H8Sy+QJpuFs24p9MpYmQIAAAQLDF2gGObFU/F7Gb2dcdBEXxOQFMnHqZRTRAAAgAElEQVRhTLwezjzZWjp/H7M2sW8Wv5vDCXKiRU7uy8UFO9EFe9Qlwqa432fUMc555D7h7bffnqupHuMCkrggJIZojbPOOutUy2eo07yvYseCXhAgQGAFBcbmbO8KVsriBAismEAc1I/FEDtNccKh2Ty5ez1xEqV5dWj3+14TIEBgIguM1d/PibzNbdVtuHbxGxJ9jcdBctwbLbrg3GmnnaoT0nGfnLyisvsAvRnkxP3OYn0xLX535s+fX5+Mj3AmuqnKk+15QJ/bGVd6ZtnRt3qUE/fEiT7ZI1yKesW0DGmi1US8joPzuDlunOyP4CCmNW/Mm+V7XHGBsO03xAmgaIUTn20OEYzEtDjhcuONN1afS7SWyeHBBx/s+Kyyz/wM/GK+/Izju5IndobqDz++vxEAxfvRzWwOM2fOrNYT3VHG0Axy4urh2Ka5c+fm7FVf+vFdi1AnhvjORjCT9er+fxA3iY4ybr311rqMOJEUy0SrsriAZnnbVi/oCQECBAgMpMBQv69jhdEd5ERIEr/Z3feQiXvWbLbZZtXFEMubJ1qnRviS3aNl3Zu/5TEt9hFjXXmRRkyLC4DidzO6ZctAKO9NF+9HkBPBTPw+x29s/n7PmDEjV1M9RovYaEGb98g55ZRTquk5f9RtWedMOgrzggABAiMQ6H+UNIICzEqAAAECBAgQmCoC432AO1XcYjtGYhfhS7MrizjQjnAmhjiBHQfHGaSkURyQZzdoMc/mm29erTPWG+OcOXPq7qniysoMcrK1QpbTDHJi2v3331+3bIhy4kR6lJ1hT8wTN8rN9cRj1DdabRjGRiCMu4c84bLvvvt2vBUtbeLkTQQhcUIlvhsxxpW9cfFJdGcW5WWgF9+jOEHTbF0cJ3byKt783gzVH36c2Il546RTrDuuIo77BcaJoig3g5hmkBMVznpFtzFxwUuGLtnyK96Pk0v5vet+HSeWIjzqPjEULZNye5a3bR1wXhAgQIDAwAn0+30dS4TuICd+e+M3K4KYuPAhWsEceeSR1e90XtgwnHki7Ilt2WOPParf+/iNj3Kbv/f5Oxu/2bE/EL/TEcDEPM8++2z1uxy/u1//+ter9+LCon322ad6P8qK3khiiAuEYpm4YCPqG/un8frCCy+s3u/er4zf5Xg/t2csfZVNgMDgCfQeJQ2egS0mQIAAAQIECFQCceBlGJ3AaOyyW43uk9PDrUHcmDa6tmguHycA4orK4QwxbxyUxxAnzqOc6Aarea+dLCdO2se6Yv7m+vJ9j2MrkMFGBiX91vbmm2/W3ZzF97E5LivIybJjngxyugPAXF92s9Isu/k8r+xtBjnxfYx6N+fL58MNcprlZV3iMQLQZQU5zW1rLuc5AQIECAyeQPz2jOfQHeTEumNaBCj5OxiPJ598cse+23Dm6f5dnT59evV72Py9X2211cpuu+1WrysuxGl2k5bd/WZdvvWtb9UX70Qd4wKR2OfLgCfnO/TQQ+t9we4gJy4s2XDDDau6xP0VDQQIEGhTYHz/irdZc2URIDApBOLK1TiJYCBAYPIJ+P87+T4zNR6ZQLRgiIPym266qV4w7nkS0/JEQP2GJytVIFvkxP1jmsN7771Xdc8XAdxee+1VtZaKcCNCtwjfsvu8/Dz7tVqJ/ZRskZNBTfNET6wv/h5GmUuWLKm+H0cffXTVEieCvRijZU48ZndrzeDlhhtuqJY59thj/3/27gPcjuq+977T/SZ24tw4zhObxLncGDt2LrZJsHF4nRDbXIwxJg7B+GIc/IKFAUuggrpQQ72iLqFeQRIgJBmEUO/9qB/13pDoTTTZ//f5LbxGs7f2mbO1z+w2853nmbPbzCqftffZa6//zBpXntdee831jcIBQx9wqeuMHA0U+TPSwvUfO3ZsvYEcX7fwftxHAAEEEECgnAI6GEdr+HqH2eWpbxsdkKPvZZ0ZG7UooKIzbtQvyF50EIjS0Pe4X/RcdrmUl8rjv+f9ttwigAACpRQgkFNKbfJCoEQCGoAq9qJOkI6k9kc9+yNYN27c6LLWgIc/dVlz0Ga/Hkf56itDHHmQBgJpFCjF5/diXPXjK/yjSQOkfh7ti0mHbRHIFtDguY6a9EdY+lsd1em/37L34XF5BHRErKYW++Y3v+mOkPWlmDJligveaIBF04/p9XDbTZ061bWvP8OmvkCOn9++rvnwNbCjAIymVgsvPsDjA0bhQM706dNdsCU8KOQDRv4MIx+o8o+zAztdu3YNAjY+X9XzpptuCq6RU1/d/H7cIoAAAggggAACCCCAQPUJFH+0t/pMKDECVS9QikBOeOBEYD5Q4wdK/ACFjizV0bDZr8eBXF8Z4siDNBBIo0ApPr/5umpwU0eT++mKtF/Lli3dNUx0BD4LAnEI6LtLZ3HoOjv6zmIpr0Bd/Rh/ZouCKAq4LFq0yAVp7rrrLhe8UfBE04ytW7fOHWzigzhKb86cOa5S+QQ76psPf8SIES5fBV10vScFbzQFi/5X+aCzgkr+DBq9t1QG5a3tly1b5sqp55SXpmFR4EYBIk3rsnPnTvdYafozdHyg6LrrrnNz+eusHl0vSGnIQUs+dStvy5I7AggggAACCCCAAAIIFCpAIKdQOfZDoIIF9KO+2IsuMKjBEg2y5lo04KDX33333Vwvx/JcfWWIJRMSQSCFAqX4/ObLqgFODW76o9Tz3a/Q7Urx/7PQslX6fthVegtVT/mi3ku6eLBe96umHNOUZlqOHTvmgin+Nc2Nv2TJEvc/RPPiv/zyyy5gp+d1Bo9f/Nkv/mya+ubD15kwgwcPDsqg/HThZv3v9IsCzv7MQaV/2223ZWyvoGHTpk3dc6tWrXK7aeo1paUAjj/zRxdV9svatWsz0tC2OtvHLwoY1Vc3vy23CCCAAALpE9D3BgsCCCCAQPUK8F+8etuOkiNQkMDKlStt0KBBbp53HbmqztwVV1xhmzZtykhPUxk1btw4GDDo0qWL6ehPLboooI461b6333676eh9HRmrCwnqzBvl8dOf/tS9rkEKHUEbft1npDw1TYrS0UCtjiQNH2G/fPlydzSrf13l9tOS1FcGn8fWrVvtmmuucXloEGfcuHHBlCwaWGnevLnV1tba3Llz7aqrrnLb6ehYLmTtBbmtNAF9ljRwqc+F3tO9e/d2127w5Yz67Gqb+v4H5PP5nTRpkum6DDU1NW7AUdcU0QCqjkDX51pnz6h8mrJK/x90hoP/n6CBzfAc1PqsTZs2Lfj86WhzDUbqf4E+o36gU/8jNMip5ydPnmw6It5Pn6SAsf4/KE+tmtZx//79nsSVTf/vNNirsinILLvwAKjfWPuzFCaAXWFu7HWhQH3vJX+9mvD/Ep+K/qdoHnwf3NHzuo5OffPn+/3Dt/XNh6/Xdd2cXOUIp+Pva259bR/uYygN/79M2+kAmaiDYFQX/X9Tf0tz+LMggAACCCCQr0B936/5psN2CCCAAALlEWC0ojzu5IpA2QQULFEHTuvNN9/sjijVoKYeHzhwwJVLA8V6TqsGOjVoq9f9UZ4a6PWBnEaNGtnevXvdYK220dGsel0BHj3W4Omzzz6b8boy0RGyel2Dtk888YTdcccd7rEGdLXo6FS9fsstt7jpUHr27OkeKz8NeNRXBqWhbXwes2fPth49erjHGgQ/d+6cGyzRUa/aRmuvXr3cQLTu60haFgQqTUDBEv/ZVDDDT//jpxWq77Or+tT3PyCfz68CNv5zo1v9n/DTsenxtddee8HR6vqM+2mAdA0LP5A5cOBAl5amSlIAx6eto+4VyGnbtq17/Vvf+pbpIucK5Ogz7K+ToXR0jQjlO2zYMHvyySddcEmPs6d61HPyU9DHB3j9dEu+rbUNS2EC2BXmxl4IIIAAAggggEApBOirlUKZPBBAAIHiCTBaUTxbUkagIgVmzpzpBjzD0xStX7/ePeenFNHgsII2GhT2y7Zt24KBUj2XPa2ZvwaOT8NPzeSnXgu/rsFZTUGis3HOnj3rslBwRkEdHXWvIIsu6nvZZZcFg73aSGfThOefjyqDpmNSHjoy3w8YKw0NfqsDq3KqHMpPddWc9VpUjvCFg92T/EGgQgRat27tziTR58kvOjNFZ5foqO58Prv5/A+I+vwqX382n6YG8ov/jN9///3BmXX6jOrz5q/xoG11zQoFU1RefTb1OVWAxy/6DCrIrDx0X59lBVzD/7P0mr/2hALFymPFihU+CXeGkvbRNvp/4svmg7jaUPmrHOGyBQlwB4F6BPS+On36dMb3Sz278DICCCCAAAIIIIAAAggggAACBQsQyCmYjh0RqFyBqCNtcl0IV9OVKUDigxsaAO3WrVtGBTWgqiPqb7jhBjcwmp2OHyj1gRw99oO1Sij8ur//3HPPZeShwJGmatKiAV4FWhQI0lQkCiRpEDacZlQZfB7+AsA+I19XDd4qfdU1eyBXwR4drR+e5s3vzy0C5RLQZ0Hv13DQQ2VRMFTBWE2xU8hnV2n4z0U+n19tr0CKArHhIKn/zPk0tJ2m/9H/I39mjJ7L/txqCiF9FjVVkqZD0tl4qocPwuT6nIYDOTqDJ7ssykefY///IlfZ9D9Ngd7sz7/2ZUGgPgF/Btrq1avr25TXEUAAAQQQQAABBAoU0G8dHTyjvrsW36/fuHFjgSkWb7dKLlvxak3KCCBQSgECOaXUJi8ESiRwsYEcP1AaDuSEL67rix0ePM0ejPWdFj+Iq8d+EFX7h1/398ODuz4Pf6ttND2T6hJew2lGlcHnkd3BU111Fo6mYPL11v3wonQJ5IRFuF8JAv79Gj4zJVwu//rFfnaVht83n8+vtg//L/Bl8J85n4ae13Phz6yey/7cLl682G0T/pzrfvgi4dkB13D+4fu+LLrVNG0+71xl0zYKDhPICatxP18BnbWm92nU91i+abHdhQKyZUEAAQQQQAABBKZMmRLMPiAN36+vxD5YJZeNdxICCCRDgF9JyWhHaoFAhkDUAEj2IKp21CCuPyPHH/WfPRisI2A03VEcZ+T4I5nXrFmTUW5/8WI/LZqmXNLR+bpgsfL3U6lpSiQt2XXxHScNJPs8sgM52ld1jTojh0BORrPwoEIE/GdT14kJL7rwtc5kefPNN92ZLBf72VVa4f8BeqzPkg+C+Mf6v+KDNLmCJ+HPny9fdjp6Pvy51TV/lG7jxo1t586dwQXDw+n7IFM44BJ+XcEYP82az1e3Y8eODeqQq2zaJlcgJ+r/Zzh97l8okK+d/q/r2kd79uxxbaB28GdA6hpHV111lXtfNG3aNLh2m89N74c+ffq416+44gp3vTUFN/00f3pPKT21uV905li7du3c9dr8c0pn8ODB7j2i97qu1aTvoPAyb948932heimvpUuXupeVh7/Gkr4Xn3nmmfBu3I9BIN/3UgxZkQQCCCCAAAKpEajG71c/BqDfQiwIIIBA2gUI5KT9HUD9UycQHkT1lQ8P4mrAS9MUZQ+M+utJ+EFkn47vUGUPlGYP4IZf1xRq6kT279/fF8HdapojnS3jp4jq169f8LoCOZpCSQNufrAtqgx+gDj7bBt/PSAFkXINECtDpcsZOQE9dypEwH82v/nNb7rpDX2x/FFqZ86cuajPrg+IKp3w/wA9jvr86vVwIMWXI/wZDz8XDgjpef+5Vf4+4KrPpV80zZvOwPFn5PgAVvhMpHD+up5Wdh76fxG+1lWusik/AjlePZ7bfAcH9B7Qtn7VtZ8UyOnYsaN7Tu07fvz4IIiiIJ8WfQbUrtqve/fupu8In4b/X5+rrf17yAcD9VgHCmjfnj17usC+7ivIr+8fLQrO6DmVbc6cOW5qUT1WwEjfLz/84Q/d6/re0nWaWOIVkDULAggggAACCMQrcDHfr/rNftdddwX9HU2B3qFDB9u7d68rlA5wadGihTuYzJfy5MmTbh+/jZ7Xc+rbKW8dGKPrdfoDePS6plkeNWqU689rG/WtND2zFuWh/pmev/32291vB5VL+arP55etW7cGB9no2qG6tq6uZ6hFv3OaN29utbW1Nnfu3OCAIV1bVH3LfLfRdtp+2rRpQRq6xq9mAfD1yS7bpEmT3MFlstPvmzFjxrj89Ke+g5eCDbmDAAIIhAT4lRTC4C4CaRAID6L6+mYP4voBLA2qaXD4yJEjdv3117tTmtUR0+IvYq6Oiwa+sgfP9Dg8uJr9ujpO6pA9/vjj7owbnUWgx+oY+QDLLbfc4o7G1tkGOpparytNdcLyKYMG4LTP9OnTXQdTZxNo/8suu8x1wnw+fnDPJUogxzNwW4ECCxYscO9pfTb1Q0HXgNJ7XD+yFLzI57Obz/+A+j6/CqpmB3uzP+Piy05Hz4Xz9/toUF712bFjRzClov7nvPTSS+7/gQK8P/vZz9xZO0ojHMjxU1zph9SBAwfstddec9cRkou/RpbPx59R5JuWQI6XiOdW5vks+gGvbdXu/kf25s2b3XP6ge0XBe3V9v797d//vl213bJly9x+UYGc7P/1+nGvH/nhQYbt27e7dCZOnOiy9+9xfa606FZn36jMWvz7rhKn9XAF5A8CCCCAAAIIIJAlkG9fTf1y/W5Wf2n48OHu7Hntq9X3p8N9ep+NP0jLb+P74EpLQQz/+1xn4/vgh39OfTmNDSjgoXwPHjxoK1euDAI5jRo1cn237Dy0jcql3wKzZ8+2Hj16uMfq56uf6Q/o8eXv1auXO0BUj1u2bOmKns822lBncGs//RbTOIj6i3r82GOPuXSyy+Zf93lrXEJLfQcvuY34gwACCOQQyO8Xd44deQoBBKpTQB2OSy65xLKPxleHyXe4VDMNZvkOh27V+dKRLn7xnTu9pmlyfCfNT2Wmx9rH55P9uo5m8cEZn4+OjPZHxejoG/+8bjWIO3/+fPecyqpOWX1l0OBds2bNMtJRB0+Dw1r0ugYJs6eiUqc0e5Da15tbBMotoB8K4c+GfqRo+kG/1PfZzed/QH2fX/3o8WfM+Hz9Zzw8sJ2djrZV/uH/DQqkhuujxzobQ89169bNJf/II4+4x/6zr0BOOP+1a9dmpKF9/Q8lJZCrbHo+VyDHZcifogrof6x+oPsDA5RZOLiiAI7+T+vitgMGDAi+s9TuOmPUf09oPw0C6AxKH5D3bR3+PgsHchSQueOOO1w6Cvq9/PLLbn311Vfd1KG33XabS1PTuul9pB/7OnhAZQkvufIJv859BBBAAAEEEECgWgX8Ge9Hjx4NquD7476PlSuQE+4f+YNg1HfTFNB+UbBGfSwdwBXuo/nXNX6g3wo6WEdL9tRq4Tz8lOw6iyfcP5w8ebLLQ2X1v/k1BvLiiy+6NFW28Nn7+Wyj9HVG90MPPeSLGhzooz6q0gyXTRvpedXVTwGs5/I5eCnIgDsIIIBAlgCBnCwQHiKQBAF1FuJYNJim05q1hjtGPm1/hIt/XMitOmonTpzI6Nz5dHSmj4569oEXPa/nNPWSX/Ipg84qUqdKabEgkAQBfTaPHz+e8dkI16u+z25420q4rx9V/jo/vjz636AfVX7RkXKaeqGuRdcK0v8qfdb1f4KlcgWyf/jrh6+CavruyrX6wJ9+DOcKsusITV3vRkv2D2g9Fx4kyD7iMjs/P3Wh3n9KN/y68tfnrq583Av8QQABBBBAAAEEqljA95v8AVW+Kuqvq1+UbyBHv0c0LZrOPtEBMfpNrwNndAa9+naaNtkHUPRYwRcFjtQvDC/Z/cZwX8/fD5+trX01XlDfdXGVn59O3dfZHxjk8w9vo+f0W0Tbqm767aIDWnWgmfqnGpfw5fFG6jtmH4SUz8FLPn9uEUAAgWyBeEZ7s1PlMQIIlFVAHSwWBBBAAAEEKlEg+we5yqhpNfQjXtOdnT592p1lpjPN9KNfj7X46c78VBx6Tj/2dRSm/+Gd/QNa2/hBAm2j+zqaUvsoyK88tCoPreEDB7SvfqjrGk46Y1TfrQr06MCGXPloe5Z4BOjHxONIKggggAACCFysgA9qZM9a4Z/3QYpc/blw/8hPM6bv9Fyrvx6uznxWsCO8Te/evYODN7PzCefh7/tZQXxdfd9P07X5cvtpeP02Sjc7kBO1jfZbvHix66+Gy6r7fqYAXx5vlH0QUr4HL/kycosAAghkCzDamy3CYwQSIKDOBAsCCCCAwMUL8P/z4s38HvnaZf8g1/6aNkPTrR07dswn5251FKf/caxrqynYowCMX7S98vU/vP2ggf8Bre00LWh4G/2o9tdK8+noR74CPBq08PcnTJjgX3a3U6ZMcfnrbB3/Qz08lWDGxjxokEC+76UGZcLOCCCAAAIIpEwgn+9Xf/ayzpgJL/4sF9/HytWf03VtlIe28dcT1DS5OhPHHzyjg2Z0PzzdmvLRATULFy4MrjvjAz3Z+fg+mPLw/b7sQI76avWdkZMrkOMPDPL1Dm/j+5y6vs/OnTuDg3/CwZpw2ZRG+DWfZj4HL/ltuUUAAQSyBRjtzRbhMQIIIIAAAgikViCfH7ipxamn4vnaZf8gV7L6wa0gjYIpmjNdP/D79u3rBgP8BWT9j+Prr7/eTb2hAQJtr3x9IMdP+3HVVVe5dPQjX+mGt9EZNnqsH9eawkNTfNx1113uOf0w16LXtJ+mzNDAhZ5XXrqGjo6m9AMVGpzIDj7Vw8TLeQjk+17KIyk2QQABBBBAAIHfCuTz/eqvO3PDDTdkTK++YMEC11fygRxdj1J9JZ297Jdc16bRQTnhxQd4wsGe7ANjdD1DP52u7zcqwKTF9we1vw+u+H6gz8f39dasWROckRMVpPFn7URt44NGStsv6iNqajV/0FG4bNomVyAnn4OXfPrcIoAAAtkCBHKyRXiMAAIIIIAAAqkVyOcHbmpx6ql4vnazZs1yP/wVvAkv+vGrH8NKx6/Dhw/PmCt95cqVwWvaRtOtXXvttcHUakpv/vz5GdvozJp77703chudDbRkyZKgOArwXH755RnpKJCjMmrR9Gq6SK7KkD2HfJAIdxBAAAEEEEAAgQoSUL8ln2XmzJmuj9OpUyfTQTIKmvi+mQ/k6GAXPdeqVSt3YMwTTzxxwTYjRoxwz+nsHp+O+no6W0Zn5PgAynXXXeeudamg0LJly9w+48ePd0VV4EP5qP+o62BmB0t0hoteV2BJaap8CjD5s699HlFBmny28fl2797dTp065Q4YUh9UeesgI51p5LfxRrmmBc7n4KV82ohtEEAgnQL5/RdPpw21RgABBBBAAAEEECixwIkTJ0yrjnLMtbz33nt2/PjxYEqLRo0a2eDBgzM21UCApuioKw1trAvvKh2d/aPATK5FAR0dOao116L069o31/Y8hwACCCCAAAIIVIOAgi8KUvhVAQwFSHyQQmco9+jRI3hdr+lgGgVqwtuoj+bT0K0OjAn3q7IP0tE2OlPaT72moInS1vMKHvlgiZ9OTUGYZs2aZeShwJC/7qFe18E52df80Zk+/qyffLZRmykYFK6LHivgpOd0YE922Vq2bBmcrRNuc21X38FL4e25jwACCHgBAjleglsEEiSgjgQLAggggAACaRC48847M862SUOdqSMCCCCAAAIIIFBsAR0Yo4NedOCKplwLB2l83rp2oYImUQe26CyU8EE4fl9/q4N0/IEzCtxkL+fOnTM/tVr2a/6xyqEASThI5F+L81ZnFh0+fDgINClt1U/BoItd6jt46WLTY3sEEEi+AKO9yW9japhCAQI5KWx0qowAAgikVEBzuPfp0yeltU9mtenHJLNdqRUCCCCAQPUKKJCSK5BTvTWi5AgggED1CRDIqb42o8QI1CvAAEi9RGyAAAII5BTg/2dOlryeLJfdkSNH3FzleRWSjapCoFzvparAoZAIIIAAAggUKNCQ71edlaMpzjS9GQsCCCCAQHkECOSUx51cEUAAAQQQQKACBRryA7cCq1PSImFXUu5EZ8Z7KdHNS+UQQAABBMok0NDv1z179tgbb7xRptKTLQIIIIAAgRzeAwgggAACCCCAwG8FGvoDN82Q2KW59ak7AggggAACCFS6AH21Sm8hyocAAghECxDIifbhVQQQQAABBBBAAAEEEEAAAQQQQAABBBBAAAEEEECgbAIEcspGT8YIFE/g3/7t32zJkiXFy4CUEUAAAQQQQAABBBBAAAEEEEAAAQQQQAABBEoiQCCnJMxkgkBpBQjklNab3BBAAAEEEEAgPgGmfonPkpQQQAABBBBAAAEEEEAgGQIEcpLRjtQCgQwBAjkZHDxAAAEE8hZgADlvqgs2xO4CEp4oUID3UoFw7IYAAggggECEAN+vETi8hAACCFSBAIGcKmgkiogAAggggAACpRHgB27hztgVbseemQK8lzI9eIQAAggggEAcAny/xqFIGggggED5BAjklM+enBFAAAEEEECgwgT4gVt4g2BXuB17IoAAAggggAACxRagr1ZsYdJHAAEEiitAIKe4vqSOAAIIIIAAAggggAACCCCAAAIIIIAAAggggAACCBQsQCCnYDp2RKByBbhGTuW2DSVDAAEEEEAAAQQQQAABBBBAAAEEEEAAAQQuRsAFcib8cpqxYsB7IDnvgc9/+h+s9X904HPN/zbeA7wHeA/wHuA9wHug6t4DmvqFfmly+qW0JW3Je4D3AO8B3gO8B3gP8B7gPcB7IP/3QF3BnSCQc2L7KYtrVcOwIIBA+QQ4I6d89uSMAALVLcDc4YW3H3aF27FnpgDvpUwPHiGAAAIIIBCHAN+vcSiSBgIIIFBcgai4CoGc4tqTOgIIIIAAAghUkQA/cAtvLOwKt2PPTAHeS5kePEIAAQQQQCAOAb5f41AkDQQQQKC4AgRyiutL6ggggAACCCCQEAF+4BbekNgVbseeCCCAAAIIIIBAsQXoqxVbmPQRQACBhgvkF8jZespOxLRGZdjw6pACAggggAACCCCAAAIIIIAAAggggAACCCCAAAIIIJAcga6yFHEAACAASURBVKi4SjC12vFtJy2uNSrD5LBSEwQqV4Br5FRu21AyBBBAAAEEEEAAAQQQQAABBBBAAAEEEEAgWyAqrkIgJ1uLxwgkQIBATgIakSoggAACCCCQUgGmfklpw1NtBBBAAAEEEEAAAQRSLkAgJ+VvAKqfPgECOelrc2qMAALxCDCAXLgjdoXbsWemAO+lTA8eIYAAAgggEIcA369xKJIGAgggUFwBAjnF9SV1BBBAAAEEEEiIAD9wC29I7Aq3Y89MAd5LmR48QgABBBBAIA4Bvl/jUCQNBBBAoLgCBHKK60vqCCCAAAIIIJAQAX7gFt6Q2BVux54IIIAAAggggECxBeirFVuY9BFAAIGGCxDIabghKSCAAAIIIIAAAggggAACCCCAAAIIIIAAAggggAACRRHIL5Cz5aQdj2mNyrAoNSRRBBDIEOAaORkcPEAAAQQQQAABBBBAAAEEEEAAAQQQQAABBCpaICqu8hGVXBvEFcRROlEZVrQUhUMgIQIEchLSkFQDAQQQQACBFAow9UsKG50qI4AAAggggAACCCCAQGRcJQjkHNty0uJaCeTwrkOgvAIEcsrrT+4IIFC9Avz/LLztGHwv3I49MwV4L2V68AgBBBBAAIE4BPh+jUORNBBAAIHiCkTFVQjkFNee1BFAAAEEEECgigQI5BTeWAwOFG7HnpkCvJcyPXiEAAIIIIBAHAJ8v8ahSBoIIIBAcQXyC+RsPWHHYlqjMixuVUkdAQQQQAABBBAoXIBATuF2DA4UbseeCCCAAAIIIIBAsQXoqxVbmPQRQACBhgtExVXOn5ETUxBHwaCoDBteHVJAAAEEEEAAAQQQQAABBBBAAAEEEEAAAQQQQAABBJIjEBVXIZCTnHamJggEAhxRHlBwBwEEEEAAAQQQQAABBBBAAAEEEEAAAQQQqHiB/AI5m0/YsZjWqAwrXosCIpAAAQI5CWhEqoAAAggggEBKBZj6JaUNT7URQAABBBBAAAEEEEi5QFRc5fwZOTEFcRQMisow5W1B9REoiQCBnJIwkwkCCCRQgP+fhTcqg++F27FnpgDvpUwPHiGAAAIIIBCHAN+vcSiSBgIIIFBcgai4CoGc4tqTOgIIIIAAAghUkQCBnMIbi8GBwu3YM1OA91KmB48QQAABBBCIQ4Dv1zgUSQMBBBAorgCBnOL6kjoCCCCAAAIIJESAQE7hDcngQOF27IkAAggggAACCBRbgL5asYVJHwEEEGi4QF6BnKNbTlhca1SGDa8OKSCAAAIIIIAAAggggAACCCCAAAIIIIAAAggggAACyRGIiqsEU6vFFcRROlEZJoeVmiBQuQIcUV65bUPJEEAAAQQQQAABBBBAAAEEEEAAAQQQQACBbIGouAqBnGwtHiOQAAECOQloRKqAAAIIIIBASgWY+iWlDU+1EUAAAQQQQAABBBBIuUB+gZya43Y0pjUqw5S3BdVHoCQCBHJKwkwmCCCQQAH+fxbeqAy+F27HnpkCvJcyPXiEAAIIIIBAHAJ8v8ahSBoIIIBAcQWi4irnz8iJKYijYFBUhsWtKqkjgAACCCCAAAKFCxDIKdyOwYHC7dgzU4D3UqYHjxBAAAEEEIhDgO/XOBRJAwEEECiuQFRchUBOce1JHQEEEEAAAQSqSIBATuGNxeBA4XbsiQACCCCAAAIIFFuAvlqxhUkfAQQQaLgAgZyGG5ICAggggAACCCCAAAIIIIAAAggggAACCCCAAAIIIFAUAQI5RWElUQQqV4Ajyiu3bSgZAggggAACCCCAAAIIIIAAAggggAACCCCQLZBXIOfI5uMW1xqVYXbheIwAAvELEMiJ35QUEUAAAQQQQKA0Akz9UhpnckEAAQQQQAABBBBAAIHKEoiKqwTXyIkriKN0ojKsLBpKg0AyBQjkJLNdqRUCCBRfgP+fhRsz+F64HXtmCvBeyvTgEQIIIIAAAnEI8P0ahyJpIIAAAsUViIqrnA/kbDpuR2JaozIsblVJHQEEEEAAAQQQKFyAQE7hdgwOFG7HnpkCvJcyPXiEAAIIIIBAHAJ8v8ahSBoIIIBAcQWi4ioEcoprT+oIIIAAAgggUEUCBHIKbywGBwq3Y08EEEAAAQQQQKDYAvTVii1M+ggggEDDBfIL5NQcsyMxrVEZNrw6pIAAAggggAACCCCAAAIIIIAAAggggAACCCCAAAIIJEcgKq5y/oycmII4CgZFZZgcVmqCQOUKcER55bYNJUMAAQQQQAABBBBAAAEEEEAAAQQQQAABBLIFouIqBHKytXiMQAIECOQkoBGpAgIIIIAAAikVYOqXlDY81UYAAQQQQAABBBBAIOUCBHJS/gag+ukTIJCTvjanxgggEI8A/z8Ld2TwvXA79swU4L2U6cEjBBBAAAEE4hDg+zUORdJAAAEEiiuQXyBn4zE7EtMalWFxq0rqCCCAAAIIIIBA4QIEcgq3Y3CgcDv2zBTgvZTpwSMEEEAAAQTiEOD7NQ5F0kAAAQSKKxAVVwmmVju88ZjFtUZlWNyqkjoCCCCAAAIIIFC4AIGcwu0YHCjcjj0RQAABBBBAAIFiC9BXK7Yw6SOAAAINF4iKqxDIabgvKSCAAAIIIIAAAggggAACCCCAAAIIIIAAAggggAACBQsQyCmYjh0RqE4Bjiivznaj1AgggAACCCCAAAIIIIAAAggggAACCCCQTgECOelsd2qdYgECOSlufKqOAAIIIIBAlQsw9UuVNyDFRwABBBBAAAEEEEAAgYIECOQUxMZOCFSvAIGc6m07So4AAuUV4P9n4f4Mvhdux56ZAryXMj14hAACCCCAQBwCfL/GoUgaCCCAQHEF8gzkHLXDG+NZozIsblVJHQEEEEAAAQQQKFyAQE7hdgwOFG7HnpkCvJcyPXiEAAIIIIBAHAJ8v8ahSBoIIIBAcQWi4iofUdba4PCGo7GtURkWt6qkjgACCCCAAAIIFC5AIKdwOwYHCrdjTwQQQAABBBBAoNgC9NWKLUz6CCCAQMMFouIqBHIa7ksKCCCAAAIIIIAAAggggAACCCCAAAIIIIAAAggggEDBAnkFcg5tOGpxrVEZFlwLdkQAgbwFOKI8byo2RAABBBBAAAEEEEAAAQQQQAABBBBAAAEEyi4QFVcJzsiJK4ijdKIyLLsGBUAgBQIEclLQyFQRAQQQQACBhAow9UtCG5ZqIYAAAggggAACCCCAQKRAVFyFQE4kHS8iUJ0CBHKqs90oNQIIlF+A/5+FtwGD74XbsWemAO+lTA8eIYAAAgggEIcA369xKJIGAgggUFwBAjnF9SV1BBBAAAEEEEiIAIGcwhuSwYHC7dgzU4D3UqYHjxBAAAEEEIhDgO/XOBRJAwEEECiuAIGc4vqSOgIIIIAAAggkRIBATuENyeBA4XbsiQACCCCAAAIIFFuAvlqxhUkfAQQQaLhAfoGc9UftUExrVIYNrw4pIIAAAggggAACCCCAAAIIIIAAAggggAACCCCAAALJEYiKq5y/Rk5MQRwFg6IyTA4rNUGgcgU4orxy24aSIYAAAggggAACCCCAAAIIIIAAAggggAAC2QJRcZVQIOeIHVofzxqVYXbheIwAAvELEMiJ35QUEUAAAQQQQKA0Akz9UhpnckEAAQQQQAABBBBAAIHKEoiKqxDIqay2ojQIxCJAICcWRhJBAIEUCvD/s/BGZ/C9cDv2zBTgvZTpwSMEEEAAAQTiEOD7NQ5F0kAAAQSKK5BXIOfg+iMW1xqVYXGrSuoIIIAAAggggEDhAgRyCrdjcKBwO/bMFOC9lOnBIwQQQAABBOIQ4Ps1DkXSQAABBIorEBVXCc7IiSuIo3SiMixuVUkdAQQQQAABBBAoXIBATuF2DA4UbseeCCCAAAIIIIBAsQXoqxVbmPQRQACBhgtExVUI5DTclxQQQAABBBBAAAEEEEAAAQQQQAABBBBAAAEEEEAAgYIF8gvkrDtiB2NaozIsuBbsiAACeQtwRHneVGyIAAIIIIAAAggggAACCCCAAAIIIIAAAgiUXSAqrnL+jJyYgjgKBkVlWHYNCoBACgQI5KSgkakiAggggAACCRVg6peENizVQgABBBBAAAEEEEAAgUiBqLgKgZxIOl5EoDoFCORUZ7tRagQQKL8A/z8LbwMG3wu3Y89MAd5LmR48QgABBBBAIA4Bvl/jUCQNBBBAoLgCBHKK60vqCCCAAAIIIJAQAQI5hTckgwOF27FnpgDvpUwPHiGAAAIIIBCHAN+vcSiSBgIIIFBcgTwDOYft4Lp41qgMi1tVUkcAAQQQQAABBAoXIJBTuB2DA4XbsScCCCCAAAIIIFBsAfpqxRYmfQQQQKDhAlFxlWBqtQPrDltca1SGDa8OKSCAAAIIIIAAAggggAACCCCAAAIIIIAAAggggAACyRGIiqsQyElOO1MTBAIBjigPKLiDAAIIIIAAAggggAACCCCAAAIIIIAAAghUvEB+gZy1h+1ATGtUhhWvRQERSIAAgZwENCJVQAABBBBAIKUCTP2S0oan2ggggAACCCCAAAIIpFwgKq5y/oycmII4CgZFZZjytqD6CJREgEBOSZjJBAEEEijA/8/CG5XB98Lt2DNTgPdSpgePEEAAAQQQiEOA79c4FEkDAQQQKK5AVFyFQE5x7UkdAQQQQAABBKpIgEBO4Y3F4EDhduyZKcB7KdODRwgggAACCMQhwPdrHIqkgQACCBRXgEBOcX1JHQEEEEAAAQQSIkAgp/CGZHCgcDv2RAABBBBAAAEEii1AX63YwqSPAAIINFyAQE7DDUkBAQQQQAABBBBAAAEEEEAAAQQQQAABBBBAAAEEECiKAIGcorCSKAKVK8AR5ZXbNpQMAQQQQAABBBBAAAEEEEAAAQQQQAABBBDIFiCQky3CYwQSLkAgJ+ENTPUQQAABBBBIsAD9mAQ3LlVDAAEEEEAAAQQQQACBOgXyCuTsX3PI4lqjMqyzlLyAAAKxCTAAEhslCSGAQMoE+P9ZeIMz73rhduyZKcDnMNODRwgggAACCMQhQF8tDkXSQAABBIorEBVX+Yiy1gZxBXGUTlSGxa0qqSOAAAIIIIAAAoULMIBcuB2DA4XbsWemAJ/DTA8eIYAAAgggEIcAfbU4FEkDAQQQKK5AVFyFQE5x7UkdAQQQQAABBKpIgAHkwhuLwYHC7dgTAQQQQAABBBAotgB9tWILkz4CCCDQcAECOQ03JAUEEEAAAQQQQAABBBBAAAEEEEAAAQQQQAABBBBAoCgCBHKKwkqiCFSuAEeUV27bUDIEEEAAAQQQQAABBBBAAAEEEEAAAQQQQCBbgEBOtgiPEUi4AIGchDcw1UMAAQQQQCDBAvRjEty4VA0BBBBAAAEEEEAAAQTqFCCQUycNLyCQTAEGQJLZrtQKAQSKL8D/z8KNmXe9cDv2zBTgc5jpUc2P1u86YxPm7bEuEzZZ00Gr7Bd9l7GW2UDt0GX8Jhs/b4+pfVgQQCA9AvTV0tPW1BQBBKpXIK9AzoHVhyyuNSrD6mWk5AgggAACCCCQdAEGkAtvYQYHCrdjz0wBPoeZHtX4aN7aI9Z8yGrr8/h2m770hC3f8bptPfKe7Tr5a9YyG6gdlu183bVLn8e2u3ZSe7EggEDyBeirJb+NqSECCFS/QFRc5SOqnjbYv/pQbGtUhtXPSQ0QQAABBBBAIAkC69ats/C6du1a++pXv2rDhw833ffrqlWrbM2aNUmoclHrwOBAUXlJHIGqEDhy+k17eGKNDXyi1pbXvmG1J86xVriB2kntpXZT+7EggEByBeirJbdtqRkCCCRHICquQiAnOe1MTRBAAAEEEEAgT4GFCxfaRz/6Ufva174WrF//+tct1/rZz37WrrjiijxTZjMEEEAgnQK1h161JgNX2vTlJ2zniXOsVWagdlP7qR1ZEEAAAQQQQAABBMojkFcgZ9/qgxbXGpVheQjIFYF0CTAlSbram9oigEBhAt/73vds1KhRkTv/5je/sU9/+tO2fv36yO14EQEEEEizgM7kUBBg9roztv34OdYqNVD7qR05MyfNn2bqjgACCCCAAALlFIiKqwRn5MQVxFE6URmWE4K8EUiLAIGctLQ09UQAgYYILFq0yD7/+c9HJtGvXz/78Y9/HLkNLyKAQLwC9GPi9SxFapqW6/GlJ2zbsQ9Yq9xA7aj2ZEEAAQQQQAABBBAovUBUXIVATunbgxwRKLoAAyBFJyYDBBBIiMANN9xgI0eOrLM2n/nMZ9x1dOrcgBcCAeZdDyi400AB+jENBCzx7vPWHrEBM2tt69EPWBNioPZUu7IggECyBOirJas9qQ0CCCRTgEBOMtuVWiGAAAIIIIBAAwUWL15sl112Wc5U+vfvb7feemvO13jyQgEGBy404ZnCBAjkFOZWrr2aD1lti7a9bluOfMCaEAO1p9qVBQEEkiVAXy1Z7UltEEAgmQJ5BXL2rzpoca1RGSaTmFohgAACCCCAQLUKfP/73895Vs4ll1xia9eurdZqlbzcDA6UnJwMESi7wPpdZ6zXtG22+fD7rAkzULuqfVkQQCA5AvTVktOW1AQBBJIrEBVXCaZWiyuIo3SiMkwuMzVDAAEEEEAAgWoU0Fk5n/vc5zKKPmDAAPvRj36U8RwPEEAAAQQyBcbP22NTFh2zmsPvsybMQO06/pk9mQ3OIwQQQAABBBBAAIGiCkTFVQjkFJWexBEojwBTkpTHnVwRQKB6BW688UYbMWJEUIG/+Zu/sTVr1gSPuYMAAgggcKFA5/Eb7bnNr9qGQ++xJsxA7ar2ZUEAAQQQQAABBBAonUBegZy9qw5aXGtUhqWrNjkhkF4BAjnpbXtqjgAChQksWbIkOCtn4MCBdssttxSWEHshgECDBejHNJiwZAncP2iVrdxz1tYffI81YQZqV7UvCwIIIIAAAggggEDpBKLiKsEZOXEFcZROVIalqzY5IZBeAQZA0tv21BwBBAoX+MEPfmDDhw+3v/3bv7XVq7nI88VKMu/6xYqxfV0C9GPqkqm853/Rd5mtO/Aea0IN1L4sCCCQHAH6aslpS2qCAALJFYiKq4QCOQds76p41qgMk8tMzRBAAAEEEECgmgWWLl1qn/zkJ+2//uu/qrkaZSs7gwNlo09cxgRyqqdJNdC/dv+7rAk1IJBTPZ9FSopAPgL01fJRYhsEEECgvAJRcRUCOeVtG3JHAAEEEEAAgQoS+PKXv2yrVjGVTCFNwuBAIWrsg0B1C2igf82+d1kTapDmQM7b779lW89stmf2zbLRm4dZz9Wdre3S5vbAgnut8fN3u1s91vN6Xdtpe+3HgkClCtBXq9SWoVwIIIDAeYG8Ajn7Vh6wuNaoDM8Xi3sIIIAAAggggEDpBd47957VvrTd5h2YY6M2D7XuqzpZmyXNMgZn9FjP63Vtp+21HwsCCCCAwHkBDfSv3vcua0IN0hbIURBm2dFFNnhjPxesUcCmkFX7Kx2COuf/V3APAQQQQAABBPITiIqrBGfkxBXEUTpRGeZXZLZCAIGGCDAlSUP02BcBBJIqsOHkGhtRM8gNyvRZ293GbhttT+19yhYeXWyrTq2zDWe22KYXt7lbPdbzel3baXsN5mh/pcOCAAIIIGCmgf5Ve99hTahBWgI5p948YdNrJxcUtKkv0KN0lT4LAggggAACCCCQj0BUXIVATj6CbINAlQkQyKmyBqO4CCBQNIF3zp11Z9S0WtLM+q/vbU/snWnrXthozx56zibuGG8DNvS1ziva24NLHrAHFtzjBnF0q8d6Xq9rO22v/bS/0lF6OlNH6bMggEC8AvRj4vUsZmoa6F+x513WhBokPZCjM2Zm7p5WZwCn26qONmrLCPfd//yRBbbyxBpbf7rGNp7Z4m71WM+rb6DttH1dgR3lwxk6xfxvRNoIIIAAAggkQ4BATjLakVogkLcAAyB5U7EhAggkWGDJkQXWYvH9NmzzYFtwdJE9c+hZG1Iz6LdBmnY2YstQm77ncZt3eL4tP7nK1pzeaOvP1LhbPdbzel3bdV7Rzu2n/ZWO0lO6Sl/5sJgx7zrvgrgE6MfEJVn8dDTQv3z3u6wJNUhyIGfdydXumjfZgZeuqzra1F2TXb9AfYKLXdV/0P5KJzttXVNH+bIgUC4B+mrlkidfBBBAIH8BAjn5W7ElAggggAACCFS5wPE3jtiAdT2t3/peNu/w8/bU/lnWfXUXa7+8lY3bPsYWHlti605vuuhV+2l/paP0lK7SVz7KT/mmeWFwIM2tH2/dCeTE61nM1DTQv2zXO6wJNUhqICfXNGq91naz2QfmXHTfIKo/ofSUbnZAR/mzIFAOAfpq5VAnTwQQQODiBPIK5OxZecDiWqMyvLiiszUCCCCAAAIIIJC/wNoTK92AyaTaifb8sYXWZ31P67CijT225zFbc3pDbKvSU7pKX/koPw3UKP+0LgwOpLXlqXeaBTTQv7T2HdaEGiQtkPP6e6/b4I39MgIr7Za1tJl7Z8TWP8jV11D6yicc0FE5VB4WBEopQF+tlNrkhQACCBQmEBVXCa6RE1cQR+lEZVhYFdgLAQQQQAABBBCIFtA1azotb2tzD/3KJtdOdNe8GbvtUVv9wrqirUpf19RRfspX+ascLAgggEAaBDTQv6T2HdaEGiQpkPPy2Ret5+rOGcGURzYNsJUvrClaHyHc/1A+yi8czFF5VC4WBBBAAAEEEEDAC0TFVYJAzt4VByyuNSpDXyhuEUCgeAJMSVI8W1JGAIHKFHh6z0zrsaaLLTqxxIZsfsQ6rmxrcw7PtRWn1xR9VT7KT/kqf5VD5WFBAAEEki6ggf7FO8+yJtQgKYEcnfmSHcQZv2Ns0fsHufogyjc7mMOZOUn/T0n9EEAAAQQQyF8gKq4SCuTst70r4lmjMsy/2GyJAAKFChDIKVSO/RBAoBoFdAaMgidLTi5zU531Xtfdlp5aYctfWFWyVfkpX021pnKoPJyZU43vJspcCQL0YyqhFfIrgwb6F+04y5pQg6QEcrKnU5u2e0rJ+ge5+iLKPxzMUflYEEAAAQQQQAABCUTFVQjk8B5BIIECDIAksFGpEgII5BTQNWkeWtHGnj++wPqs72H9N/S2ZS+sKNuq/FUOlUflStM1c5h3PedblCcLEKAfUwBamXbRQP+C7WdZE2qQhEDO9NrJGUGTKbsnl62PEO6fqBzhYI7KyYJAsQXoqxVbmPQRQACBhgsQyGm4ISkggAACCCCAQIUJHH/jiBsEmXXwKRtU0996retmS08tK/uqcqg8KpcGaVTONCwMDqShlUtTRwI5pXGOIxcN9D+/9e2Sr5Pm7TT9z8m1/vD2xjZt4d6Sl6kcDsXOs9oDOetOrs4IlozZ/mjZ+wjhforKEw7mqLwsCBRTgL5aMXVJGwEEEIhHgEBOPI6kggACCCCAAAIVJNBvXQ8bs3O0ja0d485+WXBysS06tbTsq8qhs3FULpVP5UzDwuBAGlqZOiKQKaCB/vnb3i75Ou5X21wQ57J//Ce7t3Vf+3mz7m79zo23uef/8q8+Y0+sPFHycpXDoph5VnMg5+3337K2S5sHgZIBG/uUvX+Qq4+icvlgjsqrcrMgUCwB+mrFkiVdBBBAID4BAjnxWZISAggggAACCFSAwJIjC6z3um42+/Bsa7LgHnviwBO28OTiillVHpVL5VM5VV4WBBBAIGkCGuh/bsvbJV/Hzf0wkNO007AL8u444DEXzOk9+pkLXitHWas5z2oO5MzcPS0IkLRZ1sIWnFhYMX2EcH9F5VL5fDBH5WZBAAEEEEAAgfQK5BXI2bN8v8W1RmWY3mag5giUToApSUpnTU4IIFB6gXfOnbUWi5vYEwefsJ5ru9rwbUNswcmFFbeqXCqfyqnyqtwsCCCAQJIENNA/b/NbJV/HztnqgjW/bDvggrzHP7PDvdaoRU/71abX7MeNWpuCOp0HzXDPD5u+2u3z+JLD9oMf3+Oe01Hqt9/b3p5YeTIjvSGPrbQvfuUqt82ll/2jteszyZ7d9EawzdSF++2m36bxv/7hy9a+7+SM1+esf9nu7zDY/ux//KVL41+vvdnGzt0W7F/f6+WwDedZrYGcU2+eCAIjCpBM3D2h4voI4X6LyucDObpV+VkQQAABBBBAIJ0CUXGVj4hEG8QVxFE6URmmswmoNQKlFSCQU1pvckMAgdIKzDswxwZu6mtT9ky09stb2vMnnq/YVeVTOVVelZsFAQTqF6AfU79RpWyhgf5na94q+Trmt4Gc+x8aekHe/SYsdEGTTo/MsFmrX7S/ufQLQbBGAZWRT26wqc8fcMEVPW7be6I9+PBot80n/+ozNmPpcZdm79HPuuf+6V++be37TrHvfP8n7nGrHuPd674MSuOBjsPsv37W3L1+46332DMb33Db+OfuazvA2vSa4Mry0T/5mI371c68Xi+HbTjPag3kTK+dHARGHl7TqWL7COH+i8rpgzkqPwsCCCCAAAIIpFMgKq5CICed7wlqnXABBkAS3sBUD4GUC7Ra0tRmHJxhnVe3t7G1j9q8k89Z/03n55j3AyHlvFV5VC6VT+VUeVXuJC/Mu57k1i1t3ejHlNa7IblpoH/upjdLvj46+8Mzcr79/Z9Yj5G/soeHPe3Wnzfv6YIpCq48vuSYPbn2Rfu7z33JBW1GPLUpKOdtv2hnn/yrT9vkBfuD54ZOX+P2vbfNALff5750hf3DV66yp9accdvM2fiGXfEv33bpPb3hVbv6Wze512eueCFIo3XPCS6NYTPXuTQURLqndf/gdZVJZes1Zl69r5fDNTvPagzk6Boz4e//yXsnu+9jfSdX8qpyhsvNtXIa8p+JfesSoK9WlwzPI4AAApUjQCCnctqCkiCAAAIIIIBAAwQ2nFxjvdY+bFP2TbE2y5rbsyeedevgLQOs77qe1nZpCxu0sb8tPr7MNpzZXLJV+Slf5a9yqDy+bCqnyqtyq/xJYAbd7AAAIABJREFUXRgcSGrLlr5eBHJKb15oji6Qs/FNm1viddTTHwZy9H8ne1UAZviTm1yZnljz4Rk5t9/XMShjrudU/jkb3jAFhq785ndt5FM1Lt3OQ2cF+2mbSc/vt0emrrTpy07aX33m7+zHjdrYk6vO2NTFR+zxJcdt9JztLlDTpMMQUz4+iNT84dE27tndLg9vVd/rfrty3lZjIGfZ0UVBQKTjyjbBd7H/Tq7kW5XXB3NUDxYE4hagrxa3KOkhgAAC8QsQyInflBQRQAABBBBAoAwCQ2sG2ujaUdZnQw8bsnWg/erEr9z6yJb+9ujWkbb69Hp3q4EQ/3jN6Q1WrDVXfspX5fFlUzlVXpVb5U/qwuBAUluWeiFQt4AG+mdvfLPk68jfBnLubNbDnlr3qs1c86JbZ6w4nVEWPa+zYn7ZfkjwfK7nfB1uuPUe+9o3v2cjn9rsAjmDHlsd7Oe30a0CRdkBpPDj/69pd7ffsCc2urN2wq/dcX9X8+Ws7/VwnuW4X42BnMEb+wXBkJE7hgbfxf47uZJvVV4fyFE9WBCIW4C+WtyipIcAAgjEL5BnIGef7VkezxqVYfzVI0UEEEAAAQQQSIPAe+fecwMcTx992povbmIzDk63ucfnunXg5n42astwW/nCarc+d3S+DdjQx1ovbW6TaycGz/vX47hVukpf+Sg/n6bKofL4sqmcKq/KrQEa1YMFAQQQSIKABvqf3vBGydeRs7a4QMovWvePzHvG6jMukHN3q37BdgqifBjcGRw8pzrMWv+6/cu3b7J/vvq7NmTGepd+7/ELM7aZtvSEjXtmjz06Z4d7/c5mPW3a4mM28fn9bp2y6LC7nb7sVMZ+E58/YF2Hz7Hv/Vcjt58CPWG3+l4Pb1vK+9UWyMmeVu2pw08E38X+O7mSb1VeH8jRLdOrJeG/JHVAAAEEEEDg4gSi4iqha+TEE8RRMCgqw4srOlsjgEAhAkxJUoga+yCAQKUL1L603bqt6WgT9k2wdita2tPHZwfrgM19bcTWIbb01LKMdeb+GdZ11UNu1f3s1wt5XF+aKofKEy6fyqtyq/yqBwsCCCCQBAEN9M9aryBIadcRT/02kNOqf2Te01eesUsu/YLd3bJfsN0Ta16xL1z+DbvyX79rs9a+Fjw/ZeFRNy1ao5Z9bfxz+34bcOkRvK46Xv2d/7TPfu5L9tjyF9ztj37eJuP1R5/+MMDTd+JS8/cHTlmVsc23brjN5T1q1jaXR12vh8tWal+fX7UFcrae2RwEQh5a2Trjezj8nVzJ91VuH8xRfVgQQAABBBBAIF0CUXGV84GcZftsT0xrVIbpoqe2CJRHgEBOedzJFQEEiisw78AcG1DTx01b1ntjD5t1bFaw6vkhWwfZgpOLcq7jdo6xVkubWZ/1PezpI7NzblPXvv557af9lY7S889n36ocKk+4fCqvplvT86oHCwII1C1AP6Zum0p7xQVy1r1hs0q8Dn/iw0DO3QrkROT9+Ioz9jf/8wvWSIGc0HbtB850QZQf3dXGJjx30B6dXWtXfOP/2P/zxx+zcc/sddve2qit26ZF9/E2ft5+u7fdYPe4+cNj3eu/aD3QPb6v3RCbOP+QKXijvHTtnMeWnDKf91e/8R0b8eRWm7r4hHUbNc/t06TjiHpfD5e3XPerLZDzzL5ZQRCk36ZeGd/D4e/kSr6vcvtAjurDggACCCCAAALpEoiKqxDISdd7gdqmRIABkJQ0NNVEIGECZ3aPsbdfqvvo05GbB9vI2mHWbV0nG75jiD117Mlg7V/T2wZvGWjzTj5X5/rMyXluGw2QaFs9jtrev3ax+yltlSdcPpVX5Vb5VY8kLsy7nsRWLU+d6MeUxz1Xrr/5zW/s5z//ea6X3HMa6H9q7eslX0c89eHZLPe1HxKZ92PLz9jf/f2X7N62gy7Y7v5OI11QxV+/5s/+/C9twNTVwXYzVr1sN/+sRcY2t9/X2fS86vzkmtfsrhZ9Ml7/+y9eYSNnbQ/S6P7o/IzXldd3bvxvm7b4pNumvtfLYRvOsxIDOV/72tfsxRdfzPmeHL15WBAEGbFzaMb3cPg7uZLvq9w+kKP6sCAQpwB9tTg1SQsBBBAojkBegZzdy/ZZXGtUhsWpIqkigAACCCCAQLULHFnTzPYu+KEd3dDOzr6y44LqaIq0SfvGWdvlLWzi3rH25NGZwdq/ppcN3NLP5p6YW+8649B067n+YWu5tKmN2jk8cnu9ru20vfbLJ32VQ+UJl0/lVblVftUjiQuDA0ls1fLUiUBOedxz5frQQw/ZH/7hH9pf//Vf2/Dhwy/YRAP9M9e8XrXrxIXHbejMLW59fOXLOesx/vkjNmruHpu8+GTdr8/ZbeOfO5Tz9ceXv2jDn9ru1jG/2nfBNvW9Xk7fSgvk1NTU2O/+7u/a7/3e79kDDzxwQUCn5+rOQRBkwr5xGd/D4e/kSr6vcvtAjurDgkCcAvTV4tQkLQQQQKA4AlFxleCMnLiCOEonKsPiVJFUEUAAAQQQQKDaBd5987DtXfCftu/5/7B9i261I+vbZAR0Wi15wKYenmzNFze2KYcm24xj04O1b03PC6Yzq2/qlHF7xliHVW3cqvvh7aNeC2+X676mT1N5wuVTeVVulV/1SOLC4EASW5U6IWB22WWXucHzP/uzP7PPfOYzGQEdDfTPWPM6a0INKi2Qo89j06ZN7Y//+I/tE5/4hP3+7/++NWnSJAjotF3aPAiCZPcTwt/JlXxf5faBHNWHBYE4BeirxalJWggggEBxBKLiKgRyimNOqggggAACCJRE4IP3XrEkrcdrOtu+hTfb3vnft33P/9AFdHSGzuunltkDC+6xx49MsyYLfuFupx99zPzaZ1MP61vTy2YenXHR69Dtj9iDS+63h9d3srG7R7lbPdbzhaSncqg8vmy6DZdb9Thx4gQrBrwHeA9UxXtg1KhR9qd/+qfBFGF/8Rd/EZyho4H+6atfY02ogdq30r6vdu7c6QI4GpDW+rGPfcw91hk6Dyy4NwiC6Hs3/D1cLfdVbh/IUX1YEEAAAQQQQCBdAgRy0tXe1BYBY0oS3gQIpEPgrRc3uTNYDiz9mSVl3bfox7Z3/o0ukKNgjlsXfBjY0cDGY0enugEO3YbXPpu6m9bwcxd3f4rbX3l8mM6UgtOqqyzh8n/60582Vgx4D/AeqJb3gB8097d/8Ad/4Ka30kD/46teY02ogdq3Et+jOhNH06v59+Pv/M7v2Ec/+tEgAOK/by+uH5DZryjnviq/X9PRo6WWCCCAAAIIIOAFCOR4CW4RSIkAgZyUNDTVTL2AAjnHa7omyuHIupa27/kffHhGzqJb3TRrZ3aPs3Pvv+nOyJl6ZLI7I0e3045OCdbeNd2tZ83DNvnIxLKvKofKEy5fuNw6I4cFAQTqFqAfU7dNOV4ZOHCg/fmf/7kbNP+jP/ojdwbEt7/9bVu7dq1poP+xla+xJtRA7VtpS21trbtuk4I4CuBoyj9N/zdt2rSMM3Ky+wnh7+RKvq9y+yAOZ+RU2ruP8iCAAAIIIFB8gfwCOUv32u6Y1qgMi19dckAAAQZAeA8gkA6BpAVy3n5pq5tKbd/i//vbAM5YF8DxrfngkgdswsGx1mzRL238gbE29cikYO1d08161HSx8YfHlH1VOVSecPlUXpVb5Vc9krhoUI0FgTgE6MfEoRhfGp/61KdMZ+D8yZ/8iV133XUugONT10D/tBWvsibUoBIDObfeeqs7+0ZT/H3uc59zARz/fgxfI0fft+Hv4Wq5r3L7QA7XyPEty21cAvTV4pIkHQQQQKB4AlFxlfPXyIkpiKNgUFSGxasmKSOAAAIIIJAugaQFcvYv+ak7G8efgZPdml1XdrCRe4dZq+XNbMSeoTbpyIRg1VkwD2/qZGMOjSz7qnKoPOHyqbwqt8qveiRxYXAgia1anjoRyCmPe65cb7rpJjeF1bXXXpsRwPHbaqB/6opXWRNqUGmBnJqaGvvd3/1du/TSS23q1Kn+bRjc9lzdOQiCjNwzLON7OPydXMn3VW4fyFF9WBCIU4C+WpyapIUAAggURyAqrkIgpzjmpIoAAggggEDRBZIWyDn7yo6MM3CyAUdsHmQDd/S1jmva2oDtfWzi4XHB2qOmq3Xd2MFGHhxS9lXlUHnC5VN5VW6VX/VI4sLgQBJblTohYDZixIg6GTTQP3n5q6lbG3cdb//w1att0tKXE133Sgvk6I3Yv3//Ot+PozefD4Lo+zb8PVwt91VuH8hRfVgQiFOAvlqcmqSFAAIIFEcgr0DOrqV7La41KsPiVJFUEUAAAQQQSJ9A0gI59bXgvANzrMemLtZr88PWdUPHjCnUNJ1Zpw3tbPCBAWVfVY7sad5UXpVb5Vc9WBBAAIEkCGigf9KyV1K3Nu4yzgVyJi55KdF1r8RATtTn5pl9s4IgSLeNnTL6CZUw9Wo+ZVC5fSBH9WFBAAEEEEAAgXQJRMVVgjNy4griKJ2oDNNFT20RKI8AU5KUx51cESi1QNoCObUvbbfOq9vZkF0DrPWypjbu0KPB2n1TZ+uwoY0N2N+n7KvKofKEy6fyqtwqv+rBggACCCRBQAP9E5e+krr1l53H2Re+erVNWPxSoutebYGcrWc2B0GQ1iuaZ3wPh7+TK/m+yu0DOaoPCwIIIIAAAgikSyAqrkIgJ13vBWqbEgECOSlpaKqZeoG0BXLeO/eeG9wYdXC4NVt0nw3bN8hGHx7pVl2Xpv36VtZnf/eyryqHyuPLpnKqvCq3BmdUDxYEEKhbgH5M3TaV9ooG+icseaUq1tHPv2C3NelpmlpI65XX/NB6T60Jyv7IE7vsO/95t3Ubu9Juvaer/Y+//LQNm3PQvd64y0T7X1/8Z/ufn/+q3ddprP289VD7wpevtvGLXgr27zJqqX31G98N0u4w5Lngtai0K9mv2gI5b7//VhAE0fftiANDg+9i/51cybcqrw/i6Fb1YUEAAQQQQACBdAkQyElXe1NbBIwBEN4ECKRDIG2BHLXqkE39rc+2HtZpXTvrVtPZHj00wq0Pb+pobda3sB57O5d9VTlUHl82lVPlVblV/qQuzLue1JYtfb3ox5TevNAcNdA/fvHLFb+OWXDavvov33NBlp8+0Mcad55gn/67z7vHXUcvd+XvPmGte+wDPZd/7Ts24ldH7P/+srt7/p/+9Ub7SZNewTZf//f/tHGLXnT7Nu3xmHv+S//07/aLtiNN2yqdex4aHZl2pdtVWyBH7+PBG/sFwZBeWx4Ovov9d3Il36q8PpCjerAgELcAfbW4RUkPAQQQiF8gv0DOkr22K6Y1KsP4q0eKCCCAAAIIpFMgjYGcDSfXWJc17W1gbR9rvrSJjTo0zK1dNnW01uuaWdc9Hcq+qhwqjy+byqnyqtwqf1IXBgeS2rKlrxeBnNKbF5qjBvrHLX654tdmPWe4wErbQc8GZR0297AL5nzlG9+1MQvPWM/JG902//tr37Ghcw+57fo9vs09d9MdrW3sopfcc4Nm7Qv2G7voRVM6n/rrz9oP/rtlsI22/T+33OfO6hn+zNGcaVeDWzUGcpYdXRQEQ1quaBZ8F/vv5Eq+VXl9IEf1YEEgbgH6anGLkh4CCCAQv0BUXOX81GoxBXEUDIrKMP7qkSICCCCAAALpFEhjIEct/eCSB+yR3f1M88j33vqwjTw4xLpu7BAMfvhBkHLeqjwql8qncqq8KneSFwYHkty61A2B3AIa6B+96KWKX//9B3fa3//j123k8y9klPWutiPsTz/xSRv09H7rPmmDC9o82H9WsM09HcfaR//4Y9Zvxs7gOdX39qb97PJvfNdGLzhjnUevcPs17TnDhj97zB6Ztc+GPXPUHuz3tHu+06PLcqZdDW7VGMjJnl6t/86e7vtY38mVvKqc4X4L06rl/p/Dsw0ToK/WMD/2RgABBEohEBVXIZBTihYgDwQQQAABBIogkNZAzrwDs63L+g7We3s3e3Dp/Tbs4KCKXVU+lVPlVblZEEAAgSQJuEDOwpdsdIWv3/qPRvblq75roxacySjrfZ0nuUDOI7P2W/eJHwZy2g9fFGzzi45jg9fDddTzn//K1S69n7cb6QI2GiDNtbYe/FzOtMPpVer9agzk6PM1vXZyEBRps6pFxfYRwv0XldMHclR+FgQQQAABBBBIp0CegZw9tmtJPGtUhulsAmqNQGkFmJKktN7khkC5BNIayHnn3Flrvqix9avtaW1XtXBn4ww9MNAqbdVZOSqfyqnyqtwsCCCAQJIENND/6IKXKn69+rs/+TCQ8/yZjLL+d4tBLlAz8Kn91m3CbwM5QxcG29z90IeBHL0erqee//zlV9uo589Yk26PuwBO8z6zbOBT+6zfjF1uHfDkh/dHPvdCzrTD6VXq/WoN5Jx680QQFFFwpOe2rhXXRwj3WVQ+H8TRrcrPggACCCCAAALpFIiKq4TOyIkniKNgUFSG6WwCao1AaQUI5JTWm9wQKJdAWgM58l5yZIF1XNPW+u/uaU0W/ML61na3wQf6V8yq8qhcKp/KqfKyIIBAfgL0Y/JzqoStNNA/6vkXK379wR1tPgzYPLkvKOvI+WfsK9+43v73N66zEc+9YA+PX+8CMm2HLgi28UGa1o/MC54L7zdy/mnrPmmT2+/+HjOCbWTS+OHH7BN/+Wkb+OS+nGlXg1u1BnL02Zi5e1oQHGm2pLEN2t+vYvoI4f6KyqXy+UCOys2CAAIIIIAAAukViIqrBIGc2iV7LK41KsP0NgM1R6B0AgyAlM6anBAop0CaAzly773uYeta08GtLZY1sUf29bFB+/uWfVU5VB5fNpUzDQvzrqehlUtTR/oxpXGOIxcN9I987sWKX7tNqnHBli/+07fs4QkbbeBTB+x7P2nhnmvWe5Yrf9ffBnLaDFkQ1GfI3OP2mUu/ZB/7xCet5YBnrN/MvXbTz9q5/f75mh/aiOdO24h5Z+yK//dGdy2dZr2fdtvc12WK2+bfb2rkXs+VdjW4VXMgR9eYabu0eRAgab+2Zdn7B7n6KCqXD+KovFwbJ47/TKRRlwB9tbpkeB4BBBCoHIGouAqBnMppJ0qCAAIIIIDARQmkPZBz/I0jbvCj586Hrd26VtZ6VXMbsL9P2VeVQ+VRuTQ4o3KmYWFwIA2tXJo6EsgpjXMcuWigf8T8F6tibTVovguuhK9j8/N2Y4Kyd/GBnKELg+dUtx5Tttpff/ayYN/Pfv4rdu0tje3yr19nwxTImf+iDZx1yP7luz8JtlEe19zUyAbPPe5eryvtSrer5kCO3t/rTq4OgiT6Pu68qV3Z+wjhforK44M4ulV5WRAopgB9tWLqkjYCCCAQj0B+gZzFe6w2pjUqw3iqRCoIIIAAAgggkPZAjt4Ba0+stDbLm1uf3d1dIKfN6hbWf1+vsq3KX4EclUflUvnSsjA4kJaWpp4InBfQQP/w585UzTroVyesy7j11nncOus/62De5R7y7Cl7eGKNC+oMnXe6zv16Ttvutun3xL46t6kmr2oP5OidOr12ckawpMuWDmXrI4T7JypHOIijcrIgUGwB+mrFFiZ9BBBAoOECUXGV82fkxBTEUTAoKsOGV4cUEEAAAQQQQEACBHI+fB/MOzDb2q9qaX32KpjTzFqtaubu993fw0q1Km/lq/x1X+VRuVgQQACBJAtooH/IvDOsCTVIQiBHn7/BG/tlBE06b2lfsv5Brn6I8g8HcVQ+FgQQQAABBBBAQAJRcRUCObxHEEigAFOSJLBRqRICOQQI5JxHmbV3ugue9NrV1dqubWHNlza2bts7Wp+93Yq+Kh/lp3yVv4I4Kg8LAgggkHQBDfQPfuYMa0INkhLIef29163n6s4ZwZOHNrYuev8gVx9E+YaDOCqXyseCAAIIIIAAAghIgEAO7wMEUiZAICdlDU51UytAICez6XUGTOvlzazLjg720KbW1mTBL6zdhpbWc1/Xoq1KX/koP+Wr/DkTJ7NdeITAxQrQj7lYsfJtr4H+Qb86zZpQg6QEcvQJefnsixcEc1qtaWY99nYpWh8h3P9QPsovO4ijcrEggAACCCCAAAJegECOl+AWgZQIMACSkoammqkXIJBz4VtA16TRIEn7jS2t684O1nLl/dZsyS+tQ01r67G3c2yr0lO6Sl/5KD/lm6Zr4mTrM+96tgiPCxWgH1OoXOn3c4GcuadtEGsiDZIUyNGnQ2e+ZE+z1nTJffbQ5jax9Q9y9TWUvvIJB3FUDs7EKf3/rLTnSF8t7e8A6o8AAtUgQCCnGlqJMiKAAAIIIHCRAgRycoMdf+OI9Vnb1Tqsbmmdd7SzDltbW4vljd0gStv1LaxzbXvrtrfjRa/aT/trMEbpKV2X/uqWLj/lm+aFwYE0t368dSeQE69nMVPTQP/AuadZE2qQtECO/yxMr52cEVRRgOXBFU2s47Y2F903iOpPKD2lGw7g6L7yZ0GgHAL01cqhTp4IIIDAxQnkFcjZuXi3xbVGZXhxRWdrBBBAAAEEEKhLgEBOXTIfPr/kyAJrvqixtVv7oHXe0dYN0LRc/YA1WXSPNVv6S2u1pqm1r2lpnba3sa617a3r7g728J6H3K0e63m9ru20vfbT/hqYUXpKV+krHxYzBgd4FyCQPgEN9A+Y8wJrQg2SGsjRJ3XdydXWdmnzC4IszZb90tptetD1C9QnuNhV/Qftr3SyAzjKT/myIFAuAfpq5ZInXwQQQCB/gai4ykeUjDbYuWh3bGtUhvkXmy0RQAABBBBAIEqAQE6UzoevvXPurLtmzYNL7rd2qx+0tjUPWqfd7azDtlbWakMza7GyiT2w9D4XpPnlgrvdoItuFbTR83pd22l77af9lY7S07VwlD4LAgggkFYBDfT3n/0Ca0INkhzI0Wf27fffspm7p10QcPEBmKbLfmmt1ja1tpsftIe2t7ZOtW2t8+721nlPe3erx3per2s7be/3zb5VPsqPBQEEEEAAAQQQiBKIiqsQyImS4zUEqlSAKUmqtOEoNgIXKUAg5+LANpxcY4M39XODLG1XtbDW65ta25oW1n57S3uotrV12tXWOu1u6271WM/rdbfdqhZuP+2vdFgQQAABBMw00N/36RdYE2qQ9ECO/wyfevOEm+4sO/gSx2NNo6b0WRBAAAEEEEAAgXwECOTko8Q2CCRIgEBOghqTqiAQIUAgJwIn4qX3zr1ntS9tt2cOzLbhNQOty8p21mLx/dZkwT0uWKNbPdbzel3baXvtx4IAAsUXoB9TfOO4ctBAf59Zp1gTapCWQI7/POiMmWVHF9ngjR8e9FFoIEf7Kx3OwPGy3CKAAAIIIIBAvgIEcvKVYjsEEiLAAEhCGpJqIFCPAIGceoB4uaQCzLteUu5EZ0Y/pnqaVwP9vWedYk2oQdoCOeFPnoIwW89stmf2zbLRm4dZz9Wd3TV1HlhwrzvoQ7e65o2e1+vaTtsTvAkrcr/SBOirVVqLUB4EEEDgQgECORea8AwCCCCAAAJVL0Agp+qbMFEVYHAgUc1Z1soQyCkr/0VlroH+Xk+dYk2oQZoDORf1QWBjBKpEgL5alTQUxUQAgVQLEMhJdfNTeQQQQACBpAoQyElqy1ZnvRgcqM52o9QINERAA/09nzzJmlADAjkN+XSwLwKVJ0BfrfLahBIhgAAC2QIEcrJFeIwAAggggEACBAjkJKARqQICCCBQxQJNHllp3WYctx5PnGRNmIHatcnAlVX87qToCCCAAAIIIIBA9QnkF8hZuNt2xrRGZVh9fJQYgeoTYEqS6mszSoxAIQIEcgpRYx8EEEAAgbgEOozZYB2nHrRuM0+wJsxA7ar2ZUEAAQQQQAABBBAonUBUXOUjKoY22LFwV2xrVIalqzY5IZBeAQI56W17ap4uAQI56WpvaotAWgTox1RPS4+Zu9taj621h2ecYE2Ygdr10Tm7q+fNSEkRQAABBBBAAIEECETFVQjkJKCBqQIC2QIMgGSL8BiBZAoQyElmu1ZjrZYsWWL67mFBIA4B+jFxKJYmjfW7zlirUZus64wTrAkzaDlyk6l9WRBAIDkCXCMnOW1JTRBAILkCBHKS27bUDAEEEEAgxQIEclLc+BVWdQI5FdYgVV4cAjnV1YBNB62yDlMOWpfpx1kTYqD2vH/Qqup6I1JaBBCoV4BATr1EbIAAAgiUXYBATtmbgAIggAACCCAQvwCBnPhNSbEwAQI5hbmxFwJJEJi39oi1enSzdX78OGtCDFqOqjG1KwsCCCRLgEBOstqT2iCAQDIFCOQks12pFQIIIIBAygUI5GS+AY4cOWKHDh2yffv22auvvpr5Io8QQAABBIom0HHcRms5ptY6PXactcoN1I4dx24s2nul3Am//vrrtn//freqz/Cb3/ym3EUifwQQQAABBBBAIBAgkBNQcAeBdAh06tTJtLIggECyBQjkfNi+tbW19sUvftF0lGF4bdOmjb311lsFvQkUDPrUpz5lr7zySkH7sxMCCCCQJoEjp9+0xgNWWOtxu63jtGOsVWqg9lM7qj2TtnzwwQfWt2/fjH6C+gz6rl+1qvBp5O68804bOnRo0rioDwIIIIAAAgiUSSC/QM6CXbYjpjUqwzIZkC0CqRIgkJOq5qayKRYgkGO2cuXKYFBm2LBhtmXLFjcgo4EVDdBceuml9tJLL130u4RAzkWTsQMCsQlwjZzYKEuaUO2hV10Q4MHRO63D1GOsVWagdlMQR+2YtEVBnNtuu831C6677jpbuHChbdu2zSZPnhz0ISZNmlRQtQnkFMTGTggggAACCCBQh0BUXOUj2kcbxBXEUTpRGdZRRp5GAIEYBQjkxIhJUghUsEDaAzk6W0ZH0mrdu3fvBS01ZswYN0Bz//33X/BafU8QyKlPKPN1rpGT6cGjhgkQyGmYXzn31pkcmpar1cgaazPhgLWbeoy1wg3UTg+OrHHtlsQBFi8QAAAgAElEQVQzcfR50IEeOrije/fu9utf/zrjI3Ly5MngrN4DBw5kvJbPAwI5+SixTaUI6HPAggACCCBQ2QJRcZUgkLN9wS6La43KsLKpKB0CCCCAAALVI5D2QM7UqVPdwMxzzz2Xs9E07/1NN93kAj0aqNERuR06dLDFixfbnDlz3L46g0fLpk2b7MYbb7QrrrjCevbsaStWrHD7hadWUxpNmjRx+2m7mTNnBgNCUWnnLFzCniSQk7AGLXN1COSUuQFiyH7e2iN2/6BV9uDITdb80R3Wavx+azP5sLWdcpS1zAZqB7WH2qXFiI2undReSV00xaqmX7366qtdPyBXPdevX+++23v06OFe1lRrbdu2tT179pgCNVoVAHrnnXesT58+rq+gM3t0VvAdd9xxwdRqTz75pF111VUuzaZNm1o4QFRX2rnKxXMIxC1AICduUdJDAAEE4heIiqsQyInfmxQRQAABBBAoiUDaAzkaWNHUaW+88Uad3gq26EfrmjVr7O233w6OutVzOpNn586dtnTpUreNHg8aNMguv/zy4LEP5OgMHb+PzvRp3bq1e9y4cWM3uFNX2nUWLGEvEMhJWINSHQRiEli/64yNmbvbOozZYE0GrrRf9F3GWmYDtUP70Rvs0Tm7Te2T9GXXrl3u+3rixIl1VlUBGn3333DDDXbu3DmbMWOG20ff+1r1nf/ee+/ZNddc4x63atXKunXrFmzz6KOPBml37NjRPa8DP8aPH+/6KUpD/Q0tudLOPksoSIw7CMQsoPciCwIIIIBAZQvkGcipte0L4lmjMqxsKkqHAAIIIIBA9QikOZCjs210FKzOookaAPEBmA0bNrgjaTVQo4CNBna0vP/++3bllVe6I3XPnj3rnlPad999d3BGjh7ffPPNbps33zx/AejHH3/cDdbs2LEjZ9rV806ipAgggAACCCRTQNfC0eC1PwO3rloq8OL7FP4gEE3FpsCOlmeffdalM3/+/CAJfyaPpm7TsnnzZrfN3Llzg21ef/11FyS66667TP2JXGkHG3MHAQQQQAABBFIvEBVXCZ2RE08QR8GgqAxT3xoAIFACAa6RUwJkskCgAgTSHshRcMUPutTVHP5IXB/I0fQqOorWLz7Qs2jRIv+Uu9VgjAI+OiNHgzA680dH2SrY89JLL9mrr77qpkrRNqNHj3aBnOy0MxLkAQIIIIAAAgiUXKCmpsYFVzZu3Fhn3gqw6Cxf36fQWTMf//jHTVOq+uW+++67YHo27acp1oYOHeo2GzdunNtP1+1T30H9BfUbBgwYYJdcconrU+RK2+fBLQIIIIAAAgggEBVXIZDD+wOBBAoQyElgo1IlBHIIpDmQIw4Nqlx22WV1znmvbfx1dMKBnPAUKD6Qkz3Ao+d9IMcHg3REb661X79+QSAnnHaOJuMpBBDIQ4Br5OSBxCYIIJCXgP+er+t6ekrEX0dHgRw/tZrvA/hMwmfs+Od026hRIxfI8cGgXP0EPefTUyDH3w+nw30EEEAAAQQQQEAC+QVynq+17TGtURnSJAggUHwBAjnFNyYHBCpBIO2BnJ49e7rASl3TpWhQ5aabbnJHweo6OpoDX2fN+CNn1YY+SKNAT3gJB3IOHTrk8tERtToT54UXXnCrjrTVfU23livtcHpJv881cpLewqWtH4Gc0nqTGwJJFjh16pT7Dv/xj39c51Ssq1atcttMmDDBUeQKtujgER/oCXvpTB7fr9C1dBSk0Rk5p0+fzugv6LGWXGmH0+M+AsUUUFCRBQEEEECgsgWi4irnz8iJKYijYFBUhpVNRekQQAABBBCoHoG0B3KOHj3qBl6uvvpqF2DJbrnJkye71/v37+9eyhVs8Wn4bXwaw4cPD46Y9RdB1tRq4cUHeMJn+/jBnPB2abhPICcNrVy6OhLIKZ01OSGQBoE2bdq4/oCubZe9aApVf/28M2fOuJdzBVs6d+7s+gV+G22ofRW48dfIefrpp93UaseOHcvIRv0HH0jKlXbGxjxAoIgCBHKKiEvSCCCAQEwCUXEVAjkxIZMMAggggAACpRZIeyBH3mPHjnWDMxpImTVrlulMGp1l07ZtW/f89ddf786W0ba5Ajl6XkfQ6oftpEmT7MUXX7TZs2cHaWqQRsuIESPcc7oejrZR8EZn9+jaOZyRY0Ygx71N+IMAAgggUIEC+i7Xd7a+6++//37TmbzqLyxYsMB9j+v58LXycgVbDh486PbXNXH2799vhw8fNvUxtK+fVtUHdq688krbsWOHOyOnb9++bpvHHnvMyeRKuwLJKFJCBfR+ZUEAAQQQqGwBAjmV3T6UDgEEEEAAgYIECOR8yKYgggI5+nEaXjX12gcffBDY+jNr/ICLf0HP33333cG+SqtXr17BGTnaTtO0DR48ONhG+WigRmflaKkrbZ8HtwgggAACCCBQPgFNserPzAn3FS655BLbtm1bRsF0YIj6Av5gDv/iypUrM/oBmm7t2muvDc7I0XYKEPmgkc9HZ/mqH6GlrrR9HtwigAACCCCAQLoF8grkbHu+1uJaozJMd1NQewRKI8A1ckrjTC4IlFuAQM75FtDFiQ8cOODOxtEZObqWzcUuJ0+edEfYnj17ts5dNahz/Phx0/VxWBBAAAEEEECgugT0Pa5+gladZeMDLPnWQn0EHcSha+RFLSdOnDCtb731VtRmvIYAAggggAACCGQIRMVVgqnV4griKJ2oDDNKxgMEECiKAIGcorCSKAIVJ0Agp+KahAIhgEAMAlwjJwZEkkAAAQQQQAABBBBAAIGqE4iKqxDIqbrmpMAI1C9AIKd+I7ZAIAkCBHKS0IrJqAPXyElGO1ZKLQjkVEpLUA4EEEAAgSQJaLo/FgQQQACByhbIL5Azf6dti2mNyrCyqSgdAggggAAC1SNAIKd62irpJSWQk/QWLm39COSU1pvcEEAAAQTSIUAgJx3tTC0RQKC6BaLiKufPyIkpiKNgUFSG1U1J6RFAAAEEEKgcAQI5ldMWaS8JgZy0vwOoPwIIIIAAAghUugCBnEpvIcqHAAIIWGRchUAO7xAEEEAAAQSqVIBATpU2HMVGAAEEEEAAAQQQQAABBBBAAAEEsgSiTpAhkJOFxUMEkiDANXKS0IrUAYH6BdIeyHn99dftnXfeqR+KLRBAAAEEEEAgVQJvv/22aW3IEkcaDcmffRFAAAEEEEAgfQIEctLX5tQ45QIEclL+BqD6qRFIayBHAZwf/ehHpukhunXrVpHtffbsWTt9+rT95je/ceXbt2+fK+/GjRsrsrwUCoFKEuAaOZXUGpQFgeoS0Peu+gbqI3zxi1+0c+fO1VuB7O/o7DR2796d8R0+a9Ysu+SSS+yVV15xB5Rcfvnl9uijj9abT9QGOjBF5d2wYUPUZryGAAIIIIAAAgkXyCuQs3X+Totrjcow4dZUD4GKECCQUxHNQCEQKLpAWgM5u3btcgMqQ4cOtYMHDxbduZAMpkyZYh//+MfdII/294NEW7ZsKSS5it+Ha+RUfBNVVQEJ5FRVc1FYBCpK4K233rJLL73UWrZsafl+5/rvaB9EyU7Dv+7TmzFjhn3qU58KAjkKwKhP0pCFQE5D9Ng3XwGukZOvFNshgAAC5ROIiqsEU6vFFcRROlEZlo+BnBFAAAEEEEiWQFoDOYcOHXIDKO+++27FNujTTz/tytjQaV0qtoJZBSOQkwXCwwYJEMhpEB87I5BqgV//+tfuzBYd9JHv4gM1PpBTXxrFCOS8//77LgDly5Bv2dkOgYsRIJBzMVpsiwACCJRHICqucj6QM2+nbY1pjcqwPATkigACCCCAQPIEKjGQc+rUKbvzzjvdGTM6I6V3796mqdD8cubMGWvcuLF7XT8mu3TpYq+99pp/2VauXGmDBg2y48ePW5MmTdx2V1xxhW3atMlto9d/+tOfuuebNm1qCxYscM8rqKP9lKZWTb22f//+IN2TJ0+69LZt22Z9+/Z1U6KorB06dLD58+fbnDlzXOBFeSlNlaldu3ZB/jU1NUFaurN8+XK78cYb3euaUkV56wheLUuXLnWDMSrH7bffbhpMUl4tWrRwZ+b4hLZu3WrXXHONS0NW48aNC6aA0ZG5zZs3t9raWps7d65dddVVbrvOnTvbBx984JOomFsCORXTFBQEAQQQSK3AsWPH3Henvn/VF9F0Z5rqtG3btu67PgwzadIke+SRR0xBm3AgJ1ca6kOEv8PrC+ToO3zw4MGuX6EzdwYOHJjRF1I51C9Qf0j9jrvuusvWr1/P1GrhBuJ+UQT02WBBAAEEEKhsgai4CoGcym47SocAAggggECdApUWyNHghwYstE6ePNkUdNAPRg1QaL55DVr416dPn24aRNHrfp55VVSDI3pO68033xwMhOjxgQMHXKBHwRE9VqDn2WefdYGNm266yT03bNgwe/LJJ91giLbx06D46dj0nNbrr7/eXcNG06HoscqlYIx/rOeuvPJKF4jyZdZAjpZVq1a5fW655RYXAOrZs6d73KhRI1dPBZs0rYvS0HN79+51wRw99kfaahs9vu6662z27NnWo0cP91gDT5rPX2fyhMvSq1cvu++++9w2mi6GBQEEEEAAAQQyBdQPuffee9135c9+9jMbMmSIO8gi19Rn+r694YYb3HdudiAnOw0dVBH+Do8K5Oj7W/0Hba/+gaZc0331C9544w1XYN8f0vP6fvcHwITzyKwZjxBAAAEEEEAgLQL5BXKe22FbY1qjMkwLOvVEoJwCXCOnnPrkjUDpBCotkNO6dWt3XRgNiPhlxIgRwbViFNhR0EYDGH7RGTIauFAARsvMmTPd49GjR/tN3FGq4cENP7Xa/8/em8BHcZzp/5tfks1uEu9usnESH9kkTtZxnKwTO3Yc238ndnzhA9uAjW2wDTY2l8Hcp7lvhLgvcUkcAiHu+xJI4hRIiBvMLSFAAqGD2xfw/j9PiWp6RqOZkdQz09P9zOdTmpnuqrfe+lZX6a1+prv1bcsg5mD/xo0bjTK4CggnbnDVDIQRfZIGAo6+Akjfjx4nV0pLS1VZPHMHtnBFj77yZd++fWpbRkaGytOnTx+59957jf3YiKtpYOfSpUsqj/et1XT9EHJw+xSc5DHXgUIQv3Q74Ruu9AGvc+fOKZsQwyBY6TapjfxDAiRAAiRAAiRgEMD/fPz/1z/k0P/rvZ9hgx+D4P+p9xU5MORtw/w/HPv9CTmIB3CVLX7EoV979+5V/9+nTZumNiEewo9EzM/5mzJlihED6HJ8JwESIAESIAEScB8Bf7rKrStyLBJxIAb5q9B9+NliEgg/AQo54WfOGkkgEgTsJOToK0i6d+/ugQK3NMHtQvArVJxY6devn8d+iBMNGjQwfhVrPjmiM+qHDuurWXBCBSdASkpKVBZcqfLEE094CCvYAWFE59MnYdatW6fNiq+TO3qbWUjSZXX9EHiQD20+ffq0QIzCr2l1XajAux1mG/qz2ReU0e3EySbth/eJJ7QJt2PDiSe+SMCpBPiMHKf2LNtFAqEngP+f+GGF/p9d0f9Tf0KOtw39f1vbNP+PN9vXMQ1iEvxopLi4WCX8WARX/9SrV8+44tY7HsIPUBBH6DpCT4o1kAAJkAAJkAAJ2JGAP12FQo4de4w+kUA1CVDIqSZAFieBKCFgJyFHn8gwCyBmjHo/7lfv/TKfTDGfHNH5dFl9cgMnVMyiibm8LoP3hQsXGvn0SZjt27cbWbRdfTUQduhtui5s02X1Nnx/7rnn1C9ncQWNTmafvNthtqE/m33RdeMqHPij/TD7hjywa0chh8/IQe/wZRUBCjlWkaQdEnAfAfz/jJSQo3/UouMC7/cnn3zSuNWbdzyk/+/rWMN9PccWh4MAjkm+SIAESIAE7E2AQo69+4fekQAJkAAJkECVCNhJyNEnL3A/evPrq6++ktzcXHXLMVyR433iAr9exbNw9H3qvQUQ2PI+KQMhxCya4GoYfXsUc924TYnOp8UT8wkSfdLEfNWLd12wZy6rb4uGW6PhWTlnzpxRz8XRt1LTVwl5t8NsQz+vx1vIQVmcfPJ3RQ6FHHMP87NTCVDIcWrPsl0kEHoC3v/H9f967x9GmH8EYv4fDQ+9bXjvN/+P1/b1/25969TCwkIVIyBOOHv2rEpFRUXGFTnm2MNXnaEnxRrcSIBCjht7nW0mARKINgLBCTkr9slui5K/CqMNHv0lARIgARIgAbsSsJOQg9uN4VYi+LUp7i2vX4mJiepe8Tihgf3eggvEC4gtWgAynxzRNnydUNECDfLgmTXm79jm/TwZ75MwyGM++VJRXdhuLqsFq9jYWF1E1YXbu8EH3BoFL90O5MfLbAMPY8ZC2vukEm5Bh+14Fo8v37RdXpGjkPIPCZAACZAACZQj4B0z6P/bZuEE/6txBayOScz/o2HQ24b3fv0/HjGM9/9rCETez9FDHgg8+DGL/kGI/gGLboCOAcw/ONH7+E4CVhGgkGMVSdohARIggdAR8KerGLdW27Vin1iV/FUYumbSMgmQAAmQAAm4i4CdhByQT0lJUUJEjx49pKCgQPAMGCwYGzVqpMSO5cuXG/sh7Jw4cUJefPFFJfTk5+erzjOfHNG96euEilm4ycnJUXZfeOEFOXbsmLovPZ7Vg7r1c2i8T8LAtvfJF73NfEsWbDOX1WXefPNNVReuNuratauqCz4dOHBAuY0rdFA/bu+G5wOZbSBDp06d1P7k5GR1tRJO3KC8Pvmj6zGfeEI58LGjkKMazT8kQAIkQAIkEGEC3jEDnimH/5v4H5uamipHjx5VsQf+R7/99tvqmXPe/6O9bXjvN8cq3v+vtSADQScvL0/FCoiDUN/+/fsVHR0jdOzYUV2po2MA5KGQE+EDiNWTAAmQAAmQQIQJ+NNVKOREuHNYPQmEggCfkRMKqrRJAvYjYDchB4SSkpLUyQqcjEDCbc9wWxH9mjZtmsd+nFjZvXu33q2Ej7vvvlv0LcqwQ58k0Sc3cEIF5cx5tm7d6mEXdUMk0S99EsZ8OzPYxS9yzbd7864L5XVZXX96erpHXQ0bNpTVq1erbbh9HK5IgpAFH+EHbsGmbej6UU+bNm087ECIwm1X8PLlG7bj5JH+BbHKyD8kQAIkQAIkQAIGAV//xw8fPqxuXapjk27duklcXJzx/9TX/2j8P9f/9733m5/B5+v/tY4JdH233Xab4Fly5heeKaj3471///4qbtB1mvPyMwmQAAmQAAmQgHsIUMhxT1+zpSSgCFDI4YFAAu4gYEchB+Rxy5JTp04ZooR3b2A/fhGLhFuyWfXC83hgEydccBVMKF+wjyuBtPCCurDt8uXLRrUQdPSt1YyNXh9wZRL8hS2+SIAEygjwGTk8EkiABKwmgBgBPywpLS212rRPe1evXlWxEOqsKNbBD1Lw/z9cPvl0lBtJgARIgARIgARsRYBCjq26g86QQOgJUMgJPWPWQAJ2IGBXIccObOhDeAngl8Y4+c4XCVhBgEKOFRRpgwRIgARIgAQ8CeDqL75IgARIgATsTYBCjr37h96RAAmQAAmQQJUIUMipEjYWCgEBCjkhgOpikxRyXNz5bDoJkAAJkEDICFDICRlaGiYBEiABywgEJ+Ss3Cu7LEr+KrSsVTREAiRAAiRAAi4nQCHH5QeAjZpPIcdGnUFXSIAESIAESIAESMAHAQo5PqBwEwmQAAnYjIA/XUVdV4kMu5bvtSz5q9BmbOgOCZAACZAACUQtAQo5Udt1dJwESIAESIAESIAESIAESIAESIAESIAEPAj401Uo5Hig4hcScAYBPiPHGf3IVpBAIAIUcgIR4n4SIAESIAESIAESIAESIAESIAESIAESiA4CQQk5O5fvFauSvwqjAxm9JIHoJkAhJ7r7j96TQLAEKOQES4r5SIAEookAn5ETTb1FX0mABEiABEiABEiABEiABKwi4E9XMa7IsUrEgR1/FVrVKNohARKomACFnIrZcA8JOIkAhRzre/PIkSOC+4dv377deuMmi6jnpz/9qZSUlJi2Ru9HPiMnevvOjp5TyLFjr9AnEiABEiCBaCfAZ+REew/SfxIgATcQ8KerUMhxwxHANpIACZAACTiSAIUc67tVCzm7du2y3rjJIoUcEwx+JAEvAhRyvIDwKwmQAAmQAAlYQIBCjgUQaYIESIAEQkyAQk6IAdM8CZAACZAACUSCAIWcSFC3pk4KOdZwpBUSIAESIAESIAESIIHgCFDICY4Tc5EACZBAJAlQyIkkfdZNAiRAAiRAAiEi4FQhJz8/X1q2bCl79uyRIUOGyN13323cgiw7O1tq1qypbn9Wt25d2bx5czm68+fPV7ctw2L1xRdflC1btnjk8WejoKBA2rVrJxBaPv/8c2nWrJns3r3bozz2NWzYUA4cOKC2f/HFFzJq1ChVJ26XNnz4cLlw4YJHGV3nQw89JAMHDpSNGzc66tZqHo3lFxIgARIgARIgARIgARIgARIgARIggUoTCErI2bVsr1iV/FVYae9ZgARIoNIE+IycSiNjARKISgJOFXIgoECE0QlizMWLF2XZsmVq23PPPSeJiYlSp04d9T0pKcnoP4gkKNehQwfB9vvvv19937dvn8oTyIauOysrS4lHEGZgy/waNGiQIcJcuXJFHnnkEVUH6h4zZoz6fM899yifUS49PV1tg62RI0fKAw88YHx3yjNyzHz4mQRIgARIgARIgARIgARIgARIgARIoPIE/OkqxjNyrBJxYMdfhZV3nyVIgAQqS4BCTmWJMT8JRCcBpwo5uOJFX01z/vx51Tm4wgXiSI8ePeTGjRtqG97btm2rrti5dOmS5OTkqHIdO3Y0OhTlIaDExsaqq2QC2dB1Q8jBq1OnTso+hCS8cPUNhJju3bur7/Hx8XLbbbfJ4cOH1Xf82bt3r/Jj2rRp8vXXXyuh54knnpCrV6+qPPC7cePGhhhkFOQHEiABRYDPyOGBQAIkQAIkQAIkQAIkQAIk4EYC/nQVQ8jZuWyPWJX8VejGDmCbSSDcBCjkhJs46yOByBBwupCzbt06AyxuswZxZ+XKlYKrYIqKiuTy5cuSmpqqtu/atUvmzJmjRJUTJ04Y5fBh//79cvz4cXWrtkA2vIWczMxMZV/fnm3Hjh1GfRBkGjRoIBBpIBgVFxerVFpaKi+//LLUq1dPDh06pPKb2wKfdu7c6SghJy0tTXDynS8SsIIAhRwrKNIGCZAACZAACXgSQBzMFwmQAAmQgL0J+NNVKOTYu+/oHQmQAAmQAAlUSMDpQs727duNts+cOVMJIliA+koQWiDk4Oob7+fTaCPB2PAWcryvwOnTp4/ce++96kobCEr61m2+fHryySfl4MGDyl9zW+AP6oGvTrm1GoUcfZTx3QoCFHKsoEgbJEACJEACJOBJgEKOJw9+IwESIAE7EghKyNmxbI9YlfxVaEdA9IkESIAESIAEopGA04UcfXsz9M3y5cuNK1tw5cuZM2dUwpU5+PzNN99IcnKyT3GkoKBAzp07F5QNbyEHdeO5NrglG2zgtmoTJ05UhwtEHjwfp27dulJYWGj4dPbsWUGCb+Zn7piPMQo5Zhr8TAIkQAIkQAIkQAIkEGoCFHJCTZj2SYAESKD6BPzpKsYVOVaJOLDjr8LqN4cWSIAESIAESIAEQMBNQg5ujYbF56pVqzw6HwLP3Xffra5sSU9PV3n0bdCQEc+lgQgTExOjbq8WyIYvIUdva9myZblbt2EbrtCBkKRfWuCB4JOXl6d8Gjp0qN6t3seNG+dTdPLIxC8kQAIkQAIkQAIkQAIkQAIkQAIkQAKuIeBPV6GQ45rDgA11EwE+I8dNvc22upmAm4QcPI+mTp06SkjBc3FwtcuSJUuUSAIxBfshpuB5Nbhl2datWyU3N1c+/fRTlQfPyQnGhhZtzFcDXb9+XZ566illB8+9wXf90s/QgQ8QbY4dOyaNGjUy6kS+Tp06qe/Tp09XV/UsXrxYfXfSrdU0D76TAAmQAAmQAAmQAAmQAAmQAAmQAAlUjUBQQs7OpXvEquSvwqo1gaVIgAQqQ4BCTmVoMS8JRC8Bpws53s+VuXjxoiGS4MoaJAgouAJGv3D7s+eee07tw/7bbrtNFi5cqHdLIBtayPGuG8/f8XU1DwyvXr3aqE/XiWfG6Bf8a9y4sZEHAs6gQYN4RY4GxHcS8CLAZ+R4AeFXEiABEiABEiABEiABEiABVxDwp6sYV+RYJeLAjr8KXUGcjSSBCBOgkBPhDmD1JBAmAk4VcgLhy8/Pl1OnTklpaWmFWfGMGv3sHF+ZgrHhq1xF23ALN/gUqE5cJYS8TntBuMLJd75IwAoCFHKsoEgbJEACJEACJOBJAD844osESIAESMDeBPzpKhRy7N139I4ESIAESIAEKiTgViGnQiDcETECFHIiht6RFVPIcWS3slEkQAIkQAIRJkAhJ8IdwOpJgARIIAgCFHKCgMQsJEACJEACJBBtBCjkRFuPOddfCjnO7Vu2jARIgARIgARIwBkEKOQ4ox/ZChIgAWcTCFLI2S07l1qT/FXobNRsHQmQAAmQAAmEjwCFnPCxZk0kQAIkQAIkQAIkQAIkQAIkQAIkQAIkEEoC/nQV49Zq2Ut3i1XJX4WhbChtkwAJlBHgM3J4JJCAOwhQyHFHP7OVJEACJEACJEACJEACJEACJEACJEACzifgT1ehkOP8/mcLXUiAQo4LO51NdiUBCjmu7HY2mgQcT4DPyHF8F7OBJEACJEACJEACJEACJEACPggEJeTsWLJbrEr+KvThHzeRAAlYTIBCjsVAaY4EbEqAQo5NO8aFbvEZOS7s9BA2mUJOCOHSNAmQAAmQgGsJ8Bk5ru16NpwESCCKCPjTVYwrcqwScWDHX4VRxI2ukgAJkAAJkICtCVDIsXX3uMo5Cjmu6u6QN5ZCTsgRswISIAESIAEXEqCQ48JOZ/rm16IAACAASURBVJNJgASijoA/XYVCTtR1Jx0mARIgARIggTICFHJ4JNiFAIUcu/QE/SABEiABEiABEiAB3wQo5Pjmwq0kQAIkYCcCFHLs1Bv0hQRIgARIgAQsIkAhxyKQNEMCJEACJEACJEACJEACJEACJEACJEACESZAISfCHcDqSSDcBPiMnHATZ30kEBkCFHIiw521kgAJkAAJkAAJkAAJkAAJkAAJkAAJkIDVBCjkWE2U9kjA5gQo5Ni8g+geCVhEgEKORSBphgRIwFYE+IwcW3UHnSEBEiABEiABEiABEiABEggTAQo5YQLNakjALgQo5NilJ+gHCYSWAIWc0PKl9eAJ8Bk5wbNizsAEKOQEZsQcJEACJEACJFBZAnxGTmWJMT8JkAAJhJ9AUEJO9uJdYlXyV2H4m88aSYAESIAESMCZBCjkOLNfo7FVFHKisdfs6zOFHPv2DT0jARIgARKIXgIUcqK37+g5CZCAewj401X+BRiQwSoRB3b8Vege7GwpCZAACZAACYSWAIWc0PKl9eAJUMgJnhVzkgAJkAAJkAAJkEAkCFDIiQR11kkCJEAClSPgT1ehkFM5lsxNAiRAAiRAArYhQCHHNl1BR0iABEiABEiABEiABEiABEiABEiABEigWgQo5FQLHwuTQPQR4DNyoq/P6DEJVIUAhZyqUGMZEiABEiABEiABEiABEiABEiABEiABErAfAQo59usTekQCISVAISekeGmcBGxDgEKObbqCjpAACVhIgM/IsRAmTZEACZAACZAACZAACZAACUQNAQo5UdNVdJQErCFAIccajrRCAnYnQCHH7j3kHv/4jBz39HU4WkohJxyUWQcJkAAJkIDbCPAZOW7rcbaXBEggGglQyInGXqPPJEACJEACJBCAAIWcAIC4O2wEKOSEDbUrKqKQ44puZiNJgARIgATCTIBCTpiBszoSIAESqAKB4IScRbsk26Lkr8Iq+M8iJEACJEACJEACPghQyPEBhZsiQoBCTkSws1ISIAESIAESIAESCJoAhZygUTEjCZAACUSMgD9d5V/gFTJYJeLAjr8KI0aBFZMACZAACZCAwwhQyHFYh7I5JEACJEACJEACJEACJEACJEACJEACriXgT1cxhJzti3aJVclfha7tBTacBMJIgM/ICSNsVkUCESRAISeC8Fk1CZAACZAACZAACZAACZAACZAACZAACVhIwJ+uYhJydsr2RdYkfxVa2C6aIgESqIAAhZwKwHAzCTiMAIUch3Uom0MCJKAI8Bk5PBBIgARIgARIgARIgARIgATcSMCfrkIhx41HBNvseAIUchzfxWwgCSgCFHJ4INiFAJ+RY5eecIYfFHKc0Y9sBQmQAAmQgL0I8Bk59uoPekMCJEACvghQyPFFhdtIgARIgARIIMoJUMiJ8g50kPsUchzUmTZoCoUcG3QCXSABEiABEnAcAQo5jutSNogESMCBBCjkOLBT2SQSIAESIAESoJDDY8AuBCjk2KUn6AcJkAAJkAAJkAAJ+CZAIcc3F24lARIgATsRCE7IWbhTtluU/FVoJzD0hQRIgARIgASimQCFnGjuPfpOAiRAAiRAAiRAAiRAAiRAAiRAAiRAArcI+NNVbj0jxyIRB2KQvwpvucVPJEACoSLAZ+SEiiztkoC9CFDIsVd/0BsSIAESIAESIAESIAESIAESIAESIAESqCoBf7oKhZyqUmU5ErAxAQo5Nu4cukYCFhKgkGMhTJoiARKwDQE+I8c2XUFHSIAESIAESIAESIAESIAEwkggKCEna+FOsSr5qzCM7WZVJOBaAhRyXNv1bLjLCFDIcVmH27i5fEaOjTsnCl2jkBOFnUaXSYAESIAEbE+Az8ixfRfRQRIgARLwe6cz44ocq0Qc2KGQw6OOBEiABEiABEJPgEJO6BmzhuAIUMgJjhNzBUeAQk5wnJiLBEiABEiABCpDgEJOZWgxLwmQAAlEhoA/XcUk5OyQrIXWJH8VRgYBayUBEiABEiAB5xGgkOO8Po3WFlHIidaeo98kQAIkQAIkQAJuIUAhxy09zXaSAAlEMwF/ugqFnGjuWfpOAiRAAiTgagIUclzd/Ww8CZAACZAACZAACZAACZAACZAACZCAgwgEJ+Qs2CFZFiV/FTqIK5tCArYlwGfk2LZr6BgJWEqAQo6lOGmMBEiABEiABEiABEiABEiABEiABEiABCJGwJ+ucuuKHItEHIhB/iqMGAVWTAIuIkAhx0Wdzaa6mgCFHFd3PxtPAo4lwGfkOLZr2TASIAESIAESIAESIAESIAE/BPzpKhRy/IDjLhKIVgIUcqK15+g3CVSOAIWcyvFi7tAR4DNyQsfWjZYp5Lix19lmEiABEiCBUBPgM3JCTZj2SYAESKD6BCjkVJ8hLZAACZAACZCA7QhQyLFdl7jWIQo5ru36kDScQk5IsNIoCZAACZCAywlQyHH5AcDmkwAJRAUBCjlR0U10kgRIgARIgAQqR4BCTuV4MXfoCFDICR1bWiYBEiABEiABEiABKwhQyLGCIm2QAAmQQGgJBCXkZC7YIVYlfxWGtqm0TgIkQAIkQALuIUAhxz19zZaSAAmQAAmQAAmQAAmQAAmQAAmQAAk4m4A/XcV4Ro5VIg7s+KvQ2ajZOhKwBwE+I8ce/UAvSCDUBCjkhJow7ZMACZAACZAACZAACZAACZAACZAACZBAeAj401VuCTnzd0imRclfheFpMmshAXcToJDj7v5n691DgEKOe/qaLSUBNxHgM3Lc1NtsKwmQAAmQAAmQAAmQAAmQgCbgT1cxCTnZkjnfmuSvQu0U30mABEJD4Msvv5TXXntNcBIkISFB8J0vEiABZxKgkOPMfo3GVvEZOdHYa/b1mUKOffuGnpEACZAACUQvAT4jJ3r7jp6TAAm4h4A/XYVCjnuOA7bUBQTWrVsnd911l9StW1d69eql3vEd2/kiARJwHgEKOc7r02htEYWcaO05e/pNIcee/UKvSIAESIAEopsAhZzo7j96TwIk4A4CFHLc0c9spcsJ4MobiDZz5871IIHv2M4rczyw8AsJOIIAhRxHdKMjGkEhxxHdyEaQAAmQAAmQAAk4mACFHAd3LptGAiTgGAIUchzTlWwICVRMALdRw5U4vl7Yjv18kQAJOIsAhRxn9SdbQwIkQAIkQAIkQAIkQAIkQAIkQAIk4F4CFHLc2/dseZAEMj8vlISVh6R3Qra0HrlZmgxZH3Xp4ecbCpIv3/3t85XfDtvQD72nZsvUlYcE/cMXCZBAeQIUcsoz4RYSIAESIAH7EEAMh1gOMV20xth2iIut9EHF2AnZau3DGNs+Y8UKT5ywprXyWLeDLY43K45s2iCB6hHg3Gi/85ucG/0f00EJOdvmZ4tVyV+F/l3lXhIIL4GVW09I29FbJCZprySnn5b1+y/I7hNfyef516MuDRgeLzVefdOn39iO/dHULvQD+gP9EjN7r+on9BdfJEACtwhQyLnFgp9IgAScQ4DPyIn+vjRi7NnRH2NHU/wcjK8eMXYSY+zoH20ixni7uabdsC9617TBHMPRlAfjDf2h1rQcb04YbmxDFBHwnhuj+XxfNM17wfjKudH/QPKnq/wLiiLDtnnZliV/Ffp3lXtJIDwETpy9JH2n7ZDh8w7IhgMX5cDpa1GfduVckZ/9/E4ZMWGOR1vwHduxP5rbiX5Cf6Hf0H98kQAJiFDI4VFgFwJ8Ro5desIZflDIid5+dGKMHc3xczC+M8bmeAvmOGEea84XRHq88Rk50Tve6XnwBBiLWDNfhXPej/TcGPzRFZ6c/nQVCjnh6QPWYiMCB3JKpeXwTZK84bTsP33NUSl+TooSbXAFzidte6ordCDiYLtT2op+Q/+hH/kiAbcToJDj9iMgMu2fMWOGvP7669K4cWOVmjRpIjVr1pQ77rhD8Llp06ZGevDBByPjJGuNagIUcqKz+5wcYzsljvbXDsbY0TXuON6iex0fqfFGISe6xjm9rTwBzo2cGyt/1NivBIUc+/UJPYoQASjzEAEWbyuUvaeuOTJlH78ifYdPkebteqp3fHdaW9F/6EdemROhgcRqbUOAQo5tusJVjtSvX18efvhhmTBhgkpxcXFiTuPHjxekmJgY+fa3vy05OTmu4sPGkoAbCbghxnZaPO2rPYyxo2P0crw5Yx0fifFGISc6xji9rBoBzo2cG6t25NivFIUc+/UJPYoQAdyWa3b6adlz8humKGeAfkR/8kUCbiZAIcfNvR/Ztt91112ybds2v0506tRJWrZs6TcPd5IACTiDAGNs56wtGGPbf0xyvHG82f8opYckEH4CnBs5N4b/qAtNjUEKOdtl2zxrkr8KQ9NEWiWBwATwoLNhcw/I7rxvmBzCAP2JfuWLBNxKgEKOW3s+8u0eOnSovP322xU6cvbsWfnud7/Lq3EqJMQdJOAcAoyxnbe2YIxt3/HJ8cbxZt+jk56RQOQIcG7k3Bi5o8/6mv3pKqZn5Fgj4kAM8leh9c2jRRIIjkDb0Vtk3Z4LsuvEN0wOYYD+RL/yRQJuJUAhx609b49233nnnZKZmenTGV6N4xMLNwZJgM/ICRKUTbIxxnbe2oIxtk0Glw83ON443nwcFtxEAq4nwLmRc6OTBoE/XeWWkDN3u2yzKPmr0Elg2ZboIZD5eaEMmrVHduZ+zeQwBuhX9C9fJOBGAhRy3Njr9mlzbGysz6tyeDWOffooWj2hkBM9PccY27lrC8bY9huHHG8cb9U9KvmMnOoSZHk7EuDcyLnRjsdldXzyp6tQyKkOWZaNGgIJKw9J4rqTsiP3ayaHMUC/on/5IgE3EqCQ48Zet0+bb9y4Ib6uyuHVOPbpo2j1hEJO9PQcY2znri1UjL2cMbadRmPCcq5pnbqeD9d4o5BjpxFNX6wiwLmRsYhVx5Jd7AQl5Gydu12sSv4qtAsU+uEuAr0StsuqnaWSlfMVk8MYoF/Rv3yRgBsJUMhxY6/bq81DhgyRd955x3DqzJkz8p3vfEdyc3ONbfxAAiTgXAKMsZ27tmCMbb9xy/HG8Vbdo5JCTnUJsrwdCXBu5Nxox+OyOj7501WMK3KsEnFgx1+F1WkIy5JAVQl8OnKzbDp0VTKPf8XkMAboV/QvXyTgRgIUctzY6/Zq8/Xr1+WOO+6QrKws5VjHjh3l008/tZeT9IYESCBkBBhjO3dtwRg7ZMOmyoY53jjeqnzwsCAJOJgA50bOjU47vP3pKhRynNbbbI9PAk2GrJdtx75icigD9C9fJOBGAhRy3Njr9mszrsqpV6+e8Goc+/UNPSKBUBNgjO3s9QVj7FCPoMrZ53jjeKvcEcPcJOAOApwbOTc67UinkOO0HmV7Kk0AE/vWo18yOZQBF5mVHhIs4BACFHIc0pFR3oxr167Jz3/+c3n//fd5NU6U96Vd3OczcuzSE4H9YIzt7PUFY+zAYyCcOTjeON7CebyxLhKIFgKcGzk3RsuxGqyfFHKCJcV8jiWAiT3jyJdMDmXARaZjhy4bFoAAhZwAgLg7bAS6d+8u3/rWt/hsnLARd3ZFFHKip38ZYzt7fcEY215jsbLjbcnmHFmYdkiWbjoumw5e5lrY5mvhcIw3PiPHXmOa3lhDoLJzI88NRlfsEo650Zoj0TorwQk5c7Jkq0XJX4XWNSs8lr669pUcKNorK48tkQk7x0j/zT2lc1obaZXSTFqsaaze8R3bsR/5kB/l+LIPAQz8LUe+ZHIoAzdO7OEYXZcLt8vh1a8IxAK+7Eng3LHZZX1UuN2eDtIrxxGoKC5qubqpNEysx7jIcT0emQZRyIkM96rUyhjb2esLxthVGRWhKxPseJu6aKv8+re/F5y01+n7P7hNBo2ba6yH0/edV3k69RtnbAvFennu2v3yX/99u6zZfiak9Vjle79Rs+TBR/+unq9rlc1g7YRjvLlJyDHWslwnhW5SsonlYOfGYMci89krtgnH3GiTQ9lww5+ucusZORaJOBCD/FVoeGXzD1n5GTJ+x0gl1sRs7S9T9kySBYcXyNq8VNlcsE2yCndJ9rk96h3fsR37kQ/5IfKgPOzwFXkCGPibD3/B5FAGbpzYQz2qdOBb9PkQijmhhl1F++X6iIuUKpJksWAIMC4KhhLzkID7CDDGdvb6gjG2vcZ0MONtRMIyJd5AuOk7cqbMWrlTxsxYrcQJnMTv3G+8WhOn7S1VQk7bHiNCukaek7JPCTmrswpCWo9Va30wg5Cz8eCVsPsbjvHmFiGH6yR7zV2h9iaYudGqOYJ2wh/3hGNuDPUxWln7/nQVCjkmml9cu6quqOmY1kaGZg6WeYfnyrYz22V74a5KJ5RDediBPVypA/t8RYYABv7GQ18yOZSBGyf2UI4kHfheyZsucmmL4J1X5oSSeOVtV9hHRbwyp/I0WaIiAhXFRStyVsm0fQkyLGuI9Nr4mbRPayWtUprevFK5qfqO7diPfMjPuKgiytxOAtFNgDG2s9cXjLHtNT4DjbcVmQVKNPnpz++SRZtyPda+6QcuyWNP1VD7l2aclHV7yoScNj1GeOSzes08e02ZkAPfrLYdCnt9RpQJORsOfhF2fznerBlvXCdZwzGarASaG0MxV9Bm+OIfN86NQQk5GXOyxKrkr0K7TgZpJ1KkXeqnMnbnKEnJWyeZhTssS7AHu7CPevgKPwEM/A0Hv2RyKAM3TuyhGkVG4HtimsjFTUa6cmIaxZxQQa+k3YB9RDGnkkSZ3RcB77hoec4KGb1j5E2RpquM3zVGkg/NlpW5q2VD/mbJOLtdxU14x3dsx37k67WxqyqH8rDDuMgXcW4jgegkwBjb2esLxtj2GpeBxlufkbPU1Tgjpq70ue6dOHeT2j9p3mZZu7tUfvnb38snnQYLyuH2Z7hao3HbvpK+/7JH+cnzM+Txf76k9j/94hsyLinNYz9sNW8/QO2HjTrvNpc5qYdUnqTVZULO8swCo8yg8QvktXc+llHT1xjbzGv1jn3Hy9DJSyVhcZZR7zMv15WlW08b+ZGnVdehsv7zL4xtE5I3yFsNW8nqHedU+xo066LsDBo3X7Xv3j/8WYbFL5cVWWfl3SadlL/YNmXBVsNG7xEz5dG/Py9jZ66TBx56TOV5uc4HRnu0nws35qh2or2wAYbpB64adj4bPEU69Y9TtsG5U7/xxj5tw/ud4636443rpOozjEYLgeZG77HG79EVu7hxbvSnqxhX5Fgl4sCOvwrtNimcunhChm0bKLGZg2Rl7hrZdjY7ZAn2UQ/qQ718hY8ABj6CPCZnMnDjxB6K0XMr8J0qcnFDuXTlxFSKOaEAXwmbQfcRxZxKUGVWMwHvuGjB0YXSf0tv+WxDR4nfO1nWnkyrUpyEcigPO7AHu4yLzOT52UyAz8gx07D3Z8bYzoyt9ZqJMba9xl+g8fZ6vSZKsFi2LT/gujdlV6nc87s/KqHi+z/4obTpPkJQHsJEw+ZdjfIQXbDt4cf/Kd1iEuQfz72uvveInabypO67JH/+65NqG2x06DNOfcZVQWt2lsjM1Xs9fPpscLza/1Hr3kr40Mea+f2l2g1UHtRbr1FbQV58/sWv/lfZRF7keeDhJyRt32XD117DZhh1rd5ZLL/87X2qHESqll1jje+w9fv/+4s0addf5cf+BRuOKzsQcrBf192623D1GYzmpR5WedAm7Ec5CEr1Pmqnvteu10zS9l9ReTRLbQu+mdvo6zPHW/XGG9dJ1eMXzaUDzY2+xhu3RU/84sa50Z+u4mohZ+vpTeo2INMPTJOMs1lhS6gPz9BB/XyFhwAGfvqBL5gcysCNE7vVI8cIfHPjRS6kVZiu5MZTzLEafpD2Kt1HFHOCJMtsmoA5Llpzcq3EZA6Ubhs7S9KhJEtjJNiDXdhHPYyLdA/wXROgkKNJ2P+dMbaz1xeMse01BgONt9r1m8vf/lFDUvdeDrjuXbOzVH71m/vkjl/8WpZuzVf50/Zflb8/X8uwsTyzUO1v0KyrYB/W03iv26CV3P7zu2Tl9kIZFLdQiRgDx8036pw0b4vaNnZWmiSuKhNyVu8okW4xU9X2TzrHGHl9rdHRDgggE+ZsMvK17j5CCSfaV+R5/OmXJHXfFSNPr2GJRh5z+5ZtK1B5Zq85oOziqqJ1ey+pbVOXZKtt45LS1ffew8uEnCGTlhp20Qb4ozmA0R8feky1X/vfY+h0lQf2sE23AUKYzhPoPRzjDe1w4ovrJCf2avBtCjQ3Bhp73G/vWCYcc2PwR1t4clLI8cEZz6zpuaGLLM1ZJlvObAt7Qr2oH37wFXoCGPhpCDyZHMnAjRO7laPmVuA7ReTCuoDpSu4UijlWdkAQtqrcRxRzgqDLLCBgjotmHJimnnkzZc/EkMZHsI9n66A+xkU8Ds0EKOSYadj7M2NsZ68vGGPba/wFGm9a3Fi370rANd/qm0JOq27DPfK26TFKCSSwEb8oS4kTgycslpU7imXxllOyMrtIhiesUtsnL9gmr7/dRF0pk7LnomEndf9ViZuzSZZszVdCDq5m+aBlD1UGPgZak/tqB3zBFTCwifK+8vS8KeQgj6/26W3t+4wzfNAiDfyFXdiAwLV27yUjD9qDK4Agki3JyDfErVU7ShSTpdsKZObq/co/bRv+Qewx2wnU7nCMNycKOVwn2WueioQ3gebGQGOP++0dy4RjbozEceuvzuCEnOQsybAo+avQn6Ph2rfo0FwZkNFb1p1Ok41nMyKWUD/8gD98hZYABj4CMCZnMnDjxG7ViDEC35xJIudTgk5XciZRzLGqEwLYqXYfUcwJQJi7zXHR6J0jpMemLrIkd2lY4iPUg/pQL+MiHoskEH0EGGM7M7bWaybG2PYak4HG22tvN1ZXyizLLPS57l2ckS8d+8VJUsrnAhECgkWrbiM88kLI+NNfn5S1ey/LZ4MTlPiCk/++0piZqYLbiT329Esqvz5uzO8zVpZdzaLL40oe+GHO4/3Zl03Y+dGPbzfK+soD33UeX+3T2+KSNxr1a//0NnP7zX7p+uJvXsGj2+P93rT9QGVb5wdHsx1/n8Mx3uCvk15cJzmpN6velkBzo79xx332j2PCMTdW/egLTUl/usqtW6tZJOJADPJXYWiaGLxV/OIU4kla/nrZcGZzxBP8gD+8Mif4PqxKTgz8dfuuMjmUgRsn9qqMA+8yRuCbO1Hk/OpKpyu5EynmeEO1+LtlfUQxx+KecY45c1yEW50N3tZf0gs2hjU+Qn2oF/UzLnLOscWWuIMAY2xnry8YY9trHAcab11vCi/jkzf6XPcOHF92G7RJ87fKyuwyIaflZ8M98vYYmih/euRJWbv7sgwYV/Z8nNgpK2Th5tMyb32OSgs3nVTva3ZflBdrNZBH/1FDUvZc8rAza83nsmJ7sUxfUSbkdB8yXaYsLruN2VsftPHI671OrwVx6KmXlA96H+xApFm0JV+V9ZWn76hkI4+v9mHbHXf/Wsx8tH96m7n9um68oz60c8aqfUrUatZxsCzOKCjHZFnmuQr9M9vz9ZnjrXLjjeukyvFycu5Ac6Ov8cZt0RO/uHFu9KeruErIwb3fu2/sLGtOpcj6Mxttk+AP/OIzc0L3rwUDP2XvVSaHMnDjxF7d0XIr8J0gUrqyyulK7gSKOdXtjArKW95HFHMqIO3ezea4KCZzgAzNGhzR2Aj1ww/GRe49Jtny6CNglxh75Y7zkrj6c5mx6oDMSc9hzG9RzM8Y215jMtB4S07LUSLDHx78myzZds5jHCzYnC//g2fi3P1rWba9WJZvL1HfW3Qd7pGve2yZkLNm12WZvmq/sjcwbrFHnv5jF8jtP7tLYLNRqz7ynz++XeZuyDPyTFmyU5UblZgqU5fvVfsXby1U+5EfV4UMn5pi5Pdep79Wv5n87amXBD7ofdoO6sS2Gq838MizZvcVqVn3Y1UX8vhqH7ah/WNmb/SwC3/0NrQft4KbvnKfkWdp5jnFqmHLnsruPff+Ud5t2tXYD38w95jt+GqDbktF7xxvwY83rpOCZ1XdnDdu3JD58+dLly5dpF+/furzlStXqmvW0vKB5saKxlykt2PeTFp3VOauz/WYTyLtl93qd+PcGKSQkykZydYkfxVaOlorYezUxRPSYk1jWXh8gaQXrLddgl/wD37yZT0BDHwEd5FKc9fnyR13/0oFvPM3nY6YH5Fqf6jrdePEXp1RcrlouxJfruSOFyldXu0EO4dXvyKXz2VXxy2WNREIWR9RzDFRdvdHc1w0csdQGbStny1iI/gBfxgXufv45DNyoqf/Ix1jI8bsMWyWOoGKk6g63fvHv8j45M1GzJ2wbI9xkjXUcamT7DPGttdYDGa8dRowWR3rEFf6j1sgU5fulsETl6q1KMZH39Hz1LhYllVcJuR0GWaMExy73WJnyAOPPCmrd16S1bsuy5PPvaaEjSGTV8i8DSelz6i5yv7r7zRT+2emHFbfH37iWSXaTFiQKRA6sPZdmlUkGHvwRa+BF20+c1NQ+pVA3PE1XmAbQg580Pu97TTtMFjV27b3eIEP73/S3Wg36vLVPmyDX6OTNnjYBRe9DUIOviMfBKlpK/bJP56vo7ZBLIY/n3Ybqb636TlWsM5H2TKR7FabXn2rcbk26LZU9M7xFtx44zopOE5W5IKI06FDB3W833bbbfLTn/5Ufb7nnnukpKTEiiossRHM3FjRuIvE9imLstU8q2MWvGOe7Dd2vjE3WeWX99xpld1w2nHj3OhPVzFdkWONiAMxyF+FlozSKhiJ3TZAJu+fJOsK0m2b4B/85Mt6Ahj4q/dciVjqdjMgxAQ9YPyiiPkRSQahrNuNE3tVR4kR+OaMEylZalm6kjOOYk5VO8WrXMj7iGKOF3F3ftVx0ZQDk9VVwSn5qbaIj+AHrlKGX4yL3HlsotUUcqKn7yMdYzds2UudVIJwExu/SiYv3iFdY2eoEyKIu3GCFTFo+bW+8gAAIABJREFU/E0hR38PZVzqJNuMse01FoMdbzGTVxhjQJ8oxBiJm7/NWIcuzSpWgkvrHmOMbTh2MX4goqyCkLPniizMOCs1ajdQ40zbeu2dZoLy+lgfk7zJoz5zXRh7OEE5b9NpI//AiUuVvcbtBxrbtC28w/7TL75l+IBt3naWZJ6Tv/69huEXrkLqP26hUZev9mEbBBfzPOA9N6D9uNrojfdbGbZxhc6IxDTD11W7L0vzzrHGfnBBm6et+tzI80bD1vJUjTc92mBuo6/P4Rhv8DWaX1wnhbf3Nm/erI7zMWPGCEQdvJYvX662TZo0KbzO+Kkt2LnR17gL97ak1OOKH+bFniNmq7il77gFhtjee9RcYx6xwjfvudMKm+G2EY650c/hFZFd/nQVQ8jZkpwpViV/FUaCQNqJFBm8rZ+szU+1fYKf8Jcvawlg4K/adSUiaeWOS0ptxy+TMFkjEF6583JEfIkUg1DX68aJvSoj5FbgO1qkZHFZOr9KBEl/r8y7V9krOaMp5lSlY0xlfPaRjz755vQ0uXR0mJQe6Ccl+3qqd3zHdn99afQRxRwTdfd91HHR4tzF0jKlqcw7Ns9W8RH8gV/wj3GR+45PtJhCTvT0eyRj7NGzN6mTIS+8/r4s33HBI7aete64irtxonfFzosSv7TsipyxyVs88oU6Ro12+4yx7TUWKzPecNzPXHtUpq38XBJTjlT7uJ+19piyM29Tvk9by7aXqvpmp+X63B+qsZCUmiNz158KSZ3J6ScUv0WZRT7tz9t4WjGZs/6kz/2VbXM4xls0Czk+10le61F/66By+7zKOnGdhKtmVqxYIdevX6/SZJaQkKCuwjHfSu3rr7+WBx54QCDu2OVVmbmxsuPS6vxdY6arqxynrtjvMW9gPoHQ/MeHHldxi1X1Iv5RYvrG0x71WWU/HHbCMTfa5VjWfvjTVRwv5Hxx7aq0S20p847Pk5T8tbZP8BP+wm++rCOAgQ/xJBJpypLdapE5cMJSadx+sJpEEVSbfWndc6z0G79YBk5cpvYjwGr4aW9ZuKVQ5Vu8rUjea95Nxs3dKq16jDEUfPwTWLHzksqzLPu8vP1xJxk8abn0GjlH5cFiFfWMnZMhDzz8pNr2bz/4obTpNV4teLGv1+h58vq7LSQ5Lc/DpwHjl8grdRvLgs1n1Xb4/NrbTZWN3/z+T/LZkBmyIvuiRxlzm8L52Y0Te2VHhxH4Hh8pUjL/ZlogcnGLyKUMkWIIO3p7MO9Lyspd3CxSusgoe+X4SIo5le2cm/l999GtvrhROFNK9naXnPXvyfH0d6Vgewc5t2+AFH8+RL3jO7ZjP/Ihv68+NfqIYk4Veyq6i5njooFb+8i4PaNtGRvBL/jHuCi6jzd673wCkYyxEZfi5IR3XK1j0E+6Dle/cMVJXh2P9x27UD5s1deIiXsMS/KIZZEX+2EX8fjzr70vI2beWkfETk2Rph2HyIw1hz3i4tFJmzzszFx7TN5o2EZ+8rO7pFb9TyRufqYqBz+0f4jvm3aKVXWhPqwT5m8uMPbrfJF8Z4xtrzEcyfEWyePQLXWHY7xFq5Dje52k17JbqrCWXSxyaUvZWtjXWjbK10m7du2Sli1bqv9j999/v1y7dq1Kk1leXp5kZ3vePv3AgbLnQSUlJVXJZigKRdPciHN4+J/v6/894oA3P2jrcZ4N8cWj/3hJ9eXfn6sjw6auLRcndBs6U+574BGVBzFH/LJ9Rh7EHagP8Y2eS3HVz8tvfCQxk1ca2/Q+O76HY24MxXFZHZvBCTmzM2WLRclfhdVpSFXKrjy2RIZnD5E1p9dETYK/8Jsv6whg4K/YcTkiqUmHIWrinLexQMYkb1GTa7fYmR6+YJGIoAoiS/t+k+WjtgPV9z889LgszTovC7eck1/cc5/a9r9/eEh6DJ8tNd8qE1UatOilbJnzwBYm67j5WTIkIUWV+8vjz0iP4cmC/Hphumz7BRmRuF597zlijuHT8u0X5f8eflL9w0CeyTfFKNhs1WOsvNGwrSoDH5A3Umx1vW6c2CszOm4FviNESuYa6UbpGik9PEoJATfOpxnbzXkq+ny9dK2UHBwq54+OlRulaz3KXjk+gmJOZTpIRCrqI82/5EAvOZzyuhTu7ilf5c+T60Wr5HJOvJQcGi7FBward3zHduxHPuRHOW3D/G70UZQvUiqJmdlFVHyBOCPx0DT5bEMHW8dG8A9+Mi7ioUsC9iUQqRhbx704uRFMLKpjWcTAiKVb9xynYl187z1qnopldfyLbS26jpBOAxOMPBMX7lB5usRMVzEw8jzx7OvStGOZEIPvU5bsU3kSU46qOBxxM+wgH/YjjZi5QeWB//AD2xq27C3NOg9Vn/Fcjvkbz6g8Os6N5DtjbHuNvUiNt0geg26qm+PN93iraJ10ozRFSg9iLRsrVVvLDpfzR8bK9ZLVHuulaF0nFRYWSmJiovEcGzzPZsqUKYLtKSkp0qhRI2nTpk251LRpU1m4cKFv+KatkydPlo8//lj9r8Izcq5etc+Pz6NpbtRxBG4hifN1ON9X0TyH+ARxwoN/+6d06D/FiCcQn+gy7zTuovK8+nZTadM7zrhFG2wjD+IfxCNz0k+p7zjfCJvvf9JTlmdfMuxoe3Z8d+Pc6E9XuXVFjkUiDsQgfxWa5oGwfOyY1lrmHJ8jK/NXGWlodoy0WNPYNgn+mP2Dv/CbL+sIYOAvzb4U9jR/6zn51f/+QV59u5mqW39/5Mkasnj7ecMfCCIQccYkZxjb2vWdpCbYAXHLRJf72d2/krkbClSeJdsvystvfqzKJaw4aOTBJD1+QbbKszCzRC0Sn3y+tizKKi1ne3jielUOC8nnX2sgsAlOk5aU3X6iz5iFatsT/3xNfv/nv8ncjWcMG50GTlX+jZ27zdgWCcao040Te7Cj41bgO0ykOPlWKl0p10rWKsHl8OpX5NKJBJGSVbf2m/N6fb5Rukoun5hulIUddXs2U74rx4dRzAmykyrsI/A8N1Pyt30ip7e1lK/PLJDLuZPk1NYWcmRtHTmd2UYK9/aR4gMD1Tu+Yzv2Ix/yoxzKw45H/xcni9FHFHOC7ClnZNNxUa8tn8mUAxNV/GHXuAj+wU/GRc449tgKZxKIZIyNHzk1ajMgqDh04uKyK+QRk+sYPHnDaUFs3bTTUGVjRspRI/bWMe28TWfVCZCOAxNUni4xM1Selt1HG/UOm5GutiGuRjn84Anx+OSl+4w8zToP88jTquc4FcNPWLTTyDNmzlaVp22fCcY27Uek3hlj22vcRmq8Rer4c1u9HG/lx1uF6yTvtWzu1EqtZa+cmBHcWtbm6yRcaZOVlSXNmzdX/z9wgr5jx46ye/du45k2oIrbqz3yyCPywgsvlEt/+9vfZPr06eXhe20ZOHCgKos6kNLS0rxyRO5rNM2N8zcXylM16hr9BZZ/f/4Nad1rvEfcMGdjvopR3v64s3GeDufrXn+3pfzkZ3eqc3OjksqeYdRjxBwjbkA5nIPU5/cQ/yAmWZBRKO37T1H1ftxukJE/GuZZN86N/nQVRws5WfkZMmhrX1lxeoVHGrVrmAzZNlC6pLeTkduHSuqp9ZJVuDNsCfWhXtQPP+CPt4/wG/7zZQ0BNbFvvyRLw5yGTi9b2PWLW2bU/U7jrmrhNmnxPmMbBJl/1KgrS7IuGtvmZZRdhdOkY6zoz616jjf2oy0TFpUtSodMXWfkebd5DyOP3m+uH+XmbjwrP7vr5sJ1+yVp2mmYmtxnrs1VZT/tMVZ9T0o9Kcnr81Ve/APBP52ZqSdkdtopmbRkr8rTsttoo75w89X1uXFiD2Zk3Ap8h4oUJ3mmknnq1mgnMz5RQeyRNa/K1+dWiBQt8cznXa50uXxTuFwOr66pyp3c2qLsFmuw55X3yvGhFHMCdJTfPjo3Q/I2fyRFe3vJ9cLFkp/VRk5s+kguHRsncj6lwoT9yIf8KIfysCPnZlTcRzZfpATAyN1BEtBxUeKRROm8vq0Re9g5LoKf8JdxUZCd7JBsfEZO9HRkpGJsHRu3+Cy4OFTHxMNmrDfiVsTdjz/zWpmQc3ONALtIs9blycTFe6Tz4DLhBrEy4s5Og8puiYIYWcehOq6Gbe0X4ne9H++z00+ruBl5UO8zr9RXP5LCdtSFhPgaP/ZSa4LMCx7lzbbC+Zkxtr3GYqTGWziPOTfXxfHmOd78rpO81rJHU14Lei2LNS/WvvgxY1BrWRuvk/RtziAGQIzB82tC/cIVPnhGDm7Z9s0334S6uqDsR+PcGLdgp+BHHU+/9I6HqKPPr41OzlDbe49eIPM2lZ2HQ7wxIG652j4yaYsqjx+ET1i4U523w7k6nLNr1HagEnsQqyD+QZ76TbupcvgRebTNs26cG10r5IzZMVwmHZggy04v80gjdg2VibvjZMvZTPWOq3P094yzWRKq5Ks+1At/vH2E3/CfL2sIYOAv3n4p7Kl2gzYek7L+9QLeP/lstOHPc6++L006DTW+w9e5N4UcLBzxGcLLiFmbPfLE3RRyhs5Yb+Q329X7hyVu8CgHe1DpYRt1TVhcdgVOrzGLZHHmBbWwrPV+a7Vv3PzsCtuAdnzQur+H7UhwduPEHmhkGIHvsViRopm+U/FiuVacIodTaqlANndjozJRpmheBfkXilzMEORD4HtkbW25VpIiUrLEd/6imXLlWCzFnAo6K1Af5W9rJkV7ustX+TPkeHp9KdnfV6R0pUf66vQ0OZZaV/DuvQ/5UQ7lYQf2fB0LRh/ZeJFSAUJuriQBHRfFZA2Q0buHG7GHneMi+Al/GRdVsrOjPDuFnOjpwEjF2DpOfva1BrIo66LPWHTsvO3Sps9EmbPxrOiYGDGzOVY1x+Cw06LbaJ9xr46ZtZAzK/WkYUf7Yo7HdX5dl0eeTYXGLZPNawP9+f4HH5eFmecN+9pGJN4ZY9trLEZqvEXi2HNjneEYb5hnouEVaJ2k1jTea9lNHwVey17KkNxNH1V+LWvTdRJEleeee07938Kt1EaOHCnHjx8v18UnT56Ubdu2qefd4Jk35pSZmemzDIyMGTNG2bxx44aHTdyyDfWVlJR4bI/Ul2iaG339f1+QUSwxU9epc364egYxRrt+ZVfP6NjA+31wfIoghvHerr9rOzr+0dtxNY85homGuTYcc2Okjt2K6nWlkPPVta/UrdMW5S2SpaeWeqThO2Nlwq5xsunMFpVW5a2WYVkx0im9rcw4MM3Yrvdb8Q67sI96UJ+2CT/gj7eP8BsCE9rBV/UJYOBjcRbONHNdnvrl3T9friefDU+WTjGJ0nnITOk2LFl++b9/kDt/+VuZv7VE+fTMa+8pQcTs35wtZYu8xh1jRX/GZG3OE7dwl5q4Y6enG3mQX+fBAhYTNhaWehve4RuEIZ13YeYFeeCRv0vNt5p5LHSRd+KSfcrGh20Gqgl/2pqjgpS4Lle9J68v8LBtridcn904sfsbFbcC3xiRohl+0/XiZXIl79Zt0gqyO8uNCxtEimd5liuepbaf3fmZCnwh5FzJw+26lnvm81HflWMxFHO8OixQH5Xu6yantzWX62eT5Xh6Pbl4aIhIyVKPdOHgYDm0pqYU7OwiR9bUFHz3zoNyKA87sAe7vo4J9pFXBznwqzkuapvaUuYcTzZiDzvHRfAT/jIucuBB6adJFHL8wLHZrkjE2IgvEbsifsaJCsS1vmJO/KBKnchIPy3mmNmcFzZ0PNx77GIV837UbrBMXLRXZqadUvE14nadp8OgaeXqRJyOuFrF4xvPKpGmebfRHj7NunlFjo7Zf/uHh+T/e7a2TE85ruLpsvj6mExbc0zF2GYfI/mZMba9BlykxltFxyCOaxz/Fe3n9sqdfwjHeMO5Abu/Aq2TzGsZ77Vs/g4/a9nz6+XMru6OXMvm5eXJiBEj1P8w9DFuo4bbqV28eFF1d1xcnLFPn9A3v/fr18/nYfHhhx/Kvffe63GlD0SdBg0aqO1ffPGFz3Lh3mi3ubGiuQ8/LMFtYT9sPcDnvIkfi6BfECt0HzlXfe4zfqnMSD1hxAr6PBzOJeo4Z/yCnSp+8DxXd0zVoeOfDgMSZPScTGWz1nutfNZfkd+R3h6OuTHcx2yg+lwp5Bwo2iv9MnrIolOLy6VhO4fI+N2jJb1gvUeae3SO9NncXSV89t5fle+BbMIP+OPLT/iPdvBVfQIY+AszsegLX+o2omziHZ64uVy9TTsPVxPoqORMte+Vuk3VAnDe5iIj77CZm8om7nFLJXlTodx9z33y+nutjP1oS4vuY+Xfv/9DiV952MjTuEOskWfysoPKRpOOQ41tKDdkWpraPjh+rbG9w8CyhenfX6grd/3Pb2XulmK1D3VjAVv3o85GXtiYuKhM4BkyLd1jezgZ67rcOLFXNCp04Hv16GCRc9OCStdLUqRwbz8jqC0+OFwED300ly9ZLeePjDbynNs3UPCASY885vxen+EPxJ/L57Irct012wP10Y2CCXI45XX5+nS85Ge2kJK93UVK5t9KRclyJruN5G1pLF+eSRa5sFa94zu2S1Hyrbwl81V52IE92IV9X/3GPnL2IajjoqlHpkrXjR084g67x0XwF34zLnL2McrWRSeBSMTYOv7rN2GFimdrvddaFm497xGPDp2xQe175a1mavv4BWU/fvKOW5+t+Z7o2LnDgKlKpJm9/oxha8zcsh9F4Yp31Kvj5cS1eUYexMoQcmB7XkaJ3PfAY/LwEzVk/tZSIw/K4eSMrh+xP+Jt5NftgZ3f3v+QNO86ytim90XqnTG2vcZlJMeb+RiclXZanni2tjqm6zfrXqXjFWPgyefeKDd2zfW47XM4xhvmITu/Aq2TfK1huJa91aNfffWVbNiwQWrVqqXGJ/obz7Y5f/68nDp1Ss6cOVMuYXtpaektI6ZPKSkpyk6jRo3k2LFjcvToUendu7faNnbsWFPOyH60y9wYaM5asO2C/PUfL6uYISk9v9zc+WmP8er83uSln8uExXsV5x6jFnjkw3nGn/z0TkEc0jU2qSz/soMeeXDuTs+viH/woxZd33uf9FJ2+09c5VEmkO+R3B+OuTGyR3D52oMScjbP3iZWJX8VlncvNFtWHlsiw3bEyMKTC8slbB+9e6Sk5K/zmeL3T5aO6W0kJnOALDqx2Geeisrq7SiH8rADe3q79zv88Ocn2sFX9QmoiX3bRVkYprRg6wV57OnXyhZom4vL1TtuXtli8t3mPdW+l+o2VZPpi282kfjlh9UiDwtCpFlp+TJ7Y5mYgn/En/aIk2mrc6TjoLJ7dj/76vuyIOO8yvOLX98nH0PIMbWz1vtlt3drP2CqJKUVKNuYyMvEmhIj79RVx9UEjzqaYQFpstGkU5nw1LzraFU3FqGoC/7BpjlvJD67cWL3NSpuBb4DRM4lBJ9w9c2lrZK3pZkh1Fw9iWfqLBEpnCJSulzwHUIM0qmtLW9etp4YfB3nEuTq0QGuF3OC6aOSPR2kcGd7uXI0Vk5saihSnGykL3JHSc76d+Xc7s9Uv6BvzAnbsf9q7iijDMrDDuzBLuxXdHywj3yNLGds03ERbqM2ePsAj9jI7nER/IXf8JNxkTOOR7bCOQTCHWOb40zE20+9Uk/F0I8/U0sGTVkro5O3S8se49U2/Nhp7PydKk7VsbcSUkwx7jM13zNi584xs1S5DgOmqXi334SVRmz81sddZN7mYsE+xNEzUvKM+BdxuhZy4F+XIUnKzuvvtZbxC/ZIh4Flv7BFjK3rj5la9qMqrAEmLflc5UNMjzzqh14mH81tDvdnxtj2GquRHG/mYw/jDMcq1p1xC/caY8GcJ9BnHPt4JhTWsYHyumW/28dbMOskn2uYINayV065by2bn58v48aNk5dfflmuXbtW5cls0qRJarxjzOuEW7hdv369yjatLmiXuTGYuapvXNmPUCDGDJy8RhJWHpWRSZnyYZtBii/mxXkZpaLPKSKW6TtumUxfkytdhiarPJg/sR+xCGIS/AgENmCrwaf9VJ52/eKN+Mcct8xMPW2rc3nBMHPj3OhPV1FyPDJsTtpmWfJXodUDtiJ7cTtHSdyBsbLg5PxyaeiOwTJq13BZmb+qwrQ8f6XKg9ubIS+++8uv91W2HGzDH19+wn+0g6/qE8DAx0QXrjRx8QE1eX7cYajPOudvKZW/PP6CWvTNXn9WsIh8odaHSvzR/xz/80e3y6jZ21X5pA2Fcvevfyf1m/VUZXSeJ56pLYlrTxp5fvXbP0izLiM96kTZV975RPmjy/350WfVAtXMY37GealR5yNBvfDfe1+jdjEeNvDPAoG7OV+kPjt2Yr8RfHB0K/DtL1I4ufKpZL58U7RK3aoLYs2RtXXkWvEakeJl8k3RavVdCTkpr6vvUjy38nUUTparR/u7VswJto9y0uvJV3mj5VTGR3L58EDjuTa4LRqeS3TpaKzHFTceV+uUzFf7ka/sNmplz0eCHdiDXdj3d4y4uY+q/9/GvhZ0XNRvW08Zt2+0R9xh97gI/sJvxkX2Pb7omXsJhDvG9o4152wuVlew6BhXvyO2jl9xxIhTx87dqeLYoYmbjG2wpYSc9rFqG2LmJ59/0yPe7TpsjrzydnO1bcCkNdIxZqb890/vlGkpJww7Ok6HOKP96xo727CD2Lpd/wQVw5vzdB+1wMgDv/XJGm3DDu+OjbFtOmQ/+OAD41ZIvlyM9HjTxyTWgDiukzcUGse83hfs+8tvNpGHn6whWIMGW8bp+dw83oJdJ1W4huFa1teUYdm2CxcuyJEjRyQnJ0cuXbpkmd1gDd247v+RE3aZG4Odo3qPW6rmUB2z6HdcSZO47pQxJ0J0ebam53NwMHci7tB1Ib7BuUJtA++NOw4z5lbsx3xtjlt6jV6k8jds1d+wo+3Z8d2Nc6M/XcWxQg5ukTb9SLzMz5tbLg3dMUiG74qVpaeXBkxzcpJlYGZf6ZDeWibsH+c3P/YjH/KjXDD24Qf88eUn/Ec7+PJPYNasWfK9731P/dqgopwY+HMzLtg2/fOV96RJ5xHKvwlLD8mEJQdlzpbzhr9J6wvlp+re25sleXOJjF+4TyYvP2LsD6Zt8SuOyeh5O2Xcgr2VKme2nbDmhPItYVVOlW2Y7Vn12YkT+9XzB+XQmtek6NgckQCCzq3At69I4cSqp+Ilcjk3wbjyJm9LU5HLmXIyo7mx7XLuVJGSZVWvo3CiXD3a1xFiDn6J9MMf/lCmT59e0dRjbA+2j67lDZPj6W/J9fw4Jdrg9gHX8ydI/ramciqjsVzLn1T2/CL88sxPQj7kRzmUhx2IO7AL+6jH37HilD4yOsDhHy6e2SCHU2pL6cmVFbZUx0VdNrSTaYeneMQddo+L4C/8ZlxUYfc6bgefkWOfLq1bt67ceeedsnz5cp9O2SXGnpV+VsXHiHPjVx6vVpyqY/HZm4oNO4iBzbG5vxgWMfe0NXmq7My0M+odsT1OrgxKSDNswgb8xj7E9eb6/NkP5z4nxtg+D2SbbMSa9l//9V+lQ4cOPgWdcI232MQt8oeHnlTHLATGZt3GqjUojr1+cavlHzXeVvteeau5dB+1yOOYNh+fMdM2yO/+9KjKix8ctus/VeZuLlX5cSeKx5+pLX0nrDLyPPFsHZm6OtewhzHRus8U+d8/Pqxs4MeIHQbPNGxgjfzKOy1kRFKWdI5NNvLV/aiLx3hCvg/bxsg99/5JHnz8ORk4JVXaDZwuPUYvNuqC3x0GzjBsoG1j5+322G9uWyg+O228Bfr/oYfdrXVSP7/rE39rF7WPa1mN1FHvX17KlcOra8q5o7OkIkEnXHOjleMe5/Uwx4xM2q7O0SEeqMj+pKWHVaygYwtf+VTssvSQJKYWVGjHV7lo2Oa0uTGYAepKIadjWiuZmTtD5pxMLpeG7BhY4e3MfN2KDdviD02Wbps7q4TP5nz+9pnz+fqM24TAH19+wn+0g6/ABG6//Xa57bbb5K677pLx48eXK4CBPyfjgm0ThJxG7WMr9G/m+rIrcrD4s3M7IuWbUyf2nIxWcjiljhxZ93aFgo4R+B7pI3I2rtrpRulaObenjyHc6Nup4b1o/83n4lhQz9UjZXVE8zNzvvzyS/m3f/s3+a//+i+55557ZMaMGeXmHmyoTB9dPthDCrY1lSuH+8rprR+rK2fO7+siJza+V+Ht0HzeYuDmrfVQDuXx6zXYg13YRz2Bjhcn9JHPDnHoxmNp78qRdW/KsfUf+BR0dFzUNrWFJOZ4xkd2j4vgL/xmXOTQg9dHsyjk+IASoU0HDhyQ73znO/Kf//mf8uc//7mcoGP3GDsSsSnievz6NW7x5ypuRxz/fO1Gals8BCEbr0m8fXNqjB2h4RSw2piYGDXW/uM//kPFmJ06dfIQdMIx3vpOWKNEkz89+qx0HJIk7zTrqb7juJ69uUSw/8kab6ltNd5sIl2GzfN5TPcct8yw03bgdHnqpbLbIH7aZ4rKj7L6F+RvNuos9ZqVPbfhjv/5rWDM4Fhs2HqgyvPGh52k/eCZ8nydj9T3Vn3j1f4ZaWc8folev3kvI89r9VupPEmbig1RCnXUatDOqNe8/kYd8Ad+Nes2Tv2IEt+HzcpUdrzHRii+h2O8oU3hegX6/wE/KrNOCrR2wX6uZcPVu+GtJ29bZ/WjtaNr35CiIzPLCTrhmBtDMeZpM7hztOGYG8N7RAeuzZVCTquUpjL7xCxJzksql2KyB8iQHYNkbt6cSqcxe0dI+7RPpW9mT5lycIJ6x3dsr4o9+AF/fPkJ/9EOvgITiIuLkx/96Ecq+ML7HXfcIeaHr2HgJ285b9v00OMvyLuf9KnQvxnr8tXir+/ENRXmsXP7Qu2bUyf2y8W7lYgDEeVoWn05su4tD0HnVuDbW+TsOGvSuanqKpwTm5t4iDknt7ZQz9ER7LeorqtHekf9lTk9e/ZUC24sinCS6zdgvBZ5AAAgAElEQVS/+Y3HFTqV7aPSve2laGdrKd3bSc7tbKXEFlw9cyz1jSpxRzl19c3ZOGUPdsvstw/KnhP6KPB/EGfkKD21Wo6mvqPGFN6PpTf0EHR0XNQypUm5+MjucRHiIe034yJnHK+BWkEhJxCh8O7Hr6r//d//Xb797W+rHy/85S9/MQQdu8fYoY5BfdkfM2+3itsRG5jTZyMWRF0c79QYO7wjqHK1/fjHPzaOG8SW+NGQvkIn1ONt1oZz8pv7H5TH/llLZm0sMo7Xlj0nKJ8GxqepbaPn71HH+PTUAiOPeSwkpp9Vdn73wKMCsQX7Zm8ulT/97Rn5n9/+USCu1HijibqdYMy0TYaNjzoMU3anrM5V9cOXOh90NPbDxqNPv6rK4jPqgT3c7nDSimNGPY88+bL85Ykaqp7OQ+co3zvFJht2+kxYpbZByIFvg6duVN87Dplt5ElIOalsP10TAlapsd3cTqs/h2O8hVPIwZHv7/9HZddJQa1BuZat3IQTJbmvnj8kR9e+eXOdU08MQeda2S3XQj03Wj3Waa9y52bDMTfabSi4UsjBs22S8mb6TDHZ/QWpov2Btyeq8qijzE5ilW0F8gV19OvXjykIBlhgmhdLP/nJTwRpwoQJgoE/ezMCSHumMQv2yYQlh/36NzwpWxJSTvnNY9f2hdov9G/R8bmOTEfxK/s1rxqiCq7Owa/uz+wfp7YV72otcmaMtaloqVwrTTPqhJB0/fwGkaIl1tZzZozAf9iP1nmud+/e6pfK3nPPz3/+c0lMTKx0H5XsbiPmpPs2b+O78sWRHiIFw4JOyI9y2obZLj7r7YHedR85dYw5qV24gg/jSScIwEjnT60WHRfpd3OsEygWMef1/Tn0cZH2m3ERY8Jo/X8RzX63atVK/t//+39GnA1BByeYf/3rX9s+xg51DFqR/empZ6TPhDXSdsB06TZqsUxefiwqY3jE2OYYh589xblQ8TCPN9SBde73v//9kI+3kck7VH/jmDUf29PX5qsrVD5sO0RtRz5cdTZlVa5HPl1G2+kyfL7Hfqx3ByVsUNsg5CixZWOJkQf7zHZnpJ+VGWlnJWHNSRkzf68aU3f9+neq3KyNxWofvmu/dP0tekyQ+x96UpI2lsjztT8S/GgS+fX+pE2l8qe/PmOUa9Z1jBKVRszOVnVNWnFcMIbf/3SAEokqaqe2Z9U7xluo/1fgeAp1HWb7/v5/IF4tcchaNlLriSulB+RK6X7x/448FacLBel+9/sri33hajvuOnA45XVjnYMfuR5eW0fyd8WEfG60aozTTtXOx2JudNvLlUIOfrE588QMmZWXWC4N3tFfBu7oKzNOTIt4gh/wx5ef8L/Fmiby2WefMQXBwFvI+e///m/BZelDhw5VE3vSpvPC5EwGSsg5kihFDkzqdklrvAKWlNpSsHeYXC7crgKZq4d7iJwZZU0qnOz/ihzst6gu+I0AfvzQT6N2juvatWs5IQdzD35NOWnSpEr3UemetlK0s4WU7mkj53Z8IlIwXKWS3a3kXHZjkfyBQSfkRzltA/Zgt8x+26D6UfdR/p4hjhxfTpszfAk5EH9LchepK3wRV+DKFu/4yO5xkdlvxkWMCRkXh/8YaNasmXzrW98yTujjM4Qc3NIYMRjja2fG1+hXN548ifTJokBX5IRyvI2YXSbkDJic7jGup6eWXfnyYbtYtR35lOCyMtcjn/ZN2xk0dZPP/cj3ghZyNpQYebztdhu9RNXjLZg9/kwdSdpQIvBLCTk3/dL1t+47tUzI2VDisx7ke6ZmA2nYerDM2lgqT7/8rjG/edflr526PqveMd6c9j/O3/+P1YtGOWItizV5NK8pTmZ2igr/jyshp5ZJyHlT/eD11I4+jEUcfq7TjbGIK4Wc9mmtZOrxKTLzxPRyafCOfjJgR29JyJ0c8QQ/4I8vP+E/2sFXYALx8fHqVg8IvPC8CpxIHTJkiFEQAx9BGpMzGTh1Yr9ask/dTg1ix9HUeup5OYWHp8v1a18Yx7Yh5hz6zDhhr0/cV+X9RmmKn2fkDBApWW1JPVcPfaaCMPgfza/+/ft73Frt7rvvLvecrsr00eXPO0vB1g/lysFOcjqjoUj+EJW+Od5Tjqe9IXKqZ9AJ+VFO24A92IV91BPo+HBKH0Xz8VUZ38+fXudxa7WjqfWlOHeRYULHRW3WfSIJxzzjI7vHRfAXfjMuMrqTH0ggrATq1aunrgaAgINbGN9///0yb9485QNjbGfG1nrN5NQYO6wDqBKVBfOMHN03oXiPTcxUgkb/yeke6+bJK3LkZ3f8Sj5oM0RtH54EIecngu2+/NB2+sSleOyPX5UnYxccUNtq1GksDz3+osxaX2zkMdsdM3+/8uX52h/LkBlbZeKyY+XKTVt3Ru7+1e8Mv7QvrfokyP0PPqFs/+Pld8vVM3NDifz1H68a5WrWb63aM2xWtsQtOSJxiw+rhDrxXdsN9bsTx5u//x8YGsY66XD3gGuTQGsX7OdathITThRl/fLCUXU7NZwXOZL6jhxZ87oUHoyXa19fUq1gLMJYJIoO56BcDU7ImbVNNluU/FUYlMcWZOqzqZvEHR4r009MLZdwFUzf7J4yOScu4gl+wB9ffsJ/tIOvwARwG6Mf/vCH6lZqsbGx5QpgYp+5sZTJoQycGPTiIM7d2k491A+/sj93eIaHgGM+yI0A+FBXkYKhVU/nFsjlE/HGr1zytjRVV+eczGhubLucmyBSsrDqdRQMlauHupaJOEXRLeJcv35dfvCDHyjxGL9KxrO6KnoF20fXcvsqwebGid5yZO1rIqcHGil3fV356lBLkbyOARPyIb+5POzBLgQe1OPvWDH6KMqFtor6w4nbj6W/r267iFup4Qoc75eOizpuaCPjD43xiDvsHhfBX/jNuMi7V537nc/IsU/fHjlyxHg2zn333WcIONpDxtjOXl84NcbWx6/d3r/3ve/Jv/7rvxrPxPH2L9TjbdRN8eSDtkM81s19J6YqUaX3hBS1fdhNIWfiihyPfHq9PW7RIZW/fot+Hvv/9nQt+cVv/ygz1hfJ8zeFnMT1xUYes90hN0Ul1K3txqecVsLNY8/UEZSbelPIadjG018IOb9/8AmVp86HnZVIE7fsqGFH29btbDtwprq1Gtqv68J77YYdRddl3h6qz04bb4H+f+jj21gnHY6ytSzXSboLQ/6el9VNnRfxFnB0xaGeG0Mx5qemnhXMaaGw7TSbTpsb9XHr792frvIvKIgMm2ZttSz5q9Cfo1buG79zpAzfN0Sm5caXSwN29JE+27tJ3PHREU/wA/748hP+ox18+SeQkJAg3/3udz2uwPEugYE/Y0Op61KLm0Hs9PRiR7fdiRM7rsY5vLqmXwHHfJwbAfChLsYVGPpKjKDez82Qb4pWyqE1NZXIcmRtHblWvFrk3EL5pmiV4Dt+AYP70uK7FE6vUj1XD3VxhIgD9rjqD7d0HD9+vLkrKvwcbB/lpL8pXx/pLKc215fL+1uJnOqjUvGOJlKc9Z5I7qcBE/Ihvy4LO7AHu7Dv75gw+oiLkwr70m47LuSnql+mma/A8fZRx0U9MrrIsL0xHnGH3eMi+Au/GRd596pzv1PIsU/fvvrqq3L77beXE3C0h4yxGWPrY4Hv1Sfw4YcfysWLFys0FI7x9kq91kqEadE7XiatPiV9JqbJbT/6idzxi9/I1LRzak05ZNYOtS1ueU6Fa8zaH3RWdj7pNUXGLDosjTqMUN+b95ykyjxXp7E8+PiLYl6nmu3iM+628ebH3WX0okMyaFqG/PHhp9W2Pz36nIxfekzi15ZdkdOgzRAPP8xr4KHJu1SZ/3v0Gek/ZYP0HLdG+Q7b8AnnCNAOtPGe3z+o6oG/7zTvc9PfyR62Q3lOIRxrWrQ7XK9A/z/MfgS7TqpwDRPutSzXSebuC+nnLy8cUecPCg9OMa7A8a4wHHOjlWO/fUyyml8wHscvOy6YDyEam+dDK+vzZ2tKSoGMXXxEpq8vUXOdnnv7TkoP29znzz/sC8fc6H1MRfq7P13FsULOymNLZEC279un4XZmPbO6yqhjwyKe4EdFt3mD/2gHX9UngIGPicltCQE4fo00La3I0W136sRuvoVaMKPgVgDcSSR/cPDp7FiRS1slb0uzMrFm9Sty9WSiSGGyyOlBIkVz5erJWca+U1tbiFzKEDkzOvg68gfL1UOdHCPiBNMfvvIE00clO5tLYdYHcuXAp3Jiw1siJ3uo9NXhdnIirZbI8cYBE/Ihvy4LO7AHu7Bf0fFh9BEXJ766L6q36bho0M6+0ierh8etZe0eF8Ff+M24KKoPwUo5TyGnUrgimpkxNmPsiB6ALqs8HOMNJ/VqvNncOMmIE43/98gzMm7JUWM9GTszWwkfOAFZ0fo6IbVQar7b1sNO3cY9BNtR5rnajeWxZ9/wWKd6232/dYxHeXz/uMsYte2Njz4T+PqL3/xRPugwwsMPrIEffLyGYbtf/Ea581e/M2x92HGEqhv2tP+o25wH7W7YNlampRcbeXTeUL2HY00bTiGnssMzmHWSzzVMuNeyXCdVtmurnV/fQq0iQ+GYG60a95hT/v7Su2pe7TxikSSsOysvvd2y3HxoVX2B7DTrNkH+7fs/VIIS8mIuxDzRd8rGsM19gXwMx9xY0bEVqe2uFHIOFO2VXlu6SnzOxHKpf3Yv6ZbVWYYdjYl4gh/wx5ef8B/t4Kv6BDDwp6WXuC590ite7nvwCZmaWuTotrtxYq9oVBgB8MGOHrfVMt9iy/vzjeKVUri3nyHUFB8cKlK8zLN88TI5f7jsgZS4MufcvgFyo2SlZx7TbcC867h6sKPrRRzdZwH7CLdVW1NTvjnSVgq21JfSHY1E8rqodGzta1KwqbYUZrxRYcrfVEeQT5dBediBPdiVE7199pvRR1yc6K5y1LuOi0Z/Pkw6rW/tEXfYPS6Cv/CbcZGjDkk2xiEEGGMzxnbIoRwVzQjneBu96IjEzMyW2Nm7qrWOHLf0uIyYd0AmrDxZJTtjFh+RYbN3e5SHzclrCoKyh7yjFh5SeVEmfl2hWhtDAIKQ432OAL4iTVx1qtw+77xWfw/HmtbOQg4GYcB1ko/1pvdatuTQcJHipZ7rneKl1qxluU6y5VwZzrnRinH/j1felw/bjwj7HOPL91b9EpUwP2nVaVv448vHcMyNdjuwXSnkfHXtK2mxprFMOD5OJuXGeSQ8l+azzI4Sc7R/xBP8gD/ePsJv+I928FV9Ahj4U9NKoiJNWnNG6rUcaPxi6JGnasngmTsM30fM+1yerd1Y+k3ZJG817SM/vv1OGbvkuNrfovc0+c39D8uvf/egNO85RT7qNEbu+9MTkrCuyCjfe0K6PPhYDWUftruNXmXs82fbzvzcOLH7GxW3AuD2Iqf7+U+FyXLlxFRDxCnI7iw3zqeX3XrLXDZ/iNp+dmfZ820g5lw5OU2kCFft+K/j6sH2FHG8OixQH5Xu/kTyN78jcqy15KTWkku7PxI50V4u7vk46IT8KIfysAN7sOurv4w+4uLEq6ec89UcF7VZ11zGHhlpxB52jovgJ/xlXOScY5EtcRYBxtiMsZ11RNu7NdE03uyydmzeK16tezsNW2KseT/oMFJt6xWXamyzg79c05aNv0DrJI+1jNdaNn+Hv7VsmpzZVY21LNdJtp0grZwbcU4Nt1qE6PnAX5+TbmNWe8wTrfsnGftx3q3z8GXG/mFz9qlzdSMXHJK3m/VV+XC1C87NYY6ZtLpAan3QWX56xy/l9w89KXUafSZxK05Kky5x0qDNUElILRZf5+Sw7dX32kv7mPnSqv8sZfeX9z4gHWIXyrhlufJK/bKrH7Gt90TPc5+DZ2yXZ2p9rNoDX16u11qGzd6j/IHv8AVtfey5ujJg2jYZOf+g1Kj7icQkZhvt6jt5ozqviHyw0ajTaIlfd87YD1EKviGfPtf4t3/WljGLjxp5qjPHunFudKWQgxlmdPZQidkzQCbmjPdIfbN7SOfMdjLgcK+IJ/gBf7x9hN/wny9rCGDgY1K0e5qcclYefPwlNZG+1ypGWvSaalzi3WfSBuV//6lb1X5MomX/XJ6V8ctOyDuf9Fff//L3mlK/5SAjz6NP11aTLNreekCS2v6Hvzyt/lkgL2w07T7Jr227c3PjxB5oZBgB8OftjOek6OelGO9nJ6nn4BxOqaWEltyNjUQubhE5M8Z3mTNj1X7kg5BzZG1tuVa8RqRwsu/8p/rI1c/bUcSpoLMC9VHBlnfVM3G+OdRMclJfl9Ls90VyWwWdkB/lUB7PzIE9o+9vPncH340+4uKkgp5yzmYdF/Xc1lX67ehlxB52jovgJ/xlXOSc45AtcRYBxtjnVAzNGNtZx7VdWxMt481Oa8eJq/Llgb8+a6yN9Rq6TqNuEr+uyFbnB7imvTXyAq2T1JrGey276aOy238XjPa55hGsZS9tkdxNH1V+Lct10q3OseEnq+bGNz7uruaKF99qqc6R6dst9o/frOYKfc4NQkfbQXPl7y/WV/nxA2rMe+ZzdRCD6rcYaAggrfrNFMxHrzfoZAg5r9RvI+OX5yk79z7wmExZW+hhQ5/vg7iifdF29XfkgaBUt3FPJfBg//C5B5Q/oxYeUf5hW/Me8dKw/QiVB+LNhJWnpeuolYaQ89TL78ug6VlG/T3Hr1M2kAd1/PHhf8qnfRPljY+6qe9oO/xFuzUH5Hvx7U8F8ys+/+wXv1H1VPd/ghvnRtcKOVn5GdI74/9n7z2g7CjO9G/O2bO7tv+2l901+APjxYu92MaY9WLjhLExmGQMIiNEEKBAsHIahZE0kkYaxdGMchoJJZRzntEo54zCKOccSAIkRPD7naeGavW9urfnhr59q7ufPqem7+2uqvet33u7p7qeru42Mvhg/4jUYWM7yVnbWDruzs16gh/w5wofV7cR+M/FHQI48Icvetf41LhgojrhtSqea/naf9YhddL+xe8elGELz0jB6A0qz89//RfpN+ugytdz/Fa1rVrNHCkpP6e2FU/ba5UrKT8rqAcn7Edfam7lQd77n35TzeoZMOdIzLr9wC2MJ/ZEjozLHeDGIsfyItPJHqqje3RNvcqObOmj8tmZWSKnh0fmiy53doTKt2fBI6ocysv51SKoLyrvhZ2NKeJUESjHGB1pJ0eWPyvvrq8hsvc1ObnyGTm89An5ZOvLIgffjJuwH/mQH+VQHvXIkXbxY8SLkyoiFYzdul/Uu6K7NFlS3+p7mNwvgp/wF/059ouC8TtMpBV8R04ilMzIwz42+9hm/BLD4YVfjjcTrx/zhi6Tep1GScOCcdJt7GbrWtskX3lNG3kcO14nRV3L7iurJp+dnS1yuuSK652Ia9QzI+TzM7Nlb+mjiV/L8jopMjAGfnPj3Nj97S1qTA1ChD4vYLwNIgiehKPH3F5o0M3aj/G0P1erpfL0nbHfGk/7w0PPq7E71IPtqMNe7o8PvyQ1mxRa9WDGDMb7MG4Xa7xv8PwTamwP43n9Zh5Q5XAeg1hyx92PydCy02pbp+Er1bbW/Rao7816TVPfCydVWLY6lqxQ2zoNX6W21c8frfwbNPeY+q7ttxtYLnhaEEQiuw20qU7rgaoO5MF3PeNHf8c23JiOdqP9+J5OCuO5MTEhZ+waWeFScjLo9THfbHFDKdrVUwYd6Guljhty1WPL8OgyExL8sfsHf+E3F/cI4MAfWn7O+PTnR1+VH936GxlUeirC11qtBsq3r/6OFE/fJ51HrVcnTZyUdZteb1eipjj2nLjD2oZ9LzTqKbf97kEZWnZG8oYuV+UaFUyUAXOPStG0vdJ/zhFp1nO62t5+yNKYdWsbJq/DeGJP9Oi43AFuaL34Xo62Ezn7lppNg5k1SB8dHF75mDTsqyqdmyAfHxmhyqGsmpVzdmREuQs7G1LESTBIcWOEOBzOlZOrasiJFU/LF7telQtbX5Ljy5+UfWWPyokVT8m5ddXl/fXPqTW+Yzv2Ix/yoxzKo57ouFox4sVJgpEKRjbdL8pZ3kS6vdNJ9T9M7RfBP/jJflEwfnvJtIJCTjK0spuXfWz2sbP7CwyXdb8cbyZfN5rsmxfXtBj49dMS9zrpTNS17OERIufGX3G9E339o76fGx/xaHHHa1leJ/ni5+LGuVGPqXUbtyViTK3j8JVSMGaT6P3RY256nK3NgIXWeBo+63PNkIVn5Y4/PSY1GnSztt354PMR3+95vI41bhdrvG/gvONy3Y0/jiijt73UtLdVry6r7Q8uOy3Ih1Q4ZZfkv7VGnqzbXo3/6Txolx5rhM/2OvRn+9gj8mAc8ZrrbrT8sfuv2w0u9nr19lTWXpwbTfuhO+kq6iyODG6JOKjHyaDXcObtnyEd1uVK/wPFvknwF35zcY+AOrEvPCdDDU/3PFZH/ve3D8rgsjMRvr6ZN0qdBIum7ZPOIyuFnDYDyq08r3118sV+exux/ce/uFPVV7v1IHXCRuctVsrpMz9m3fb6TP0cxhN7MkfH5Q5wA5GjGND/Kr07Vd7fUyzvVnSTf7w35/J2vd9h/eW7s+W9nd3lg719RM5Niyh7YWcDijjJBMj+Ys+dUTH6Kgbvb6kre0sfkbNrnpHPK14U2V1TLrxTQz7YCCHnWbXGd2zHfuRDfpSz4m2LpxUjXpwkGSn/Z9f9om7b8qXZkgZG943gH/xkv8j/v7tkW0AhJ1li2cvPPvYZYR87e7+/sFn2y/Fm6jWj6X55cU3rNyEHx7jjtezu3vLuzu7yj/dmx7zmiXUdhG1fvjtL3tvVQz7Y43Aty+sk35xi3Tg36jG1PjMPRoyp6fOG3h895tZ5VOUTc3L7L7TG0/BZl8Maws1z9btZ26K/28cBY433DZirhZzuVh16m92WLqu39Z15SB6s3iDm+J/OE90uex36s33sEe2B7Rtu+pnUaFDpj91/3W6UhZATzUvvT2btxbnRtB+7k65iCTnLx64Rt5KTQa/hXPzigjQpryc9Kwqk3/7exif4CX/hNxf3CODAH1J2zviEE7oSckrPRPj6UtNidRLsPXWf5L/1lZDTb6GVp27bShUd++3txPYf33anDC49I/Xzx6sTeJPu06T31L3Sc+JOlQqnVH4eNP9UzLrt9Zn6OYwn9mSPDqsDXFFP5EirynS0vcj55SLnV4oc63R5u97vtD6eX1nuw+WV09e/ynuhovJRbR+f25Csi6HPHzNG9hgcbC7vb6olhxY/rt59c2rlk/Luuqfk/fVPqTW+45042I98crB5zJhaMeLFSSh/c/Z+UauVTQWzcUzsH8Ev+Md+USh/pmy0jwiwj80+to9+rr531S/Hm6nXjKb75cU1rR+FHBy4Ma+TjuaJnF9RmZK9lkV+q2yedc3E6yR/nibdODfWbTPMGnOznyt6TKiQwsl7JN7+3IGL1Thbm34L446naeFG1xv93RJCSs/ErKP/nEohB2KQrgPbMCsGdvW26LHCB6s3VE/ueSNvlHQbt036zT4mXUZvsvxFueixRHsdHUpWq7yt+5dbNlAG446wrf2x+2/3BUJO9Bil3p/M2otzo2m/fCddJfBCDoKx+HCZtFvdSvrs72V8gp/wl4u7BHDgDy49a3x6tGbLyn8eU/Zavg5acEZ+8buH5Oe/e0AGzj8lnUasUyfTVv3KrDxapMkpmmdts5cbtOC0dB61UZVr0GWilQdM6nUaJ1dfc730nrI3Zt1+4BbGE3sqR8jlDvAbIkdaVKZTRSKnel/+rrcnskY5lP8q74WKNzgTJ5XA2MrEjFGMWHyxr5F8vP01eX9zLXl/0ytqje/YruMRa23FiCKOjXr4Pup+Ua9dBVK/7DXpUdHZqP4R/IFf8I/9ovD9PtlifxFgH5t9bH/9Yv3trV+ONxOvH3tO2iV9ZhyKuA42zU9e0zofnzGvk3AtejLFa1mUi3Uty+sk50AYuNeNc2OTnjPUeJl9TK3vrKNKsHiiTntp1HXKFeNwOIdAzFCChcN42u8feF6eq9fVOv9Ef/9ztTpqvA/jdrHG+yDAXHfjzRF1YBvEFPu4YHTZPz3yqvzPrb8TjA3q812tlpVP6mk7cInapgWqvrOOqO/2OrqOfUe1GW3U5bFu2bdMbW9ZPF9tt/uv86EezUVvS3UdxnNjgkLOalk+1p3kZDBbx3y3tZ2k46ZcKd7Xw9gE/+AnF/cJ4MAfNP+s8Sl/VKU6fssv75FOb22Q3lP3y1+fb6pOko27TVP+d/xKyMHJU7ep76xj8r2bfibfvPo70rxwjvSctEeqvdxalfvV3Y/LwPl4NuYZuf0PjyhFvnG36SrPmx3GqDw48WJ/rLq1DZPXYTyxp3qU6A7wxR2vixxu5lpCfXhfDmfipBqZy+UyHiNenFyGHeJPul+EvkfTpfWlaG93I/pH8AP+wC/2i0L8A2XTfUOAfWz2sX3zYw2Ao3453ky7buwzs/J9Dk/V7WBdP5vmI/zhNW3VBymvk6pmFMYcbpwbB8w9KT/82W/UmFqL4gXSedRm+fNjddV4WbshKwVjbjf++Bdqf8viUimefkjq5o5Q+zH2hmM43niaFm70eSf6O8bjbvsNbtw+HbMO2NZCjq4D2yDk2McFo+2jXowRwt8eE3bKqzmXX7eAsUDU9Ub7UaoNr7cbKUXTDl5h/4FnKh/NVrv1MNVm2EOd197wQwEz1GH3X/sHX5APTwDS21Jdh/Hc6KSr2GbkuCPiQAxyMpitk8qx84elXmldKdjRSQr3dTcuwS/4Bz+5uE8AB/7ABWd9kfBPI/odNjhpav87aCGn30JrG/Z1GfOOOrnrsvgnc9/T9dQ/hP4Qchacld7TDsrvH3w+ov67q9WRPrOOqf3x6ta2TV2H8cSezlFyuQNcV+Rw47TTxR11KeKkE5AYZTMWI4o4MWiHc5O9X9R6bQvJWdnEiL4R/IA/7BeF83epW8135GgS5s1857oAACAASURBVK/Zx2Yf2/xfaXA89NPxZtJ1Y785J9RNj8837h1x/WySj/CF17SJHau8TkqMU5hyuXVu7DFxt/z09rut8bKvfeOb8lq7kdZ5o+u47epcosfcsH74hebSf+7JiPG01gOXWGVwbEO4ebZeV2tb9HeMyf3y7scF43axxuQwXocbt59vVGjVgW0Qd3L6llnbdFm9DWOEEHu0v3gST+PuM1RdaFvPyXul67gdSnBBnuaFc6+wDzv3PvG6VQfy4cbzHpP2WHbh/x1/flL5r8+r8AVCTq8pe618el+y6zCeG510ldAIOTiJrTm+QlouayLdd3WWXnu7GpPgD/yCf1wyQwAH/oD5Z3yTimcflw7D10ne8LXSa9qBhP3uO/ekdBq5SYk6/eadjluu4O1tKg9O3H7iEs/XMJ7Y0z1SLneA64gcaphyurijDkWcdIMRp7zrMaKIE4d0eDfb+0UQUFquaprVvhHsww/2i8L7m9Qtp5CjSZi/Zh878vqCfWzzf7N+9jAbxxt+03dXqy1tBi6VJ2q3l6u/c50a/MN1md6Hgb3v//DnUrvNcOk371TE9eWrrYaqwbyvff2bUrNFf2lYMEUeq91e5SueeVQeeLah1O88MaJMzWb95KnX8yPqqpM7Qv77p79Sg4n3PP6adBixPqIM/PvF7x9W+2HrhcZFlg3kh48YCNX1YnDyuYY9rQHM2/9YTV1/x7ve9GK7F9e04BCEhddJQYiie21w+9zYbXyFEjggAsc69vNHb1FjdRBBYu03aRvagDFCu68Yb7SPBWIcsWjGYce2dJuwU7W508iNjvky0XYvzo3u/RrdqSkxIWfMalnuUnIy6E6TUq9l3v4Z0mZlc+m+p7P02Ncl6wl+wB/4xSVzBHDg9513himgDMJ4YnfjaLncAa4tcqh+0unijtoUcdwIhEMdrsWIIo4D5XDvsveLclY2lhYrG3veR0JfCHZhn/2icP8edesp5GgS5q/Zxw729QX72GYdg9k43nKHrIq4E/tnv7pXekw9IO1L1qrtuOO6RsPect/T9dX3Pz5SS/rMPaWuu594rZPa9pv7qssLjftYosnPf/OAFM85Kb2mH5br/utmefqNrhHX6b+9v4bcesd9Kg+u4R+q0UzV86dHa6t6/vOrO8zbDF6hynUatUXt/7+7HpW67UbJQy80V98fqtFUek8/Kvc/21B9v/l/75Kn3yxQ/ml/n3mzm7zScqjyAwJQ3ogNEb54OYbgxfEWFCEHRyavk8w6P2XTm2ycG708N4Tdlhfnxmz+fmPZdtJVLs/IcUnEgRjkZDCWg15vm7ZnghJPuu7sKN335GctwT5EHPjDJbMEcOD3mXOGKaAMwnhid+uIsTrA218ROfhmwuni9lco4rgVhCrqSTtGFHGqIMzd9n5RqzVNpcmSepK/rZ0n/SPYgT3YZb+Iv0US8B8B9rGDfX3BPrZZx2Q2jrd2wyoFm1t+da90n7RPXU8Xzz4tv7jzEbnpZ7+RnpMPWtfYL+cMVYJJ64HLpeOoypdk/+3lNtb+zmO3C0QYJeTMPiWF045aQo79Wh2Cjc6T03eRqvO19mOtenpM3i/X/+Bn8rv7nxf48mqrEiUS9Zx6yMrzzN+7yw9/9jspnnlCimYcV3aea1io9sey223iXlVHw24zrTrsPnnx2YvjLUhCDo5OXieZdY7KljfZODd6cU6gjco+lhfnxmz9duPZddJVQinkABTuQM1Z1lg6bM+Vgr0dPU+wC/uciRPvZ+vudhz46OQxBZNBGE/sbh4hlzvAL4scfL3KdHH7y5UiztmNbrrBuhwIpBwjijgOVLnLTsDeL2q7MUfql70mrdc3z2j/CPXDDuyxX2SPBj+TgH8IsI8dzL61vmZiH9usYzEbx1vboWuUkPL3LlOsa2kIOt/57o3y4HNNpde0w1Lw9i6BENKupPKdCNXr95JXWg4TzHDpNHqrVQ6/q8frdpJbf/2AFM06Kb2mHlECy1OvF0Tk+eMjta08NRoWqXpyh6xWQhJsweYTtTvKv33nOuk6YY/UyX1L+YhyTYtKlS/6N4x1tB18hxCE2UQvNu0vHd7aLEWzTkX4YC/v1Wceb6kdb7xOSo1bkEpl49zo1XmBdk6H8v1hFHLinKHwbPh6pXWlzYbm0mVPnmcJ9mCX78SJE5gMbFYn9lmnpZgpkAzY6U3/oLE6wNteEjlQN266uO0lijjp406phqRjRBEnJc5hLmTvF3XckSvNVzSQxov/LrmbclztI6E+1Iv6YYf9ojD/6th2vxNgHzvY1xfsY5t1hGbjeMsdUinkNC0qs64j2wxcqYQTzO6IlR6rlScv5wxTQknBuD1WOVyLY/uPfn6n9J55UnpOqRRynnyjICKPFnIKZ5yQ39xXI6YN2IUQg/qLZp4S2LT78uNf3C1Nes1X9cay02rgCvnvW34dUebRV9pKj0kHI3zxcvyAx1vqxxuvk1JnF4SS2Tg3enluCLutMJ4bExJylo1ZLW4lJ4OmnSSOnT8s3dd0lNxVzSVve2vJ39MuYwn1ww7swS4X7wjgwO896zRTQBmE8cSeiaPncgf4RZEDta9IF7e9SBEnE+CTqDPhGFHESYIqs9oJRPeLct/JkabL6kmjxW9Kq3VNJa+iTUr9JJRDedSD+lAv+0V28vxsJ8B35NhpmP2ZfexgX1+wj23W8ZeN463NV0JOk96l1rV025INSgCpVqujFIzfK53GbFep89hdat1t4oHLQs7EfVY5XI8/17BICTmFM09K9ylH5Lv/dbM8+XrXiDx3fTUjB3nufaq+EmzaDFktncbsiLK1I6Jcj6lHJaf/MqneoLcqA6Enf2zFZTtvFETkhz+o8438yfKHh19RbXq0Vt4VebwaR+Dxlt7xxuuk9Pj5uXQ2zo1enRdohzNyoo9N69Fqbok4qMdPQo4GsvhwmTQpryet1zSTvO2tpNPutq4l1Id6UT/scPGeAE7shTNPMQWUATu97h1TVgd46/Mi+1+x0sWtz1PEcQ9zWjVVGSOKOGnxZeFKAtH9onZbW0rzVQ2lfvnr0njJ36XF6kbSZlNzab+tpXSsaCMdd+WqfhPW+I7t2I98yI9yKI962C/ir6wqAhRyqiJkzn72sYN9fcE+tjnHGjzJxvHWenDljJzGhQusa+lukw/L9f99izxQvam1DdfabYetV2II8tZt/7b6XK/rDCtPz2nH1CyYW359v/SacUK6TjqohJwnXu9i5YEwhLp1nlfbjJR//fo3pf2IzVYe2ILt2+96TNWjPv/pCek146SVp+XAFZYv2s4z9Xqp/drPZn0WWflR5x33PGvZzcbYgRfHG2YtBXnhdVKQoxu/bdk4N2bjHBFWm16cG+P/urKzx0lXoZBji8nFLy6od9Y0W9xAWq9qJq02NZP2u1pL3u42SSeUQ3nUg/rw7HnUzyU7BHDg95pxiimgDMJ4Ys/kkXS5A/ycyP6acnHrcxRxMgk8hbrjxogiTgo0WSQegXj9otytLaTF+sbSdEV9abjkTSXS/L2srnpsLNYQbbAd+5EP+dkvikeZ22MRoJATi4qZ29jHDvb1BfvYZh132TjeWn0l5DTqtSDiWvrJN7opoeSZv/eSTqMrBPsxu+Y/v3ujdJmwX7pNOizX/eAWNTOmSe+F0nHMTvnL0w1VmV/c9Zj0nH5CpR/d+nuV5838KQLR6Ke/vDciT/7Y3Wr/93/0C2neb6l0GLVNHn25ncrzYrPByqdXW4+s/N58iLLdfsQ7aiYP3qFTMH6f5csd91aXFv2Wqe/w9Sf/92dls8u4vVKvy3RVR/UGRRHt9HIMwYvjLehCDo5YXieZdd7ywptsnBu9PDeE3ZYX50YvfqfJ2EhMyBm9Spa5lJwMJuN4NvOuP7Fa+mzsqQYlWq1sKjnrGkmrTU2lzbbm0rYiR9rvbCXtd7VSa3zHduxX+VY2VeVQHvVwyT4BHPg9pp9iCiiDMJ7YM31U6Q7w++ufooiTadgp1n9FjCjipEiSxRIhwH5RIpSYhwTCR4B97GBfX7CPbdYxnY3jreWgyhk5DXuVRlxLd592UqrV7qzED/1uGogtrYeut/LllmxSYo59/x+rvS4/veN+6T7thMqXM3C1En90nr8801iefKN7RB748N3v3xxh64nXugp8wDV+l4mH5Q9/qx2xH7N4XuswyfLl0Vqd1H7U023qcfl711kR+WH/13+pIfnj91tlvB4/8OJ4QzvDsPA6KQxRvtzGbJwbvT4/hNmeF+fGy78mMz456SqXZ+S4JOJADHIyaAaSxL249MUlqTi3TebsnyEDNvWWDitaS9NFDaR+2etKrMEa37Ed+5EP+VGOizkEcOCjo8cUTAZhPLF7cXTpDvDHZzd6YY42UiBgxYgiTgr0WCQVAuwXpUKNZUgguATYxw5m31pfM7GPbdaxa+Lxljd6l+QO2yztR1XEvdbOLdki7UZsVftfbvWW3HTr75WYon9nBZOOqP0dxuyOWwfyoh6kzuP2x8zX/q3t0mrIOskZtEYKJh+9Ik/++ANK9LHbRX6kdsPfuSK/zufVmsebu8cbr5Pc5WlybSaeG706b4TBThjPjU66CoUck89G9M01Ajjwu007yRRQBmE8sbt2cLAiXxM4t3+87Fv8gq/bQOdJgARIgAT8S4B97GBfX7CPbdaxGYTj7YXmQ5WQ03XqcV6bR12b83hz/3h778hsObNzmPsVs0ajCATh3Mjxyvj9qTCeGynkGHWKoTPZIIADv+vUk0wBZRDGE7sXx9FHp9fI7tJqcuGD3V6Yo40UCFDISQEai5AACRhPgO/IMT5EloPsYwf7+oJ9bOunbsSHIBxvT9crkmu/f7N0mXyM1+ZR1+Y83tw/zCjkuM/UxBqDcG7keGX8/lQYz40Uckw809AnTwngwC+YcoIpoAzCeGL34gA6tKq+7Cl7Qo5uaOuFOdpIgQCFnBSgsQgJkIDxBCjkGB8iy0H2sYN9fcE+tvVTN+JDEI633BHbpXn/1bwuj3Fd7sXxFpZ35OgDlkKOJhHsdRDOjRyvjN+f8uLcaNoRkpCQs3T0KnErORk0DQ79CQeB+kUrJH/iMeky+QRTwBggrogvF3cJYDbO3kXPyZ4Ff5N9C5/mrBx38bpWG4Uc11CyIhIgAYMIUMgxKBhVuMI+dnCvLVQfuzf72FUcAp7urt+b17RBvZ736nijkOPpIUtjHhHguZF9EY9+ap6ZcdJVrHfkuCXioB4ng561moZIwEYgd9h6aTf2gORPOs4UMAaIK+LLxV0Ch1Y1lN2ljyghZ0/Z43J0Y567BlibKwQo5LiCkZWQAAmQAAmkSIB97OBeW7CPneJBkcFiPN54vKX786KQky5BljeRAM+NPDea+LtMxycnXeWykDNylSx1KTkZTKchLEsCqRIYNmuX5JRUSKeJx5kCxgBxRXy5uEcAs3H2fTUbBzNyKmflPMVZOe4hdq0mCjmuoWRFJEACJEACKRBgHzu41xboYw+ZyT52CodFxoogHrymDeYxx+MtM4cNH62WGa6m1cpzYzDPixi/Deu50UlXoZBj2hmI/mSEwLqdZ6TF4I3SceJxpoAxQFwRXy7uETi08k3ZW/qI7C1/Vok4al32mBzdkOueEdbkCgEKOa5gZCUkQAIkQAIpEmAfO7jXFs0HsY+d4mGRsWI43hAXXtMG77jj8ZaZw4ZCTma4mlYrz43BOyfq/3NhPTcmJuSMWilLXUpOBk074OlPeAg0Kl4puWMOSIcJx5gCwgDxRFy5uEfg3YNTBI9S27eohpzbP1GJOWf3vS37Fj4le0sfkw9PLnHPGGtKmwCFnLQRsgISIAEDCfAdOQYGxcEl9rGDd22BPnYD9rEdfvXZ24W48Jo2WMccj7fMHU8UcjLH1rSaeW4M1nkR47ZhPjc66SqXZ+S4JOJADHIyaNrBTn/CQ2DemsPSYshmyRt/jCkgDBBPxJWLiwT+8Q85sa1QVfjl5xeUkIMv//jyM74nx0XMblVFIcctkqyHBEjAJAIUckyKRtW+sI8dvGuL5oM3sY9d9U8/KzlwvCE+vKYNznHn5fHGd+Rk5bClUQ8I8NwYnHOi/v/m5bnRg59oUiacdJXQCjmXLl2Sffv2ycGDB9X6woULSUFlZn8SaDd8gzQfViHtxx1j8jkDxBHx5JI5AnYhJ3NWWHM6BCjkpEPP7LKHDx9WfZS9e/fK+++/b7az9I4EXCZAIcdloB5Uxz52cK4tVB+7hH1sDw6blE20K+E1bVCu570+3ijkpHzYsaAPCPDcyL6ID36mCblIIScK0+zZswX/wKLT6NGj5R//+EdU7sS+Tpw4Ue6++2758ssvEyvAXFkhcPj0R1KvcLnkDN8l7d4+yuRTBogf4oh4cskcAQo5mWPrVs0UctwiaU49FRUVcsstt1zRR2nZsqV8/PHHKTkKMejaa6+V9957L6XyqRaCXfS1NmzggGCqDFmOBPxCgH3sYFxXsI/tjyOOxxuPt1R/qRRyUiXHcn4gwHMjz41++J0m4mNCQs6yt1aKW8nJYCIOZzJPv3791KACBjQgvmzdulXmzp1rDZrUq1dPvvjii6RdoJCTNLKsFag4+L4SAZoN3SG5Y48y+YwB4gYRB3HkklkCFHIyy9eN2inkuEHRnDpWrFhhCTj9+/eXLVu2yMqVK+XVV19V22+66SY5d+5c0g5nW8hZv3590j6zAAmQgP8IsI/t7+sK9rH9dczxeOPx5q9fbHa85TtyssM9m1Z5buS5MZu/P7dsO+kq1qPVlry1UtxKTgbdalQq9axbt04NhDz00EPy0UeRd/J//vnn8uKLL6r9U6ZMSbp6CjlJI8tqASj1mHbZbNAmafnWfmk99iiT4QwQpxaDNqm4IX5cMk+AQk7mGadrgUJOugTNKY/ZMrjJBGnPnj1XODZs2DDVR2nQoMEV+6rakG0hZ/PmzVW5yP0kQAIBIaD72OizsY/tj+sLxAnXRLg2Yh/bXweiPt54TeuPYw1jDjzevD3GKOR4y9sUazw3+uecqMdieW6MPHqcdJXQCDl4ZNqbb74p3/rWt+To0aORhL76hkEU3O161113CYSdEydOSP369dWsnR49esgNN9xgPZYEYs9vf/tbueOOO2TChAkyYsSIKx6ttnHjRnnkkUfUwMszzzyj7qrVhp3q1nm4zjwBvBCtQfFKaTpwgzQZsl1ajNgnLUcfklZjjjBlmQHigHggLs0GbVRxQry4eEeAQo53rFO1RCEnVXLmlRs7dqzqL8yfPz+mc+jHVKtWTQk96EOgn5KbmyuLFi2SmTNnqrKYwYNF9z9uv/12KSgokOXLl1/xaDXdD8EjNpBv0qRJ1uNhneqOdu7ixYvSvXt3ZR91od906NAhlU0/Wm3evHnSrVs3lQf9sGnTpkVUg/4X9kPEQh2YgYSbb/SCfhvqPXXqlPTs2VPlQz3of9mXkydPSosWLVR/rVGjRrJ9+3YpLi4W+KEX+NunTx9VB+z17t1bPvzwQ72ba0MI8B05hgQiDTd0Hxt9OPaxzbqusPexcQ2EayH2sdP4sRtQVB9vvKY161jDmAKPt+weIBRysss/29Z5bjTvnKjHWnludD46KOSIyCeffKIen1arVi3H9+BgoAAX9hhU2LlzpzUwgYEFzOQ5f/68uujH9yeffFINBuAzUvXq1a1BEP0envvuu0/GjBmj8iLPuHHjVLTi1e0cSu7NFIF1O8/IkJm7pM3Q9VK/9wp5rcdSpiwzQBxyh62XYbN2CeLDxXsCFHK8Z56sRQo5yRIzNz/EC9xMgn5GvAViC/oSq1evtvo1ug+CvsuOHTtkyZIlKg++Q8S47bbbrO/o22DRAgvyYKZPTk6OyoPHy+Jdf7rPFF13tF8QfPB+QOTDo+CGDh2qPuPGlwsXLlh2sB83vpSUlFj50U/CAnu6joEDB6p+kv6+a9culcfeZ9Lt0nkgYmGBMIV9SKgHfTTtv360G9oFP7AdApd+3G5V3JUB/vGUAIUcT3Fn1Bj6cOjLoU/HPrYZ1xeIA655cO3DPnZGf/6eV85rWjOOMftYgmnHG/pAYVoo5IQp2vHbynMjz43xfx1m7klbyHns3ifURW/zV1om9Pg1J4PZQoQXBOPlwRhkcFrwiDQMAmCwQw90QMD54IMPVLEjR44oFnl5eZYgdPbsWVU3Zt9gQAJ3dmJQoF27dlYe3EnbpEkTdZcoHusWq24nv7iPBEiABLwmQCHHa+LJ26OQkzwzE0ugj1CzZk01ixf9iHiL7jtAmMDMEog06LNA6MDy2WefKaHizjvvVEIKtqHuunXrWn0bfIfIgTz2x8yOHz9e9W8wiyVW3bF8mjNnjioza9YsazdmA2GQYNWqVVZfB4+D0+8fRH8KfSSIKFgwiwb5y8vLrTrQZ0O79M0vut0Qu3Q96Kchj66nZcuW6vuBAweseiAuoW4t5AwfPlzNzLY/um7btm0qz8iRI61y/JB9AhRysh8DekACJEACJBA8AhRyghdTtihcBM4dmCTn9o4JV6ND2FonXSWhR6vl1GqtLnKfvO8p3wo5uODHwMGQIUMcfwJ4TEe0kGMfXIDQg8d54M5P+4K7P7WQs3XrVsULjxLB3Z94MTEGJfD4E/zjxKNP9KCEvW57ffxMAiRAAtkmQCEn2xGo2j6FnKoZ+SGHFld0PyKez3pmihZycINKfn6+lT1e3wLvqNF9G/vNJpg1gz7K+++/L/v371d5cMMLhJzoui0jtg94ZO3NN9+sBCS9GW2Bf/YbYrSQgjy6rVqAwTbYQ3r33Xdl37596jFv6C9BiMGi2xVdDx5bi3q0v3379lX59R+IRmg3ysEuxDIIWNgOW0ho+8MPPyw1atSwZlXr8lyTAAmQAAmQAAmQQJAIUMgJUjTZljASoJATjqgnJuSMXCFL4qSpxTPlB9f/QIkQjV9sKmO7j5ex3Sd8ta78XD58qVXeyWC2kOuL/Pbt28d1ARf5GJTQgx164GDDhg1WGfuMHWujiGA7HvOBO2n1c+7xTzJWst+laq/bXh8/kwAJkEC2CVDIyXYEqrZPIadqRn7JoUURPK4s3qL7FxAmdL/GfoNKrH4L6sJ23bfRYlCs/gm24R00seqO5RMeR+skPml/7AIM6sHMGi3koO+lH8kW7ZOTkGOvR/ur82tf9XbYj35cXLQtvB9Rz/bR5bkmARIgARIgARIgARLwLwE+Ws2/saPnsQlQyInNJWhbnXQVa0bO0hErJF7Kfa19TEFCXwR//WvfkNn951nlnQxmC65+jjue2x7vpbb6MR0YYIAgE2sAIhEhRz9qBLNtcLcnXs6LhLtesYYvserOFhvaJQESIIFYBCjkxKJi1jYKOWbFIx1v8M4W9KswazfWAsGjWrVq6hGteI+OFim0IIIyWqSJFk7sQs7BgweVncLCQjUbJbqPgsetxao7lk/oL2E2S7QAcujQoYh35ET7YxdyysrKlD9FRUWCx6Jhtgzs47Fxum3x+ky6Hi3SRD8+F/09PSMHdeL9OJjFc+bMGatvdvr0aUFCH40LCZAACZAACZAACZBAcAhQyAlOLNmSSgIUcsLxS3DSVRITcuq2cxRyrv7Wvxsv5CDUc+fOVe1o0aLFFYMOejYOBlEwYwZLrIEDXYfOg3x6cEXflYqBCNQzf/58VY/+A4EHQlK8x43ofFyTAAmQgAkEKOSYEAVnHyjkOPPx0179Dj48+guP+4peRo8erfoWvXr1UrtiiS26Dp1H1zFgwABrRo4WSfAeP/uiBR6ILrHqtufVnyE+QSiBMKIXLSbZZx87CTn6kbZ4BK1edB1amInVH0NeLeTgBhlwixaVcPMN+mPaPmYQ4VFw9llPWuCxz2zSfnCdPQJ8R0722NMyCZAACZAACQSFAIWcoESS7dAEKORoEsFeJyTkLH5rhcRLcwYuEDxeLV6a1meWLBqx3CrvZDCbqCG4vPHGG+qi/oEHHpBly5YpsWbdunXy0EMPqe1dunSxXIw1cKAHQDBwsWLFCnUHJ55Pj4GC6tWrq5k8sIMXCeNdOngvDu7ynDlzpsqDQQTsj1W3ZZgfSIAESMAAAhRyDAhCFS5QyKkCkM92l5SUqL4C+hjTpk1TfQWIGq1atVLb0VdBPwRLPLElJydH5R01apScPXtWZsyYYdWJG0mw4L1+6LdAKEEeCB14Jw7eJZjMjJyjR4+qetCnwrtttm3bpmbSoB68fydeX0cLMPAF7YQvEF3gy9KlS5U4hG15eXnq/TuJ1DN9+nRVD27Wwft+Jk2apL6jHi3koL+H7+iLQfRCvlq1aqltO3bsUGz4xwwCFHLMiAO9IAESIAESCBYB9IPCtFDICVO0w9FWCjnhiLOTrmLNyIkn4ti3jyp4W5q81Eyq3fO4jOsxSd7qMkZG5I+2BByd18lgtpFDRIn1LHaILhhMsC964CD6PTYYuMCAB/4JIuFRHc2bN494Tjwee6IHB3Q+DBzoAZh4ddvt8zMJkAAJZJMAhZxs0k/MNoWcxDj5KdfixYstIUP3H7DG7JfomSR4/Fj0TBL0M+rWrWv1USAKde3a1ZqRAxboC/Xp08fKo/symJWDBXXEqjsWx40bN0b4iz7R1q1bVVbd14l+XJxdyIGtGjVqRPgye/ZsadSokdq2cuVKSxByqgcG9U0zaA/ajdk+EJW0kIM8CxYsiLCF/h+YczGLAIUcs+JBb0iABEiABIJBAH2kMC0UcsIU7XC0lUJOOOLspKskLOTUfOzViAvf4fmjpEO9ypkoBY26R4g5TgZNQY47RXft2qWeJ481viez4HnweAb8sWPH1IBIvLInTpxQeWI9JiVeGW4nARIgARMIUMgxIQrOPlDIcebj173oY2C2CGbjIKXSh0D/Q7+rJh4HzNBBPybd98NcunRJjh8/rt41E89WVdtRHr7YxSr4B9EpkQWPd9Oc8M4cLKgPAxZ2IQfbYzXZIwAAIABJREFU0efDPv3ewkTqZx4SIAESIAESIAES8DsBCjl+jyD9DzsBCjnh+AU46SoJCTlFOf0sEefrX/uG+mwXcvCOnFn951lijpPBcCBnK0mABEjA/wQo5JgfQwo55seIHnpDALN8MAsHs6axfPrpp+pxutimHynnjSe0QgIkQAIkQAIkQAIkYAIBzsgxIQr0wU0CFHLcpGluXU66SkJCznMPP6/Em9Z12sqCoYvkxut/IIPyhsmiEcvkvt8/oPbhux8erWZumOgZCZAACZhFgEKOWfGI5Q2FnFhUuC2MBA4cOBDxiDfccYqER6lxIQESIAESIAESIAESCB8BCjnhi3nQW0whJ+gRrmxfQkLOkuErJF567J7H1cXwyPwxUjZsiVx/7fUyqN0wlT+3bvtKIeer76jDyWA4kLOVJEACJOB/AhRyzI8hhRzzY0QPvSOAR6bhnTpTpkyR8vJyOXv2rHfGaclVAnxHjqs4WRkJkAAJkAAJhJIAhZxQhj3QjaaQE+jwWo1z0lWsGTnxRBxsf+6vlTNy/v5cfZnVb56akTM0b4RMLZqpPuOOx5IOb1lCkJNByyt+IAESIAESMJoAhRyjw6Oco5BjfozoIQmQQPIEKOQkz4wlSIAESIAESKAqAnxHTlWEuJ8EzCZAIcfs+LjlnZOuYhNylsuS4bFTSceRataNfkwF1ni8mv5+283/K+VDl1jlnQy61SjWQwIkQAIkkFkCFHIyy9eN2inkuEGRdZAACZhGgEKOaRGhPyRAAiRAAkEgQCEnCFGsbMM//vEPNQu9VatWkp+frz5/8sknwWkgWxKTAIWcmFgCt9FJV0lIyIHA0/b1PEu40QIO1ld/699lfI9JloiDvE4GA0eXDSIBEiCBgBKgkGN+YCnkmB8jekgCJEACJEACJEACJEACJhCgkGNCFNL3ASJO8+bN1Rjtt771Les9kTfddJO899576RtgDcYSoJBjbGhcdcxJV7GEnEUjlktVaXqf2dL+zY7StGYLafB8I+nWpKeUDlt8RTkng662zIDK9u7dq06eGzZsyKg3EydOlLvvvlu+/PLLjNph5SRAAiSgCVDI0STMXVPIMTc2YfWsfv36Ur169Yz3V1599VXp169fWDGz3SRAAiRAAiRAAiRAAlUQCOo7cvBOSIhy6AtD1MEyZ84ctW3o0KFVUOFuPxOgkOPn6CXuu5OuElfIWTB0kczqP1/Khi0RfJ47qMwx2UUgJ4OJu+2PnFrI2bJlS0YdppCTUbysnARIIAYBCjkxoBi2iUKOYQGhO+ruwBo1alDI4W+BBEiABEiABEiABEggqwT8JuScPHlSFi1aJJ9//rkjtxEjRqhZOPZHqX322Wdy22238UYnR3L+30khx/8xTKQFTrpKXCGndd22Ss3NqdVaOtbvoj7bH6lm/4zHq83sN9eameNkMBGHmedKAhRyrmTCLSRAApklQCEns3zdqJ1CjhsUWYcfCXBGjh+jlrjPfEdO4qyYkwRIgARIgARIIDYBvwk5FRUVauwVj0sbMGCAnDhxImbDjhw5Ihs3bozYp8uOGzcuYju/BIsAhZxgxTNea5x0FUvIWVyyXOypdZ1KIafJS82kU70EhJy+c63yTgbjOZnOdkwrxAu+du/eLbiwR9KPIJsyZYr89re/VSfDRo0ayf79+yNMXbx4Ubp3724JVXgkyKFDhyLyONUBxbxp06aCmTmzZ8+Wxo0by7lz5yLKl5aWyptvvikfffSR2o6TMexADLv99ttl0qRJlr+6oLZ5xx13yIQJEwSKOx+tpulwTQIk4AUBCjleUE7PBoWc9PgFtfSoUaOkpKRENm3aJLfccosMGzZMNRV9nj59+qg7+K699lrp3bu3fPjhhxEY0K9BPwp9FFxEduvWLSJPVXWMHj1aBg4cKB988IE0aNBA9XHsBnDnYE5OjkybNs3arPs8sOnUV0Of6YEHHpAVK1ZIzZo1ecehRTB4HyjkBC+mbBEJkAAJkED2CaCvFabFb0IOYrN9+3Zp166dNUb55JNPytKlSwUzbmIt6OfXqVNH5cc7ci5cuBArG7cFhACFnIAEsopmOOkqcYWciT2nSp/WA2RCzykyuXC69G8zOG4amDtESocuzpqQg9kq+IekEwYIIOTokx9EEwghOKkhz44dOxQyTFeEOIJt/fv3FzxLEp9vuOEG6+RXVR07d+5UZdavXy/r1q1Tn2fOnGmFBH7AxiOPPCJffPGFEnxgAwMoOOHCV3yvV6+eJeZgYAXbcMLGgAs+I3nxzHnLcX4gARIIPQEKOeb/BCjkmB+jbHiIm0d03wFr3BACAQU3h+B7QUGBEkHwGX2j8+fPKzePHj1qiTwQZPLy8lT+WrVqqedvJ1IHRKC77rpLPRLinnvuUfXbLzyXLFmi6kS/CUtV/Sx7X61FixaSn59vtW3IkCHZwEubHhCgkOMBZJogARIgARIIHQH0/cK0+FHI0fFBv3vevHnWmCVusCouLhbMxrEv6NfjRifEFmnx4sX23fwcMAIUcgIW0DjNSUnIsc/OSfazk8E4Pqa1GTNacMLq3LmzEktQ2ebNm9W2WbNmWXXjrlM8M1IPSOiXgdnzYHoi6lq1alVCdeh35GBAAnepYpBE1w/D+/btU/XNnz9fDYJAnLnzzjut2TnIM378eJUHyjtOyrCPwRP90rKzZ8+qO2ohBumZRlaj+IEESIAEMkSAQk6GwLpYLYUcF2EGqCo96xczhfUyfPhwNcNmz549epNs27ZN9TlGjhyptuHmElwkom+jF8yuwbb33ntPEqkDtnV/ZcaMGVb/RtfXvHlzufnmm9VdhYn01ebOnavqWLBgga7CunEGN+FwIQESIAESIAESIAESSIwAxprCtPhZyLHH6cyZM4J3UCJ+mG2Pm8SjF+TBeCf2V/WOneiy/O4fAhRy/BOrdDx10lXizsgZ3K5EmrzUXJrWbFFlalYzR+YOLMvqjBwMMtifH2kfbICAg8edYYphYWGhmnGDAQncsaoHEzRgiCcQZaIHLOLVYRdyUAcGFTDbBuILFjzaBN9RH+rAna+4+xS+wKf3339fPe4NeTAjCLOLotuCejCQogdGVMX8QwIkQAIZJkAhJ8OAXaieQo4LEANYBcQU3DSiL+LQt8GjyLANjzx79913VUIf5OGHH1YXhnj8Ky782rZtG0EE/RXMOL506VKVdeBmE7uQg74P+je9evVSdep+kJ5Jk2hfzd4WVIT24M7Dfv36RfjKLyRAAiRAAiRAAiRAAiSgCfhdyEFffvXq1eoJPhBxkDADp2/fvmp2jr75W7fXPv6ot3EdLAIUcoIVz3itSVDIWSaLSy6nNnUvP5NRnzDira/+1r/LzL5zrPJOBuM5mc52iB9aLEE9OJnp57vH8lnntQ82RNtPtI5oIUfPwMGdoxjQwOAD7j7Foh/DFssnbOvZs6cScrR/dp/QRr4jx06En0mABDJNgEJOpgmnXz+FnPQZBrGG6P4NHs0AkSZe/wOPQvv4449VHtxUEmtJpA7cHRhtG99x0wwuRPVj1Q4fPpx2Xw3PAqeQEytS3EYCJEACJEACJEACJAACfhVy8KSeoqIiq++OJ/9Mnz7dehwyxjtj3ZSOG7ewHU8L4hJMAhRyghnX6FY56SrWjJzy4cvEnjrW7yI33fBDuePWX1eZfvzfP5EZfedY5Z0MRjvnxvdoIQd14vEgEETwCJHTp0/LqVOnVMIsGHzHgpMf7kSNnpZ46NAhNWMmkTqihRwIQHgmPF7wq0WdDRs2KHsHDx5UJ2LMCsJdsHaf8Bl3w8ZqCwpTyFEI+YcESMBDAhRyPISdoikKOSmCC3ixaDFFP/r1mWeeETx2Qfc/0B9CQt9ICzW4w8++YCYO+kXYj4tIpzpQLtr2ypUrVd8HfSL0q+yzixPpZ2H2NMpE99XQh6OQY49UsD7zHTnBiidbQwIkQAIkQALZIOA3IQd9dDweTd981aFDB9m1a9cV6MrKylQevNZh//79auwReVGOjx6+AlegNlDICVQ44zbGSVeJK+TYRZ1kPzsZjOtlGjtiiR9Qq/GIMry4177gsWbVq1dXs2UwJRFiDwY19KJnzeAdOYnUES3koB7tD55haVfJMZCCkzJ8sC9a4MEj3fSz4GFfLxCHqlWrFjH4ofdxTQIkQAKZIkAhJ1Nk3auXQo57LINUU7SYgrbZZ8botmqBB486w4wZzCLG7By7aDJmzBjrHTlV1aHt2MUa2MBsoBdffFH1ufDOQL0k0s/COwOj+2r6kW28UNUkg7emkBO8mLJFJEACJEAC2SeAgf4wLX4TcjAeecMNN6hxQTze2GnBLHot+Oh1cXEx36vtBC0A+yjkBCCICTTBSVexhJxFw5ZJVWlg7hB58dGX5an7npEaf31BWtdpKzP6zLminJPBBPxNOosWTnBhrxd9kY+7R7dv367uPu3Ro4c60Y0bN05lg8iDEx6es447RfHSXwgteI8NTpqJ1BFLyIEwhEEH1K2fA6/9wrtusB0nXbxHB+INBjhgEzNytNiD8itWrFB3yebn56syWoDSdXFNAiRAApkkQCEnk3TdqZtCjjscg1aLnsWCR7zqBe+5Qf8DYgwe14C793AXH7bt2LFDZdN39+GGk5MnT0p5ebnaj3y4qSSROmKJSL1791b14MI02b7agQMHVFndV8PsoIceekhti+5j6bZy7X8CFHL8H0O2gARIgARIwDwC6PeFafGbkJNsbPD+SYxJ4uZwjCdyCT4BCjnBjzFa6KSrJCTklA9dKo/e/Zi6aMaJPzr1alYcIeY4GcwE8mnTpinhxD44ADs4oUU/E37AgAFqMEL7sXHjRkt0Qbsg/GzdulXvrrIOLeTox6ehIAY7MIgCMQaDJfYF+/r06RPBEDZx4tULBCa739iP9+zY73DVebkmARIggUwRoJCTKbLu1Ushxz2WQaoJfYZYN3/g/X32PhxmLi9evDii6bjZxZ4HjzDDYx70UlUdEHKibevZztEzklFnIn013Nhi9wl9rPvuu4+PjtBB4ZoESIAESIAESIAEEiCA/lSYlqALOWGKJdtaSYBCTjh+CU66SkJCTtdG3SMuoO/+1Z/l1h/93Np2zX9cEzEzx8lgNpAfP35ckPAi31gLnv+O/frdObHyVFVHrDJO2yA6HTt2TM24iZUPjzXBXafIA/GHCwmQAAl4TYBCjtfEk7dHISd5ZmEvgRnH6FtAnMHj1GItuLvPqY+SSB2x6nXaVlU/CzZx04tdVHKqj/tIgARIgARIgARIgATCTYBCTrjjH8TWU8gJYlSvbJOTrpKQkPP4vU8q0eahux6WOf1Lrdk3o7q8Ldddc73ah8eu6UezORm80j1uIQESIAESMJEAhRwToxLpE4WcSB78RgIkQAIkQAIkQAIkQAIkQAIgQCGHv4OgEaCQE7SIxm6Pk66SkJBTs9orSqwp6TjSEmu0aFP9oecrhZy2Q619TgZju8itJEACJEACphGgkGNaRK70h0LOlUy4hQRIwP8E+I4c/8eQLSABEiABEiCBbBOgkJPtCNC+2wQo5LhN1Mz6nHSVhISc/m0GK7Hm1SfqCN6Xo0WcWf3mqUesYVZO6aBya7uTQTMR0SsSIAESIIFoAhRyoomY951CjnkxoUckQALpE6CQkz5D1kACJEACJEAC0QT4jpxoIvxOAv4iQCHHX/FK1VsnXSUhIWdQ22FKyMFJ/xc/vV3qPddA6tdoJFd/69/Vdqxfeby2vPxYLXnmgWel6/OFqfrKciRAAiRAAoYQoJBjSCAc3KCQ4wCHu0iABHxLgEKOb0NHx0mABEiABAwmQCHH4ODQNRJIgACFnAQgBSBLQkIOZtrES63rtLWEHJz4q0rtn+oUAGxsAgmQAAmEmwCFHPPjTyHH/BjRQxIgARIgARIgARIgARIwgQCFHBOiQB9IIHUCFHJSZ+enkmkLOYXNiuXJvzwtz/31hSrTo3dXky41eviJD30lARIgARKIQYBCTgwohm2ikGNYQOgOCZAACZAACZAACZAACZCAEQT4jhwjwkAnXCRAIcdFmAZXlbaQE2+mTrztTgYN5kTXSIAESIAEbAQo5NhgGPqRQo6hgaFbJEACJEACJEACJEACJEACWSVAISer+Gk8AwQo5GQAqoFVOukq1jty4okyevucAQuk3nMNrffiYErmPXfcK31a9r/ikWxOBg3kQ5dIgARIgARiEKCQEwOKYZso5BgWELpDAiTgCgG+I8cVjKyEBEiABEiABEJNgEJOqMMfyMZTyAlkWK9olJOukpCQM7PvXLnphh/GfTdOgxqNIsQcJ4NXeMcNJEACJEACRhKgkGNkWCKcopATgYNfSIAEAkKAQk5AAslmkAAJkAAJGEWA78gxKhx0hgSSJkAhJ2lkvizgpKskJOS0rtPWEnH+cPtd0vyVllLfNjvn61/7hozrPskSc5wM+pIgnSYBEiCBEBKgkGN+0CnkmB8jekgCJJA8AQo5yTNjCRIgARIgARKoigCFnKoIcT8JmE2AQo7Z8XHLOyddpUohZ+GQJXL/7x9UQk70zBs8bu3WH/1c7evTcgCFHLcixnpIgARIwAACFHIMCEIVLlDIqQIQd5MACZAACZAACZAACZAACSgCFHL4QyABfxOgkOPv+CXqfWJCzpClUh4n/f3ZBkqsGdyu5Io81R+sofaV5L1l7XMymKjTzEcCJEACJJBdAhRysss/EesUchKhxDwkQAIkQAIkQAIkQAIkQAJhI8B35IQt4sFvL4Wc4McYLXTSVawZOQuHLJV4aWT+WCXW/OlXf5apRbOsfIPbDZfrrrlezcqZ07/M2u5kMBzI2UoSIAES8D8BCjnmx5BCjvkxoockQAIkQAIkQAIkQAIkQALeE6CQ4z1zWswsAQo5meVrSu1OukpCQk6X+t2VkINpmEg//sFP5JabbonY9qP/utn6nvd0Z1PaTj9IgARIgARSJEAhJ0VwHhajkOMhbJoiARLwjADfkeMZahoiARIwkMCXX3wqZ/aMlHN7xzCRAX8DafwGjm5sLye3FRt4lNMlEkiNAIWc1Lj5rVSCQs4SwftwYqWWtdpYIo0Wc5zWbZ7o4DdG9JcESIAESCCKAIWcKCAGfqWQY2BQ6BIJkEDaBCjkpI2QFZAACfiYwKULJ2TfohqiBuwOTOKaDFz7DWAcL2y/KxxPXEggKAQo5AQlks7tSFvIGdl5rOTXL5CujXpUmTq8mS9FNfs7e8S9JEACJEACxhOgkGN8iIRCjvkxoockQALJE6CQkzwzliABEggOAQw8H1z+WnAaxJYYQwBCDhcSIAH/EqCQ49/YJeN52kJOrFk6TtucDCbjOPOSAAmQAAlkjwCFnOyxT9QyhZxESTEfCZAACZAACZAACfiDAIUcf8TJj15SyPFj1OgzCVwmQCHnMosgf3LSVWzvyIn9WDUINkUt+kmNv74gLz9WK2Z64W8vycx+86zHsjkZDDJoto0ESIAEgkSAQo750aSQY36M6CEJkAAJkAAJkAAJJEOAQk4ytJiXBEiABMJDgEJOOGLtpKtcFnIGL5GFcVLrWrmO78i5+lv/LtMLZ1nlnQyGAzlbSQIkQAL+J0Ahx/wYUsgxP0b0kARIgARIgARIgASSIUAhJxlazEsCJEAC4SFAISccsXbSVRIScro06Ca/vvU3cvcd90QkTMtEuuG735eZfeZRyAnH74mtJAESCAkBCjnmB5pCjvkxoockQALJE+A7cpJnxhIkQALBIUAhJzixZEtIgARIwE0CFHLcpGluXWkLOfFm6kwpnCE33fBDJe6UDlxEIcfc3wA9IwESIIGkCVDISRqZ5wUo5HiOnAZJgAQ8IEAhxwPINEECJGAsAQo5xobG947xHTm+DyEbEHICFHLC8QNISMgpG7xEUknPPlhDzcoZ1v4tq7yTwXAgZytJgARIwP8EKOSYH0MKOebHiB6SAAkkT4BCTvLMWIIESCA4BCjkBCeWprWEQo5pEaE/JJAcAQo5yfHya24nXcV6tJqTiDO1cJaMzB8bkUZ3GS+9mhbLdddcr4Scfq0HU8jx6y+EfpMACZBADAIUcmJAMWwThRzDAkJ3SIAESIAESIAESCBNAhRy0gTI4nEJUMiJi4Y7SMAXBCjk+CJMaTuZoJCzWMoGx04ta7VRYg1O+rHS1d++Wqb2nmmVdzKYdmtYAQmQAAmQgCcEKOR4gjktIxRy0sLHwiRAAiRAAiRAAiRgHAEKOcaFhA6RAAmQgBEEKOQYEYaMO+Gkq9hm5MQWcSDuVCXk5NcvsEQc5HcymPHW0gAJkAAJkIArBCjkuIIxo5VQyMkoXlZOAiRAAiRAAiRAAp4ToJDjOXIaJAESIAFfEKCQ44swpe2kk65yWcgZtFjK4qQZvefIuK6Trkjju02W+QMWXlHOyWDarWEFJEACJEACnhCgkOMJ5rSMUMhJCx8LkwAJGEqgffv2gsSFBEiABMJIgEJOGKPONpMACZBA1QQo5FTNKAg5nHSVhIScaIHn7YIJ0idngJTkvSWlAxdRyAnCr4RtIAESIIEoAhRyooAY+JVCjoFBoUskQAJpE6CQkzZCVkACJOBjAhRyfBw8g11fvHix/OlPfzLYQ7pGAiRQFQEKOVURCsb+lIWcyb2mS7W7H5drrr6m8h04gxZLkxebR7wn59Yf3ipTes2MEHOcDAYDKVtBAiRAAsEnQCHH/BhTyDE/RvSQBEggeQIUcpJnxhIkQALBIUAhJzixNKklFHJMigZ9IYHUCFDISY2b30o56SpxZ+TMKp4nN153oxJtrv721TKt92wZ3XlchIhz1VVXqe/33nGvlA4st8QcJ4N+g0d/SYAESCCsBCjkmB95Cjnmx4gekgAJkAAJkAAJkEAyBCjkJEOLeRMlQCEnUVLMRwLmEqCQY25s3PTMSVeJK+Q0e6mFJdrUeqyOehdOy1q5lrAzpG2J9GhcaOUZ3mEUhRw3o8a6SIAESCDLBCjkZDkACZinkJMAJGYhARIgARIgARIgAR8RoJDjo2DRVRIgARLwkACFHA9hZ9FUQkJO6aDFotOCgYvkwd8/pESaVrXbqu3Ydv9vH1Dbnv/bS1Zena9vq0HWNieDWeRA0yRAAiRAAkkQoJCTBKwsZaWQkyXwNEsCJEACJEACJEACGSJAISdDYFktCZAACficAIUcnwcwQfeddBVrRo4WcfT6sT8/oUSbgbnDlEAzo3ie/NdXj1rr1qiXJdrofBRyEowGs5EACZCATwhQyDE/UBRyzI8RPSQBEkieAN+RkzwzliABEggOAQo5wYklW0ICJEACbhKgkOMmTXPrSkzIGbhYSm3pkT9VU0JO35aD1Pah7Uao71//2jdkVP7batuCAYvkd7fdqbYXt+hvlXcyaC4mekYCJEACJGAnQCHHTsPMzxRyzIwLvSIBEkiPAIWc9PixNAmQgL8JUMjxd/xM9Z7vyDE1MvSLBBInQCEncVZ+zumkq1yekTNwkZTa0kt/q6kEmp/+9y3Su3lf+eMv71bfb7j2Bpnbr1SmFM6Q2o/XVduu/ubVMrbLeKu8k0E/g6TvJEACJBAmAhRyzI82hRzzY0QPSYAEkidAISd5ZixBAiQQHAIUcoITS5NaQiHHpGjQFxJIjQCFnNS4+a2Uk64SV8gZnf+2EmmuuuqqiHW96g2UYJPzSmtr+9P3P2uJOBCDnAz6DR79JQESIIGwEqCQY37kKeSYHyN6SAIkQAIkQAIkQALJEKCQkwwt5k2UAIWcREkxHwmYS4BCjrmxcdMzJ10lrpADQWZw7jC57prrLMHmhb/VlPn9F0YIOY/9+XGZ03cBhRw3I8a6SIAESMAAAhRyDAhCFS5QyKkCEHeTAAmQAAmQAAmQgM8IUMjxWcDoLgmQAAl4RIBCjkegs2wmZSFHP2ptZtFcmVU8L0KsmdRzmozuPC5im87vZDDLLGieBEiABEggQQIUchIElcVsFHKyCJ+mSYAESIAESIAESCADBCjkZAAqqyQBEiCBABCgkBOAICbQBCddxXFGjhZmkl07GUzAX2YhARIgARIwgACFHAOCUIULFHKqAMTdJEACviTAd+T4Mmx0mgRIwCUCFHJcAslqSIAESCBgBCjkBCygcZrjpKtYQs6CAYvEreRkMI6P3EwCJEACJGAYAQo5hgUkhjsUcmJA4SYSIAHfE6CQ4/sQsgEkQAJpEKCQkwY8Fo1LgO/IiYuGO0jANwQo5PgmVGk56qSrUMhJCy0LkwAJkEBwCVDIMT+2FHLMjxE9JAESSJ4AhZzkmbEECZBAcAhQyAlOLE1qCYUck6JBX0ggNQIUclLj5rdSFHL8FjH6SwIkQAIGEKCQY0AQqnCBQk4VgLibBEiABEiABEiABHxGgEKOzwLmE3cp5PgkUHSTBBwIUMhxgBOgXRRyAhRMNoUESIAEvCJAIccr0qnboZCTOjuWJAESIAESIAESIAETCVDIMTEq9IkESIAEsk+AQk72Y+CFBxRyvKBMGyRAAiQQMAIUcswPKIUc82NED0mABEiABEiABEggGQIUcpKhxbwkQAIkEB4CFHLCEesEhZxyWTDAneRkMBzI2UoSIAES8D8BCjnmx5BCjvkxoockQALJE+A7cpJnxhIkQALBIUAhJzixZEtIgARIwE0CFHLcpGluXU66ylVwGxncEnFQj5NBczHRMxIgARIgATsBCjl2GmZ+ppBjZlzoFQmQQHoEKOSkx4+lSYAE/E2AQo6/42eq93xHjqmRoV8kkDgBCjmJs/JzTidd5bKQ079cFriUnAz6GSR9JwESIIEwEaCQY360KeSYHyN6SAIkkDwBCjnJM2MJEiCB4BCgkBOcWJrUEgo5JkWDvpBAagQo5KTGzW+lnHQVCjl+iyb9JQESIAGPCFDI8Qh0GmYo5KQBj0VJgARIgARIgARIwEACFHIMDEoAXKKQE4AgsgnRWQ/NAAAgAElEQVShJ0AhJxw/gYSEnPn9y8Wt5GQwHMjZShIgARLwPwEKOebHkEKO+TGihyRAAiRAAiRAAiSQDAEKOcnQYl4SIAESCA8BCjnhiLWTrmLNyHFLxEE9TgbDgZytJAESIAH/E6CQY34MKeSYHyN6SAIkQAIkQAIkQALJEKCQkwwt5iUBEiCB8BCgkBOOWDvpKhRywvEbYCtJgARIIGkCFHKSRuZ5AQo5niOnQRIgAQ8I8B05HkCmCRIgAWMJUMgxNjR0jARIgASySoBCTlbxe2acQo5nqGmIBEiABIJDgEKO+bGkkGN+jOghCZBA8gQo5CTPjCVIgASCQ4BCTnBiaVJL+I4ck6JBX0ggNQIUclLj5rdSFHL8FjH6SwIkQAIGEKCQY0AQqnCBQk4VgLibBEjAlwQo5PgybHSaBEjAJQIUclwCyWoiCFDIicDBLyTgSwIUcnwZtqSdTkzI6bdQ5ruUnAwm7T0LkAAJkAAJZIUAhZysYE/KKIWcpHAxMwmQAAmQAAmQAAkYT4BCjvEh8qWDFHJ8GTY6TQIRBCjkROAI7BcnXeXyO3JcEnEgBjkZDCxlNowESIAEAkaAQo75AaWQY36M6CEJkAAJkAAJkAAJJEOAQk4ytJiXBEiABMJDgEJOOGLtpKtQyAnHb4CtJAESIIGkCVDISRqZ5wUo5HiOnAZJgARIgARIgARIIKMEKORkFC8rJwESIAHfEqCQ49vQJeV4QkLOvH4Lxa3kZDApz5mZBEiABEggawQo5GQNfcKGKeQkjIoZSYAEfESA78jxUbDoKgmQgOsEKOS4jpQVkgAJkEAgCFDICUQYq2yEk65izchxS8RBPU4Gq/SWGUiABEiABIwgQCHHiDA4OkEhxxEPd5IACfiUAIUcnwaObpMACbhCgEKOKxhZSRQBviMnCgi/koAPCVDI8WHQUnDZSVehkJMCUBYhARIggTAQoJBjfpQp5JgfI3pIAiSQPAEKOckzYwkSIIHgEKCQE5xYmtQSCjkmRYO+kEBqBCjkpMbNb6Uo5PgtYvSXBEiABAwgQCHHgCBU4QKFnCoAcTcJkAAJkAAJkAAJ+IwAhRyfBcwn7lLI8Umg6CYJOBCgkOMAJ0C7EhNy+i6UeS4lJ4MB4sqmkAAJkECgCVDIMT+8FHLMjxE9JAESIAESIAESIIFkCFDISYYW85IACZBAeAhQyAlHrJ10lcuPVnNJxIEY5GQwHMjZShIgARLwPwEKOebHkEKO+TGihyRAAiRAAiRAAiSQDAEKOcnQYl4SIAESCA8BCjnhiLWTrkIhJxy/AbaSBEiABJImQCEnaWSeF6CQ4zlyGiQBEvCAAN+R4wFkmiABEjCWAIUcY0NDx0iABEggqwQo5GQVv2fGExRyymReX3eSk0HPWk1DJEACJEACaRGgkJMWPk8KU8jxBDONkAAJeEyAQo7HwGmOBEjAKALRQg765FxIIF0CfEdOugRZngSyT4BCTvZj4IUHTrqKbUaOOyIOxCAng140mDZIgARIgATSJ0AhJ32Gma6BQk6mCbN+EiCBbBCgkJMN6rRJAiSQTQKHVjWQ/eXPygfHy0ULOeiLn909UnaXPiIfnliUTfdoOwAEKOQEIIhsQugJUMgJx0/ASVexhJy5fcvEreRkMBzI2UoSIAES8D8BCjnmx5BCjvkxoockQAIkQAIkQAIkUBWBTz86JHtLH5e95dVl/9JXZN/Cp2RP2ROyt/xp2b/k5aqKcz8JVEmAQk6ViJiBBIwnQCHH+BC54qCTrkIhxxXErIQESIAEgkeAQo75MaWQY36M6CEJkAAJkAAJkAAJJELg+JbOsnfhk7Jnwd9kb+ljletF1dUsnUTKMw8JkAAJkECwCVDICXZ8desSE3L6lMlcl5KTQe0U1yRAAiRAAmYToJBjdnzgHYUc82NED0mABEiABEiABEggEQKYlYNZOBBydDqwrHYiRZmHBEiABEggBAQo5IQgyCKOr6y5PCPHJREHYhCFnHD8sNhKEiCBYBOgkGN+fCnkmB8jekgCJJA8Ab4jJ3lmLEECJBAMAsff6WbNytm3qIZ8cHxhMBrGVpAACZAACaRNgEJO2gh9UYGTrkIhxxchpJMkQAIk4D0BCjneM0/WIoWcZIkxPwmQgB8IUMjxQ5ToIwmQQCYI2GflHFhaKxMmWGdICfAdOSENPJsdKAIUcgIVzriNoZATFw13kAAJkAAJxCNAISceGXO2U8gxJxb0hARIwD0CFHLcY8maSIAE/Efg+JYC2bPwSc7G8V/ojPaYQo7R4aFzJJAQAQo5CWHyfSYKOb4PIRtAAiRAAt4ToJDjPfNkLVLISZYY85MACZAACZAACZCA2QQunT8ge8ufNttJeuc7AhRyfBcyOkwCVxCgkHMFkkBuoJATyLCyUSRAAiSQWQIUcjLL143aKeS4QZF1kAAJkAAJkAAJ+J3Aup1nZMS83dJhxEZpVLxSXuuxlCnLDBAHxANxQXy4kAAJkAAJpEeAQk56/PxSOiEhZ06fUnErORn0CzT6SQIkQAJhJ0Ahx/xfAIUc82NED0mABEiABEiABDJHYN6aw9Kk7yrpPm6bTFhyXJZt/1DeOXxJdp74kinLDBAHxANxQXwQJ8SLCwmQAAmQQGoEKOSkxs1vpZx0lavQGGSYU1zqWnIy6Dd49JcESIAEwkqAQo75kaeQY36M6CEJkIAzgc8++0yQLl26ZKXc3FxB+vTTT6108eJFQeJCAiRAAiBw+PRH0mnkJuk9uUKWVZyXiuNfMBnOAHFCvBA3xI8LCZAACZBAcgQo5CTHy6+5nXQVCjl+jSr9JgESIIEME6CQk2HALlRPIccFiKyCBEggawS2b98uV111lfzzP/+z/Mu//IuV8B3pX//1X62E/f/0T/+kRJ+sOUzDJEACRhCoOPi+1O+9QiYsOy47jn/B5DMGiBvihzhy8Y4A35HjHWtaIoFMEaCQkymyZtVLIceseNAbEiABEvAFAQo55oeJQo75MaKHJEACzgReffVV6dixo3MmEXnxxReloKCgynzMQAIkEGwCmMkBEWDG2jOy7dgXTD5lgPghjpyZ493xSiHHO9a0RAKZIkAhJ1NkzaqXQo5Z8aA3JEACJOALAhRyzA8ThRzzY0QPSYAEnAlgVs6//du/yccffxw345YtW+Saa65Rj16Lm4k7SIAEQkEAj+Uav+S4bD36OZPPGSCOiCcXbwhQyPGGM62QQCYJUMjJJF1z6qaQY04s6AkJkAAJ+IYAhRzzQ0Uhx/wY0UMSIIGqCdSqVUs6dOgQN+NLL73E2Thx6XAHCYSHwLw1h6VwUoW8c+RzpoAwQDwRVy4kQAIkQAJVE6CQUzWjIOSgkBOEKLINJEACJOAxAQo5HgNPwRyFnBSgsQgJkIBxBHbs2KFm5Xz00ZUvv8ZsnO985zvy6aefGuc3HSIBEvCWQJO+q6R864ey5fDnTAFhgHgirlxIgARIgASqJkAhp2pGQchBIScIUWQbSIAESMBjAhRyPAaegjkKOSlAYxESIAEjCcSblYPZOF26dDHSZzpFAiTgHYF1O89I17e3yuZDnzEFjAHiivhyIQESIAEScCZAIceZT1D2JibkFJXKHJeSk8GgQGU7SIAESCDoBCjkmB9hCjnmx4gekgAJJEYg1qycd955h7NxEsPHXCQQeAIj5uyWMeVHZdOhz5gCxgBxRXy5ZJYA35GTWb6snQS8IEAhxwvK2bfhpKtcBfeQYXbRAteSk8Hs46AHJEACJEACiRCgkJMIpezmoZCTXf60TgIk4C6B6Fk5NWvWlM6dO7trhLWRAAn4kkDeiA0yf/P7sv7gJaaAMUBcEV8umSVAISezfFk7CXhBgEKOF5Szb8NJV6GQk/340AMSIAESMJIAhRwjwxLhFIWcCBz8QgIk4HMCFRUV8u1vf1vwrhzMxvnP//xPuXjxos9bRfdJgATcINCgeKWs2H1B1h24xBQwBogr4sslcwTwnrmcnBy58cYbZcSIEXzvXOZQs2YSyCgBCjkZxWtM5RRyjAkFHSEBEiAB/xCgkGN+rCjkmB8jekgCJJAcgdq1a0teXp5wNk5y3JibBIJO4LUeS2Xt/ktMAWWA+HLJDIHy8nL53ve+J88884z6/4o1vmM7FxIgAX8RoJDjr3il6i2FnFTJsRwJkAAJhJgAhRzzg08hx/wY0UMSIIHkCGBWzje/+U35j//4D87GSQ4dc5NAoAlgoH/Nvk+ZAsqAQk5mDl/MxIFoM2nSpAgD+I7t2M+FBEjAPwQo5PgnVul4SiEnHXosSwIkQAIhJUAhx/zAU8gxP0b0kARIIHkCt9xyizz44IPJF2QJEiCBwBLAQP/qvZ8yBZQBhRz3Dt1PPvtY3jmzWebsnSavdHhRbrv3Z9JqSRNpWPaG1Cutq9b4ju3Yj3zIj3JcSIAEzCZAIcfs+LjlHYUct0iyHhIgARIIEQEKOeYHm0KO+TGihyRAArEJXPriklSc2ybz9s+UwZv7SeeV7aXl4sYRA034ju3Yj3zIj3JcSIAEwkcAA/2r9n7KFFAGFHLSO6Yhwiw9Ui59NvRUYg0EG6TfvPBLlfR3+zrWPpRHPRR10osHS5NApghQyMkUWbPqTUzI6b1AZruUnAyahYbekAAJkAAJxCNAISceGXO2U8gxJxb0hARIIDEC60+sloGbitUAU/c1naVk61CZumeqLDyySFaeXCvrz2yRjWe3qjW+Yzv2Ix/yYxAK5VEPFxIggfAQwED/yj0XmQLKgEJOasfyyY+Oy4SK0RHijV2subfZ3fI/f7wp5n5sx357fvtn1Iv6uZAACZhDgEKOObHIpCdOuspVMIwMbok4qMfJYCYbyrpJgARIgATcI0Ahxz2WmaqJQk6myLJeEiABNwlc/OKCmlHTYnFj6bWum0zeM0nWntogcw/Ol5HbR0jh+h6St7yNNFvcUBqWva4GlbDGd2zHfuRDfpRDedSD+jBTB/VzIQESCDYBDPQv3/0pU0AZUMhJ7vjFjJlJu96OK8Lkr2wng7cMlHHb35ZrvvsdyR/SRdad3iQbzmxRa3zHduxHPuS3izj2z7DDGTrJxYe5SSBTBCjkZIqsWfU66SqWkDOr9wJxKzkZNAsNvSEBEiABEohHgEJOPDLmbKeQY04s6AkJkEBsAosPl0nTRQ2k/+Y+UnakXOYcnCt9NxV/JdK0loFb+smE3eNl3qEFsuzESll9eoOsO7NJrfEd27Ef+fKWt1blUB71oD7Ui/phhwsJkEBwCWCgf9muT5kCyoBCTuLH7toTq9Q7b+xiCz53XNlOxu4crf6X4v+oTv2nDpZr/79r5b5q90udFq+pNb5ju86DNf7nojzqia4b79SBXS4kQALZJUAhJ7v8vbLupKtQyPEqCrRDAiRAAj4jQCHH/IBRyDE/RvSQBMJK4Nj5w1K4tkB6rusq8w6VytR906Tzqg7SZlkLGb5tmCw8uljWnt6YdEI5lEc9qA/1on7YgT3Y5UICJBA8AhjoX7rzIlNAGVDISeyYjfUYta5r8mXG/pmO/0+XH10t7YrzpHaz19Qa353+B6M+1Bst6MA+FxIggewRoJCTPfZeWk5QyJkvs3q7k5wMetlw2iIBEiABEkidAIWc1Nl5VZJCjlekaYcESCAZAmuOr1CDP6MqRkrp0YXSfV2B5C5vKeN2j5PVp9e7llAf6kX9sAN7GHSCfS4kQALBIoCB/iUVF5kCyoBCjvPx+uGlD6XPhp4Rwkrrpc1l0p6Jrv1PjfX/GfXDjl3QgR/whwsJkID3BCjkeM88GxaddBXbjBx3RByIQU4GswGANkmABEiABJInQCEneWZel6CQ4zVx2iMBEqiKAN5Z035ZK5l1cLaMrhip3nlTsnWIrDq1NmMJ9eOdOrAHu7APP7iQAAkEhwAG+hdXXGQKKAMKOfGP1XcvnJWCVXkRYkrRxkJZcWp1xv6v2v9nww7s2cUc+AO/uJAACXhLgEKOt7yzZc1JV6GQk62o0C4JkAAJGE6AQo7hARIRCjnmx4gekkCYCEzfPUm6rO4g5ccXS9/NRdJuRSuZeWiWLD+9OuMJdmAPdmEffsAfLiRAAsEggIH+RTsuMAWUAYWc2McpZr5Eizgjtpdk/H9qrP/bsBst5nBmTuy4cSsJZIoAhZxMkTWr3sSEnML5Msul5GTQLDT0hgRIgARIIB4BCjnxyJiznUKOObGgJyQQdgKYAQPxZPGJpepRZ93WdpYlJ5fLslMrPUuwB7t41Br8gD+cmRP2XybbHxQCGOgv336BKaAMKOTEPlKjH6f29q4xnv1PjfX/G/btYg7840ICJOAdAQo53rHOpiUnXeXyjByXRByIQU4GswmCtkmABEiABBInQCEncVbZykkhJ1vkaZcESMBOAO+kabu8pZQeK5Pu67pIr/XdZOmp5VlLsA8/4A/84jtz7NHiZxLwJwEM9Jdtu2BcGl++X0bPr5Bx5ftk/pbzxvlnIrNYPlHIufK4nFAxOkI0GbNrdNb+r9r/p8MPu5gDP7mQAAl4Q4BCjjecs23FSVehkJPt6NA+CZAACRhKgEKOoYGxuUUhxwaDH0mABLJC4Nj5w2pAZ9qBqVK8qZd0XZsvS04uzXqCH/AHfmHACX5yIQES8C8BDPSXvvOJMan/hBXyXz/8iVx11VVW+sb/+6bkFY03xkc7rxGztyo/+41fbqR/FHIij821J1ZFiCXDtg3J+v9V+/92+GMXc+AvFxIggcwToJCTecYmWKCQY0IU6AMJkAAJ+IwAhRzzA0Yhx/wY0UMSCDqBnmu7yLAdQ6WkYpia/VJ2YpGUn1yS9QQ/MBsHfsE/+MmFBEjAvwQw0L9g6ydGpC6DZypRBMJN656jZej0jdKjZJ7cdsddanuj9v2N8NPOa/hXQk7fccuM8w1+Usi5fGx+8tnH0mpJE0soKdzQPev/U2P9X4dfWsyBv/CbCwmQQGYJUMjJLF9Tak9IyJlZOF/cSk4GTYFCP0iABEiABJwJUMhx5mPCXgo5JkSBPpBAeAksPlwm3dbmy4xDM6R+2esyef9kWXhikTEJ/sAv+Ac/4S8XEiABfxLAQP/8LZ9kPU1eflz+7T+ukWu++z15u/xAhD9zNn0ov/7jg2r/hCWHI/Zl2/fhsypn5PR5e5lRfmkuFHIuH5eTdr1tCSQtlzaVsuMLjfm/av8fD7/gnxZz4DcXEiCBzBKgkJNZvqbU7qSrWI9Wc0vEQT1OBk2BQj9IgARIgAScCVDIceZjwl4KOSZEgT6QQDgJXPzigjRdVF8mH5gsBWs6yoCtfaXsxELjEvyCf/AT/sJvLiRAAv4jgIH+eZs/znpq02O0mnVTMGR2TF+Kxi5V+/uMXab2z974geQUjJCf3HaH2v7L398r7QrHydyN59X+0Qt2SbXqrytRqHaTLkoE+tr/+6a07D4yov4Za89JrUb5qg48zg1l3pq3MyJPbq+xlp3Hn/+7DJ+93dpfMvOdCL9MYGn3gUJO5TF58qPjljACgWTkrreM+79q/18P/7SQgzX850ICJJA5AhRyMsfWpJqddBUKOSZFir6QAAmQgEEEKOQYFIw4rlDIiQOGm0mABDJOYN7+mdJ7Yw8Zs3uktFnWXEqPlxqb4B/8hL/wmwsJkID/CGCgf+6mj7Oe/vZ0XSW2TFxyLCFf6jbrpgSU5+q2kraF4wTlIcRA3EF7Bk/daIkzmOnzWvMe8vNfVT6irX3RRJVn1voPrG1vtiqUBm37qTLf+e73ZNqasyoP6ke9j1Z/XRp3GCTX3fAD9X3QlPVq/7CvhJyiscvUdxNY2n2gkFN5TE6oGG0JI51Wtzf2/6r9fz781GIO/OdCAiSQOQIUcjLH1qSaExNyes2TmS4lJ4MmgaEvJEACJEAC8QlQyInPxpQ9FHJMiQT9IIHwEWixuJFMPDBR8la1kZKKITLvxHzptfHy8/L1oE421/AHfsE/+Al/4TcXEiAB/xHAQP+sjR9lPT3y7Otyx10PyowNH1Tpy/T178v//Ox2ea52jpV35obzcuc91QT14POQGZUzZf7y2EtWneMXH1Vi0es5vVS5vD6TlSjTrmiiVU/R2OVqW4+3FkqfcSuv2D9x+Qn5wf/8TO6vVjPCTu8xZnCMjiWFHFHvmLH/zxy9Z7T6H4b/Y8tPr5HNZ7cbk+AP/EKCn3a/+a4c/51f6bF/CFDI8U+s0vHUSVe5PCPHJREHYpCTwXQawrIkQAIkQALeEaCQ4x3rVC1RyEmVHMuRAAmkQ2D9idXSdU0nGbN3jLRc2kTmHp+rUp8thdJjbYG0WtJUijf0kkXHlsr6M5s9S7AHu7APP+CP9g1+wl/4Df+5kAAJ+IuAEnI2fCSzspwgwPz6rr/KzHUfJuTL1FXnZPLqszJh6QkpmVUh3YeXyfdv+omqY/q6D2Tw9Eohp3D0Uqu+mevPyx/+8oQoIWfDR/Lw03Xk+ht/JNPWvBeRB2XGLToqDdsPEDyObfC0zcrO2EWHZcrKM1KrSYF857vXqzyx7GSbpd0+hRyRpUfKLUGk3YqW1v8v/B9bdmqlzNg7U5YfWyWTdk+S1kubW3ntIkqmPsMe7MI+/IA/+v8r1vBX20Y7uJAACWSGAIWczHA1rVYnXYVCjmnRoj8kQAIkYAgBCjmGBMLBDQo5DnC4iwRIIGME+m3qLUMrBkv39V2k7zu9Zfbx2SoVbeklQ94ZJKtOr1NrDOro76tPr5dMpVj2YBf+aN/gJ/yF3/CfCwmQgL8IYKB/xoaPsp4eerqOEkcmLD0Z05e3Fx2VBu0HyLDZFWp//qA5anYNHntmT3fd/5TMWPehDPpKyOk1OrJ99z36kryW00vV8fBX4hHyRzOYvv68IK+9bvtnPK4NPsWzE11ftr5TyBHps6GnJYYM2t7P+v+F/2PLTq2Q4VtLpEHpazJiW4mamYM1vmsBJRPrWPbgB/zR/1+xhr/aPtrBhQRIIDMEKORkhqtptVLIMS0i9IcESIAEfECAQo75QaKQY36M6CEJBI3ApS8uqcGa6UemS5NF9WXigQky69gslXpv7imDtwyQFadWqTT/yAIpXN9dcpY0kdEVI63ter8ba9SL+mEH9nSd8AP+aN/gJ/yF3xhsQju4kAAJ+IcABvohWmQ7Nc4fpkSTnqOWxPSlbXHlY9CK3l4pJbN3qbx/feY16TtxnYwpP6TKQJi5448PyvS1H8igaVti1ndvtRelboueKj8+/+rOB2Xq2vcjbA6dtUMmrTgjT9RsrMSigVM3y8jS/TKydJ9KsIfvYBbPTrZ5avthF3LwODIthGA99dBk6/8X/o8tPblcCTk6j32GTN+NRRFldZ5016g31gwgCDnwR/9/xRr+2u3x8Wr+ObfSU38RoJDjr3il6i2FnFTJsRwJkAAJhJgAhRzzg08hx/wY0UMSCBqBinPbJH91O3lr71vSenlzmX5shpUKN/eQge/0lSUnl0akSfsmSseVbVXC5+j9qXyvqk74AX/s/sFf+A3/0Q4uJEAC/iGAgf5p685nPY2Yv1cJLz+57XcyfsnJCH/GLDwiN9z0E/nu934gE5efkX6TNqi8PUYutvKNX3pK5bnrvqdk2poPZODUSiGnx8glVh608y+PvCh1m/dU2178e54SakYuOGDl0XV3LSmT1j3Hyde/8U0ZNnuXtR91PFO7pVRlxwSm8CHsQs47ZzZbQkjbFTkR/7vwf2xJlJCjRZMuqzvK3IMLVMJnvT2ddVV1QsiBP/b/r/gMv7VdtIcLCZCA+wQo5LjP1MQaExJyZvSaJ24lJ4MmAqJPJEACJEACVxKgkHMlE9O2UMgxLSL0hwSCT2De/plSuKm7emxZtw1dZNrRaVbC9r7vFEvZifKYafiOYdJiSWPpvq6LTD88I2aeeGX1dpRDedSD+vT26DX8gD92/+AvHreG7WgHFxIgAf8QUELO2vMyzYDUqMMQJdDgsWW5RZOl/5TNktdvhhJw8FizNr0mKD8HTK4UaZ5/o50Mn7tXisetk//99T2q7O2/u19GlR4SnUcJOba23fvIi1IHQs7a8zJ0VuXMnv/73V9k4JR3pOjttXLj//xM2Zuw7IyMLjuihJ4f3XK7sjFi3j6p2SBf2WmaPzzCl2g7JvCED2EXcubsnWaJID03do3434X/Y4v/f/buBEqOKr/3vNr28dq423abc56Hc+zHtPEb3hjb+PFsP6bntH3M4H5tjNtM43547MbgpmlQaa8qldbSvktIaEP7viIkhEBLqbTvS0loKe27VFrZxA6C/5zfpSOUVaoKZVZFZt7I/MY517lF3PuPzy114PxlRFxcX++MnCAwCR6bOnsm+Dydx3TP8lGQo3pSj696rrqDcbQ/LAggEL8AQU78pj72GJWrhPfIiSvEUT9RA/oIRE0IIIAAArcKEOTcauLbOwQ5vs0I9SBQGAIfvH2gyR0Zv2eUja8dY32397SxB160V84tCtuwmkE2au8IW163osn2et1yt46+7NG6eh21fvBZptupb9WTWp/qVd2qX/vBggAC/ghcu3bNjh071mRB+qL/lW3vedN6jX3NvvFbv+vCkuCeNApSRszaWq/Gn3QaWm8dvW7dfax774lnu9uYhXvc82GzNtXbzgU5nYaG7w2Ztr7eeA3HUj93/ec/qjfWM2XDbdHWd10fwTgKcnxyDGophiBn6NCm7x0zcc+YMAQZd3B0vWOXjmNrL66LDHJ0TG3sfjZBsBL1mOl2XwU5626pUXUH42h/WBBAIH4Bgpz4TX3sMSpXuRnkDFlur8bUogb0EYiaEEAAAQRuFSDIudXEt3cIcnybEepBIPkCp7d1sCOrHrW6vUPs0w/P37JDukTajGNTrGJDR5t+dLItOrswbMNqBtqIvUPttQuv3bYtODXfBuzoY6Xr2tlLB8dGrq/PtZ7W13bp9K86VE9qfapXdat+7QcLAgj4I/Dtb3/bheyzj8gAACAASURBVBBPP/20nT179pbC9EX/wq3vedXmb37bXnrtiI19Zb+9tPRwk7VNWX7Sxi0+YDPX1IXrTF11xuauvxK+Tmff5m246sab/MbxJrdTPWqz1lxscp10xsr1OoUe5NTU1NjXvvY1u/vuu2327Nm3/H0P2FIZhiDTjk2pd+zScaz64trbBjlBiJLumTVavzln8ijIUT2px1c9V91BDdofFgQQiF+AICd+Ux97jMpVCHJ8nDFqQgABBDwQIMjxYBJuUwJBzm2A+BgBBDIW+PyTd+zoykfsaNVjdrTqB1a3f1i9QKdsbVubfXqmdVjT2madmmkLzs0P25CaAbdczqzhpVcavp5yZJJ129zZNT1P/Tzqs9T1Gnuuy6epntT6VK/qVv3aDxYEEPBHYN++ffYrv/Ir9pu/+ZvuC++GgY6+6F+w9T1agRoUepCjf2n//M//bL/6q79qv/M7v2N/+Id/aHPmzAn/AVas6xCGIA2PrTqOZRLkBGFK1L1uoj4Ltm/qMQhyUo+veq66g220PywIIBC/AEFO/KY+9phekDP0DXs1phY1oI9A1IQAAgggcKsAQc6tJr69Q5Dj24xQDwKFIXC59iU7Vv1DO7ry7+3o6p8HOvuGukCnbdWzNu/MHCup+ql7nH92rgVt8O7+NqRmoC08uyDjNnr/C9ZpbRvrs6OnTT78knvUa73fnP5Uh+oJatNjat3aDxYEEPBL4Ac/+IH7oluXKvuN3/gNF+j85Cc/cWfo6Iv++VvepRWoQTEEObW1tfbLv/zL7swznZ3zjW98w+655x4X6LSt+lkYguhYlXrs0vPVddVpn5EThCnBY+pZN/239LaFRxbaxvNb3Nk4wTqZPCrIUT0Na1TdQT/aHxYEEIhfgCAnflMfe4zKVW6ekRNTiKMwKGpAH4GoCQEEEEDgVgGCnFtNfHtHQc6RVY/YiXVP0jDgb4C/gfj+Btb+61chjoKcoFX9kztTR1/SzD07231Zo8fUNnh3P1NLfS+z57Pc9hrjq35mNbuvpmpJrf/3fu/3jIYBfwP+/A1861vfqnePFwU6v/7rv+7e0xf98za/SytQA81vMfxb/KVf+iX7hV/4hfDvXIGOztIJApDgGNXw2FlVt7rZQY76zPQ+OKn1NHyuIEf1NKxRr1PX9e3/b6IeBApBgCCnEGbx9vsQlasQ5NzejzUQQACBohQgyPF/2j+4utvO7epun3/6Ng0D/gb4G4jtb+DK0Rl2rPpHPw9xHrET1f9spzb9zN69sMZ0JsvsMzPdGTl6nHN2VtgG1fSzATV9bOaZ6XlvqkP1pNaXWrf248KFCzQM+Bvw6G/gySeftK9//evuS+5f/MVfdGcs/Pmf/7nNmDHD9EX/3E3v0grUQPNb6P+bfPDgQVOQo4BSTX/ret22bVtLPSOn4bFVx7GWBjlBwNJ21bP1wpbg/UwegyAn9fiq56o76Iczcvz//yOpMJkCBDnJnLdMqybIyVSM9RFAAAEEjCDH/z8CBTnna3r7XygVIoBAggS+dCGOzvY7vuYJF+Bcv7wprL/T2rY27eRka1/9vE09Mdlmn5kRtkE1fa1/TS+benpS3pvqUD2p9ale1a36tR8sCCDgj8Dly5fdmQoKcH7rt37L/uRP/sSWLVsWFqgv+udsfIdWoAaa30Jf2rdv7y4Z+M1vftMFOCUlJXb16lW326n3yNExKvXYpeerLlS16IycIGCJ41FBjuppWKPqDvrnHjmF/tfM/uVLgCAnX/K5HTetIGfp4DcsrhY1YG53ndEQQAABBJorQJDTXLncbUeQkztrRkKgWATq9g+zo1U/sFObnrXrl24GOMH+997UzcYfHWNlG9rbuCOjbcaZaWHTWTB9dve0SafG572pDtWTWp/qVd2qX/vBggAC/gj87d/+rbt/yP33318vwAkq1Bf9sze+QytQg0IPcmpqasKgsk2bNmGAE/x9D9hSGYYg44+MqXfs0nFsxYVVXgU5qif1+KrnqjsIcrQ/LAggEL8AQU78pj72GJWrhJdWWzL4DYurRQ3oIxA1IYAAAgjcKkCQc6uJb+8Q5Pg2I9SDQPIFPvv4kl079XKTOzJuz0gbcWCI9dhaYcP3D7bpp6eErX9Nb+u9q5uNP/li3pvqUD2p9ale1a36tR8sCCDgj8Ds2bNtypQpTRakL/pnbnin6Frr3lPt//izB23GurcKet8LPcjRH/YDDzxwS4AT/MFP3HMzBNExKvXYpecr6lb6FeTUrbylRtUdBDnaHxYEEIhfgCAnflMfe4zKVQhyfJwxakIAAQQ8ECDI8WASblMCQc5tgPgYAQRiF1h+Yqn1393LBu7pY7139qh3CTVdzqznzi426sTwvDfV0fAyb6pXdat+7QcLAggkR0Bf9M9Y/3bRtda9prggZ/raawW978UQ5ET9a3v92OIwBOm7q2e9Y6suV7qiboVnQc6KW2pU3UGQo/1hQQCB+AUIcuI39bFHghwfZ4WaEEAAAc8FCHI8nyAzI8jxf46oEIFCE6i9tt8qt3SxFw8Nt/L17WzKqQlh67e70rrt7GzDjw/Oe1Mdqie1PtWrulW/9oMFAQSSI6Av+qeve7vo2vOVU+y//NmDNm3NtYLe92IPct68sicMQco3dqh37NJxbHndcq+CHFdPyvFfNaruIMjR/rAggED8AgQ58Zv62CNBjo+zQk0IIICA5wIEOZ5PEEGO/xNEhQgUoMCnNz51X9S8dHKsta9+zsYcG2kTT493Tfel6bqjzAYf75f3pjpUT1Cb6lS9qltfNGk/WBBAIDkC+qJ/2tq3E9EmrrpkT5QMsFatWrn2wHd/YINm14S1v/DyIfvbf3rG+k7eZP/8bG/77d/9PRuz9KT7vHWv6fa/3/vf7D//0Z/Zcz0n23+Uj7b/8icP2tTqa+H2vV5aZ3/2V38X9t3txRXhZ1F9++xX7EHOh599EIYgOkaNOzE6PH7pOPZ63RteBTmqJzi+6lH1BiGOHrU/LAggEL8AQU78pj72SJDj46xQEwIIIOC5AEGO5xNEkOP/BFEhAgUq8OLuYTZ4X3/rub2L9a2ptAmnxrnWZ3cP67yjo/U/Wpn3pjpUT1Cb6lS9qlv1syCAQLIE9EX/1DVved8mVV22P/sf/9OFLP/adrC1rpxmv/cHf+Re9564wdXfb9o29zoIeu77739r45adsf/1fD/3/p//34/Yv5QMDNf5i7/+J5tSfdVt267/XPf+f/3zv7afVow3rat+nu0+MbJv3+2KPcjRv8ZRu4aGYcjAvX3C45eOY8suvO5VkKN6guOrHlVvEORoP1gQQCA7AgQ52XH1rdf0gpwhr9uSmFrUgL7hUA8CCCCAQOMCBDmNu/j0LpdW82k2qAWB4hHYWbfVem3taiNqB1uHdSX20qkxrvXa3cPKt7e33ke65b2pDtUT1KY6Va/qVv0sCCCQLAF90T9lzVvet/YDFrhgpWLkG2GtY1477cKcP/2rv7NJq6/YgJm73Dp//N//1ka/dsqtN3TePvfeoz8ut8nV19x7IxcfC7ebXH3V1M+d/+n37R/+rTRcR+v+Pz98zp3VM/b1s432nQQ3ghyz9WerwzCkdGP78Pil49iyC8s8C3KW1atP9QZBjvaDBQEEsiNAkJMdV996jcpVWqlYrfDqoNdja1ED+oZDPQgggAACjQsQ5DTu4tO7BDk+zQa1IFBcAp3WtrUXDg9118Qf9GYfG3/yReu9q1v4RU7whU4+H1WP6lJ9una/6lXdLAggkDwBfdE/sfqa9+2v/+Ep+/b/+Rc2ftWlerU+XTHOfvOb37KRS45bvxk7XWjTadjicJ1ne0y2X/31r9vQBQfD97S//1+7oXbfX/2dTay6YpUTN7rt2g1YYGPfOGcvLD5mY14/a52GLnHv95ywvtG+k+BGkGPucmSpx8xhBwe4Y5iOY6+df832XD3gTVM9qktNdabWzWXVkve/r1ScHAGCnOTMVUsqjcpVCHJaIsu2CCCAQAELEOT4P7kEOf7PERUiUKgCy0+8ar12dLNB+/tap3VtbMzJkd421ac6Va/qZkEAgeQJuCBn9TWb6Hn7m3/8if3JX/6dvVR1pV6tz1XOcEHOC4uPW7/pXwU5XcdWh+v8tMfk8PPUfdT7f/SnD7r+/qPLeBfYBJdka/hYPmpFo32n9ufrc4Kcr/5Nzq+dGYYinTd39Pa4mnrMV51BkKP6WRBAIHsCBDnZs/Wp57SCnMWDXre4WtSAPsFQCwIIIIBA0wIEOU3b+PIJQY4vM0EdCBSfwMc3PrIO1a1taO0Aq9jc0Z2NM/rECPOt6awc1ac6Va/qZkEAgeQJ6Iv+CVXXvG8P/t2/fBXkrLpSr9Z/6zjSBTUjXjlufaf9PMgZvTpc55nuXwU5+jx1P/X+H933oL206oqV9J3ngpwOgxfbiFeO2dAFh1wbvuir5+NXXGq079T+fH1OkPPVv8mL718IQxGFIwP29fbuuJp6nFd9QYijR9XPggAC2RMgyMmerU89R+Uq4Rk5cYU46idqQJ9gqAUBBBBAoGkBgpymbXz5hCDHl5mgDgSKU2DtmSrrsbXChh0eYCVVP7Uhtf1s1Ilh3jTVo7pUn+pUvSwIIJBMAX3R/9Kqq963f/hx568Cm0XHwlrHr7xif/pX37M//quHbdyKS9Zn6g4XyFSMrgrXCUKa8heWh++lbjd+5WXrN2O3265N/wXhOjJp3WeuffN3f89GLDrWaN9JcCPIufnvcuHhOWE40n5taxt5fKg3x9XUY7zqUn1BkKO6WRBAILsCBDnZ9fWl96hchSDHl1miDgQQQMAzAYIczyakkXIIchpB4S0EEMipwKDtfax3TTfXOq4vsReODbaRx4fkvakO1RPUpjpZEEAguQL6on/8iqvet74zalzYcu+f/431mbbLRrxywv7nv3R077UftNjV3/vnQU7nF6vC/XnxtfP2v939X+3r3/yWlQ5/3YYuPGqPPtnFbfffvvsDG7fiso1bfsXu/78ecffSaT9oiVvnuV6z3Dp//ehP3OeN9Z0EN4Kcm/82dY+ZinUdwoCk67bSvB9TGzuuq64gxFG93Bvn5hzyDIFsCRDkZEvWr34JcvyaD6pBAAEEEiFAkOP/NBHk+D9HVIhAoQucv37GfZEz4GAf67K9zMo3d7DhxwfnvakO1aO69EWT6mRBAIHkCuiL/nErryailY1c6cKV1HvY/EeXSWHtvYIgZ/Tq8D3tW/9Zb9p/+v17wm1//4/+1B76YWu77y8etjEKclZetRGLT9n/+Lt/CdfRGN999Cc26rXz7vOm+vbdjiCn/r/N7XVbwpBEx7DK3V3yflxNPbarniDE0aPqZUEAgewLEORk39iHEQhyfJgFakAAAQQSJkCQ4/+EEeT4P0dUiEAxCGy7sMk6b+hggw/3c0FO5y0dbdixgXlrGl9BjupRXaqPBQEEki2gL/rHrriSmDZy2QXrNWWHVU7ZbsMWn0y77hffuGh9pte4UGf08stNbjdgzn63ztCXjzW5TpK8CHJu/fc5v3ZmvbCk195ueTuuph7TVUdqiKM6WRBAIDcCBDm5cc73KGkFOUsGvm5xtagB843B+AgggAAC6QkQ5KTnlM+1CHLyqc/YCCCQKrD8xKvWdXOpDT6qMKe9lW1u754POd7fctU0tsbV+HquelQXCwIIJF9AX/S/uPwKrUANCHIa/zc6atfQeqFJ5d6uOTumNnbs1vipIY7qY0EAgdwJEOTkzjqfI0XlKuE9cuIKcdRP1ID5hGBsBBBAAIH0BQhy0rfK15oEOfmSZ1wEEGhMYPHR+S48GXiot1Vs62gd1rW2vvt72OCjfbPeNI7G07gaXyGO6mFBAIHCENAX/aNev0IrUAOCnMb/nb736Xs2YEtlvfCk+67yrB9TGztua9zUEEd1qT4WBBDInQBBTu6s8zlSVK6SEuQssyUD42lRA+YTgrERQAABBNIXIMhJ3ypfaxLk5EuecRFAoCkBnQFTvqG99TrQzbrvLreSqp9al52lNuBY76w19a9xNJ7G1ficidPUDPE+AskU0Bf9I5ddphWoAUFO0/8u3/ro6i1hTtnW9tb/aK+sHVdTj9kaR+M1DHFUFwsCCORWgCAnt975Gi0qVyHIydesMC4CCCDguQBBjucTZGYEOf7PERUiUIwCuieNvvDpuqvUeh/sZqWb2lj7tc9bt5py63+0Mram/tSv+tc4Gk/jck+cYvyrY58LXcAFOa9dtpG0gjQgyIn+F6wzXxpeZq3d2ues+57OsR1TGzs+q3+NkxriqA7OxImeLz5FIFsCBDnZkvWr37SCnFcGLrO4WtSAftFQDQIIIIBAUwIEOU3J+PM+QY4/c0ElCCBQX+D89TM2eFtv67al1CoPdLFub5Zbxw2t3RdCFTs6WmVtV+t7tEfGTdtpe32xpP7Ur+t/S6kbT+OyIIBA4Qnoi/4Rr12mFagBQU56/2bn186sF6ooYOm0scR67Ouc8fE06his/tRvaoCj5xqfBQEE8idAkJM/+1yOHJWrhGfkxBXiqJ+oAXO544yFAAIIINB8AYKc5tvlakuCnFxJMw4CCDRXYO2ZKutQ3dq6bOtklQcq3JdNpVvaWkn1s9Z+3fNWtrWdda0ptZ77O1vv2q7W+3A363Oku3vUa72vz7We1td22l5fMqk/9av+NQ4LAggUroC+6B++9BKtQA0IctL/t7u9botVrOtwS8jSfv3z1mV3J3cs1XE006ZjrrZXPw0DHI2ncVkQQCC/AgQ5+fXP1ehRuQpBTq5mgXEQQACBhAkQ5Pg/YQQ5/s8RFSKAgNnHNz5y96zptLaNddnSySpqOlnPw12s274yK9vZ3jpuKrG2655zIc3zVc+4L5D0qNBG7+tzraf1tZ22Vz/qT/fCUf8sCCBQ2AL6on/Yq5doBWpAkJPZv98PP/vAFh6ec0vgEgQw7dY/b2Xb2lnFnk7WfX+59aytsMrDXa3ySFf3qNd6X59rPa0fbNvwUeNoPBYEEMi/AEFO/ucgFxWkFeQsHrDM4mpRA+ZihxkDAQQQQKDlAgQ5LTfMdg8EOdkWpn8EEIhbYGfdVhu1e6j7wqhic0cr39HOKmo6Wtf9pda9ttx6Hqqwnocr3KNe63197tbb3NFtp+3VDwsCCBSPgL7oH7LkEq1ADQhymvdv+eL7F9zlzhqGL3G81mXU1D8LAgj4I0CQ489cZLOSqFwlPCMnrhBH/UQNmM0dpW8EEEAAgfgECHLis8xWTwQ52ZKlXwQQyLbApzc+tdpr++31E6/a2JoR1mtTF+u4po2VVD3rwho96rXe1+daT+trOxYEECg+AX3RP3jxRVqBGhDktOzftM6YWX+22kbt+uqHEs0NcrS9+uEMnJbNB1sjkC0BgpxsyfrVb1SuQpDj11xRDQIIIOCNAEGON1PRZCEEOU3S8AECCCCAAAIIFJCAvugftPgirUANCHLi+8eqEObNK3vs9WOLbeKeMTZgS6W7p07bqp+5H0roUfe80fv6XOtpfcKb+OaAnhDIlgBBTrZk/eqXIMev+aAaBBBAIBECBDn+TxNBjv9zRIUIIIAAAggg0HIBfdE/8JWLtAI1IMhp+b8RekAAgcIXIMgp/DnWHqYZ5LxmiwfE06IGLA5y9hIBBBBIvgBBjv9zSJDj/xxRIQIIIIAAAgi0XEBf9A9YVEcrUAOCnJb/G6EHBBAofAGCnMKfY+1hVK4SXlpt0YDXLK4WNWBxkLOXCCCAQPIFCHL8n0OCHP/niAoRQAABBBBAoOUCJSM2Wd8F563/y3W0AjPQvGp+WRBAAAEEogUIcqJ9CuXTqFyFIKdQZpn9QAABBGIWIMiJGTQL3RHkZAGVLhFAAAEEEEDAO4Fuk3Zaj9knre/CC7QCM9C8an5ZEEAAAQSiBQhyon0K5dO0gpxX+r9mcbWoAQsFlf1AAAEECl2AIMf/GSbI8X+OqBABBBBAAAEEWi4wYelhK59ca30WXKAVmIHmVfPLggACCCAQLUCQE+1TKJ9G5SrhGTlxhTjqJ2rAQkFlPxBAAIFCFyDI8X+GCXL8nyMqRAABBBBAAIGWC+w4dMVKx++23gsu0ArMQPOq+WVBAAEEEIgWIMiJ9imUT6NyFYKcQpll9gMBBBCIWYAgJ2bQLHRHkJMFVLpEAAEEEEAAAS8F2ozcbN1mnbRe88/TCsRA86l5ZUEAAQQQuL0AQc7tjQphDYKcQphF9gEBBBDIsQBBTo7BmzEcQU4z0NgEAQQQQAABBBIpsHzbGSt9qcYq552nFYiB5lPzyoIAAgggcHsBgpzbGxXCGgQ5hTCL7AMCCCCQYwGCnByDN2M4gpxmoLEJAghkVeDMmTN26tQpO3bsmL3zzjtZHYvOEUCg+AR6TN5lpZNqrefc87SEG2geNZ8s0QJXrlyx48ePu3bx4sXolfkUAQQKWoAgp6CnN9w5gpyQgicIIIAAAukKEOSkK5W/9Qhy8mfPyAggUF+gtrbW7r33XmvVqlW91rlzZ/vggw/qr5zmK4VBd955p7399ttpbsFqCCBQ6AJnLr9vrYdvtPIph63HnHO0hBpo/jSPmk+WxgV07HvqqafqHVN1jH344Yft9OnTjW90m3c//vhjd6zeuXPnbdbkYwQQ8FGAIMfHWYm/JoKc+E3pEQEEECh4AYIc/6eYIMf/OaJCBIpBYNOmTeEXTWPGjLG9e/fa5s2bwy+g7r77brt27VrGFAQ5GZOxAQJFIVB76h0XAnSaeNC6zT5HS5iB5k0hjuaRpXGBuro607FTwU1paalt3brVampqbODAgeHxdvfu3Y1vHPEuQU4EDh8hkAABgpwETFIMJaYV5Czqt9TialEDxrA/dIEAAgggkAMBgpwcILdwCIKcFgKyOQIItFhAvxjWWTNqR48evaW/SZMmuS+d2rRpc8tnt3uDIOd2QnyOQPEK6EwOXZar0/ga6zzthHWZfY7muYHmSfOleeNMnKb/7X755Zf26KOPumPnsmXLbllRP5RQwKOg56OPPrrl86g3PvvsM7cdZ+REKfEZAv4KEOT4OzdxVhaVq7TSQFohrhBH/UQNGOeO0RcCCCCAQPYECHKyZxtXzwQ5cUnSDwIINFdg9uzZ7gulFStWNNpF8IWUgh79wvjzzz+3bt262Zo1a2zp0qVuW53Bo0W/Ln7kkUfs/vvvtwEDBtjGjRtvubSa+igpKXHbab2FCxfaF1984baP6rvR4ngTAQQSL7B82xlrM3KzdRy3yzpMOGBlU49b55mnrWLWWVqeDTQPmg/Ni+ZH86T5YokW0KVKFdT07NmzyRXHjh3r1lm/fr1bZ8aMGTZ58mR31o4uc6ofUWjRPXVat27tjqtPP/207dix45ZLq+ksnVGjRoU/yhgxYoS999574dgKjioqKuzIkSPuTFtd7i047oYr8QQBBHIiQJCTE+a8DxKVqxDk5H16KAABBBDwU4Agx895Sa2KICdVg+cIIJAPAX2ho18FX79+vcnhFbboSyldGubDDz+sdy8dBTwHDx60devWuXX0euTIkXbfffeFr4N75OgMHfWjdfQlVXl5uXutL6n0pVJTfTdZGB8ggEDBCOw4dMUmLD1sXSfutJIRm+ynQ9bT8mygedB8aF40PyzpCQQ/kDhw4ECTGwTHw9GjR7t1nnvuOXc81DFSbf78+S7E0fFSr3VJttT77QRn5Oi4+cADD7h19AMK9af1U4/rCxYscO8FfevYS5DT5NTwAQJZFSDIySqvN50T5HgzFRSCAAIIJEeAIMf/uSLI8X+OqBCBQhbQ2TY//vGP3Vk0UV/qBF846Ysj/fJXIY2+XDp06JDj0aVe9EXSgw8+GF4mRn0/88wz4Rk5ev3YY4+5dd5//+bNsefNm+e+YNIXXo31Xcj+7BsCCCCAQOEJKMjRMTL1rJiGexnc60b3pdMSnKmaeim2yspK18/JkyfDzXXWjgKZIMiZMmWK3XHHHfUujbp//363zvTp0912wY8x+vXrZzdu3Aj74gkCCORegCAn9+b5GJEgJx/qjIkAAggkXIAgx/8JJMjxf46oEIFCFgjCFV0OLSrIUWATfHEUfPnUt2/fkCYIeqqrq8P39GTPnj1hkKMvtPQL4R49eriw59q1a/bOO+/YiRMn3DoTJ050QY4uKZPad70OeYEAAggkQOCFF16wr33ta3bmDJchS8B0xV6iwhYFOcHZqI0NEJyBmhrk6McQusSolsaOtXpfx1L1rSAn+DGGtnv33Xftrbfeck3H1u9///v2xBNPuGO7zshR2KNLm7IggEB+BQhy8uufq9EJcnIlzTgIIIBAAQkQ5Pg/mQQ5/s8RFSJQ6AK6nMs999wTfnnU2P4Gl4kJzshR2DJhwoRw1SDI2bVrV/ienuj94MusIAwKLu3S8HHo0KHhF1epfdfrkBcIIIBAAgT+4A/+wH7t137N/v3f/z0B1VJi3AJBcHL27Nkmuw6OialBTuqPKoIgp+HxMHhfx+MgDGp4PA1ef+c733Fn4Kie4FjcZEF8gAACOREgyMkJc94HIcjJ+xRQAAIIIJA8AYIc/+eMIMf/OaJCBApdQNfU15c+e/fubXRX9YvfRx991O666y53H53gS6Tguv7aKPhCKrjUS9BRapBz6tQpN87w4cPdmTiXLl0yNZ2Zo0ddbq2xvoO+eEQAAQSSIDB16lT7xje+4f737hd+4Rc4KycJkxZzjcE943SmaVOL7iWnY++bb77pVtGl1VKDnCCkST3WakUdJ3V2a/DDCl3W9PHHH7crV664Y6mOp5cvX3ZNx1ctBDmOgf+DgBcCBDleTEPWi0gvyOm71BbF1KIGzPreMgACCCCAQCwCBDmxMGa1E4KcrPLSOQIIpCGgXwzryyRdmkWXY2m4zJw5030+bNgw91FjYUvQR7BO0MfYsWPDXwFrO91bR5dWS12CgCf4Ukpn+zT84ip1mqCjwQAAIABJREFUfZ4jgAACPgvobJzgjIivf/3r9vTTT/tcLrVlQSC4b5wuZxYENanD1NTUuL+R4IwZfdYwyAn60CXSUu9rs2PHDrdt8MMJbdfwrFodbxXwBGfzEOSk6vMcgfwKEOTk1z9Xo0flKq1UhFaIK8RRP1ED5mqnGQcBBBBAoGUCBDkt88vF1gQ5uVBmDAQQuJ1AcPNkXXpl8eLF7pJoOsumoqLCfWH0ve99z/0KWP00FuTo/fLycrfujBkz7OrVq/bqq6+616mXcxk3bpx7T79S1jr6IkrBjX5dzBk5t5slPkcAAd8FdOP5b33rW+5/54Iwh7NyfJ+17NS3e/fu8O9Al0+rra11x1adsaW/DR0b9UOGYNFlTlPPyNH7S5YsceuWlZW5M2x0zNR22j4IcoJgR4GOflSh+84pPNQ6Bw8edN0T5ATKPCKQfwGCnPzPQS4qiMpVwiDn5b5LLa4WNWAudpgxEEAAAQRaLkCQ03LDbPdAkJNtYfpHAIF0BdauXRt+QRR8AalHXXotuPmy+grOrAl+6Rv0r/efeeYZ9+WRttOXTQMHDnSPwQ2fdZm2UaNGhetoPf1qOPgyq6m+gzF4RAABBHwW+P3f/333v2/BpdV0Rs5v/MZv2JNPPulz2dSWJYGTJ0/aQw89VO+Yp+PeU0895S4rmjpsaWmp/ehHP7Ivvvgi9W3TDx+0TdD69evnjqtBkKOVV65cGX6u9XQmkI7pwaIfaKT+qCJ4n0cEEMi9AEFO7s3zMWJUrpIS5LxqL/eNp0UNmA8AxkQAAQQQyFyAICdzs1xvQZCTa3HGQwCBKAFdvkW/5tXZOGqNXWotant9VldXZ6dPn7aPPvqoyVUV7Jw/f/6WL7Ka3IAPEEAAAc8FunXrZr/8y79sv/3bv206g0KXWPuP//gP+9rXvuZa6hfvnu8K5cUsoOOijqkHDhywixcvZty7jpn6wUPUMVnHXB1XdY+c1B9fZDwYGyCAQFYFCHKyyutN51G5CkGON9NEIQgggIBfAgQ5fs1HY9UQ5DSmwnsIIIAAAggggECyBDZu3OjOtFDVx44ds29/+9tuB3S5qz/+4z9O1s5QLQIIIIBAVgQIcrLC6l2nBDneTQkFIYAAAv4LEOT4P0cEOf7PERUigAACCCCAAAKZCKQGOZlsx7oIIIAAAoUtQJBT2PMb7B1BTiDBIwIIIIBA2gIEOWlT5W1Fgpy80TMwAggggAACCCCQFQGCnKyw0ikCCCCQeAGCnMRPYVo7kF6Q0+dVezmmFjVgWhWzEgIIIIBA3gUIcvI+BbctgCDntkSsgAACCCCAAAIIJEqAICdR00WxCCCAQM4ECHJyRp3XgaJylZv3yIkpxFEYFDVgXiUYHAEEEEAgbQGCnLSp8rYiQU7e6BkYAQQQQAABBBDIigBBTlZY6RQBBBBIvABBTuKnMK0diMpVCHLSImQlBBBAoPgECHL8n3OCHP/niAoRQAABBBBAAIFMBAhyMtFiXQQQQKB4BAhyimOu0wpyFvZ51eJqUQMWBzl7iQACCCRfgCDH/zkkyPF/jqgQAQSaL1BaWmo/+tGP7Isvvki7kytXrtj777/v1v/444/tvvvuswkTJqS9PSsigAAC+RYgyMn3DDC+BJpzDG5M7qmnnrLRo0c39hHvIYBAhgIEORmCJXT1qFwlPCMnrhBH/UQNmFBDykYAAQSKToAgx/8pJ8jxf46oEAEEmi/w3HPP2SOPPJJ2kPPhhx/a3XffbUOHDnWDEuQ0354tEUAgfwIEOfmzZ+SbApkeg29uWf8ZQU59D14h0BIBgpyW6CVn26hcJSXIWWIL+8TTogZMDhuVIoAAAsUtQJDj//wT5Pg/R1SIAALNFygpKckoyPnss8/cGTgTJ05s/qBsiQACCORZgCAnzxPA8E4g02NwU2wEOU3J8D4CmQsQ5GRulsQtonIVgpwkzig1I4AAAjkQIMjJAXILhyDIaSEgmyNQpAIXL140fbHSqlUru+OOO2zQoEH23nvvhRpHjx611q1bh5937tzZzpw5E36+adMmGzlypJ0/f970RY/6uf/++2337t3hOnqi1w8++KD7XJc4W7BgQb2za+rq6uptv3DhwnqfN/wS6e2333a13nnnna5P7cOOHTvcmDr7pl27duFYL7zwgukMnT59+lhVVVVY1yeffOJqV81qjz/+uB0/fjz8PN19CzfgCQIIIBCzAEFOzKCedZfUY7AYFy1aZH/5l3/pjp865p44caKero7FgwcPdv9N8PDDD5uOqT/+8Y+5tFo9JV4g0HwBgpzm2yVpy/SCnN5LbGFMLWrAJMFRKwIIIFDMAgQ5/s8+QY7/c0SFCPgmcO7cOVMQojZz5kyrrKx0X8g8/fTT9uWXX9rVq1fda32u4EVnt+i5Lln20Ucfud3R+0EQ8thjj9moUaPcOnov+FJn7dq1bh19kfPyyy+7L3L0+Zw5c1wf+qJSr9X3pEmTrLy83L1WgBTcEyc1yNF73/3ud90648aNs7lz54avDx8+bPryqKKiwn3+N3/zN/biiy+6e+Wo7uDa/J9//rk9+uijbp0xY8a4L6Tuvfde93rv3r1p75tvc0o9CCBQWAIEOYU1n6l7k9RjsPahR48e7nipY/PUqVPdfxfoOH7w4EG3izrGBsfpsrIy69u3r1tf63CvutS/Ap4j0HwBgpzm2yVpy6hc5eYZOTGFOAqDogZMEhy1IoAAAsUsQJDj/+wT5Pg/R1SIgG8CCkx0Fo6+KAwWBSN6T2e8rF692n3xorNlgmX//v3uveDLGp05oy9mUi9hpjNj9N7OnTtdqPLAAw+4s3GC8EchkUIdnZmjL3sUAOlsnffffz8YxubNm+f6OHDggHsvNcjRL5jVf3V1dbj+Bx984IIghTpadGk1BTNBXQp39DoIct544w3Xx8aNG8M+dCaS1tG9eG7cuGG327dwQ54ggAACWRIgyMkSrAfdJvUYvGfPHnf8fO2110JFHT91TA9+CBIcY1euXBmuE/y3gX48wYIAAi0XIMhpuWESeojKVQhykjCD1IgAAgjkQYAgJw/oGQ5JkJMhGKsjUOQCutSYQovu3bvXk1DYoi9bFIQozFAAonb58mXT2S669FoQ0mhDnZGjM2kU/ASLQhWd/aIgJzjbZsWKFcHH7lFhTE1NjbuMm9bVr3s19rVr1+ydd95xZ/Oo3yCISQ1y1EFQ11tvveUuhxaELsEXRA2Dm4avdeNmhUcKklIXnZkU7M/t9i11O54jgAAC2RAgyMmGav77TPIxeMqUKe4HH7r0qgIcHbd1/B4+fLjddddd7r8HGjvGBj/iCH5Qkf9ZoAIEki1AkJPs+Uu3eoKcdKVYDwEEEEAgFCDICSm8fUKQ4+3UUBgCXgoEwUYQlDRW5PXr18PLnCm8SW0KabQ0FnYEfacGOcHlyhqOc+jQoXr9po6h50OHDnWbpAY5+jJIdTdcV6/TDXJS+0utafHixZFBTuq+pW7HcwQQQCAbAgQ52VDNf5/BsSRpx2D9wCO4r15jx+DghxBNHWN/8pOfhGfG5n8WqACBZAsQ5CR7/tKtniAnXSnWQwABBBAIBQhyQgpvnxDkeDs1FIaAlwLBr4F1/5jU5dNPP7XTp0+7e9N07tzZ/epW4cb58+fdL25Pnjx52zNy9AVVcEZOENRs3bo1dRj3K171eerUKdeffsmrM3EuXbrkmn7hq+fB5dZSvxSqqqpy27zwwgumet599113ho4u6xL80jf4kqyp1/oiSpdQC+7BExQ3efLk2wY5wb4F2/CIAAIIZEuAICdbsvntN8nHYF0SToGNzsjR2bqpx2291qIzcoLLlKZK69gbHJdT3+c5AghkLkCQk7lZErdIK8hZ0HuJxdWiBkwiIDUjgAACxShAkOP/rBPk+D9HVIiATwK6pJguLfad73zHXUItqG3WrFnhPXL0RYw+1xkwwTJ79mwXogRn2DR1Rk4QdgT3sxk2bFjQhXt8/PHH3fX0dRk2BTC6tFrqEgQ8wZk/qUHO/Pnz3ZdI2jZYgsAo+HVz8CVZ8LphsNO7d+8wsAn60H4++uij4ZdPt9u3YDseEUAAgWwJEORkSza//Sb5GLxkyRL33wnnzp2rh6jj+I9+9CP3A4nKykp3jL1y5Uq4ji7BqgAoOHM2/IAnCCDQLAGCnGaxJW6jqFwlvEdOXCGO+okaMHF6FIwAAggUqQBBjv8TT5Dj/xxRIQK+CQRntujLFwUu1dXVLqQJblas8ERfumzfvt396jYIcXQ5laVLl7rdSSfs0Bc62mbevHnul7sTJkxwr+fMmeP6GDdunHut0OXq1avu3jq6f4/CoOCMnODXvTqDRmcIqT+NrfXXr1/v6tR7Gkv391Fwo4DoySeftIMHD7rX6jP4JXAQFD388MPufjw6q0f3C1IfctCSzr65Ffk/CCCAQJYECHKyBOtBt0k9BgeBzAMPPGAHDhxwx/UhQ4a44+fcuXOdbHD2ro6xx48fd2f6fu9733Pr6L8BWBBAoOUCBDktN0xCD1G5ys0gp9cSWxBTixowCWDUiAACCCBgRpDj/18BQY7/c0SFCPgooC9dFF4ETZc90WVStOjXtgpTgs90E+O1a9e6gOSOO+6wt956y4Uqwc2Ng/0Lzn4JzqbRL4+7dOkS9qP+BgwYYHpfi86EGTVqVL3P9QWRwpZgKS0tDX/pq/6feOKJeusvW7bM2rVr597bvHmz20yXXtNYCnCCM39Sv0Datm1bvT60rs72CRYFRrfbt2BdHhFAAIFsCBDkZEPVnz6TeAyWnv4udWwN/vtAj2PHjq13Bu+mTZvqfa4fZDz00EOckePPnx+VJFyAICfhE5hm+VG5SkqQs9gW9IqnRQ2YZs2shgACCCCQZwGCnDxPQBrDE+SkgcQqCCDQqMB7773n7oGj+9I0XBS26J45Qbijz3UfHd3PJtNFv+K9cOFCeJZNw+31ue6b01gdDdfVa/Wl9YNASO+pj9RLwekSa5988kljm7v3tC/6tbC+lLp+/XqT6/EBAgggkA8Bgpx8qOd2zKQeg6Wk47Ba6qVOU/U++ugj96OM1P+GSP2c5wgg0HwBgpzm2yVpy6hchSAnSTNJrQgggEAOBQhycojdzKEIcpoJx2YIIIAAAggggICnAgQ5nk4MZSGAAAJ5FiDIyfME5Gh4gpwcQTMMAgggUEgCBDn+zyZBjv9zRIUIIIAAAggggEAmAgQ5mWixLgIIIFA8AgQ5xTHXBDnFMc/sJQIIIBCrAEFOrJxZ6YwgJyusdIoAAggggAACCORNgCAnb/QMjAACCHgtQJDj9fTEVhxBTmyUdIQAAggUjwBBjv9zTZDj/xxRIQIIIIAAAgggkIkAQU4mWqyLAAIIFI8AQU5xzHVaQc78ysUWV4sasDjI2UsEEEAg+QIEOf7PIUGO/3NEhQgggAACCCCAQCYCBDmZaLEuAgggUDwCBDnFMddRuUorEWiFuEIc9RM1YHGQs5cIIIBA8gUIcvyfQ4Ic/+eIChFAAAEEEEAAgUwECHIy0WJdBBBAoHgECHKKY66jchWCnOL4G2AvEUAAgYwFCHIyJsv5BgQ5OSdnQAQQyIGAvsRs1aqV7dq1K6ujaZw777zT3n777ayOQ+cIIIBAJgIEOZlosS4CCCBQPAIEOcUx1wQ5xTHP7CUCCCAQqwBBTqycWemMICcrrHSKAAJ5FgiCnL1792a1EoKcrPLSOQIINFOAIKeZcGyGAAIIFLgAQU6BT/DPd48gpzjmmb1EAAEEYhUgyImVMyudEeRkhZVOEUCgSAQIcopkotlNBBImQJCTsAmjXAQQQCBHAgQ5OYLO8zBpBjmv2PzKeFrUgHm2YHgEEEAAgTQFCHLShMrjagQ5ecRnaAQKXKCurs5KSkps3759NmTIELvrrrvCS5Dt3r3bHnnkEXf5s8cff9w2b958i8aiRYvcZct0ibTvfe97tmXLlnrrRPVx8eJF69ixo+nLzEOHDtnPfvYze/PNN+ttr8+efPJJq62tde9//PHHNmrUKDemLpc2YsQIe++99+ptE4x5//3324ABA2zjxo1cWq2eEC8QQMAHAYIcH2aBGhBAAAH/BAhy/JuTbFQUlauk3CMnnhBHYVDUgNnYQfpEAAEEEIhfgCAnftO4eyTIiVuU/hBAIBBQgKIQJmgKY65fv27Lli1z7z300EM2a9Yse+yxx9zruXPnBpu6kETblZaWmt6/99573ToHDhxw69yuj2DsnTt3uvBIwYz6Sl0GDhwYhjAffvihPfDAA24MBTSjR492z++++25Xs7Zbt26de099jRw50u67777wNffISZXlOQII5FuAICffM8D4CCCAgJ8CBDl+zkvcVUXlKjeDnJ6v2PyYWtSAce8c/SGAAAIIZEeAICc7rnH2SpATpyZ9IYBAqoC+SAzOpnn33XfdRzrDReFIjx497Msvv3Tv6bFDhw7ujJ3333/fTp065bYrKysLu9P2ClCGDh3qzpK5XR/B2ApytJSXl7v+FSRp0dk3CmK6d+/uXk+ZMsXuuOMOO3r0qHut/7N//35Xx/Tp0+2zzz5zQc+DDz5oH330kVtHdT/zzDNhGBRuyBMEEEAgzwIEOXmeAIZHAAEEPBUgyPF0YmIuKypXIciJGZvuEEAAgUIRIMjxfyYJcvyfIypEIKkCQZhSXV0d7oIus6ZwZ/ny5aazYK5du2YffPCBrVmzxr2/d+9eW7BggQtVzpw5E26nJwcPHrSTJ0+6S7Xdro9g7CDI2bFjh+s/uDxbTU1NOJ4CmR//+MemkEaB0VtvveXaO++8Y9///vftiSeesCNHjrj1U/dFNe3Zs4cgp94s8QIBBHwQIMjxYRaoAQEEEPBPgCDHvznJRkVpBTnzer5icbWoAbOxg/SJAAIIIBC/AEFO/KZx90iQE7co/SGAQCAQhCm7du0K3rLZs2e7QERBTGNNQYuCHJ190/D+NEEn6fQRjB0EOQ3PwOndu7fdc8897kwbBUrBpdsaq+k73/mOHT582NWbui+qR+OoVi6tFswOjwgg4IMAQY4Ps0ANCCCAgH8CBDn+zUk2KorKVcIzcuIKcdRP1IDZ2EH6RAABBBCIX4AgJ37TuHskyIlblP4QQCAQaBim6P3XX389PLNFZ75cunTJNZ2Zo+eff/65zZ8/v9Fw5OLFi3b16tW0+mhsbN3XRpdkUx+6rNqECRNcqQp5dH+cxx9/3K5cuRLWdPnyZVNTban33An2T48EOakaPEcAAV8ECHJ8mQnqQAABBPwSIMjxaz6yVU1UrkKQky11+kUAAQQSLkCQ4/8EEuT4P0dUiEBSBRoLU3RpNJ31smLFinq7pYDnrrvucme2rFu3zq0TXAZNK+q+NAphBg8e7C6vdrs+Ghs7eK+kpOSWS7fpPZ2hoyApWIKAR4HP2bNnXU3Dhg0LPnaPY8eObTR0qrcSLxBAAIEcCxDk5Bic4RBAAIGECBDkJGSiWlgmQU4LAdkcAQQQKEYBghz/Z50gx/85okIEkioQBCfB5c20H7ofzWOPPeaCFN0XR2e7LF261IUkClP0ucIU3a9Glyzbtm2bnT592tq0aePW0X1y0umjsbG/+OIL++53v+v60X1v9DpYgnvoqAaFNidOnLCnn346HFPrlZeXu9czZsxwZ/W8+uqr7jWXVgsUeUQAAV8ECHJ8mQnqQAABBPwSIMjxaz6yVQ1BTrZk6RcBBBAoYAGCHP8nlyDH/zmiQgSSKhCEKQ3vK3P9+vUwJAnuSaMARWfABIsuf/bQQw+5oETr3HHHHbZ48eLgY7tdH02NrfvvNHY2jzpeuXJlOF4w5tq1a8MxVd8zzzwTrqMAZ+DAgZyREwrxBAEEfBEgyPFlJqgDAQQQ8EuAIMev+chWNekFOT0W2byYWtSA2dpJ+kUAAQQQiFeAICdez2z0RpCTDVX6RACBdATq6urs/Pnz9s477zS5uu5RE9w7p7GV0umjse2aek+XcFNNtxtTZwlpXRYEEEDARwGCHB9nhZoQQACB/AsQ5OR/DnJRQVSucvMeOTGFOAqDogbMxQ4zBgIIIIBAywUIclpumO0eCHKyLUz/CCCAAAIIIIBAbgUIcnLrzWgIIIBAUgQIcpIyUy2rMypXIchpmS1bI4AAAgUrQJDj/9QS5Pg/R1SIAAIIIIAAAghkIkCQk4kW6yKAAALFI0CQUxxznVaQM7fHIourRQ1YHOTsJQIIIJB8AYIc/+eQIMf/OaJCBBBAAAEEEEAgEwGCnEy0WBcBBBAoHgGCnOKY66hcJTwjJ64QR/1EDVgc5OwlAgggkHwBghz/55Agx/85okIEEEAAAQQQQCATAYKcTLRYFwEEECgeAYKc4pjrqFyFIKc4/gbYSwQQQCBjAYKcjMlyvgFBTs7JGRABBBBAAAEEEMiqAEFOVnnpHAEEEEisAEFOYqcuo8IJcjLiYmUEEEAAAQkQ5Pj/d0CQ4/8cUSECCCCAAAIIIJCJAEFOJlqsiwACCBSPAEFOccx1ekFO90U2N6YWNWBxkLOXCCCAQPIFCHL8n0OCHP/niAoRQAABBBBAAIFMBAhyMtFiXQQQQKB4BAhyimOuo3KVm5dWiynEURgUNWBxkLOXCCCAQPIFCHL8n0OCHP/niAoRQAABBBBAAIFMBAhyMtFiXQQQQKB4BAhyimOuo3IVgpzi+BtgLxFAAIGMBQhyMibL+QYEOTknZ0AEEEAAAQQQQCCrAgQ5WeWlcwQQQCCxAgQ5iZ26jApPM8h52eZ2j6dFDZhR5ayMAAIIIJA3AYKcvNGnPTBBTtpUrIgAAggggAACCCRCgCAnEdNEkQgggEDOBQhyck6elwGjcpWUM3LiCXEUBkUNmBcBBkUAAQQQyFiAICdjspxvQJCTc3IGRAABBBBAAAEEsipAkJNVXjpHAAEEEitAkJPYqcuo8KhcJQxy5nR/2eJqUQNmVDkrI4AAAgjkTYAgJ2/0aQ9MkJM2FSsigAACCCCAAAKJECDIScQ0USQCCCCQcwGCnJyT52XAqFyFICcvU8KgCCCAgP8CBDn+zxFBjv9zRIUIIIAAAggggEAmAgQ5mWixLgIIIFA8AgQ5xTHX6QU53V62OTG1qAGLg5y9RAABBJIvQJDj/xwS5Pg/R1SIAAIIIIAAAghkIkCQk4kW6yKAAALFI0CQUxxzHZWr3DwjJ6YQR2FQ1IDFQc5eIoAAAskXIMjxfw4JcvyfIypEAAEEEEAAAQQyESDIyUSLdRFAAIHiESDIKY65jspVCHKK42+AvUQAAQQyFiDIyZgs5xsQ5OScnAERQAABBBBAAIGsChDkZJWXzhFAAIHEChDkJHbqMiqcICcjLlZGAAEEEJAAQY7/fwcEOf7PERUigAACCCCAAAKZCBDkZKLFuggggEDxCBDkFMdcE+QUxzyzlwgggECsAgQ5sXJmpTOCnKyw0ikCCCCAAAIIIJA3AYKcvNEzMAIIIOC1AEGO19MTW3EEObFR0hECCCBQPAIEOf7PNUGO/3NEhQgggAACCCCAQCYCBDmZaLEuAgggUDwCBDnFMddpBTmzuy20uFrUgMVBzl4igAACyRcgyPF/Dgly/J8jKkQAAQQQQAABBDIRIMjJRIt1EUAAgeIRIMgpjrmOylVaiUArzO66MLYWNWBxkLOXCCCAQPIFCHL8n0OCHP/niAoRQAABBBBAAIFMBAhyMtFiXQQQQKB4BAhyimOuo3IVgpzi+BtgLxFAAIGMBQhyMibL+QYEOTknZ0AEEEAAAQQQQCCrAgQ5WeWlcwQQQCCxAgQ5iZ26jAonyMmIi5URQAABBCRAkOP/3wFBjv9zRIUIIIAAAggggEAmAgQ5mWixLgIIIFA8AgQ5xTHXBDnFMc/sJQIIIBCrAEFOrJxZ6YwgJyusdIoAAggggAACCORNgCAnb/QMjAACCHgtQJDj9fTEVhxBTmyUdIQAAggUjwBBjv9zTZDj/xxRIQIIIIAAAgggkIkAQU4mWqyLAAIIFI8AQU5xzDVBTnHMM3uJAAIIxCpAkBMrZ1Y6I8jJCiudIoAAAggggAACeRMgyMkbPQMjgAACXgsQ5Hg9PbEVR5ATGyUdIYAAAsUjQJDj/1wT5Pg/R1SIAAIIIIAAAghkIkCQk4kW6yKAAALFI0CQUxxznV6QU7HQZsfUogYsDnL2EgEEEEi+AEGO/3NIkOP/HFEhAggggAACCCCQiQBBTiZarIsAAggUjwBBTnHMdVSu0koEWmFWlwWxtagBi4OcvUQAAQSSL0CQ4/8cEuT4P0dUiAACCCCAAAIIZCJAkJOJFusigAACxSNAkFMccx2VqxDkFMffAHuJAAIIZCxAkJMxWc43IMjJOTkDIoAAAggggAACWRUgyMkqL50jgAACiRUgyEns1GVUOEFORlysjAACCCAgAYIc//8OCHL8nyMqRAABBBBAAAEEMhEgyMlEi3URQACB4hEgyCmOuSbIKY55Zi8RQACBWAUIcmLlzEpnBDlZYaVTBBBAAAEEEEAgbwIEOXmjZ2AEEEDAawGCHK+nJ7biCHJio6QjBBBAoHgECHL8n2uCHP/niAoRQAABBBBAAIFMBAhyMtFiXQQQQKB4BAhyimOuCXKKY57ZSwQQQCBWAYKcWDmz0hlBTlZY6RQBBBBAAAEEEMibAEFO3ugZGAEEEPBagCDH6+mJrbj0gpzOC2xWTC1qwNj2io4QQAABBLIqQJCTVd5YOifIiYWRThBAAAEEEEAAAW8ECHK8mQoKQQABBLwSIMjxajqyVkxUrtJKo2qFuEIc9RM1YNb2ko4RQAABBGIVIMiJlTMrnRHkZIWVThFAIAcCn9741Gqv7bflJ5baS3tGW7/NPa3z2vbWtupn1nrVM+5Rr/W+Ptd6Wl/bsSCAAAKFLECQU8izy74hgAACzRcgyGm+XZK2jMpVwiBnZucFFleLGjBJcNSKAAIIFLPauXxjAAAgAElEQVQAQY7/s0+Q4/8cUSECCNQX2Fm31cbVjHRhzeBt/Wzyvon2ytFXbPXZNbb54nbbeWWv7b66zz3qtd7X51pP6yvk0fbqhwUBBBAoRAGCnEKcVfYJAQQQaLkAQU7LDZPQQ1SuQpCThBmkRgQQQCAPAgQ5eUDPcEiCnAzBWB0BBPIi8PGNj9wZNWVr29uwHYPs5aMLbfulXfbGqRU2/cBUG75ziFVu7Gqd1ra1tlXP/vyMnGfda72vz7We1td22l79qD+dqaP+WRBAAIFCESDIKZSZZD8QQACBeAUIcuL19LW39IKcivk2M6YWNaCvSNSFAAIIIFBfgCCnvoePrwhyfJwVakIAgVSBtWeqrOOaNjZmzyirOlttr596w16sGfnzkKaLjds72uYfmWfLT6+0DXWbbevlXbbjSo171Gu9r8+1XuXGLm47ba9+1J/6Vf8ahwUBBBAoBAGCnEKYRfYBAQQQiF+AICd+Ux97jMpVbp6RE1OIozAoakAfgagJAQQQQOBWAYKcW018e4cgx7cZoR4EEAgEzl8/Y8O3D7ChOwba8tOr7JXji63fll7WdUOZTdk/yVafW2vbL+/OuGk7ba9+1J/6Vf8aR+NpXBYEEEAgyQIEOUmePWpHAAEEsidAkJM9W596jspVCHJ8milqQQABBDwSIMjxaDKaKIUgpwkY3kYAgbwKbLuwyV0ebUbtdFt1brUN3jHAum3sbHOPzLWtl3fe0tZcWG+LTyy2mYdm2qT9E23Cm+Pdo17rfX3e2HbqT/2qf42j8XQPHY3PggACCCRVgCAnqTNH3QgggEB2BQhysuvrS+/pBTnl821mTC1qQF9QqAMBBBBAIFqAICfax4dPCXJ8mAVqQACBVAHds6bnhgp77dQym1k73d3zZvK+Cbbl0vZ6bcmJJfZizQvWZX2pla5pa/239naXXJv05gQXxuhRl1DT+/pc62l9bdewL/Wve+toPI2r8VUHCwIIIJBEAYKcJM4aNSOAAALZFyDIyb6xDyNE5So3z8iJKcRRGBQ1oA8g1IAAAgggcHsBgpzbG+V7DYKcfM8A4yOAQKrAkiMLrf/WXlZ9Ya29uOcF67Gpwpaefs02Xt4aNp1l03NjF/fZtP1T3H1udl3Za6lNZ9WkvtZz3Q9H66tPba9+UvvVOPpM42p81aF6WBBAAIGkCRDkJG3GqBcBBBDIjQBBTm6c8z1KVK5CkJPv2WF8BBBAwFMBghxPJyalLIKcFAyeIoBAXgV0BozCk7V1692lzgZt72frLm60DZc2u/bKiUXWobrEnS2z+NgS23G5psmmIEdn2TS1jrbvtr7cnamjfoMxNJ7G1aXWVIfq4cycvP5ZMDgCCDRDgCCnGWhsggACCBSBAEFOEUyyWeQJMgQ5xfE3wF4igAACGQsQ5GRMlvMNCHJyTs6ACCDQiIDuSdN9Y2dbdb7KBu/ob8N2DrL1lzaGbdybo63jmjY2umakO5tm6+VdFtXW1W1y60et03l9Rxv/5hi3nvpPHU/jqw7Vo7q4Z04jk8ZbCCDgrQBBjrdTQ2EIIIBAXgUIcvLKn7PB0zojZ0b5fIurRQ2Ys71mIAQQQACBFgkQ5LSILycbE+TkhJlBEEAgQuD89TPunjaLT75iI2uG2cDtfW3dxfVhU6AyYFtvqz6/1t3bZuC2vjbtwJRb7nOTet+blWerrMv6Tk2uM+HNcTZ852D3ufpV/xondVzVoXpUl87wUZ0sCCCAQBIECHKSMEvUiAACCORegCAn9+b5GDEqVwnPyIkrxFE/UQPmA4AxEUAAAQQyFyDIydws11sQ5ORanPEQQKChwNDt/W3SwYk2uXaSO/ulqm6NVV9c55oubTZi19Bb7mWTem+bxp4vPbXM3e+msc+C91acXVWvX42j8YKxVYfOxlFdqk91siCAAAJJECDIScIsUSMCCCCQewGCnNyb52PEqFyFICcfM8KYCCCAQAIECHL8nySCHP/niAoRKGSBtWeqbND2vvbq6VetpOpZe/nEy7a6bo1rulfN8F1DbMOlTRk39dN3c4+Mt9N4GjeoQf2oLtWnOlUvCwIIIOC7AEGO7zNEfQgggEB+BAhy8uOe61HTC3LK5tmMmFrUgLneecZDAAEEEGieAEFO89xyuRVBTi61GQsBBFIFPr7xkXVcU2Ivn3zZXdps7L4XraputWsvvjnS+m6ttHUXNzSrzT0y2wZs69OsbTWuxg9qUV269JrqVL2qmwUBBBDwWYAgx+fZoTYEEEAgfwIEOfmzz+XIUbnKzTNyYgpxFAZFDZjLHWcsBBBAAIHmCxDkNN8uV1sS5ORKmnEQQKChwPITS23E7iE268h067qh1FZdWOXanKOzXWDy+tnl4WXOgsudpfs4tXaqDd45oFnba1wFNqojqEn1qU7Vq7pZEEAAAZ8FCHJ8nh1qQwABBPInQJCTP/tcjhyVqxDk5HImGAsBBBBIkABBjv+TRZDj/xxRIQKFKlC2tp0tOLnAKrd0tcm1E2x53QrXOq5pY4N26PJm1c1uEw+Md6FLc/vov72Pqb6gJtWnOlWv3mdBAAEEfBYgyPF5dqgNAQQQyJ8AQU7+7HM5MkFOLrUZCwEEECgQAYIc/yeSIMf/OaJCBApRYGfdVhu4rY/NOjbLOq/vYG9ceMO1CQfHW/dNna3P1p7WY3OFzTk221bWVWXcxrw5ykbtHZHxdrOOzLAuG8us//be1mNThameoDbVqXpVt+pnQQABBHwVIMjxdWaoCwEEEMivAEFOfv1zNTpBTq6kGQcBBBAoIAGCHP8nkyDH/zmiQgQKUWB0zQibWPuSDd7Z3158c4Qtu7DMNYUoM45MtxV1K91ZOnpsTnuhZqjp3jaZbrvs3Gs29fBkt53qUD1BbapT9apu1c+CAAII+CpAkOPrzFAXAgggkF8Bgpz8+udq9LSCnOll8yyuFjVgrnaacRBAAAEEWiZAkNMyv1xsTZCTC2XGQACBVIFPb3xqrVc9Y0vOLrEOa0pswcn59tr512zG0WnuXjnBGTAteVTg8tKBseHZNM3tS/fGUV2qT3WqXtWt+rUfLAgggICPAgQ5Ps4KNSGAAAL5FyDIyf8c5KKCqFwlvEdOXCGO+okaMBc7zBgIIIAAAi0XIMhpuWG2eyDIybYw/SOAQEOB2mv7re/WHjbt2DTrsrHUlpx/1bVBu+qfnROcCdOcx37betmkQy+FZ9M0pw9to7NwVFdQo+pV3apf+8GCAAII+ChAkOPjrFATAgggkH8Bgpz8z0EuKojKVW4GOaXzbHpMLWrAXOwwYyCAAAIItFyAIKflhtnugSAn28L0jwACDQWWn1hqw2sG2wt7h7mQZPG5xaZWvq69zT4x05aef7XFrXJrV5t6eGKL+1E9qiuoUaGO6lb92g8WBBBAwEcBghwfZ4WaEEAAgfwLEOTkfw5yUUFUrkKQk4sZYAwEEEAggQIEOf5PGkGO/3NEhQgkTeDUpp/Z6c3P2UfvHm609PF7Rtn42jHWd3tPG3vgRXvl3CKbe3qOdVjTOgxMguCkuY9dN5Xb9KNTYulPdak+1al6Vbfq136wIIAAAj4KEOT4OCvUhAACCORfgCAn/3OQiwrSDHLm2vTSeFrUgLnYYcZAAAEEEGi5AEFOyw2z3QNBTraF6R+B4hP44GqNHVv9mB1f/f/aud097ON36gc6vTd3txnHpljFho42/ehkW3R2oU06NN56bK5wYYkCk5a2zus72IwT01vcj+pQXapPdape1a36tR8sCCCAgI8CBDk+zgo1IYAAAvkXIMjJ/xzkooKoXCXljJx4QhyFQVED5mKHGQMBBBBAoOUCBDktN8x2DwQ52RamfwSKU+DM1g52bNU/2NGqH9jx1T+0szu7hoFO2dq2Nvv0THcGzqxTM23Bufk2ct9w67+zly08uyCW1nFtG5t9ckYsfaku1ac6Va/O0FH92g8WBBBAwEcBghwfZ4WaEEAAgfwLEOTkfw5yUUFUrkKQk4sZYAwEEEAggQIEOf5PmoKcU5ueNfcfdCcX8ogBfwP8DcTyN3Bx/0gX4hxd+ffm2s8DndObW9vgVU/ZvDNzrKTqp+5x/tm5NnTPQBu8u58tODcvltZu9XM258ysWPpSXapPdabW/W/T/5f17duXhgF/A/wNePc30L59e/ud3/kd//9DlAoRQAABBHIqQJCTU+68DUaQkzd6BkYAAQSSK0CQ4//cfXHjE7tydLpdOzaLhgF/A/wNxPY3cHH/MDta9Y9fhTgr/96OrfpHO1b9z3Zq4zPWZ9VTNvfsbGu96hn3qOcKS/Q6aHqvJU39tFn9M2tf/bx1WtvGyte3t4qNHa3rpjLrvqXCem7ran129LD+Oytt4O4+jY4V1KJH1RfUo9d6/q/TfmRdu3alYcDfAH8D3v0NlJWVmRoLAggggAACqQIEOakahfs8vSCn01ybHlOLGrBwmdkzBBBAoLAECHIKaz7ZGwQQQCBdgbPbOrlLq+nyaseqf2RntneyD97a5zZvW/WszT4z052Ro8c5Z2fZkD0DXKCi13G1maem2bSTU2zK8Yk26ehLNv7IWBt7aLSNPjjSRh0YbiP2DbVhewfZkJoBkWMq6FF9qjO1bu0HCwIIIIAAAggggAACSREgyEnKTLWszqhcJby02rROcy229vycllXM1ggggAACeRcgyMn7FFAAAgggkHOBD6+9aUdXP+bOwDm3ozwMcIJCOq1ta9NOTnZny0w9Mdlmn5lhw98cbL12dLeZZ6Z711SX6lOdqldn+ah+7QcLAggggAACCCCAAAJJESDIScpMtaxOgpyW+bE1AgggUJQCBDlFOe3sNAIIFLnAyQ0/sZMbn7klwAlYem/qZuOPjrGyDe1t3JHRNuPMNBtd+4J12VRq009P8a6pLtWnOlWv6lb92g8WBBBAAAEEEEAAAQSSIkCQk5SZalmdBDkt82NrBBBAoCgFCHKKctrZaQQQQCBSYNyekTbiwBDrsbXChu8f7IKbicfHf3WGzulJNtWzpjNwVJ9CJtWrulW/9oMFAQQQQAABBBBAAIGkCBDkJGWmWlYnQU7L/NgaAQQQKEoBgpyinHZ2GgEEEIgUWH5iqfXf3csG7uljvXf2CIObTuva2OgjI23yqQneNNWjuoJwSfWqbtWv/WBBAAEEEEAAAQQQQCApAgQ5SZmpltVJkNMyP7ZGAAEEilKAIKcop52dRgABBCIFaq/tt8otXezFQ8OtfH07m3Jqgmu9dnSzfrsrbcKpcd401aO6ghpVr+pW/doPFgQQQAABBBBAAAEEkiJAkJOUmWpZnWkGOXNsWqeY2vNzWlYxWyOAAAII5F2AICfvU0ABCCCAgHcCn9741FqvesZeOjnW2lc/Z2OOjbSJp8fbiNohVrq+rb10aow3TfWoLtWnOlWv6lb92g8WBBBAAAEEEEAAAQSSIkCQk5SZalmd6QU5HefYtLgaQU7LZoytEUAAAQ8ECHI8mARKQAABBDwUeHH3MBu8r7/13N7F+tbcPAtHwcngA/1s7MlR1remp405OdI91+tctBFHhli/vb3cWKpD9QRnCKlO1au6VT8LAggggAACCCCAAAJJEiDISdJsNb9Wgpzm27ElAgggULQCBDlFO/XsOAIIIBApsLNuq/Xa2tVG1A62DutKwjNwBr3ZxzptaGNlG9pZ500dbNihgTbmxAs5a0MO9rfyje2tbFN767Shrame4Awh1al6VbfqZ0EAAQQQQAABBBBAIEkCBDlJmq3m15pWkDO14xyLq0UN2PzdYEsEEEAAgVwKEOTkUpuxEEAAgWQJdFrb1l44PNTKN3Zwgcn4ky+aWrs1z1vXbWU26sTwvLUuW0ut/drWrh7VpEBHdape1c2CAAIIIIAAAggggEDSBAhykjZjzas3KldppS61QlwhjvqJGrB5u8BWCCCAAAK5FiDIybU44yGAAALJEVh+4lXrtaObDdrf1zqta+Muo6ZLqQ0+2N/aVv/Mhh4ZYCOPD8l507gaX3WoHjXVpzpVr+pmQQABBBBAAAEEEEAgaQIEOUmbsebVG5WrEOQ0z5StEEAAgYIXIMgp+ClmBxFAAIFmC3x84yPrUN3ahtYOsIrNHa33rm42+sQI13ru7GJlm9rZ8OODct40rsYPalFdqk91ql7VzYIAAggggAACCCCAQNIECHKSNmPNq5cgp3lubIUAAggUtQBBTlFPPzuPAAII3FZg7Zkq67G1woYdHmAlVT+1IbX9bNSJYa513tLRKrZ2tCHH++esaTyNG9SgelSX6lOdqpcFAQQQQAABBBBAAIEkChDkJHHWMq+ZICdzM7ZAAAEEil6AIKfo/wQAQAABBG4rMGh7H+td0821jutL7IVjg8PLqZVtam+dt3awwUf7hq3Pvu7h89T3M33e72DPev1oHI0XXM5NdaieoDbVyYIAAggggAACCCCAQFIFCHKSOnOZ1Z1WkDOtwxyLrT0/J7MKWRsBBBBAwDsBghzvpoSCEEAAAe8Ezl8/Y61XPWMDDvaxLtvLrHxzBxt+fHDYyrd0sE4b21jfwz1twLHe1nFDiXXfXe6e63VzWpedpdZpc1u3rfpV/xqn3ribO7h6VJfqU50sCCCAAAIIIIAAAggkVYAgJ6kzl1ndBDmZebE2AggggICZEeTwZ4AAAgggkI7AtgubrPOGDjb4cD8X5OjyZsOODQxb9x3lVlL9rJVtbWcd1re2/kd7tri1W/uclW9r7/pV/6njaXwFSqpHdak+FgQQQAABBBBAAAEEkixAkJPk2Uu/9rSCnKkdZltcLWrA9MtmTQQQQACBfAoQ5ORTn7ERQACBZAksP/Gqdd1caoOPKsxpb2Wb27vnwT1y+uzvYW2rf2bt1z1v3d4ssz5HuzfZdAZN1Ofavv3a563tmp+Z+g3G0NgaV+PruepRXSwIIIAAAggggAACCCRdgCAn6TOYXv1RuUordaEV4gpx1E/UgOmVzFoIIIAAAvkWIMjJ9wwwPgIIIJAsgcVH57vwZOCh3laxraN1WNfa+u7vUe9eNj1rKqzDuuet3brnrGxne+t2oNwqj3St1xTkNHxP62l9baft1U/qfXU0jsbTuBpfIY7qYUEAAQQQQAABBBBAoBAECHIKYRZvvw9RuUoY5EzpMNvialED3r5c1kAAAQQQ8EGAIMeHWaAGBBBAIFkCOgOmfEN763Wgm7sXTknVT033tGl4L5zKfV3dpdF0ibQ2q5+19htaW6ctbazT9rbunjZ61Gu9r8+DS6lpu4Z9qX+No3vvaFyNz5k4yfq7oVoEEEAAAQQQQACBaAGCnGifQvk0KlchyCmUWWY/EEAAgZgFCHJiBqU7BBBAoEgEdE8anVXTdVep9T7YzUo3tXGXQutWU279j1be0voc6m6Veyus6+4yq9jRyTrv6Oge9Vrv6/PGtlN/usSa+tc4Gk/jck+cIvlDYzcRQAABBBBAAIEiEiDIKY7JJsgpjnlmLxFAAIFYBQhyYuWkMwQQQKCoBM5fP2ODt/W2bltKrfJAF+v2Zrl13NDanVlTsaOjVdZ2tb5He2TctJ221xk66k/9uv63lLrxNC4LAggggAACCCCAAAKFJkCQU2gz2vj+pBXkTG0/2+JqUQM2XiLvIoAAAgj4JkCQ49uMUA8CCCCQPIG1Z6qsQ3Vr67Ktk1UeqLAe+zpb6Za2VlL9rLVf97yVbW1nXWtKref+zta7tqv1PtzN+hzp7h71Wu/rc62n9bWdtlc/6k/9qn+Nw4IAAggggAACCCCAQKEKEOQU6szW36+oXCW8tFpcIY76iRqwfmm8QgABBBDwVYAgx9eZoS4EEEAgWQIf3/jI3bOm09o21mVLJ6uo6WQ9D3exbvvKrGxne+u4qcTarnvOhTTPVz3jLo+mR4U2el+faz2tr+20vfpRf7oXjvpnQQABBBBAAAEEEECgkAUIcgp5dm/uW1SuQpBz04lnCCCAAAIpAgQ5KRg8RQABBBCIRWBn3VYbtXuoC2sqNne08h3trKKmo3XdX2rda8ut56EK63m4wj3qtd7X5269zR3ddtpe/bAggAACCCCAAAIIIFAsAgQ5xTHTBDnFMc/sJQIIIBCrAEFOrJx0hgACCCCQIvDpjU+t9tp+e/3Eqza2ZoT12tTFOq5pYyVVz7qwRo96rff1udbT+tqOBQEEEEAAAQQQQACBYhMgyCmOGU8zyJllU9vH06IGLA5y9hIBBBBIvgBBTvLnkD1AAAEEEEAAAQQQQAABBBBAAIHkCxDkJH8O09mDqFwlvLTa5PazLK4WNWA6BbMOAggggED+BQhy8j8HVIAAAggggAACCCCAAAIIIIAAAggQ5BTH30BUrkKQUxx/A+wlAgggkLEAQU7GZGyAAAIIIIAAAggggAACCCCAAAIIxC5AkBM7qZcdphXkTGk3y+JqUQN6KURRCCCAAAK3CBDk3ELCGwgggAACCCCAAAIIIIAAAggggEDOBQhyck6elwGjcpXwjJy4Qhz1EzVgXgQYFAEEEEAgYwGCnIzJ2AABBBBAAAEEEEAAAQQQQAABBBCIXYAgJ3ZSLzuMylUIcrycMopCAAEE8i9AkJP/OaACBBBAAAEEEEAAAQQQQAABBBBAgCCnOP4GCHKKY57ZSwQQQCBWAYKcWDnpDAEEEEAAAQQQQAABBBBAAAEEEGiWAEFOs9gStxFBTuKmjIIRQACB/AsQ5OR/DqgAAQQQQAABBBBAAAEEEEAAAQQQIMgpjr8BgpzimGf2EgEEEIhVgCAnVk46QwABBBBAAAEEEEAAAQQQQAABBJolQJDTLLbEbUSQk7gpo2AEEEAg/wIEOfmfAypAAAEEEEAAAQQQQAABBBBAAAEECHKK428grSBnctuZFleLGrA4yNlLBBBAIPkCBDnJn0P2AAEEEIhL4NKlS9a6dWs7evRovS4///xzW7RokXXr1s211atX25dffllvndQXx44ds1atWtmuXbtS3+Y5AggggAACCCCAAAIIRAgQ5ETgFNBHUblKK+2nVogrxFE/UQMWkCu7ggACCBS0AEFOQU8vO4cAAgikLaBg5rHHHnMBzM6dO8PtPv74Y3vwwQfd+/fdd597VEjz1FNP2Y0bN8L1Up8EQU5qP6mf8xwBBBBAAAEEEEAAAQRuFSDIudWkEN+JylUIcgpxxtknBBBAIAYBgpwYEOkCAQQQKACBmTNnhiFNagCzZMkS9/6yZcvcXirwGTp0qHsvdb1UgiDI2bNnT+rbPEcAAQQQQAABBBBAAIEIAYKcCJwC+oggp4Amk11BAAEEciVAkJMracZBAAEE/BUIghedZaOzbVIDmgULFthdd91lH374YbgD586du2W98EMzC/pbvny5DRo0yK17xx132OLFi1NXs08++cRGjhzpPte4jz/+uB0/fjxcZ926ddaxY0d7//33w/fq6urs6aefDi//tnnzZquoqLAjR464s4S0D1988YXt27fPfvCDH4RjT5482b0fdsQTBBBAAAEEEEAAAQQ8EyDI8WxCslQOQU6WYOkWAQQQKGQBgpxCnl32DQEEELi9gC6d9sADD1hpaamdOnXqloAmOCNn06ZNYWcTJ0506x04cCB8L/VJEOQonFHfClG++93vum2CM3t0351HH33UvTdmzBh3D557773Xvd67d6/rTiHSnXfeaW+//XbY/aFDh9w6QdikdTRO0MrLy+306dPu9Q9/+ENT/ZWVle519+7dw354ggACCCCAAAIIIICAbwIEOb7NSHbqIcjJjiu9IoAAAgUtQJBT0NPLziGAAAK3FRgwYEB4xo3OhlEgEoQk2liBSxDC6B45Cla0Tu/evZvsOwhy2rRpE95H591337W7777bRo8e7bZ74403XD8bN24M+3nvvfdMYc4jjzzitmssyAn6DmpcuHCh66dfv37hWMF2H3zwQdj3uHHj7Dvf+Y7bn/BNniCAAAIIIIAAAggg4JEAQY5Hk5HFUghysohL1wgggEChChDkFOrMsl8IIIDA7QV0WTKFMrt27XIrByFJcEaM3qytrXUBjC6N1qtXL3fmjrbRmTaXLl1qdJCgnyBs0Uq6t85jjz0WBjnPPfecPfjgg7cEK7pXT3AWThDIpJ6R07BvraPadMm1YAnOIiopKXGh1DvvvBN8xCMCCCCAAAIIIIAAAt4KEOR4OzWxFpZekNNmpk2OqUUNGOue0RkCCCCAQNYECHKyRkvHCCCAgNcCuqSazrDRfWkUgpw/f96qq6tdsLNo0SIX0gThi86kuXbtWrg/uv+MwpyePXuG76U+aRi2BJ/p/jXBGTkKWXTmje5nk7roPjqZBjnB+kE/qnvo0KGuRtWp9tBDD9n27duDVXhEAAEEEEAAAQQQQMA7AYIc76YkKwVF5SqtNKJWmNRmZmwtasCs7CGdIoAAAgjELkCQEzspHSKAAAKJENBlxxTQBEFHw8d77rnHrl+/7i51pvvnNFwUyuhSZTdu3Gj4kaUT5Gj7xoIc3U8nCGYaOyPn5MmTrubgbJ/G1gkK+uSTT0z38Qn6VL9XrlwJPuYRAQQQQAABBBBAAAGvBAhyvJqOrBUTlasQ5GSNnY4RQACBZAsQ5CR7/qgeAQQQaInAhQsX3Jk3ukTa5cuXbcOGDS4kWbZsmb311lsWnLXz/e9/v15goxBI97LRWTU6+6Xhkk6Qo3vsBIFNsL36evTRR8N75MyfP9+to3vnBIsuvabQKSrI6dGjhz3xxBP1ajt06FC97YL+eEQAAQQQQAABBBBAwBcBghxfZiK7daQZ5MywSW3iaVEDZndX6R0BBBBAIC4Bgpy4JOkHAQQQSL5AEMAE98zRHo0cOdIFIJWVlXb27Fk7fvy4Pf300+69LVu2NLrTQT9B2BKslHpptVOnTrk+Hn74YTtx4oS9++671r17d/eeLvGmJbiHT1lZmRv75Zdfdp/fLsgJ7pEzb948e19H5/oAAAvjSURBVP/9902BVefOne2uu+5yZxkF9fCIAAIIIIAAAggggIBPAgQ5Ps1G9mqJylVSzsiJJ8RRGBQ1YPZ2k54RQAABBOIUIMiJU5O+EEAAgWQLBAFMapDz+eef25AhQ8IAJbgE2yuvvNLkzgb97N27t946qUGOPti2bdst/eosnGDRGTr9+/cP19EZPCtXrnRnAwUhUeo9dYLtdCZRmzZtwu1U8x133GFVVVXBKjwigAACCCCAAAIIIOCdAEGOd1OSlYKichWCnKyQ0ykCCCCQfAGCnOTPIXuAAAII5EJAlzfT2ThqurRaXMunn37q+lT4o3vyNLbovjbXrl0zhUqZLNpOZ/6o5s8++yyTTVkXAQQQQAABBBBAAIGcCxDk5Jw8LwMS5OSFnUERQACBZAsQ5CR7/qgeAQQQQAABBBBAAAEEEEAAAQQKQ4AgpzDm8XZ7kV6QUzLDJsXUoga8XbF8jgACCCDghwBBjh/zQBUIIIAAAggggAACCCCAAAIIIFDcAgQ5xTH/UbnKzUurxRTiKAyKGrA4yNlLBBBAIPkCBDnJn0P2AAEEEEAAAQQQQAABBBBAAAEEki9AkJP8OUxnD6JyFYKcdARZBwEEEChCAYKcIpx0dhkBBBBAAAEEEEAAAQQQQAABBLwTIMjxbkqyUlBaQc7EkhkWV4saMCt7SKcIIIAAArELEOTETkqHCCCAAAIIIIAAAggggAACCCCAQMYCBDkZkyVyg6hcJTwjJ64QR/1EDZhIQYpGAAEEilCAIKcIJ51dRgABBBBAAAEEEEAAAQQQQAAB7wQIcrybkqwUFJWrpAQ5021iSTwtasCs7CGdIoAAAgjELkCQEzspHSKAAAIIIIAAAggggAACCCCAAAIZCxDkZEyWyA2ichWCnEROKUUjgAAC2RcgyMm+MSMggAACCCCAAAIIIIAAAggggAACtxMgyLmdUGF8nl6Q03q6TYypRQ1YGKTsBQIIIFD4AgQ5hT/H7CECCCCAAAII/P/t3TtuFEEQBmAuyAWIsY1truPHWn5eg4CEU4CQyAg4AAIJ1GgceEi2PN6teXTPF7SEmJ2urq8r8q+1CRAgQIAAAQIEli8gyFn+HWWcMMpV+m/kJIU4XRgUFcxoyB4ECBAgML6AIGd8YxUIECBAgAABAgQIECBAgAABAs8JCHKeE2rjeZSrCHLauGNdECBAIF1AkJNOakMCBAgQIECAAAECBAgQIECAwIsFBDkvJqvyBUFOldfm0AQIEJhXQJAzr7/qBAgQIECAAAECBAgQIECAAIFOQJCzjjkQ5KzjnnVJgACBVAFBTiqnzQgQIECAAAECBAgQIECAAAECOwkIcnZiq+6lQUHO1fuHkrWigtXpOTABAgRWKiDIWenFa5sAAQIECBAgQIAAAQIECBBYlIAgZ1HXMdpholzl6W/kZIU43T5RwdG6tDEBAgQIpAoIclI5bUaAAAECBAgQIECAAAECBAgQ2ElAkLMTW3UvRblKH+ScPJSrpBUVrE7PgQkQILBSAUHOSi9e2wQIECBAgAABAgQIECBAgMCiBAQ5i7qO0Q4T5Sp9kHN6X66SVlRwtC5tTIAAAQKpAoKcVE6bESBAgAABAgQIECBAgAABAgR2EhDk7MRW3UtRriLIqe46HZgAAQLTCAhypnFWhQABAgQIECBAgAABAgQIECAQCQhyIp12ngly2rlLnRAgQGAyAUHOZNQKESBAgAABAgQIECBAgAABAgS2CghyttI09UCQ09R1aoYAAQLTCAhypnFWhQABAgQIECBAgAABAgQIECAQCQhyIp12ngly2rlLnRAgQGAyAUHOZNQKESBAgAABAgQIECBAgAABAgS2CghyttI09WBQkLM5vS9ZKyrYlKxmCBAg0LCAIKfhy9UaAQIECBAgQIAAAQIECBAgUI2AIKeaq9rroFGu8qrbufvA5vg+bUUF9+rEywQIECAwmYAgZzJqhQgQIECAAAECBAgQIECAAAECWwUEOVtpmnoQ5SqCnKauWjMECBDIE+iCnM8fXpdvn44sBmbADJgBM2AGzIAZMANmwAyYATNgBsyAGZhpBr5+fFN+fHnI+6GPnRYpIMhZ5LU4FAECBJYv8Pvn92IxMANmwAyYATNgBsyAGTADZsAMmAEzYAbMwLwz8PfPr+X/IMkJ9xIQ5OzF52UCBAgQIECAAAECBAgQIECAAAECBAgQIECAwHgCw4Kck7uySVpRwfHatDMBAgQIECBAgAABAgQIECBAgAABAgQIECBAoD6BKFfp/0ZOUojThUFRwfr4nJgAAQIECBAgQIAAAQIECBAgQIAAAQIECBAgMJ5AlKv0Qc67u7JJWlHB8dq0MwECBAgQIECAAAECBAgQIECAAAECBAgQIECgPoEoVxHk1HefTkyAAAECBAgQIECAAAECBAgQIECAAAECBAg0JDAoyLk8vitZKyrYkKtWCBAgQIAAAQIECBAgQIAAAQIECBAgQIAAAQJ7C0S5ytM3crJCnG6fqODe3diAAAECBAgQIECAAAECBAgQIECAAAECBAgQINCQQJSrCHIaumitECBAgAABAgQIECBAgAABAgQIECBAgAABAvUJCHLquzMnJkCAAAECBAgQIECAAAECBAgQIECAAAECBFYiIMhZyUVrkwABAgQIECBAgAABAgQIECBAgAABAgQIEKhPYFiQc3RbLpNWVLA+PicmQIAAAQIECBAgQIAAAQIECBAgQIAAAQIECIwnEOUq/d/ISQpxujAoKjhem3YmQIAAAQIECBAgQIAAAQIECBAgQIAAAQIECNQnEOUqgpz67tOJCRAgQIAAAQIECBAgQIAAAQIECBAgQIAAgYYEBgU5F0e3JWtFBRty1QoBAgQIECBAgAABAgQIECBAgAABAgQIECBAYG+BKFd5+kZOVojT7RMV3LsbGxAgQIAAAQIECBAgQIAAAQIECBAgQIAAAQIEGhKIchVBTkMXrRUCBAgQIECAAAECBAgQIECAAAECBAgQIECgPgFBTn135sQECBAgQIAAAQIECBAgQIAAAQIECBAgQIDASgSGBTmHt+UiaUUFV2KuTQIECBAgQIAAAQIECBAgQIAAAQIECBAgQIDAIIEoV+l/tVpSiNOFQVHBQSf2IQIECBAgQIAAAQIECBAgQIAAAQIECBAgQIDASgSiXEWQs5Ih0CYBAgQIECBAgAABAgQIECBAgAABAgQIECCwTIGBQc5NuTjMWVHBZRI5FQECBAgQIECAAAECBAgQIECAAAECBAgQIEBgHoEoV/nvGzk5IU4XBkUF5yFQlQABAgQIECBAgAABAgQIECBAgAABAgQIECCwTIEoV3kKcs6PbkrWigouk8ipCBAgQIAAAQIECBAgQIAAAQIECBAgQIAAAQLzCES5iiBnnjtRlQABAgQIECBAgAABAgQIECBAgAABAgQIECDwKDAsyDm4KedJKyroTggQIECAAAECBAgQIECAAAECBAgQIECAAAECBHqBKFfpv5GTFOJ0YVBUsD+WfxEgQIAAAQIECBAgQIAAAQIECBAgQIAAAQIECES5iiDHfBAgQIAAAQIECBAgQIAAAQIECBAgQIAAAQIEZhQQ5MyIrzQBAgQIECBAgAABAgQIECBAgAABAgQIECBAIBIQ5EQ6nhEgQIAAAQIECBAgQIAAAQIECBAgQIAAAQIEZhQQ5MyIrzQBAgQIECBAgAABAgQIECBAgAABAgQIECBAIBIYFOScHVyXrBUVjA7qGQECBAgQIECAAAECBAgQIECAAAECBAgQIEBgbQJRrvKqw+g+cPb2Om1FBdeGr18CBAgQIECAAAECBAgQIECAAAECBAgQIECAQCQQ5SqCnEjOMwIECBAgQIAAAQIECBAgQIAAAQIECBAgQIDAyAKCnJGBbU+AAAECBAgQIECAAAECBAgQIECAAAECBAgQ2FVgUJDTfchiYAbMgBkwA2bADJgBM2AGzIAZMANmwAyYATNgBsyAGTADZsAMmIHpZ2BbCPT4q9W2PfT/BAgQIECAAAECBAgQIECAAAECBAgQIECAAAEC8wn8A2tko8UrDnRaAAAAAElFTkSuQmCC;" vertex="1" parent="1K6O2Dw35ABuIPh_bq5r-1">
          <mxGeometry x="4" width="1650" height="1056" as="geometry" />
        </mxCell>
      </root>
    </mxGraphModel>
  </diagram>
</mxfile>
